<svg xmlns="http://www.w3.org/2000/svg" width="470" height="418" fill="none"><g filter="url(#a)" opacity=".7"><mask id="d" fill="#fff"><path d="M466.855 194.324c-.003 0-.005.003-.005.005-.001 9.609-1.051 19.177-3.33 28.475a105.317 105.317 0 0 1-3.6 11.68c-.26.7-.53 1.4-.8 2.09-.08.19-.15.38-.23.57a80.925 80.925 0 0 1-1.04 2.5c-.3.7-.61 1.4-.92 2.09-.14.31-.28.61-.42.91-.28.62-.57 1.23-.87 1.84-.31.65-.63 1.29-.95 1.93-.12.23-.23.46-.35.68-.28.55-.57 1.1-.85 1.65-.23.43-.46.85-.69 1.27-1.06 1.96-2.17 3.89-3.33 5.8-.47.78-.95 1.56-1.44 2.33-.11.19-.23.38-.35.57-.56.88-1.13 1.76-1.71 2.64-.47.71-.94 1.42-1.43 2.13-.42.62-.84 1.23-1.27 1.85-.09.13-.18.26-.28.39-.44.64-.9 1.28-1.35 1.92-.56.79-1.13 1.56-1.7 2.34-.12.16-.23.32-.35.47-.65.89-1.32 1.77-1.98 2.64-.4.52-.8 1.05-1.21 1.56-.72.95-1.46 1.89-2.21 2.83-.71.9-1.43 1.79-2.16 2.68-.08.1-.16.19-.24.29-.72.89-1.44 1.77-2.18 2.65-.21.27-.44.54-.66.8-.67.81-1.35 1.62-2.03 2.42-1.96 2.32-3.94 4.62-5.93 6.9-4.05 4.66-8.19 9.29-12.41 13.89-3.51 3.8-7.07 7.58-10.7 11.29-17.42 17.89-36.28 34.58-56.79 47.88-2.55 1.65-5.12 3.26-7.72 4.79-.95.56-1.9 1.12-2.85 1.67-.16.09-.33.19-.49.28-.98.56-1.96 1.11-2.95 1.65-1.01.56-2.02 1.11-3.04 1.64l-1.38.72c-1.99 1.04-4 2.04-6.03 3-1.09.52-2.18 1.02-3.28 1.51-1.01.46-2.03.91-3.05 1.35-.42.18-.83.36-1.25.53-.93.4-1.87.78-2.81 1.16-1.81.73-3.64 1.43-5.48 2.09-.7.26-1.41.51-2.12.76-.4.14-.8.27-1.2.41-.66.22-1.32.44-1.98.65-.56.187-1.13.364-1.691.541-.019.006-.039.014-.059.019l-.061.02c-1.12.347-2.24.683-3.359 1.01-1.79.52-3.58 1-5.38 1.46-1.19.3-2.38.58-3.58.85-1.13.26-2.26.5-3.4.74-.09.02-.18.04-.27.05a139.705 139.705 0 0 1-7.22 1.28c-.55.09-1.11.17-1.66.24-.67.1-1.35.19-2.02.28-7.11.91-14.24 1.29-21.37 1.21-.43 0-.85-.01-1.28-.02-6.46-.12-12.92-.62-19.35-1.45-.47-.06-.94-.12-1.41-.19-.81-.11-1.62-.22-2.43-.34l-1.89-.3c-2.67-.42-5.32-.9-7.97-1.44-.59-.11-1.17-.23-1.75-.36-1.78-.37-3.57-.77-5.34-1.19a204.225 204.225 0 0 1-5.32-1.33c-.59-.15-1.18-.31-1.77-.47-2.35-.63-4.69-1.31-7.02-2.02-2.71-.82-5.4-1.69-8.08-2.61-.97-.33-1.95-.67-2.92-1.01-3.01-1.07-6.02-2.2-8.99-3.37-.53-.21-1.07-.43-1.63-.66a65.662 65.662 0 0 1-2.19-.97c-1.94-.88-4.05-1.91-6.32-3.07-.38-.2-.77-.4-1.16-.6-1.39-.73-2.84-1.5-4.33-2.32-3.13-1.72-6.48-3.62-10-5.69-40.01-23.54-101.26-67.72-115.64-84.47-.73-.85-1.44-1.71-2.15-2.58-.55-.68-1.1-1.37-1.63-2.07-.49-.63-.97-1.26-1.44-1.91-.42-.56-.83-1.13-1.23-1.71-.38-.53-.76-1.07-1.13-1.61a.834.834 0 0 0-.08-.12c-.45-.67-.9-1.34-1.34-2.02-.42-.65-.84-1.3-1.24-1.96-.2-.31-.39-.63-.58-.95a129.67 129.67 0 0 1-1.33-2.24c-.46-.82-.92-1.64-1.37-2.47-.78-1.45-1.53-2.91-2.23-4.39-.18-.38-.36-.77-.54-1.15a91.469 91.469 0 0 1-3.74-9.29c-.39-1.1-.74-2.21-1.08-3.32a94.89 94.89 0 0 1-1.18-4.31c-.07-.29-.14-.57-.2-.86-.18-.75-.35-1.51-.5-2.27-.23-1.06-.43-2.12-.6-3.19-.04-.26-.09-.52-.12-.78-.09-.55-.17-1.1-.24-1.66-.09-.66-.17-1.33-.24-1.99-.03-.23-.05-.45-.07-.67-.06-.57-.1-1.14-.15-1.7 0-.093-.014-.187-.02-.28a45.204 45.204 0 0 1-.1-1.88v-.19c-.03-.71-.05-1.42-.06-2.13a68.494 68.494 0 0 1 .26-7.2c.12-1.34.28-2.68.48-4.01.1-.68.21-1.36.34-2.03.24-1.35.53-2.7.87-4.05.9-3.55 2.05-6.97 3.45-10.25a72.2 72.2 0 0 1 3.59-7.34c.1-.2.22-.41.34-.61 5.39-9.49 12.72-17.91 20.98-25.71.47-.45.94-.89 1.42-1.33l1.26-1.14c.95-.87 1.91-1.72 2.88-2.58.06-.05.12-.11.18-.16 1.55-1.36 3.12-2.7 4.71-4.03 2.45-2.05 4.94-4.06 7.45-6.06.08-.07.17-.13.25-.2 2.15-1.7 4.32-3.39 6.48-5.07 1.09-.84 2.17-1.68 3.26-2.52 2.31-1.78 4.62-3.56 6.89-5.34.89-.69 1.77-1.38 2.64-2.07.97-.76 1.92-1.52 2.87-2.28 8.96-7.18 16.68-14.82 23.86-22.64 1.39-1.52 2.77-3.05 4.14-4.59.65-.74 1.3-1.47 1.94-2.21 9.13-10.4 17.62-20.92 27.07-30.85 2.25-2.37 4.55-4.7 6.92-6.99 2-1.91 4.03-3.79 6.14-5.63 2.41-2.12 4.89-4.19 7.49-6.19 3.55-2.76 7.29-5.41 11.29-7.94.98-.63 1.95-1.24 2.93-1.84 99.71-61.97 173.1-41.74 222.06 0 3.69 3.13 7.25 6.4 10.66 9.78 2.08 2.01 4.09 4.09 6.04 6.19.22.22.42.45.63.69a180.999 180.999 0 0 1 5.15 5.73c.57.66 1.14 1.32 1.7 1.99.69.81 1.37 1.63 2.05 2.45.43.52.85 1.04 1.27 1.56 2.73 3.36 5.33 6.77 7.81 10.2.5.68.99 1.37 1.48 2.06 3.42 4.8 6.6 9.65 9.55 14.47.42.69.84 1.38 1.25 2.06.42.69.83 1.38 1.23 2.07.4.68.8 1.37 1.19 2.05.4.69.79 1.37 1.17 2.05.38.68.76 1.37 1.14 2.05.39.68.76 1.36 1.11 2.03.37.68.73 1.36 1.09 2.03.36.67.71 1.35 1.06 2.02.34.67.69 1.34 1.03 2 .34.67.67 1.34 1 2 1.32 2.64 2.56 5.25 3.73 7.82.58 1.3 1.16 2.59 1.71 3.86 2.49 5.72 4.62 11.19 6.36 16.28.021.044.028.094.044.14.161.466.313.923.466 1.38.17.5.33.99.49 1.48.12.38.25.75.36 1.13.18.56.36 1.12.53 1.69.19.61.37 1.22.54 1.83.33 1.12.65 2.24.95 3.37.26.95.51 1.9.75 2.86.05.18.1.35.14.53.04.15.07.3.11.45.14.56.28 1.12.41 1.69.36 1.49.69 2.99 1 4.49.17.82.34 1.63.49 2.45.03.15.06.3.09.46.15.77.29 1.54.42 2.31.18 1.03.35 2.07.5 3.1.13.78.24 1.57.35 2.36.01.11.03.23.05.35.07.52.14 1.05.2 1.58.06.44.11.88.16 1.31.18 1.59.34 3.17.47 4.76l.09 1.08.12 1.81c.04.67.08 1.34.11 2.02.03.52.05 1.03.07 1.55.03.76.05 1.53.06 2.29.02.879.03 1.767.03 2.655 0 .003-.002.005-.005.005Z"/></mask><path fill="url(#b)" fill-opacity=".35" d="M466.855 194.324c-.003 0-.005.003-.005.005-.001 9.609-1.051 19.177-3.33 28.475a105.317 105.317 0 0 1-3.6 11.68c-.26.7-.53 1.4-.8 2.09-.08.19-.15.38-.23.57a80.925 80.925 0 0 1-1.04 2.5c-.3.7-.61 1.4-.92 2.09-.14.31-.28.61-.42.91-.28.62-.57 1.23-.87 1.84-.31.65-.63 1.29-.95 1.93-.12.23-.23.46-.35.68-.28.55-.57 1.1-.85 1.65-.23.43-.46.85-.69 1.27-1.06 1.96-2.17 3.89-3.33 5.8-.47.78-.95 1.56-1.44 2.33-.11.19-.23.38-.35.57-.56.88-1.13 1.76-1.71 2.64-.47.71-.94 1.42-1.43 2.13-.42.62-.84 1.23-1.27 1.85-.09.13-.18.26-.28.39-.44.64-.9 1.28-1.35 1.92-.56.79-1.13 1.56-1.7 2.34-.12.16-.23.32-.35.47-.65.89-1.32 1.77-1.98 2.64-.4.52-.8 1.05-1.21 1.56-.72.95-1.46 1.89-2.21 2.83-.71.9-1.43 1.79-2.16 2.68-.08.1-.16.19-.24.29-.72.89-1.44 1.77-2.18 2.65-.21.27-.44.54-.66.8-.67.81-1.35 1.62-2.03 2.42-1.96 2.32-3.94 4.62-5.93 6.9-4.05 4.66-8.19 9.29-12.41 13.89-3.51 3.8-7.07 7.58-10.7 11.29-17.42 17.89-36.28 34.58-56.79 47.88-2.55 1.65-5.12 3.26-7.72 4.79-.95.56-1.9 1.12-2.85 1.67-.16.09-.33.19-.49.28-.98.56-1.96 1.11-2.95 1.65-1.01.56-2.02 1.11-3.04 1.64l-1.38.72c-1.99 1.04-4 2.04-6.03 3-1.09.52-2.18 1.02-3.28 1.51-1.01.46-2.03.91-3.05 1.35-.42.18-.83.36-1.25.53-.93.4-1.87.78-2.81 1.16-1.81.73-3.64 1.43-5.48 2.09-.7.26-1.41.51-2.12.76-.4.14-.8.27-1.2.41-.66.22-1.32.44-1.98.65-.56.187-1.13.364-1.691.541-.019.006-.039.014-.059.019l-.061.02c-1.12.347-2.24.683-3.359 1.01-1.79.52-3.58 1-5.38 1.46-1.19.3-2.38.58-3.58.85-1.13.26-2.26.5-3.4.74-.09.02-.18.04-.27.05a139.705 139.705 0 0 1-7.22 1.28c-.55.09-1.11.17-1.66.24-.67.1-1.35.19-2.02.28-7.11.91-14.24 1.29-21.37 1.21-.43 0-.85-.01-1.28-.02-6.46-.12-12.92-.62-19.35-1.45-.47-.06-.94-.12-1.41-.19-.81-.11-1.62-.22-2.43-.34l-1.89-.3c-2.67-.42-5.32-.9-7.97-1.44-.59-.11-1.17-.23-1.75-.36-1.78-.37-3.57-.77-5.34-1.19a204.225 204.225 0 0 1-5.32-1.33c-.59-.15-1.18-.31-1.77-.47-2.35-.63-4.69-1.31-7.02-2.02-2.71-.82-5.4-1.69-8.08-2.61-.97-.33-1.95-.67-2.92-1.01-3.01-1.07-6.02-2.2-8.99-3.37-.53-.21-1.07-.43-1.63-.66a65.662 65.662 0 0 1-2.19-.97c-1.94-.88-4.05-1.91-6.32-3.07-.38-.2-.77-.4-1.16-.6-1.39-.73-2.84-1.5-4.33-2.32-3.13-1.72-6.48-3.62-10-5.69-40.01-23.54-101.26-67.72-115.64-84.47-.73-.85-1.44-1.71-2.15-2.58-.55-.68-1.1-1.37-1.63-2.07-.49-.63-.97-1.26-1.44-1.91-.42-.56-.83-1.13-1.23-1.71-.38-.53-.76-1.07-1.13-1.61a.834.834 0 0 0-.08-.12c-.45-.67-.9-1.34-1.34-2.02-.42-.65-.84-1.3-1.24-1.96-.2-.31-.39-.63-.58-.95a129.67 129.67 0 0 1-1.33-2.24c-.46-.82-.92-1.64-1.37-2.47-.78-1.45-1.53-2.91-2.23-4.39-.18-.38-.36-.77-.54-1.15a91.469 91.469 0 0 1-3.74-9.29c-.39-1.1-.74-2.21-1.08-3.32a94.89 94.89 0 0 1-1.18-4.31c-.07-.29-.14-.57-.2-.86-.18-.75-.35-1.51-.5-2.27-.23-1.06-.43-2.12-.6-3.19-.04-.26-.09-.52-.12-.78-.09-.55-.17-1.1-.24-1.66-.09-.66-.17-1.33-.24-1.99-.03-.23-.05-.45-.07-.67-.06-.57-.1-1.14-.15-1.7 0-.093-.014-.187-.02-.28a45.204 45.204 0 0 1-.1-1.88v-.19c-.03-.71-.05-1.42-.06-2.13a68.494 68.494 0 0 1 .26-7.2c.12-1.34.28-2.68.48-4.01.1-.68.21-1.36.34-2.03.24-1.35.53-2.7.87-4.05.9-3.55 2.05-6.97 3.45-10.25a72.2 72.2 0 0 1 3.59-7.34c.1-.2.22-.41.34-.61 5.39-9.49 12.72-17.91 20.98-25.71.47-.45.94-.89 1.42-1.33l1.26-1.14c.95-.87 1.91-1.72 2.88-2.58.06-.05.12-.11.18-.16 1.55-1.36 3.12-2.7 4.71-4.03 2.45-2.05 4.94-4.06 7.45-6.06.08-.07.17-.13.25-.2 2.15-1.7 4.32-3.39 6.48-5.07 1.09-.84 2.17-1.68 3.26-2.52 2.31-1.78 4.62-3.56 6.89-5.34.89-.69 1.77-1.38 2.64-2.07.97-.76 1.92-1.52 2.87-2.28 8.96-7.18 16.68-14.82 23.86-22.64 1.39-1.52 2.77-3.05 4.14-4.59.65-.74 1.3-1.47 1.94-2.21 9.13-10.4 17.62-20.92 27.07-30.85 2.25-2.37 4.55-4.7 6.92-6.99 2-1.91 4.03-3.79 6.14-5.63 2.41-2.12 4.89-4.19 7.49-6.19 3.55-2.76 7.29-5.41 11.29-7.94.98-.63 1.95-1.24 2.93-1.84 99.71-61.97 173.1-41.74 222.06 0 3.69 3.13 7.25 6.4 10.66 9.78 2.08 2.01 4.09 4.09 6.04 6.19.22.22.42.45.63.69a180.999 180.999 0 0 1 5.15 5.73c.57.66 1.14 1.32 1.7 1.99.69.81 1.37 1.63 2.05 2.45.43.52.85 1.04 1.27 1.56 2.73 3.36 5.33 6.77 7.81 10.2.5.68.99 1.37 1.48 2.06 3.42 4.8 6.6 9.65 9.55 14.47.42.69.84 1.38 1.25 2.06.42.69.83 1.38 1.23 2.07.4.68.8 1.37 1.19 2.05.4.69.79 1.37 1.17 2.05.38.68.76 1.37 1.14 2.05.39.68.76 1.36 1.11 2.03.37.68.73 1.36 1.09 2.03.36.67.71 1.35 1.06 2.02.34.67.69 1.34 1.03 2 .34.67.67 1.34 1 2 1.32 2.64 2.56 5.25 3.73 7.82.58 1.3 1.16 2.59 1.71 3.86 2.49 5.72 4.62 11.19 6.36 16.28.021.044.028.094.044.14.161.466.313.923.466 1.38.17.5.33.99.49 1.48.12.38.25.75.36 1.13.18.56.36 1.12.53 1.69.19.61.37 1.22.54 1.83.33 1.12.65 2.24.95 3.37.26.95.51 1.9.75 2.86.05.18.1.35.14.53.04.15.07.3.11.45.14.56.28 1.12.41 1.69.36 1.49.69 2.99 1 4.49.17.82.34 1.63.49 2.45.03.15.06.3.09.46.15.77.29 1.54.42 2.31.18 1.03.35 2.07.5 3.1.13.78.24 1.57.35 2.36.01.11.03.23.05.35.07.52.14 1.05.2 1.58.06.44.11.88.16 1.31.18 1.59.34 3.17.47 4.76l.09 1.08.12 1.81c.04.67.08 1.34.11 2.02.03.52.05 1.03.07 1.55.03.76.05 1.53.06 2.29.02.879.03 1.767.03 2.655 0 .003-.002.005-.005.005Z" shape-rendering="crispEdges"/><path stroke="url(#c)" stroke-opacity=".25" stroke-width="4" d="M466.855 194.324c-.003 0-.005.003-.005.005-.001 9.609-1.051 19.177-3.33 28.475a105.317 105.317 0 0 1-3.6 11.68c-.26.7-.53 1.4-.8 2.09-.08.19-.15.38-.23.57a80.925 80.925 0 0 1-1.04 2.5c-.3.7-.61 1.4-.92 2.09-.14.31-.28.61-.42.91-.28.62-.57 1.23-.87 1.84-.31.65-.63 1.29-.95 1.93-.12.23-.23.46-.35.68-.28.55-.57 1.1-.85 1.65-.23.43-.46.85-.69 1.27-1.06 1.96-2.17 3.89-3.33 5.8-.47.78-.95 1.56-1.44 2.33-.11.19-.23.38-.35.57-.56.88-1.13 1.76-1.71 2.64-.47.71-.94 1.42-1.43 2.13-.42.62-.84 1.23-1.27 1.85-.09.13-.18.26-.28.39-.44.64-.9 1.28-1.35 1.92-.56.79-1.13 1.56-1.7 2.34-.12.16-.23.32-.35.47-.65.89-1.32 1.77-1.98 2.64-.4.52-.8 1.05-1.21 1.56-.72.95-1.46 1.89-2.21 2.83-.71.9-1.43 1.79-2.16 2.68-.08.1-.16.19-.24.29-.72.89-1.44 1.77-2.18 2.65-.21.27-.44.54-.66.8-.67.81-1.35 1.62-2.03 2.42-1.96 2.32-3.94 4.62-5.93 6.9-4.05 4.66-8.19 9.29-12.41 13.89-3.51 3.8-7.07 7.58-10.7 11.29-17.42 17.89-36.28 34.58-56.79 47.88-2.55 1.65-5.12 3.26-7.72 4.79-.95.56-1.9 1.12-2.85 1.67-.16.09-.33.19-.49.28-.98.56-1.96 1.11-2.95 1.65-1.01.56-2.02 1.11-3.04 1.64l-1.38.72c-1.99 1.04-4 2.04-6.03 3-1.09.52-2.18 1.02-3.28 1.51-1.01.46-2.03.91-3.05 1.35-.42.18-.83.36-1.25.53-.93.4-1.87.78-2.81 1.16-1.81.73-3.64 1.43-5.48 2.09-.7.26-1.41.51-2.12.76-.4.14-.8.27-1.2.41-.66.22-1.32.44-1.98.65-.56.187-1.13.364-1.691.541-.019.006-.039.014-.059.019l-.061.02c-1.12.347-2.24.683-3.359 1.01-1.79.52-3.58 1-5.38 1.46-1.19.3-2.38.58-3.58.85-1.13.26-2.26.5-3.4.74-.09.02-.18.04-.27.05a139.705 139.705 0 0 1-7.22 1.28c-.55.09-1.11.17-1.66.24-.67.1-1.35.19-2.02.28-7.11.91-14.24 1.29-21.37 1.21-.43 0-.85-.01-1.28-.02-6.46-.12-12.92-.62-19.35-1.45-.47-.06-.94-.12-1.41-.19-.81-.11-1.62-.22-2.43-.34l-1.89-.3c-2.67-.42-5.32-.9-7.97-1.44-.59-.11-1.17-.23-1.75-.36-1.78-.37-3.57-.77-5.34-1.19a204.225 204.225 0 0 1-5.32-1.33c-.59-.15-1.18-.31-1.77-.47-2.35-.63-4.69-1.31-7.02-2.02-2.71-.82-5.4-1.69-8.08-2.61-.97-.33-1.95-.67-2.92-1.01-3.01-1.07-6.02-2.2-8.99-3.37-.53-.21-1.07-.43-1.63-.66a65.662 65.662 0 0 1-2.19-.97c-1.94-.88-4.05-1.91-6.32-3.07-.38-.2-.77-.4-1.16-.6-1.39-.73-2.84-1.5-4.33-2.32-3.13-1.72-6.48-3.62-10-5.69-40.01-23.54-101.26-67.72-115.64-84.47-.73-.85-1.44-1.71-2.15-2.58-.55-.68-1.1-1.37-1.63-2.07-.49-.63-.97-1.26-1.44-1.91-.42-.56-.83-1.13-1.23-1.71-.38-.53-.76-1.07-1.13-1.61a.834.834 0 0 0-.08-.12c-.45-.67-.9-1.34-1.34-2.02-.42-.65-.84-1.3-1.24-1.96-.2-.31-.39-.63-.58-.95a129.67 129.67 0 0 1-1.33-2.24c-.46-.82-.92-1.64-1.37-2.47-.78-1.45-1.53-2.91-2.23-4.39-.18-.38-.36-.77-.54-1.15a91.469 91.469 0 0 1-3.74-9.29c-.39-1.1-.74-2.21-1.08-3.32a94.89 94.89 0 0 1-1.18-4.31c-.07-.29-.14-.57-.2-.86-.18-.75-.35-1.51-.5-2.27-.23-1.06-.43-2.12-.6-3.19-.04-.26-.09-.52-.12-.78-.09-.55-.17-1.1-.24-1.66-.09-.66-.17-1.33-.24-1.99-.03-.23-.05-.45-.07-.67-.06-.57-.1-1.14-.15-1.7 0-.093-.014-.187-.02-.28a45.204 45.204 0 0 1-.1-1.88v-.19c-.03-.71-.05-1.42-.06-2.13a68.494 68.494 0 0 1 .26-7.2c.12-1.34.28-2.68.48-4.01.1-.68.21-1.36.34-2.03.24-1.35.53-2.7.87-4.05.9-3.55 2.05-6.97 3.45-10.25a72.2 72.2 0 0 1 3.59-7.34c.1-.2.22-.41.34-.61 5.39-9.49 12.72-17.91 20.98-25.71.47-.45.94-.89 1.42-1.33l1.26-1.14c.95-.87 1.91-1.72 2.88-2.58.06-.05.12-.11.18-.16 1.55-1.36 3.12-2.7 4.71-4.03 2.45-2.05 4.94-4.06 7.45-6.06.08-.07.17-.13.25-.2 2.15-1.7 4.32-3.39 6.48-5.07 1.09-.84 2.17-1.68 3.26-2.52 2.31-1.78 4.62-3.56 6.89-5.34.89-.69 1.77-1.38 2.64-2.07.97-.76 1.92-1.52 2.87-2.28 8.96-7.18 16.68-14.82 23.86-22.64 1.39-1.52 2.77-3.05 4.14-4.59.65-.74 1.3-1.47 1.94-2.21 9.13-10.4 17.62-20.92 27.07-30.85 2.25-2.37 4.55-4.7 6.92-6.99 2-1.91 4.03-3.79 6.14-5.63 2.41-2.12 4.89-4.19 7.49-6.19 3.55-2.76 7.29-5.41 11.29-7.94.98-.63 1.95-1.24 2.93-1.84 99.71-61.97 173.1-41.74 222.06 0 3.69 3.13 7.25 6.4 10.66 9.78 2.08 2.01 4.09 4.09 6.04 6.19.22.22.42.45.63.69a180.999 180.999 0 0 1 5.15 5.73c.57.66 1.14 1.32 1.7 1.99.69.81 1.37 1.63 2.05 2.45.43.52.85 1.04 1.27 1.56 2.73 3.36 5.33 6.77 7.81 10.2.5.68.99 1.37 1.48 2.06 3.42 4.8 6.6 9.65 9.55 14.47.42.69.84 1.38 1.25 2.06.42.69.83 1.38 1.23 2.07.4.68.8 1.37 1.19 2.05.4.69.79 1.37 1.17 2.05.38.68.76 1.37 1.14 2.05.39.68.76 1.36 1.11 2.03.37.68.73 1.36 1.09 2.03.36.67.71 1.35 1.06 2.02.34.67.69 1.34 1.03 2 .34.67.67 1.34 1 2 1.32 2.64 2.56 5.25 3.73 7.82.58 1.3 1.16 2.59 1.71 3.86 2.49 5.72 4.62 11.19 6.36 16.28.021.044.028.094.044.14.161.466.313.923.466 1.38.17.5.33.99.49 1.48.12.38.25.75.36 1.13.18.56.36 1.12.53 1.69.19.61.37 1.22.54 1.83.33 1.12.65 2.24.95 3.37.26.95.51 1.9.75 2.86.05.18.1.35.14.53.04.15.07.3.11.45.14.56.28 1.12.41 1.69.36 1.49.69 2.99 1 4.49.17.82.34 1.63.49 2.45.03.15.06.3.09.46.15.77.29 1.54.42 2.31.18 1.03.35 2.07.5 3.1.13.78.24 1.57.35 2.36.01.11.03.23.05.35.07.52.14 1.05.2 1.58.06.44.11.88.16 1.31.18 1.59.34 3.17.47 4.76l.09 1.08.12 1.81c.04.67.08 1.34.11 2.02.03.52.05 1.03.07 1.55.03.76.05 1.53.06 2.29.02.879.03 1.767.03 2.655 0 .003-.002.005-.005.005Z" mask="url(#d)" shape-rendering="crispEdges"/></g><path fill="#30275B" d="M17.27 210.754c-.15-.22-.2-.13 0 0Z" opacity=".2"/><path fill="#000" d="M110.8 201.934c-1.02 6.8-6.04 12.33-12.57 14.47l-2.48.81c-8.92 12.63-24.56 18.02-37.89 10.19l-3.9-2.29-10.92-12.98-.13.03c-3.46.72-7.37.19-9.93-2.25-.41 2.14-3.2 3.4-5.07 2.3s-2.11-4.16-.44-5.55c-2.2 1.94-5.6 1.05-7.72-1.07-.09-5.79.52-11.58 1.95-17.29.9-3.55 2.05-6.97 3.45-10.25 1.06-2.53 2.26-4.96 3.59-7.34.1-.2.22-.41.34-.61 1.97-3.48 4.2-6.81 6.65-10.02l1.26-1.14c.95-.87 1.91-1.72 2.88-2.58.06-.05.12-.11.18-.16 1.55-1.36 3.12-2.7 4.71-4.03 2.45-2.05 4.94-4.06 7.45-6.06.08-.07.17-.13.25-.2 2.15-1.7 4.32-3.39 6.48-5.07 1.09-.84 2.17-1.68 3.26-2.52.66.08 1.3.23 1.92.45 2.67.93 3.13 3.38 4.98 5.06 2.46 2.25 4.82-1.53 8.61-1.41 11.65.36 7.13 12.31 12.82 10.81 24.57-6.48 20.44 24.95 9.76 31.85 6.3 5.22 11.73 8.67 10.51 16.85Z" opacity=".2"/><path fill="#D6CEF2" stroke="#30275B" stroke-miterlimit="10" d="M57.97 231.815c22.886 0 41.44-18.325 41.44-40.93s-18.554-40.93-41.44-40.93c-22.887 0-41.44 18.325-41.44 40.93s18.553 40.93 41.44 40.93Z"/><path fill="#30275B" stroke="#D6CEF2" stroke-miterlimit="10" d="M57.97 226.555c20.865 0 37.78-16.709 37.78-37.32 0-20.612-16.915-37.32-37.78-37.32-20.866 0-37.78 16.708-37.78 37.32 0 20.611 16.914 37.32 37.78 37.32Z"/><path fill="url(#e)" d="M17.37 203.944c-2.38 1.48-3.06 6.45-1.18 8.61 1.88 2.14 5.46.49 6.19-2.87.35.94 1.45 1.09 2.02.28.4-.58.42-1.48.14-2.1-.11-.26-.18-.15 0 0 1.22.97 3.32-.09 3.61-2.15-.89 5.5 4.11 10.3 7.79 7.5-1.09 2.34.34 5.41 2.24 6 1.9.59 3.94-.53 5.76-1.78 1.82-1.25 3.68-2.67 5.67-2.76 1.74-.08 3.34.9 4.99 1.48 5.26 1.83 11.42-.6 15.44-6.11 2.66 4.55 9.21 2.88 10.97-2.79.37 2.65 2.18 4.67 4.21 4.7 2.02.03 4.07-1.94 4.76-4.58v.03c.04 2.51 2.28 3.74 3.88 2.12 2.04-2.06 3.31-5.84 2.31-8.87 2.73-.11 5.36-3.27 5.78-6.93.42-3.66-1.43-7.33-4.06-8.05 4.51-1.87 8.05-8.02 8.22-14.29.16-6.26-3.06-12.09-7.49-13.55-1.69-.56-3.66-.45-5.09 1.06-.52-3.57-2.15-6.76-4.53-8.36-3.8-2.57-9.09-.81-11.92 3.97 1.38-2.47 1.47-6.04.22-8.38-1.26-2.33-3.75-3.27-5.87-2.16-.46-3.83-3.41-6.55-6.3-5.81-2.88.74-5.22 4.84-4.97 8.71-.27-3.12-3.95-3.89-5.28-1.27.11.24-.06.1 0 0-1.84-3.86-5.58-5.84-9.05-4.71-3.69 1.21-6.79 5.85-7.26 10.9-2.55-2.32-6.26-2.22-8.99.25-2.73 2.46-4.31 7.14-3.83 11.33-2.87-2.83-7.7-1.29-9.67 3.09-1.97 4.38-.61 10.59 2.71 12.42-2.29.35-4.31 3.39-4.31 6.47 0 3.09 2.03 5.72 4.33 5.64-2.32.2-4.5 2.94-4.84 6.05-.34 3.12 1.21 6.24 3.43 6.92l-.03-.01Z"/><g fill="#D6CEF2" opacity=".2"><path d="M55.46 189.605c-1.16-.97-2.64-1.44-4.05-1-1.41.44-2.71 1.91-3.03 3.72-.32 1.81.51 3.81 1.9 4.15 1.69.42 3.42-1.47 5.14-1.26.61.07 1.18.41 1.77.58 2.47.69 4.96-1.52 7.06-3.61.74-.73 1.49-1.49 1.99-2.49.5-1 .71-2.32.27-3.29-.61-1.35-2.11-1.46-3.36-1.2-2.52.52-4.96 1.96-6.97 4.1.07-.5.15-1.01.22-1.52l-.95 1.82h.01ZM91.58 184.675c-.66-.56-1.35-1.13-2.14-1.32-.8-.19-1.74.08-2.26.94-.71 1.17-.31 2.92.56 3.76.86.84 2.03 1.02 3.14 1.17 1.14.16 2.58.12 3.17-1.2.43-.96.12-2.18-.48-2.88-.6-.7-1.43-1-2.22-1.28l.24.81h-.01ZM35.04 164.245c-2.32 1.36-4.14 4.18-4.74 7.32-.18.95-.18 2.12.46 2.58.45.32 1.03.14 1.56-.05 2.21-.8 4.43-1.6 6.64-2.4-1.06.58-2.15 1.18-3.01 2.2-.86 1.01-1.45 2.54-1.2 3.92.29 1.62 1.68 2.54 3.01 2.44 1.33-.11 2.58-1.02 3.67-2.07 1.17-1.12 2.32-2.65 2.37-4.45.06-1.81-1.7-3.37-2.8-2.15 2.53-1.03 4.96-2.57 7.16-4.55.8-.72 1.58-1.52 2.1-2.57.51-1.06.71-2.42.27-3.45-2.16-5.09-5.15 2.75-6.56 3.52-2.66 1.46-5.56-2.26-8.93-.28v-.01ZM24.36 187.185c-.25 1.04-.11 2.26.53 2.88.64.62 1.8.33 2.12-.68-1.48.68-3.07 1.45-4.02 3.09-.95 1.64-.77 4.39.69 4.91.91.33 1.9-.31 2.75-.95 2.42-1.81 4.74-3.87 6.93-6.15-.69 1.97.85 4.06 2.49 4.14 1.64.08 3.19-1.15 4.62-2.32 1.75-1.44 3.77-3.61 3.36-6.09-.36-2.16-2.53-3-4.23-2.25-1.7.74-3 2.56-4.21 4.29.96-1.78-.31-4.25-1.93-4.43-1.57-.18-3.17 1.14-4.17 2.68 1.86-1.4 2.33-4.77-.12-5.01-1.6-.16-4.39 4.16-4.8 5.89h-.01ZM74.89 176.585c-1.37-.58-3.13.68-3.54 2.53-.41 1.85.63 3.87 2.09 4.07-1.08.18-2.12.93-2.83 2.03-.4.61-.7 1.38-.63 2.14a1.954 1.954 0 0 0 1.94 1.8c.9-.01 1.76-.55 2.59-1.08-.89.16-1.83.35-2.55 1.09-.72.74-1.05 2.23-.43 2.99.52.64 1.39.47 2.11.17 1.62-.67 3.14-1.84 4.38-3.37.89 1.24 2.23 2.09 3.59 1.72 1.35-.36 2.53-2.27 2.14-3.9a2.52 2.52 0 0 0-2.2-1.94c-.97-.09-1.94.31-2.88.75.96-.92 1.99-1.94 2.36-3.38.37-1.44-.34-3.3-1.51-3.11-1.31.21-2.02 2.52-3.06 3.4-1.24-1.44 1.2-4.75-1.57-5.91ZM51.49 171.105c-1.51 1.37-2.07 3.93-2.01 6.21.07 2.51.92 5.15 2.71 6.05 2.36 1.18 5.39-1.53 5.89-4.83s-1.13-6.53-3.41-7.92c0 0-1.68-.89-3.18.48v.01ZM68.21 167.355c.2.21.4.43.6.64-.98-1.57-3.12-1.66-4.34-.17-1.23 1.48-1.28 4.22-.12 5.57 1.17 1.35 3.31 1.02 4.36-.67 1.7.91 3.98.38 5.23-1.56 1.25-1.94 1.03-5.17-.6-6.27-1.63-1.09-4.18.85-4.04 3.25l-.7-.97-.39.18ZM86.54 170.015c-1.21 1.55-2.46 3.21-2.93 5.27-.47 2.06.2 4.61 1.79 5.04 1.58.42 3.13-1.35 4.07-3.15.85-1.63 1.51-3.63 1.07-5.4-.44-1.77-2.45-2.71-3.49-1.26l-.51-.5ZM60.25 159.335c-.57-1.67-2.46-2.15-3.73-1.09-1.27 1.07-1.77 3.32-1.25 5.03.51 1.71 1.89 2.8 3.35 2.91 1.8.14 3.98-1.85 3.61-4.09.76 1.26 2.15 1.7 3.43 1.46 1.29-.24 2.49-1.06 3.63-1.94 1.54-1.21 3.19-3.03 3.07-5.24-.1-1.76-1.41-3.05-2.8-3.13-1.39-.08-2.77.83-3.85 2.05-.85.96-1.56 2.12-2.48 2.97-.92.85-2.15 1.35-3.1.75l.13.32h-.01Z"/></g><path fill="url(#f)" stroke="#30275B" stroke-linecap="round" stroke-linejoin="round" d="M361.48 221.265H130.81v97.15h230.67v-97.15Z"/><path fill="#D6CEF2" stroke="#30275B" stroke-miterlimit="10" d="M157.33 227.135h-21.7v12.01h21.7v-12.01ZM356.14 285.705h-34.18v12.01h34.18v-12.01ZM356.14 242.145h-21.1v12.01h21.1v-12.01ZM157.33 270.885h-21.7v12.01h21.7v-12.01ZM153.2 256.425h-17.57v12.01h17.57v-12.01ZM147.64 241.775h-12.01v12.01h12.01v-12.01ZM162.98 241.775h-12.01v12.01h12.01v-12.01ZM178.31 241.775H166.3v12.01h12.01v-12.01ZM193.64 241.775h-12.01v12.01h12.01v-12.01ZM208.98 241.775h-12.01v12.01h12.01v-12.01ZM224.31 241.775H212.3v12.01h12.01v-12.01ZM239.64 241.775h-12.01v12.01h12.01v-12.01ZM254.98 241.775h-12.01v12.01h12.01v-12.01ZM270.31 241.775H258.3v12.01h12.01v-12.01ZM285.64 241.775h-12.01v12.01h12.01v-12.01ZM300.98 241.775h-12.01v12.01h12.01v-12.01ZM316.31 241.775H304.3v12.01h12.01v-12.01ZM331.65 241.775h-12.01v12.01h12.01v-12.01ZM147.64 300.515h-12.01v12.01h12.01v-12.01ZM162.98 300.515h-12.01v12.01h12.01v-12.01ZM178.31 300.515H166.3v12.01h12.01v-12.01ZM196.29 300.515h-14.66v12.01h14.66v-12.01ZM272.96 300.515h-73.35v12.01h73.35v-12.01ZM309.63 300.515h-12.01v12.01h12.01v-12.01ZM324.96 300.515h-12.01v12.01h12.01v-12.01ZM340.32 300.515h-12.01v12.01h12.01v-12.01ZM294.61 300.515h-18.65v12.01h18.65v-12.01ZM356.14 300.515h-12.01v12.01h12.01v-12.01ZM168.62 256.425h-12.01v12.01h12.01v-12.01ZM183.95 256.425h-12.01v12.01h12.01v-12.01ZM199.29 256.425h-12.01v12.01h12.01v-12.01ZM214.62 256.425h-12.01v12.01h12.01v-12.01ZM229.95 256.425h-12.01v12.01h12.01v-12.01ZM245.29 256.425h-12.01v12.01h12.01v-12.01ZM260.62 256.425h-12.01v12.01h12.01v-12.01ZM275.96 256.425h-12.01v12.01h12.01v-12.01ZM291.29 256.425h-12.01v12.01h12.01v-12.01ZM306.62 256.425h-12.01v12.01h12.01v-12.01ZM321.96 256.425h-12.01v12.01h12.01v-12.01ZM337.29 256.425h-12.01v12.01h12.01v-12.01ZM356.14 256.425v26.65h-12.01v-14.64h-3.52v-12.01h15.53ZM172.14 271.065h-12.01v12.01h12.01v-12.01ZM187.47 271.065h-12.01v12.01h12.01v-12.01ZM202.8 271.065h-12.01v12.01h12.01v-12.01ZM218.14 271.065h-12.01v12.01h12.01v-12.01ZM233.47 271.065h-12.01v12.01h12.01v-12.01ZM248.81 271.065H236.8v12.01h12.01v-12.01ZM264.14 271.065h-12.01v12.01h12.01v-12.01ZM279.47 271.065h-12.01v12.01h12.01v-12.01ZM294.81 271.065H282.8v12.01h12.01v-12.01ZM310.14 271.065h-12.01v12.01h12.01v-12.01ZM325.47 271.065h-12.01v12.01h12.01v-12.01ZM340.81 271.065H328.8v12.01h12.01v-12.01ZM165.62 285.705h-12.01v12.01h12.01v-12.01ZM180.95 285.705h-12.01v12.01h12.01v-12.01ZM196.29 285.705h-12.01v12.01h12.01v-12.01ZM211.62 285.705h-12.01v12.01h12.01v-12.01ZM226.95 285.705h-12.01v12.01h12.01v-12.01ZM242.29 285.705h-12.01v12.01h12.01v-12.01ZM257.62 285.705h-12.01v12.01h12.01v-12.01ZM272.96 285.705h-12.01v12.01h12.01v-12.01ZM288.29 285.705h-12.01v12.01h12.01v-12.01ZM303.62 285.705h-12.01v12.01h12.01v-12.01ZM318.96 285.705h-12.01v12.01h12.01v-12.01ZM172.14 227.865h-12.01v12.01h12.01v-12.01ZM187.47 227.865h-12.01v12.01h12.01v-12.01ZM202.8 227.865h-12.01v12.01h12.01v-12.01ZM218.14 227.865h-12.01v12.01h12.01v-12.01ZM233.47 227.865h-12.01v12.01h12.01v-12.01ZM248.81 227.865H236.8v12.01h12.01v-12.01ZM264.14 227.865h-12.01v12.01h12.01v-12.01ZM279.47 227.865h-12.01v12.01h12.01v-12.01ZM294.81 227.865H282.8v12.01h12.01v-12.01ZM310.14 227.865h-12.01v12.01h12.01v-12.01ZM325.47 227.865h-12.01v12.01h12.01v-12.01ZM340.81 227.865H328.8v12.01h12.01v-12.01ZM356.14 227.865h-12.01v12.01h12.01v-12.01ZM150.18 285.705h-14.55v12.01h14.55v-12.01Z"/><path fill="#30275B" d="m130.81 221.884 4.82-1.61h222.72l3.17 1.59-230.71.02Z"/><path fill="#000" d="m295.46 388.495-4.69-28.25a23.073 23.073 0 0 0-6.35-11.06c-9.33-9-21.66-18.24-22.19-30.04-.81-18.03-3.62-17.49-3.32-21.94.01-.16 1.4-2.15 3.21-6.6.58-1.44.97-3.58 1.36-5.34.4-1.85 2.16-3.11 4.04-2.85 1.26.17 2.5.74 3.39 1.59 1.71 1.66 2.47 4.11 2.54 6.5.07 2.38-.46 4.74-1 7.06 1.68 3.76 2.47 8.33 3.01 12.41 1.07-3.3 1.88-6.63 2.95-9.92.22-.12.14-.38.35-.5-1.51-3.24-.23-3.06-3.22-10.19-5.03-12-10.64-23.57-14.65-38.65-.32-1.17-.3-3.09.09-4.24 1.45-4.31 5.89-3.32 7.83-.81.52.66.9 1.4 1.2 2.18 2.05 5.37 6.42 13.65 9.57 18.45l10.89 16.6s3.79-3.11 4.37-4.5h.01c.57-1.41.85-12.68.85-12.68s-.86 2.11-2.77 1.99c-1.38-.1-4.18.7-6.17-1.54-1.63-1.83-1.63-4.58-.18-6.54l4.93-6.66s3.31-2.9 7.74-.93c4.42 1.98 8.71 6.1 8.71 6.1s4.1-.21 7.58 1.46c3.49 1.68 7.15 6.5 7.15 6.5s4.07.25 5.9 1.58c.46.33 6.67 10 4.43 17.53-1.33 4.49-2.15 11.01-2.75 12.76l-3.05 44.09 6.15 29.02-13.15 7.33c-4.84 2.7-9.9 4.96-15.13 6.77l-9.63 3.32Z" opacity=".2"/><path fill="#D6CEF2" d="m332.801 336.974.12-44.2c.48-1.79.87-8.35 1.89-12.92 1.73-7.66-5.1-16.9-5.59-17.2-1.92-1.2-5.99-1.18-5.99-1.18s-3.97-4.57-7.57-6.01c-3.58-1.43-7.66-.95-7.66-.95s-4.55-3.83-9.1-5.51c-4.55-1.67-7.66 1.44-7.66 1.44l-4.47 6.97c-1.32 2.05-1.13 4.8.61 6.52 2.14 2.11 4.88 1.12 6.26 1.12 1.92 0 2.63-2.16 2.63-2.16s.47 11.26 0 12.69h-.01c-.49 1.44-4.07 4.79-4.07 4.79l-11.96-15.84c-3.47-4.58-8.38-12.55-10.78-17.77-.35-.76-.781-1.48-1.351-2.1-2.1-2.38-6.589-3.07-7.759 1.33-.31 1.18-.2 3.09.19 4.24 5.01 14.78 11.37 25.95 17.18 37.59 3.46 6.91 2.169 6.83 3.889 9.95-.2.14-.109.4-.319.52-.85 3.36-1.43 6.73-2.28 10.09-.81-4.03-1.9-8.54-3.83-12.18.39-2.35.76-4.74.52-7.12-.22-2.38-1.14-4.77-2.96-6.31-.94-.79-2.22-1.27-3.49-1.36-1.89-.14-3.56 1.24-3.84 3.11-.27 1.78-.51 3.94-1.01 5.41-1.51 4.56-2.76 6.63-2.76 6.79 0 4.46 2.76 3.73 4.77 21.68 1.56 13.97 19.56 23.21 29.36 33.3l10.44 32.85c12.12-4.86 23.72-11.08 34.85-18.3l-8.291-29.31.041.03Z"/><mask id="g" width="82" height="143" x="260" y="242" maskUnits="userSpaceOnUse" style="mask-type:luminance"><path fill="#fff" d="m332.801 336.974.12-44.2c.48-1.79.87-8.35 1.89-12.92 1.73-7.66-5.1-16.9-5.59-17.2-1.92-1.2-5.99-1.18-5.99-1.18s-3.97-4.57-7.57-6.01c-3.58-1.43-7.66-.95-7.66-.95s-4.55-3.83-9.1-5.51c-4.55-1.67-7.66 1.44-7.66 1.44l-4.47 6.97c-1.32 2.05-1.13 4.8.61 6.52 2.14 2.11 4.88 1.12 6.26 1.12 1.92 0 2.63-2.16 2.63-2.16s.47 11.26 0 12.69h-.01c-.49 1.44-4.07 4.79-4.07 4.79l-11.96-15.84c-3.47-4.58-8.38-12.55-10.78-17.77-.35-.76-.781-1.48-1.351-2.1-2.1-2.38-6.589-3.07-7.759 1.33-.31 1.18-.2 3.09.19 4.24 5.01 14.78 11.37 25.95 17.18 37.59 3.46 6.91 2.169 6.83 3.889 9.95-.2.14-.109.4-.319.52-.85 3.36-1.43 6.73-2.28 10.09-.81-4.03-1.9-8.54-3.83-12.18.39-2.35.76-4.74.52-7.12-.22-2.38-1.14-4.77-2.96-6.31-.94-.79-2.22-1.27-3.49-1.36-1.89-.14-3.56 1.24-3.84 3.11-.27 1.78-.51 3.94-1.01 5.41-1.51 4.56-2.76 6.63-2.76 6.79 0 4.46 2.76 3.73 4.77 21.68 1.56 13.97 19.56 23.21 29.36 33.3l10.44 32.85c12.12-4.86 23.72-11.08 34.85-18.3l-8.291-29.31.041.03Z"/></mask><g mask="url(#g)"><path fill="url(#h)" d="M327.68 276.914c.53-1.3 1.16-2.64 2.3-3.47 1.14-.83 2.92-.93 3.83.14-.75-2.29-1.54-4.57-2.38-6.83-.64-1.72-1.36-3.509-2.78-4.679-1.42-1.17-3.76-1.41-4.98-.03.87 5.22.96 10.559.28 15.799-.37 2.84-.85 6.1 1.07 8.24.53.43 1.44-.34 1.11-.93-.16-.28-.72-.299-.97-.269.61-2.71 1.48-5.38 2.53-7.96l-.01-.011Z"/><path fill="url(#i)" d="M327.68 276.914c.53-1.3 1.16-2.64 2.3-3.47 1.14-.83 2.92-.93 3.83.14-.75-2.29-1.54-4.57-2.38-6.83-.64-1.72-1.36-3.509-2.78-4.679-1.42-1.17-3.76-1.41-4.98-.03.87 5.22.96 10.559.28 15.799-.37 2.84-.85 6.1 1.07 8.24.53.43 1.44-.34 1.11-.93-.16-.28-.72-.299-.97-.269.61-2.71 1.48-5.38 2.53-7.96l-.01-.011Z"/><path fill="#D6CEF2" d="M327.68 276.914c.53-1.3 1.16-2.64 2.3-3.47 1.14-.83 2.92-.93 3.83.14-.75-2.29-1.54-4.57-2.38-6.83-.64-1.72-1.36-3.509-2.78-4.679-1.42-1.17-3.76-1.41-4.98-.03.87 5.22.96 10.559.28 15.799-.37 2.84-.85 6.1 1.07 8.24.53.43 1.44-.34 1.11-.93-.16-.28-.72-.299-.97-.269.61-2.71 1.48-5.38 2.53-7.96l-.01-.011Z" opacity=".5"/><path fill="url(#j)" d="M311.72 272.165c.08 1.92.06 3.87.54 5.74.47 1.87 1.51 3.68 3.2 4.62-.99-3.73-.46-7.67.09-11.49l.99-6.96c.11-.81.24-1.65.71-2.31.47-.66 1.37-1.11 2.11-.77-.99.59-2.27-.2-2.87-1.18-.6-.98-.83-2.17-1.54-3.07-1.34-1.72-4.2-2.1-6.17-1.64.6 5.71 2.72 11.17 2.95 17.07l-.01-.01Z"/><path fill="url(#k)" d="M311.72 272.165c.08 1.92.06 3.87.54 5.74.47 1.87 1.51 3.68 3.2 4.62-.99-3.73-.46-7.67.09-11.49l.99-6.96c.11-.81.24-1.65.71-2.31.47-.66 1.37-1.11 2.11-.77-.99.59-2.27-.2-2.87-1.18-.6-.98-.83-2.17-1.54-3.07-1.34-1.72-4.2-2.1-6.17-1.64.6 5.71 2.72 11.17 2.95 17.07l-.01-.01Z"/><path fill="#D6CEF2" d="M311.72 272.165c.08 1.92.06 3.87.54 5.74.47 1.87 1.51 3.68 3.2 4.62-.99-3.73-.46-7.67.09-11.49l.99-6.96c.11-.81.24-1.65.71-2.31.47-.66 1.37-1.11 2.11-.77-.99.59-2.27-.2-2.87-1.18-.6-.98-.83-2.17-1.54-3.07-1.34-1.72-4.2-2.1-6.17-1.64.6 5.71 2.72 11.17 2.95 17.07l-.01-.01Z" opacity=".5"/><path fill="url(#l)" d="M295.401 256.754c-.65-.47-.86-1.33-1.05-2.1-.19-.78-.47-1.63-1.17-2.02-3.07 1.95-1.39 7.66-4.5 9.55-.6.37-1.37.57-1.7 1.19-.3.56-.11 1.3.33 1.76.44.46 1.07.69 1.7.81 2.47.44 5.07-.82 6.55-2.85 1.22-1.67 2.06-4.38 1.46-6.37-.47.26-1.14.36-1.6.02l-.02.01Z"/><path fill="url(#m)" d="M263.471 294.134c-.06.21-.1.48.08.62.26.22.61-.12.81-.4 1.29-1.83 3.84-2.66 5.96-1.93.81-.02 1.08-1.25.55-1.86-.53-.61-1.43-.72-2.24-.72-.81 0-1.68.04-2.36-.39-.84-.53-1.17-1.6-.96-2.52-.54 2.41-1.22 4.8-1.84 7.2Z"/><g fill="#D6CEF2" opacity=".5"><path d="M295.401 256.754c-.65-.47-.86-1.33-1.05-2.1-.19-.78-.47-1.63-1.17-2.02-3.07 1.95-1.39 7.66-4.5 9.55-.6.37-1.37.57-1.7 1.19-.3.56-.11 1.3.33 1.76.44.46 1.07.69 1.7.81 2.47.44 5.07-.82 6.55-2.85 1.22-1.67 2.06-4.38 1.46-6.37-.47.26-1.14.36-1.6.02l-.02.01ZM263.471 294.134c-.06.21-.1.48.08.62.26.22.61-.12.81-.4 1.29-1.83 3.84-2.66 5.96-1.93.81-.02 1.08-1.25.55-1.86-.53-.61-1.43-.72-2.24-.72-.81 0-1.68.04-2.36-.39-.84-.53-1.17-1.6-.96-2.52-.54 2.41-1.22 4.8-1.84 7.2Z"/></g><path fill="url(#n)" d="M304.18 255.994c-1.75-.23-3.6-.28-5.12-1.17-1.91-1.12-3.21-3.51-5.42-3.6-1.96-.09-3.42 1.71-4.54 3.33-.13-2.44 1.67-4.72 3.94-5.63 2.27-.91 4.88-.62 7.15.28 2.27.9 4.27 2.37 6.21 3.86.78.6 1.57 1.22 2.1 2.05 2.47 3.88-2.76 1.08-4.3.88h-.02Z"/><path fill="#D6CEF2" d="M304.18 255.994c-1.75-.23-3.6-.28-5.12-1.17-1.91-1.12-3.21-3.51-5.42-3.6-1.96-.09-3.42 1.71-4.54 3.33-.13-2.44 1.67-4.72 3.94-5.63 2.27-.91 4.88-.62 7.15.28 2.27.9 4.27 2.37 6.21 3.86.78.6 1.57 1.22 2.1 2.05 2.47 3.88-2.76 1.08-4.3.88h-.02Z" opacity=".5"/><path fill="url(#o)" d="M272.911 312.785c.12-.22.22-.44.33-.67-.21.16-.35.38-.33.67Z"/><path fill="url(#p)" d="M275.881 297.295c-.2-2.47.15-4.94.05-7.41-.1-2.47-.75-5.07-2.55-6.77-2.58-2.43-9.65-1.19-7.28 3.43.66 1.28 2.35 1.94 3.67 1.37 1.32-.57 1.97-2.37 1.25-3.61 2.86 4.33 2.6 10.49-.61 14.57 3.66 3.17 4.83 8.86 2.82 13.25.43-.33 1.18-.37 1.64-.02.7.53.93 1.45 1.28 2.26.34.81 1 1.65 1.88 1.59 1.2-2.94.8-6.3.02-9.38-.78-3.08-1.93-6.1-2.18-9.27l.01-.01Z"/><path fill="url(#q)" d="M301.751 250.925c-1.38-1.05-3.01-1.77-4.73-1.99l4.73 1.99Z"/><path fill="url(#r)" d="M313.511 282.215c-.38-1.7-1.16-3.28-1.63-4.96-1.09-3.91-.41-8.09-.91-12.12-.65-5.21-3.36-10.13-7.43-13.46l-1.79-.76c1.71 1.31 3.03 3.16 3.6 5.24 1.38 4.77 1.82 9.76 2.43 14.7.95 7.61 2.34 15.16 4.16 22.61 1.19-3.65 2.4-7.51 1.56-11.26l.01.01Z"/><path fill="url(#s)" d="M294.47 264.425c1.24-.98 1.9-2.54 2.11-4.11.19-1.4.05-2.82-.11-4.22-.12.6-.9 1.11-1.57.95-.85-.2-1.41-.99-1.89-1.72-.12.42-.24.84-.37 1.26l-.15-.68-.47.6c.71 2.01 1.39 4.34.3 6.16-.53.88-1.4 1.5-2.25 2.08 1.29.9 3.17.65 4.41-.33l-.01.01Z"/><path fill="url(#t)" d="m296.41 255.595.06.5c.03-.16.03-.33-.06-.5Z"/><path fill="url(#u)" d="M291.181 275.835c-3.51-6.89-7.02-13.78-10.87-20.48-2.25-3.92-4.64-7.79-7.65-11.16-1.33-1.5-5.16-4.96-7.27-2.68-1.41 1.52.44 4.29-1.29 5.93.4.02 2.35-.19 2.56.07 4.39 5.43 6.81 12.41 6.71 19.39 1.41-1.11 3.34.43 4.45 1.85 6.77 8.71 13.11 17.76 18.97 27.1-1.14-4.13-1.16-8.51-2.39-12.62-.77-2.58-2-5-3.22-7.4Z"/><path fill="url(#v)" d="M331.92 292.624c1.68-4.48 2.98-9.08 3.13-13.84.13-4.33-.85-8.82-3.14-12.52-.58-.94-2.98-4.77-4.3-4.46-2.35.56.74 4.64 1.27 5.66 2.03 3.85 4.11 7.92 3.98 12.27-.1 3.35-1.51 6.5-2.64 9.66-.79 2.2-1.43 4.55-1.41 6.86-.17.26-.33.52-.52.77-1.56 2.04-3.75 3.73-6.28 4.14.97-2.98 1.93-5.97 2.9-8.95.34-1.06.47-2.52-.15-3.26.2-.41.32-.84.31-1.3-.03-.82-.5-1.55-.85-2.3-1.34-2.88-.88-6.23-.56-9.39.4-3.9.55-7.91-.59-11.66-1.14-3.75-3.79-7.23-7.51-8.47.32.34.64.69.95 1.03l-1.26-.92c.78 1.62 1.56 3.25 2.34 4.88-.29.41-.58.82-.86 1.23 1.29-.68 2.94.3 3.53 1.64.59 1.33.43 2.86.29 4.31-.76 8.09-.35 16.28 1.18 24.26-.15 1.86-.47 3.75-1.44 5.34-1.05 1.71-3.01 3-5 2.71.44-1.92-.3-4.19-1.93-5.33-2.02 2.8-.83 7.15-.52 10.34.47 4.83 1.24 9.63 2.32 14.36.31-4.1 1.17-8.16 2.55-12.04 1.09 3.95 2.18 7.9 3.26 11.85.03-1.11.08-2.26.62-3.23.54-.97 1.73-1.67 2.76-1.28.85.32 1.31 1.22 1.65 2.06a36.748 36.748 0 0 1 2.01 21.63c1.34.75 3.12-.16 3.86-1.5.74-1.34.74-2.96.71-4.5-.23-13.34-.47-26.68-.7-40.02l.04-.03Z"/><path fill="url(#w)" d="M298.021 296.855c-.64 1.12 1.98 5.58 2.41 6.64 2.2 5.38 4.41 10.76 6.61 16.14a75.935 75.935 0 0 0-5.13-20.67c-.45-1.12-2.63-4.34-3.9-2.11h.01Z"/><path fill="url(#x)" d="M301.44 268.335c-.38.57-.91 1.27-1.56 1.07-.61-.19-.71-.99-.7-1.62l.18-11.23c-3.02 2.17-2.63 5.01-2.85 8.24-.12 1.87.42 10.8-.86 11.89 2.99-2.55 5.52-5.63 7.44-9.06-.52-.43-1.28.15-1.65.71Z"/><g fill="#D6CEF2" opacity=".5"><path d="M272.911 312.785c.12-.22.22-.44.33-.67-.21.16-.35.38-.33.67Z"/><path d="M275.881 297.295c-.2-2.47.15-4.94.05-7.41-.1-2.47-.75-5.07-2.55-6.77-2.58-2.43-9.65-1.19-7.28 3.43.66 1.28 2.35 1.94 3.67 1.37 1.32-.57 1.97-2.37 1.25-3.61 2.86 4.33 2.6 10.49-.61 14.57 3.66 3.17 4.83 8.86 2.82 13.25.43-.33 1.18-.37 1.64-.02.7.53.93 1.45 1.28 2.26.34.81 1 1.65 1.88 1.59 1.2-2.94.8-6.3.02-9.38-.78-3.08-1.93-6.1-2.18-9.27l.01-.01ZM301.751 250.925c-1.38-1.05-3.01-1.77-4.73-1.99l4.73 1.99ZM313.511 282.215c-.38-1.7-1.16-3.28-1.63-4.96-1.09-3.91-.41-8.09-.91-12.12-.65-5.21-3.36-10.13-7.43-13.46l-1.79-.76c1.71 1.31 3.03 3.16 3.6 5.24 1.38 4.77 1.82 9.76 2.43 14.7.95 7.61 2.34 15.16 4.16 22.61 1.19-3.65 2.4-7.51 1.56-11.26l.01.01ZM294.47 264.425c1.24-.98 1.9-2.54 2.11-4.11.19-1.4.05-2.82-.11-4.22-.12.6-.9 1.11-1.57.95-.85-.2-1.41-.99-1.89-1.72-.12.42-.24.84-.37 1.26l-.15-.68-.47.6c.71 2.01 1.39 4.34.3 6.16-.53.88-1.4 1.5-2.25 2.08 1.29.9 3.17.65 4.41-.33l-.01.01Z"/><path d="m296.41 255.595.06.5c.03-.16.03-.33-.06-.5ZM291.181 275.835c-3.51-6.89-7.02-13.78-10.87-20.48-2.25-3.92-4.64-7.79-7.65-11.16-1.33-1.5-5.16-4.96-7.27-2.68-1.41 1.52.44 4.29-1.29 5.93.4.02 2.35-.19 2.56.07 4.39 5.43 6.81 12.41 6.71 19.39 1.41-1.11 3.34.43 4.45 1.85 6.77 8.71 13.11 17.76 18.97 27.1-1.14-4.13-1.16-8.51-2.39-12.62-.77-2.58-2-5-3.22-7.4ZM331.92 292.624c1.68-4.48 2.98-9.08 3.13-13.84.13-4.33-.85-8.82-3.14-12.52-.58-.94-2.98-4.77-4.3-4.46-2.35.56.74 4.64 1.27 5.66 2.03 3.85 4.11 7.92 3.98 12.27-.1 3.35-1.51 6.5-2.64 9.66-.79 2.2-1.43 4.55-1.41 6.86-.17.26-.33.52-.52.77-1.56 2.04-3.75 3.73-6.28 4.14.97-2.98 1.93-5.97 2.9-8.95.34-1.06.47-2.52-.15-3.26.2-.41.32-.84.31-1.3-.03-.82-.5-1.55-.85-2.3-1.34-2.88-.88-6.23-.56-9.39.4-3.9.55-7.91-.59-11.66-1.14-3.75-3.79-7.23-7.51-8.47.32.34.64.69.95 1.03l-1.26-.92c.78 1.62 1.56 3.25 2.34 4.88-.29.41-.58.82-.86 1.23 1.29-.68 2.94.3 3.53 1.64.59 1.33.43 2.86.29 4.31-.76 8.09-.35 16.28 1.18 24.26-.15 1.86-.47 3.75-1.44 5.34-1.05 1.71-3.01 3-5 2.71.44-1.92-.3-4.19-1.93-5.33-2.02 2.8-.83 7.15-.52 10.34.47 4.83 1.24 9.63 2.32 14.36.31-4.1 1.17-8.16 2.55-12.04 1.09 3.95 2.18 7.9 3.26 11.85.03-1.11.08-2.26.62-3.23.54-.97 1.73-1.67 2.76-1.28.85.32 1.31 1.22 1.65 2.06a36.748 36.748 0 0 1 2.01 21.63c1.34.75 3.12-.16 3.86-1.5.74-1.34.74-2.96.71-4.5-.23-13.34-.47-26.68-.7-40.02l.04-.03ZM298.021 296.855c-.64 1.12 1.98 5.58 2.41 6.64 2.2 5.38 4.41 10.76 6.61 16.14a75.935 75.935 0 0 0-5.13-20.67c-.45-1.12-2.63-4.34-3.9-2.11h.01ZM301.44 268.335c-.38.57-.91 1.27-1.56 1.07-.61-.19-.71-.99-.7-1.62l.18-11.23c-3.02 2.17-2.63 5.01-2.85 8.24-.12 1.87.42 10.8-.86 11.89 2.99-2.55 5.52-5.63 7.44-9.06-.52-.43-1.28.15-1.65.71Z"/></g></g><path fill="#D6CEF2" d="M264.701 293.584c-1.16.92-2.16 2.04-2.93 3.3l2.93-3.3Z"/><path stroke="#30275B" stroke-miterlimit="10" d="m306.24 384.584-10.441-32.85c-9.8-10.09-27.799-19.33-29.359-33.3-2.01-17.94-4.771-17.22-4.771-21.68 0-.16 1.251-2.24 2.761-6.79.49-1.48.74-3.64 1.01-5.41.28-1.87 1.95-3.25 3.84-3.11 1.27.09 2.549.57 3.489 1.36 1.82 1.54 2.74 3.94 2.96 6.31.24 2.38-.139 4.76-.519 7.12 1.93 3.64 3.019 8.14 3.829 12.18.85-3.36 1.43-6.73 2.28-10.09.21-.13.12-.39.32-.52-1.72-3.12-.439-3.04-3.889-9.95-5.81-11.64-12.181-22.81-17.181-37.59-.4-1.14-.499-3.06-.189-4.24 1.17-4.4 5.659-3.7 7.759-1.33.57.62 1.001 1.34 1.351 2.1 2.4 5.22 7.31 13.19 10.78 17.77l11.959 15.84s3.57-3.35 4.07-4.78h.011c.47-1.44 0-12.7 0-12.7s-.72 2.16-2.63 2.16c-1.38 0-4.121.98-6.261-1.12-1.74-1.71-1.929-4.46-.609-6.52l4.47-6.97s3.11-3.11 7.66-1.44c4.55 1.68 9.099 5.51 9.099 5.51s4.08-.48 7.66.95c3.6 1.44 7.571 6.01 7.571 6.01s4.079-.02 5.989 1.18c.48.3 7.32 9.53 5.59 17.2-1.03 4.57-1.409 11.13-1.889 12.92l-.12 44.2 8.29 29.31"/><path stroke="#30275B" stroke-miterlimit="10" d="M309.1 256.094a78.746 78.746 0 0 1 2.73 20.02c0 1.13 0 2.29.36 3.36.36 1.07 1.19 2.06 2.29 2.29M323.239 262.664c2.97 6.26-.07 20.24.15 21.23.22.99.79 1.94 1.69 2.4M297.459 255.234c-.35 1.99-.64 4.3-.99 6.29-2.32-1.98-3.8-4.92-4.01-7.96M278.299 308.594c-.72.32-1.44.63-2.16.95M278.849 310.324c-.35 1.66-.36 3.39-.02 5.06M291.489 291.634c.8 1.44 1.6 2.87 2.39 4.31M296.079 275.864c.79-1.12 1.59-2.24 2.38-3.36M329.559 291.634c-.24.88-.48 1.76-.72 2.63"/><path stroke="#30275B" stroke-miterlimit="10" d="M323.739 284.424c.7-2.24 1.4-4.48 2.11-6.72M330.779 272.514c1.24-.72 3.03-.16 3.64 1.13M316.399 261.034c1.65-.48 3.54-.05 4.82 1.1M271.869 267.704c1.54-1.71 3.92-2.61 6.21-2.34M262.84 248.834a6.698 6.698 0 0 1 5.04-1.18M264.7 293.584c-1.16.92-2.16 2.04-2.93 3.3M265.659 289.044c1.58-1.13 4.1 1.4 5.55.11.58-.51.62-1.4.49-2.17-.13-.76-.4-1.53-.29-2.29M310.25 282.114c1.92 3.94 2.32 8.6 1.1 12.82M321.859 288.274c.32 1.87-.05 3.85-1 5.5"/><path fill="#000" d="M225.18 303.285c.09.69.06 1.4-.09 2.08-.65 3.01-2.53 11.78-3.22 16.58-.82 5.86-10.29 24-10.29 24s-8.72 10.84-13.16 16.48c-2.18 2.77-5.63 13.98-8.56 24.66-3.7-1.12-7.36-2.33-11-3.62-3.01-1.07-6.02-2.2-8.99-3.37-4.18-1.65-9.51-4.27-15.63-7.62 1.66-6.03 2.77-10.67 2.75-10.94-.05-.63 3.56-7.58 3.56-7.58l-3.15-41.44-1.86-6.31c-.97-3.26-1.58-6.62-1.83-9.98-.39-5.13.04-10.3 1.29-15.33l5.43-8.06 2.54-.19 7.86-10.98s4.25-1.28 5.34 1.92c1.09 3.21-3.54 9.18-3.54 9.18l-1.59 9.87 3.78 9.24 1.96.72s.66-16.27.21-19.52l4.18-14.85s2.49-4.96 3.26-7.46c.76-2.49 5.23-4.96 7.8-.59 0 0 1.43 2.22.4 5.27-1.05 3.05-1.92 5.45-1.92 5.45s-.95 12.58-1.25 12.93c-.3.33 1.85 18.73 1.85 18.73l1.64.73.58-17.55 3.41-16.49s-.28-7.93 5.31-6.97c0 0 2.62-.3 4.11 2.56 1.49 2.85.07 21.83.07 21.83l1.38 19.62 2.21 15.13 2.6-10.37s.15-14.86 9.53-16.13c0 0 2.79-.5 3.36 1.44.57 1.93-1.39 5.9-1.11 9.7.21 2.67.59 5.68.78 7.23Z" opacity=".2"/><path fill="#D6CEF2" d="M222.33 284.924c-.43-1.98-3.24-1.69-3.24-1.69-9.45.56-10.72 15.37-10.72 15.37l-3.38 10.14-1.06-15.26.11-19.67s2.86-18.82 1.58-21.78c-1.26-2.96-3.91-2.86-3.91-2.86-5.5-1.38-5.82 6.55-5.82 6.55l-4.64 16.18-1.9 17.45-1.58-.85s-.75-18.51-.43-18.82c.32-.32 2.23-12.8 2.23-12.8s1.05-2.32 2.32-5.29c1.26-2.96 0-5.29 0-5.29-2.23-4.55-6.87-2.43-7.82 0-.95 2.43-3.81 7.19-3.81 7.19l-5.3 14.49c.2 3.27-1.68 19.45-1.68 19.45l-1.9-.87-3.07-9.5 2.33-9.73s5.07-5.6 4.23-8.88c-.85-3.27-5.18-2.32-5.18-2.32l-8.67 10.36h-2.55l-6.02 7.62a48.302 48.302 0 0 0-2.45 15.19c0 3.37.35 6.76 1.07 10.09l1.38 6.43v41.56s-4.12 6.66-4.12 7.29c0 .29-1.7 5.54-4.08 12.09 10.37 6.1 19.3 10.82 25.63 13.31 2.97 1.18 5.98 2.3 9 3.37 3.8-10.67 8.24-22.09 10.69-24.75 4.86-5.29 14.37-15.44 14.37-15.44s10.82-17.37 12.08-23.15c1.05-4.74 3.58-13.34 4.46-16.3.2-.66.29-1.37.25-2.07-.07-1.56-.22-4.59-.22-7.27 0-3.81 2.26-7.62 1.84-9.59l-.02.05Z"/><mask id="y" width="79" height="141" x="144" y="243" maskUnits="userSpaceOnUse" style="mask-type:luminance"><path fill="#fff" d="M222.33 284.924c-.43-1.98-3.24-1.69-3.24-1.69-9.45.56-10.72 15.37-10.72 15.37l-3.38 10.14-1.06-15.26.11-19.67s2.86-18.82 1.58-21.78c-1.26-2.96-3.91-2.86-3.91-2.86-5.5-1.38-5.82 6.55-5.82 6.55l-4.64 16.18-1.9 17.45-1.58-.85s-.75-18.51-.43-18.82c.32-.32 2.23-12.8 2.23-12.8s1.05-2.32 2.32-5.29c1.26-2.96 0-5.29 0-5.29-2.23-4.55-6.87-2.43-7.82 0-.95 2.43-3.81 7.19-3.81 7.19l-5.3 14.49c.2 3.27-1.68 19.45-1.68 19.45l-1.9-.87-3.07-9.5 2.33-9.73s5.07-5.6 4.23-8.88c-.85-3.27-5.18-2.32-5.18-2.32l-8.67 10.36h-2.55l-6.02 7.62a48.302 48.302 0 0 0-2.45 15.19c0 3.37.35 6.76 1.07 10.09l1.38 6.43v41.56s-4.12 6.66-4.12 7.29c0 .29-1.7 5.54-4.08 12.09 10.37 6.1 19.3 10.82 25.63 13.31 2.97 1.18 5.98 2.3 9 3.37 3.8-10.67 8.24-22.09 10.69-24.75 4.86-5.29 14.37-15.44 14.37-15.44s10.82-17.37 12.08-23.15c1.05-4.74 3.58-13.34 4.46-16.3.2-.66.29-1.37.25-2.07-.07-1.56-.22-4.59-.22-7.27 0-3.81 2.26-7.62 1.84-9.59l-.02.05Z"/></mask><g mask="url(#y)"><path fill="url(#z)" d="M157.43 280.734c1.61-2.01 4.94-2.79 6.81-1.02 1.08 1.02 1.44 2.56 1.71 4.01.27 1.45.54 3 1.51 4.12.96 1.12 2.89 1.56 3.91.49.13 2.19.27 4.38.4 6.57 2.34-4.06 3.54-8.76 3.44-13.44-.05-2.27-.39-4.59.14-6.8s2.24-4.37 4.52-4.47c2.52-.11 4.51 2.34 5 4.82.49 2.48-.08 5.02-.24 7.54-.23 3.84.52 7.74 2.17 11.21.53-1.07 1.06-2.14 1.59-3.22.48 2.15.95 4.3 1.43 6.45.41-4.74.83-9.47 1.24-14.21.12-1.34.24-2.72.87-3.9.62-1.19 1.87-2.15 3.21-2.02 1.8.18 2.84 2.1 3.44 3.81 4.51 12.74 2.65 26.74.74 40.12 1.25.22 2.3-1.03 2.62-2.27.31-1.23.2-2.57.67-3.75.47-1.18 1.92-2.16 2.99-1.48 1.58.99.47 4.06 2.13 4.91.51-3.96 2.09-7.77 4.53-10.93 1.11-1.44 2.77-2.87 4.53-2.41 1.31.34 2.17 1.68 2.36 3.02.19 1.34 2.13-4.2 1.8-2.89.76-7.71-.76-8.53 0-16.24.14-1.39 2.39-3.81 1.43-4.83-.91-.97-3.63-2.39-4.84-1.83s-5.14 2.51-5.92 3.59c-4.91 6.78-4.58 16.61-6.11 24.85-1.3-12.56-2.6-25.33-.3-37.74 1.27-6.85 3.61-13.98 1.4-20.59-1.01-3.01-3.69-6.03-6.81-5.46-2.52.46-4.05 3.01-5.07 5.36-3.44 7.9-4.97 16.48-6.48 24.97l5.64-25.62c.49-2.22.98-4.51.58-6.75s-1.93-4.43-4.16-4.9c-2.21-.46-4.4.84-6.06 2.36-5.94 5.44-8.16 13.73-10.09 21.55.68-2.04 1.37-4.16 1.16-6.3-.21-2.14-1.57-4.33-3.68-4.79-2.72-.6-5.2 1.83-6.39 4.35-1.2 2.52-1.79 5.41-3.69 7.45-1.39-1.56-4-1.47-5.75-.32-1.74 1.16-2.8 3.09-3.65 5a46.54 46.54 0 0 0-3.87 22.48c1.38-3.07 4.86-5.06 8.21-4.67l-.6-5.11"/><path fill="url(#A)" d="M164.021 297.004c-.08 1.26-.17 2.52-.25 3.79.39-1.05 1.93-1.44 2.77-.7-.19-.8.31-1.58.63-2.34.32-.76.35-1.84-.39-2.2-.88-.43-1.75.58-2.21 1.44l-.12-.94-.43.95Z"/><path fill="url(#B)" d="M178.36 294.744a8.792 8.792 0 0 0-2.02 4.18c.43-.43.89-.86 1.46-1.07.57-.21 1.3-.12 1.66.37.23.3.31.74.64.92.34.18.77-.04.98-.36.2-.32.23-.72.26-1.1.05-.73.09-1.47-.12-2.17s-.73-1.35-1.44-1.5c-.71-.15-1.56.37-1.56 1.1l.15-.36-.01-.01Z"/><path fill="url(#C)" d="M192.25 298.194c-1.1 1.47-1.82 3.22-2.1 5.03.74-.11 1.35-.59 1.94-1.04.59-.46 1.23-.92 1.97-.98.74-.06 1.58.48 1.55 1.22-.14-.84 0-1.7.08-2.54.08-.84.13-1.73-.19-2.52s-1.08-1.46-1.93-1.41c-.85.05-1.58 1.04-1.18 1.79l-.16.45h.02Z"/><path fill="url(#D)" d="M154.04 303.204a9.892 9.892 0 0 0-1.16 4.71c0-.75.72-1.36 1.46-1.47.74-.11 1.49.18 2.14.57.15-.76.3-1.54.14-2.29-.16-.75-.71-1.48-1.47-1.61-.76-.13-1.6.61-1.39 1.35-.08-.19-.16-.38-.24-.58l.52-.69v.01Z"/><path fill="#D6CEF2" d="M157.43 280.734c1.61-2.01 4.94-2.79 6.81-1.02 1.08 1.02 1.44 2.56 1.71 4.01.27 1.45.54 3 1.51 4.12.96 1.12 2.89 1.56 3.91.49.13 2.19.27 4.38.4 6.57 2.34-4.06 3.54-8.76 3.44-13.44-.05-2.27-.39-4.59.14-6.8s2.24-4.37 4.52-4.47c2.52-.11 4.51 2.34 5 4.82.49 2.48-.08 5.02-.24 7.54-.23 3.84.52 7.74 2.17 11.21.53-1.07 1.06-2.14 1.59-3.22.48 2.15.95 4.3 1.43 6.45.41-4.74.83-9.47 1.24-14.21.12-1.34.24-2.72.87-3.9.62-1.19 1.87-2.15 3.21-2.02 1.8.18 2.84 2.1 3.44 3.81 4.51 12.74 2.65 26.74.74 40.12 1.25.22 2.3-1.03 2.62-2.27.31-1.23.2-2.57.67-3.75.47-1.18 1.92-2.16 2.99-1.48 1.58.99.47 4.06 2.13 4.91.51-3.96 2.09-7.77 4.53-10.93 1.11-1.44 2.77-2.87 4.53-2.41 1.31.34 2.17 1.68 2.36 3.02.19 1.34 2.13-4.2 1.8-2.89.76-7.71-.76-8.53 0-16.24.14-1.39 2.39-3.81 1.43-4.83-.91-.97-3.63-2.39-4.84-1.83s-5.14 2.51-5.92 3.59c-4.91 6.78-4.58 16.61-6.11 24.85-1.3-12.56-2.6-25.33-.3-37.74 1.27-6.85 3.61-13.98 1.4-20.59-1.01-3.01-3.69-6.03-6.81-5.46-2.52.46-4.05 3.01-5.07 5.36-3.44 7.9-4.97 16.48-6.48 24.97l5.64-25.62c.49-2.22.98-4.51.58-6.75s-1.93-4.43-4.16-4.9c-2.21-.46-4.4.84-6.06 2.36-5.94 5.44-8.16 13.73-10.09 21.55.68-2.04 1.37-4.16 1.16-6.3-.21-2.14-1.57-4.33-3.68-4.79-2.72-.6-5.2 1.83-6.39 4.35-1.2 2.52-1.79 5.41-3.69 7.45-1.39-1.56-4-1.47-5.75-.32-1.74 1.16-2.8 3.09-3.65 5a46.54 46.54 0 0 0-3.87 22.48c1.38-3.07 4.86-5.06 8.21-4.67l-.6-5.11" opacity=".5"/><g fill="#D6CEF2" opacity=".5"><path d="M164.021 297.004c-.08 1.26-.17 2.52-.25 3.79.39-1.05 1.93-1.44 2.77-.7-.19-.8.31-1.58.63-2.34.32-.76.35-1.84-.39-2.2-.88-.43-1.75.58-2.21 1.44l-.12-.94-.43.95ZM178.36 294.744a8.792 8.792 0 0 0-2.02 4.18c.43-.43.89-.86 1.46-1.07.57-.21 1.3-.12 1.66.37.23.3.31.74.64.92.34.18.77-.04.98-.36.2-.32.23-.72.26-1.1.05-.73.09-1.47-.12-2.17s-.73-1.35-1.44-1.5c-.71-.15-1.56.37-1.56 1.1l.15-.36-.01-.01ZM192.25 298.194c-1.1 1.47-1.82 3.22-2.1 5.03.74-.11 1.35-.59 1.94-1.04.59-.46 1.23-.92 1.97-.98.74-.06 1.58.48 1.55 1.22-.14-.84 0-1.7.08-2.54.08-.84.13-1.73-.19-2.52s-1.08-1.46-1.93-1.41c-.85.05-1.58 1.04-1.18 1.79l-.16.45h.02ZM154.04 303.204a9.892 9.892 0 0 0-1.16 4.71c0-.75.72-1.36 1.46-1.47.74-.11 1.49.18 2.14.57.15-.76.3-1.54.14-2.29-.16-.75-.71-1.48-1.47-1.61-.76-.13-1.6.61-1.39 1.35-.08-.19-.16-.38-.24-.58l.52-.69v.01Z"/></g></g><path stroke="#30275B" stroke-miterlimit="10" d="M144.24 366.784c2.38-6.55 4.08-11.8 4.08-12.09 0-.63 4.12-7.29 4.12-7.29v-41.56l-1.38-6.43a48.256 48.256 0 0 1 1.38-25.28l6.02-7.62h2.55l8.67-10.36s4.33-.95 5.18 2.32c.85 3.29-4.23 8.88-4.23 8.88l-2.33 9.73 3.07 9.5 1.9.87s1.88-16.18 1.68-19.45l5.3-14.49s2.86-4.76 3.81-7.19c.95-2.43 5.6-4.55 7.82 0 0 0 1.26 2.32 0 5.29-1.27 2.96-2.32 5.29-2.32 5.29s-1.9 12.48-2.23 12.8c-.32.31.43 18.82.43 18.82l1.58.85 1.9-17.45 4.64-16.18s.32-7.93 5.82-6.55c0 0 2.64-.11 3.91 2.86 1.27 2.95-1.58 21.78-1.58 21.78l-.11 19.67 1.06 15.26 3.38-10.14s1.27-14.81 10.72-15.37c0 0 2.81-.29 3.24 1.69.42 1.97-1.84 5.78-1.84 9.59 0 2.68.15 5.7.22 7.27.04.7-.04 1.4-.25 2.07-.88 2.95-3.41 11.56-4.46 16.3-1.26 5.78-12.08 23.15-12.08 23.15s-9.51 10.15-14.37 15.44c-2.45 2.66-6.89 14.08-10.69 24.75"/><path fill="#D6CEF2" d="M173.09 289.024c.55 1.97 0 4.22-1.42 5.7Z"/><path stroke="#30275B" stroke-miterlimit="10" d="M173.09 289.024c.55 1.97 0 4.22-1.42 5.7"/><path fill="#D6CEF2" d="M156.971 303.004c1.38-2.13 2.71-5.05 2.34-7.56-.72-4.91-2.96-10.56-1.95-15.42.64-3.1 1.29-6.21 1.93-9.31"/><path stroke="#30275B" stroke-miterlimit="10" d="M156.971 303.004c1.38-2.13 2.71-5.05 2.34-7.56-.72-4.91-2.96-10.56-1.95-15.42.64-3.1 1.29-6.21 1.93-9.31M196.84 256.624c1.63-.43 3.36-.42 4.99.01l.06-1.39M183.71 250.374c.96.69 2.31.78 3.35.23s1.73-1.72 1.7-2.9M219.85 285.084c-2.78.63-4.85 3.5-4.59 6.33.82.24 1.63.49 2.45.73"/><path fill="#D6CEF2" d="M187.67 286.314c.11 1.68-.09 5.69.02 7.37Z"/><path stroke="#30275B" stroke-miterlimit="10" d="M187.67 286.314c.11 1.68-.09 5.69.02 7.37"/><path fill="#D6CEF2" d="M189.51 288.634c-.2 2.75-.4 5.5-.61 8.24.02-.35.03-.7.05-1.05"/><path stroke="#30275B" stroke-miterlimit="10" d="M189.51 288.634c-.2 2.75-.4 5.5-.61 8.24.02-.35.03-.7.05-1.05"/><path fill="#D6CEF2" d="M204.77 311.814c.73 3.01.4 6.26-.93 9.06Z"/><path stroke="#30275B" stroke-miterlimit="10" d="M204.77 311.814c.73 3.01.4 6.26-.93 9.06M179.42 297.404c-2.18 2.39-1.86 8.12-.32 11.28M195.53 301.344c.05 2.58-.89 5.17-2.67 7.33M163.541 298.544c-.36 2.4.18 4.93 1.49 6.97M154.261 306.004c-.11 1.89.45 3.8 1.54 5.34M166.98 259.904c1.13-.55 2.59-.31 3.5.56.41-.54.82-1.09 1.24-1.63M177.24 267.244c1.65-1.05 4.07-.64 5.29.9M193.26 272.244c1.78-.81 3.93-.76 5.68.12M157.61 280.634c1.04-1.79 3.19-2.86 5.24-2.6M150.9 290.204c.03-1.29 1.09-2.49 2.37-2.66"/><path stroke="#30275B" stroke-linecap="round" stroke-linejoin="round" d="M408.569 218.344c22.892 0 41.45-18.557 41.45-41.45 0-22.892-18.558-41.45-41.45-41.45-22.892 0-41.45 18.558-41.45 41.45 0 22.893 18.558 41.45 41.45 41.45Z"/><path fill="#000" d="M455.488 177.974c-8.84 14.49-11.98 12.54-42.12 26.98-15.3 7.33-30.09-16.24-20.09-40.43.49-1.18 4.81-7.15 4.81-7.15 1.82-8 8.46-14.7 16.45-16.58 7.98-1.89 16.92 1.12 22.13 7.46 5.66-5.01 13.87-6.87 21.18-5.06.35 1.02.68 2.02 1 3 .12.38.25.75.36 1.13.38 1.17.74 2.34 1.07 3.52.66 2.24 1.27 4.49 1.84 6.76-3.33-.93-6.68-.95-9.84.59-2.21 1.08-4.06 2.86-6.36 3.74-2.3.87-5.48.38-6.36-1.92 1.11 4.62 5.96 3.24 10.61 4.15 7.21 1.42 9.03 7.7 5.32 13.8v.01Z" opacity=".2"/><path fill="#D6CEF2" stroke="#30275B" stroke-linecap="round" stroke-linejoin="round" d="M441.879 170.834s7.42-1.01 10.94-.48c2.24.33 3.61 1.64 4.27 2.45.3.38.48.84.51 1.32l.4 5.8c.05.66-.18 1.32-.64 1.8-1.45 1.51-5.82 4.26-18.75 5.25-18.19 1.39 3.27-16.13 3.27-16.13v-.01Z"/><path fill="#D6CEF2" stroke="#30275B" stroke-linecap="round" stroke-linejoin="round" d="M436.449 155.844c2.09 2.6 6.07 8.49 6.07 17.63 0 6.91-8 30.51-28.49 33.38-21.69 3.04-39.12-15.52-35.4-37.86 2.58-15.45 40.41-34.8 57.82-13.16v.01Z"/><path fill="#D6CEF2" d="M409.949 201.705c17.38 0 31.47-13.338 31.47-29.79 0-16.453-14.09-29.79-31.47-29.79-17.381 0-31.47 13.337-31.47 29.79 0 16.452 14.089 29.79 31.47 29.79Z"/><path fill="#30275B" d="M409.889 197.924c14.271 0 25.84-10.946 25.84-24.45 0-13.503-11.569-24.45-25.84-24.45-14.271 0-25.84 10.947-25.84 24.45 0 13.504 11.569 24.45 25.84 24.45Z"/><path stroke="#30275B" stroke-linecap="round" stroke-linejoin="round" d="M441.419 171.915c0-16.45-14.09-29.79-31.47-29.79s-31.47 13.34-31.47 29.79M433.119 192.075c5.16-5.3 8.3-12.38 8.3-20.16M387.909 193.174c5.68 5.28 13.46 8.53 22.04 8.53 5.27 0 10.24-1.23 14.61-3.4M383.369 187.865c.41.61.85 1.21 1.31 1.8M378.479 171.915c0 4.55 1.08 8.85 3 12.71"/><path fill="#D6CEF2" d="M456.139 180.064s-5.61-3.92-14.71-.37Z"/><path stroke="#30275B" stroke-linecap="round" stroke-linejoin="round" d="M456.139 180.064s-5.61-3.92-14.71-.37"/><path fill="#D6CEF2" d="M451.309 182.794c-2.15.64-5.75 1.37-11.64 1.83Z"/><path stroke="#30275B" stroke-linecap="round" stroke-linejoin="round" d="M451.309 182.794c-2.15.64-5.75 1.37-11.64 1.83"/><path fill="#D6CEF2" d="M454.218 181.555s-.34.3-1.4.72Z"/><path stroke="#30275B" stroke-linecap="round" stroke-linejoin="round" d="M454.218 181.555s-.34.3-1.4.72"/><path fill="#D6CEF2" d="M459.209 147.324c-.11-.38-.241-.75-.361-1.13-1.91-5.92-4.369-12.42-7.359-19.28-.55-1.27-1.13-2.56-1.71-3.86l-.67.06c-2.87.29-5.89.65-8.25 2.28-2.37 1.66-3.77 5.07-2.24 7.52 1.5 2.43 5.43 3.78 4.81 6.55-6.41 3.61-14.231 3.19-21.361 5.01a34.78 34.78 0 0 0-11.909 5.62h-.02a36.71 36.71 0 0 0-3.24 2.72c-.45.43-.92.9-1.32 1.42l-.011.02c-.59.75-1.039 1.59-1.129 2.54-.25 2.67 2.18 4.49 4.77 5.65.48.22.449.91-.041 1.08-1.69.68-3.339 1.47-4.669 2.7-.01 0-.02.01-.03.02-.82.74-.15 2.13.97 1.98.12-.02.27-.03.4-.04 1.1-.08 2.13.05 3.02.36 1.53.54 2.599 1.58 2.709 2.86.16 2.03-2.15 3.86-5.15 4.09-.73.07-.17.94.9 1.12 2.13.38 4.301-.03 6.401-.52 2.51-.6 5.19-1.47 6.61-3.62.6-.91.78-2.1.6-3.18-.25-1.48-1.18-2.77-2.66-2.92 4.64-.55 9.24-1.47 13.72-2.75h.01l1.41-.43c1.34-.4 2.75-.89 3.87-1.69.7-.5 1.28-1.09 1.69-1.86 1.04-2.01-.431-5.19-2.651-4.77 6.45-2.53 13.271-4.01 19.791-6.34 1.04-.38 2.08-.78 3.1-1.22v.01Z"/><path fill="#000" d="M409.769 60.824c-6.04 5.37-12.94 9.93-19.9 14.04-36.41 21.54-77.54 34.44-119.38 40.73-41.83 6.29-84.44 6.1-126.6 2.63-8.28-.68-16.7-1.52-24.31-4.86-6.45-2.84-12.3-7.78-15.04-14.17 9.13-10.4 17.62-20.92 27.07-30.85 2.25-2.37 4.55-4.7 6.92-6.99 2-1.91 4.03-3.79 6.14-5.63 2.41-2.12 4.89-4.19 7.49-6.19 3.55-2.76 7.29-5.41 11.29-7.94.98-.63 1.95-1.24 2.93-1.84 99.71-61.97 173.1-41.74 222.06 0 3.69 3.13 7.25 6.4 10.66 9.78 2.08 2.01 4.09 4.09 6.04 6.19.22.22.42.45.63.69 1.37 1.46 2.7 2.93 4 4.41Z" opacity=".2"/><path fill="#D6CEF2" stroke="#30275B" stroke-linecap="round" stroke-linejoin="round" d="m413.709 50.884-335.47 1.53 5.07-7.6c2.44-3.66 6.54-5.85 10.94-5.85h303.56c3.98 0 7.75 1.8 10.25 4.9l5.65 7.02Z"/><path fill="#757575" stroke="#30275B" stroke-linecap="round" stroke-linejoin="round" d="M251.819 101.175h-18.38c-18.86 0-34.15 15.289-34.15 34.15v18.38c0 18.86 15.29 34.15 34.15 34.15h18.38c18.861 0 34.15-15.29 34.15-34.15v-18.38c0-18.861-15.289-34.15-34.15-34.15Z"/><path fill="#999" stroke="#30275B" stroke-linecap="round" stroke-linejoin="round" d="M215.039 151.834v12.32c0 3.87 3.13 7 7 7h42.27c3.85 0 6.96-3.11 7-6.95.05-5.54.35-12.37.35-12.37h-56.62Z"/><path fill="#D6CEF2" stroke="#30275B" stroke-linecap="round" stroke-linejoin="round" d="M369.749 155.955h-247.21c-2.61 0-4.95-1.6-5.9-4.03l-38.13-97.86c-1-2.56.89-5.32 3.64-5.32h327.99c2.75 0 4.64 2.76 3.64 5.32l-38.13 97.86a6.334 6.334 0 0 1-5.9 4.03Z"/><path fill="#30275B" d="M371.58 147.425H120.11l-34.6-92.49h320.51l-34.44 92.49ZM271.37 155.825h-56.06v3.84h56.06v-3.84Z"/><path fill="url(#E)" d="M334.849 143.454h-177.58c-.98 0-1.91-.44-2.08-.99l-25.26-80.25c-.28-.9.5-1.63 1.76-1.63h228.73c1.26 0 2.04.73 1.76 1.63l-25.26 80.25c-.17.55-1.1.99-2.08.99h.01Z"/><path fill="#30275B" d="M334.189 141.635h-176.26l-21.47-70.51h219.2l-21.47 70.51Z"/><path fill="#D6CEF2" d="M183.229 88.624h-33.37c-.82 0-1.37.44-1.21.99.16.54.95.99 1.76.99h33.18c.82 0 1.4-.44 1.31-.99-.1-.55-.85-.99-1.67-.99ZM184.34 94.725h-28.38c-.81 0-1.35.43-1.21.96.14.53.91.95 1.72.95h28.22c.8 0 1.38-.43 1.29-.95-.09-.53-.83-.96-1.64-.96Z"/><path fill="#D6CEF2" d="M185.419 100.604h-32.2c-.8 0-1.32.41-1.18.92.14.51.9.92 1.69.92h32.02c.79 0 1.36-.41 1.27-.92-.09-.51-.81-.92-1.61-.92h.01Z" opacity=".5"/><path fill="#D6CEF2" d="M186.459 106.274h-18.91c-.78 0-1.32.4-1.2.89.12.49.85.89 1.63.89h18.81c.78 0 1.34-.4 1.25-.89-.09-.49-.79-.89-1.57-.89h-.01ZM187.469 111.764h-31.12c-.77 0-1.28.39-1.15.86.14.47.86.86 1.63.86h30.95c.76 0 1.32-.38 1.23-.86-.09-.48-.78-.86-1.55-.86h.01ZM188.44 117.064h-25.13c-.76 0-1.27.37-1.14.83.12.46.83.83 1.58.83h24.99c.75 0 1.29-.37 1.21-.83-.08-.46-.76-.83-1.52-.83h.01ZM189.379 122.194h-24.72c-.74 0-1.25.36-1.13.81.12.44.81.8 1.55.8h24.59c.74 0 1.27-.36 1.19-.8-.08-.44-.75-.81-1.49-.81h.01ZM190.289 127.165h-26.97c-.73 0-1.23.35-1.11.78.12.43.8.78 1.53.78h26.83c.73 0 1.26-.35 1.18-.78-.08-.43-.73-.78-1.46-.78Z"/><path fill="#D6CEF2" d="M191.179 131.975h-17.42c-.72 0-1.22.34-1.12.76.1.42.77.75 1.48.75h17.33c.72 0 1.24-.34 1.16-.75-.07-.42-.72-.76-1.44-.76h.01ZM182.069 82.314h-24.87c-.84 0-1.4.46-1.25 1.03.15.57.94 1.02 1.78 1.02h24.72c.83 0 1.43-.46 1.33-1.02-.1-.57-.86-1.03-1.7-1.03h-.01Z" opacity=".5"/><path fill="#D6CEF2" d="M180.859 75.754h-34.62c-.85 0-1.41.48-1.24 1.07.17.59.99 1.06 1.84 1.06h34.42c.85 0 1.45-.47 1.35-1.06-.11-.59-.88-1.07-1.74-1.07h-.01ZM192.029 136.625h-28.69c-.71 0-1.19.33-1.07.73.11.4.78.73 1.48.73h28.55c.7 0 1.22-.33 1.15-.73-.07-.4-.71-.73-1.41-.73h-.01Z"/><path fill="#D6CEF2" d="M194.949 90.854h6.47l-.32-2.47h-6.52l.37 2.47ZM195.849 96.864h6.36l-.31-2.38h-6.41l.36 2.38ZM196.719 102.674h6.25l-.3-2.31h-6.29l.34 2.31ZM197.559 108.274h6.15l-.3-2.22h-6.18l.33 2.22ZM198.38 113.694h6.04l-.29-2.15h-6.07l.32 2.15ZM199.16 118.934h5.94l-.27-2.08h-5.98l.31 2.08ZM199.929 124.004h5.84l-.26-2.01h-5.89l.31 2.01ZM200.659 128.914h5.75l-.25-1.95h-5.79l.29 1.95ZM201.379 133.664h5.66l-.25-1.88h-5.7l.29 1.88ZM194.009 84.614h6.59l-.33-2.56h-6.64l.38 2.56ZM193.04 78.144h6.71l-.35-2.66h-6.76l.4 2.66ZM202.069 138.274h5.57l-.24-1.83h-5.61l.28 1.83Z" opacity=".5"/><path fill="#D6CEF2" d="M236.179 127.945c-.01-.43.57-.78 1.3-.78h95.82c.73 0 1.22.35 1.1.78-.13.43-.82.78-1.54.78h-95.33c-.73 0-1.33-.35-1.34-.78h-.01ZM334.259 123.804h-53.05c-.74 0-1.3-.36-1.25-.8.05-.44.69-.81 1.43-.81h53.33c.74 0 1.24.36 1.11.81-.13.44-.83.8-1.57.8Z"/><path fill="#D6CEF2" d="M268.609 123.804h-16.5c-.74 0-1.33-.36-1.33-.8 0-.44.61-.81 1.36-.81h16.59c.74 0 1.32.36 1.28.81-.03.44-.66.8-1.4.8Z" opacity=".5"/><path fill="#D6CEF2" d="M303.049 118.724h-74.84c-.75 0-1.38-.37-1.41-.83-.03-.46.56-.83 1.32-.83h75.24c.76 0 1.3.37 1.21.83-.09.46-.76.83-1.52.83Z"/><path fill="#D6CEF2" d="M212.559 117.064h5.33c.76 0 1.4.37 1.44.83.04.46-.54.83-1.29.83h-5.31c-.75 0-1.4-.37-1.45-.83-.05-.46.52-.83 1.28-.83Z" opacity=".5"/><path fill="#D6CEF2" d="M313.879 112.624c-.1.47-.8.86-1.57.86h-70.53c-.76 0-1.39-.38-1.4-.86 0-.48.61-.86 1.38-.86h70.91c.77 0 1.31.39 1.21.86ZM211.999 111.764h20.02c.77 0 1.41.39 1.43.86.02.47-.59.86-1.35.86h-19.91c-.76 0-1.43-.38-1.48-.86-.05-.48.53-.86 1.3-.86h-.01ZM211.409 106.274h76.93c.78 0 1.36.4 1.3.89-.07.49-.75.89-1.53.89h-76.51c-.78 0-1.45-.4-1.51-.89-.05-.49.53-.89 1.32-.89ZM261.359 102.444c-.79 0-1.41-.41-1.39-.92.02-.51.68-.92 1.48-.92h40.59c.79 0 1.37.41 1.28.92-.09.51-.8.92-1.59.92h-40.37ZM210.809 100.604h35.13c.79 0 1.44.41 1.44.92s-.64.92-1.44.92h-34.94c-.79 0-1.48-.41-1.53-.92-.06-.51.54-.92 1.34-.92ZM342.05 96.624h-96.7c-.8 0-1.46-.43-1.46-.95 0-.53.65-.96 1.46-.96h97.25c.81 0 1.34.43 1.19.96-.15.53-.93.95-1.73.95h-.01ZM343.779 90.605h-85.09c-.82 0-1.47-.44-1.45-.99.02-.55.7-.99 1.52-.99h85.59c.82 0 1.36.44 1.2.99-.16.54-.95.99-1.77.99Z"/><path fill="#D6CEF2" d="M345.569 84.365h-17.82c-.83 0-1.4-.46-1.27-1.02.13-.57.92-1.03 1.76-1.03h17.92c.84 0 1.39.46 1.22 1.03-.16.57-.97 1.02-1.81 1.02Z" opacity=".5"/><path fill="#D6CEF2" d="M315.289 84.365h-65.43c-.83 0-1.51-.46-1.5-1.02 0-.57.69-1.03 1.53-1.03h65.82c.84 0 1.43.46 1.31 1.03-.12.57-.88 1.02-1.72 1.02h-.01ZM214.149 131.975h60.42c.72 0 1.27.34 1.23.76-.04.42-.66.75-1.37.75h-60.12c-.72 0-1.33-.34-1.38-.75-.05-.42.5-.76 1.22-.76ZM214.649 136.625h92.83c.71 0 1.21.33 1.13.73-.09.4-.73.73-1.43.73h-92.37c-.7 0-1.31-.33-1.36-.73-.04-.4.49-.73 1.2-.73ZM312.039 77.884h-47.26c-.85 0-1.52-.47-1.49-1.06.03-.59.74-1.07 1.6-1.07h47.55c.85 0 1.46.48 1.34 1.07-.11.59-.89 1.06-1.74 1.06Z"/><path fill="#D6CEF2" d="M251.379 77.884h-42.99c-.85 0-1.59-.47-1.66-1.06-.07-.59.57-1.07 1.43-1.07h43.25c.85 0 1.54.48 1.53 1.07-.01.59-.71 1.06-1.56 1.06ZM287.979 131.975c.72 0 1.25.34 1.19.76-.06.42-.69.75-1.41.75h-4.67c-.72 0-1.26-.34-1.21-.75.05-.42.67-.76 1.39-.76h4.71ZM230.67 127.945c.02.43-.55.78-1.28.78h-6.36c-.73 0-1.35-.35-1.38-.78-.03-.43.53-.78 1.26-.78h6.4c.73 0 1.34.35 1.36.78ZM307.419 107.164c-.09.49-.8.89-1.58.89h-7.44c-.78 0-1.34-.4-1.27-.89.08-.49.77-.89 1.56-.89h7.48c.78 0 1.34.4 1.25.89ZM330.629 111.764c.77 0 1.29.39 1.16.86-.13.47-.85.86-1.61.86h-5.93c-.76 0-1.29-.38-1.18-.86.11-.48.83-.86 1.6-.86h5.96ZM233.639 96.624c-.8 0-1.47-.43-1.5-.95-.02-.53.62-.96 1.43-.96h6.31c.81 0 1.47.43 1.48.96 0 .53-.64.95-1.44.95h-6.28Z" opacity=".5"/><path fill="#D6CEF2" d="M147.699 65.835c.49 1.64-.46 2.95-2.1 2.95-1.64 0-3.41-1.31-3.94-2.95-.54-1.66.39-3.02 2.08-3.02s3.46 1.36 3.96 3.02ZM155.839 65.884c.44 1.64-.55 2.95-2.2 2.95-1.65 0-3.37-1.31-3.84-2.95-.48-1.66.49-3.02 2.18-3.02 1.69 0 3.42 1.36 3.86 3.02ZM164.069 65.835c.38 1.64-.65 2.95-2.3 2.95s-3.32-1.31-3.75-2.95c-.43-1.66.59-3.02 2.28-3.02s3.38 1.36 3.76 3.02h.01Z"/><path fill="#D6CEF2" d="m85.51 54.935 26.95 72.03 32.51-72.03H85.51ZM130.979 147.425l53.93-92.49h56.45l-79.37 92.49h-31.01ZM265.69 54.485l-84.06 92.94h12.95l87.07-92.49-15.96-.45ZM282.29 147.425l92.38-92.49h13.04l-95.25 92.49h-10.17Z" opacity=".1"/><path fill="#D6CEF2" stroke="#30275B" stroke-linecap="round" stroke-linejoin="round" d="M157.03 187.564h-21.1a4.96 4.96 0 0 0-4.96 4.96v10.26a4.96 4.96 0 0 0 4.96 4.96h5.51l4.18 9.47 5.89-9.47h5.51a4.96 4.96 0 0 0 4.96-4.96v-10.26a4.96 4.96 0 0 0-4.96-4.96h.01Z"/><path fill="#30275B" d="M143.55 193.434c0-.54.44-.96 1.03-.96.59 0 1.03.4 1.03.92 0 .57-.42 1-1.03 1-.61 0-1.03-.42-1.03-.96Zm.22 2.09h1.61v6.86h-1.61v-6.86ZM149.25 195.174v.41h1.89v1.29h-1.84v5.52h-1.61v-5.52h-1.13v-1.29h1.13v-.44c0-1.44.86-2.38 2.45-2.38.55 0 1.09.12 1.45.37l-.45 1.21c-.24-.17-.55-.28-.89-.28-.67 0-1.01.37-1.01 1.1l.01.01Z"/><path fill="#D6CEF2" stroke="#30275B" stroke-linecap="round" stroke-linejoin="round" d="M221.249 189.004h-21.1a4.96 4.96 0 0 0-4.96 4.96v10.26a4.96 4.96 0 0 0 4.96 4.96h5.51l4.18 9.47 5.89-9.47h5.51a4.96 4.96 0 0 0 4.96-4.96v-10.26a4.96 4.96 0 0 0-4.96-4.96h.01Z"/><path fill="#30275B" d="M204.59 200.914h-5.38c.19 1 1.03 1.64 2.22 1.64.77 0 1.37-.24 1.86-.75l.86.99c-.62.73-1.58 1.12-2.76 1.12-2.3 0-3.79-1.48-3.79-3.52s1.5-3.51 3.55-3.51 3.47 1.4 3.47 3.55c0 .13-.01.32-.03.48Zm-5.4-1.07h3.89c-.13-.99-.89-1.67-1.94-1.67-1.05 0-1.8.67-1.95 1.67ZM206.149 194.294h1.61v9.53h-1.61v-9.53ZM209.08 203.144l.62-1.22c.6.4 1.53.68 2.39.68 1.01 0 1.44-.28 1.44-.76 0-1.31-4.24-.08-4.24-2.81 0-1.3 1.17-2.15 3.02-2.15.91 0 1.95.22 2.57.59l-.62 1.22c-.65-.39-1.31-.51-1.97-.51-.98 0-1.44.32-1.44.77 0 1.39 4.24.15 4.24 2.84 0 1.29-1.18 2.12-3.11 2.12-1.14 0-2.29-.33-2.9-.77ZM222.899 200.914h-5.38c.19 1 1.03 1.64 2.22 1.64.77 0 1.37-.24 1.86-.75l.86.99c-.62.73-1.58 1.12-2.76 1.12-2.3 0-3.79-1.48-3.79-3.52s1.5-3.51 3.55-3.51 3.47 1.4 3.47 3.55c0 .13-.01.32-.03.48Zm-5.4-1.07h3.89c-.13-.99-.89-1.67-1.94-1.67-1.05 0-1.8.67-1.95 1.67Z"/><path fill="#D6CEF2" stroke="#30275B" stroke-linecap="round" stroke-linejoin="round" d="M283.51 188.394h-21.1a4.96 4.96 0 0 0-4.96 4.96v10.26a4.96 4.96 0 0 0 4.96 4.96h5.51l4.18 9.47 5.89-9.47h5.51a4.96 4.96 0 0 0 4.96-4.96v-10.26a4.96 4.96 0 0 0-4.96-4.96h.01Z"/><path fill="#30275B" d="M267.251 196.004v.41h1.89v1.29h-1.84v5.52h-1.61v-5.52h-1.13v-1.29h1.13v-.44c0-1.44.86-2.38 2.45-2.38.55 0 1.09.12 1.45.37l-.45 1.21c-.24-.17-.55-.28-.89-.28-.67 0-1.02.37-1.02 1.1l.02.01ZM269.551 199.794c0-2.06 1.54-3.51 3.65-3.51s3.66 1.45 3.66 3.51c0 2.06-1.53 3.52-3.66 3.52s-3.65-1.46-3.65-3.52Zm5.69 0c0-1.31-.87-2.15-2.04-2.15s-2.03.84-2.03 2.15.87 2.15 2.03 2.15c1.16 0 2.04-.83 2.04-2.15ZM282.361 196.284v1.53c-.14-.03-.26-.04-.37-.04-1.22 0-1.99.72-1.99 2.12v3.33h-1.61v-6.86h1.53v1c.46-.72 1.3-1.08 2.44-1.08Z"/><path fill="#D6CEF2" stroke="#30275B" stroke-linecap="round" stroke-linejoin="round" d="M344.87 187.564h-21.1a4.96 4.96 0 0 0-4.96 4.96v10.26a4.96 4.96 0 0 0 4.96 4.96h5.51l4.18 9.47 5.89-9.47h5.51a4.96 4.96 0 0 0 4.96-4.96v-10.26a4.96 4.96 0 0 0-4.96-4.96h.01Z"/><path fill="#30275B" d="M331.579 195.194h5.92v1.28h-5.92v-1.28Zm0 3.11h5.92v1.28h-5.92v-1.28Z"/><path fill="#D6CEF2" stroke="#30275B" stroke-linecap="round" stroke-linejoin="round" d="M189.19 175.684h-21.1a4.96 4.96 0 0 0-4.96 4.96v10.26a4.96 4.96 0 0 0 4.96 4.96h5.51l4.18 9.47 5.89-9.47h5.51a4.96 4.96 0 0 0 4.96-4.96v-10.26a4.96 4.96 0 0 0-4.96-4.96h.01Z"/><path fill="#30275B" d="M173.68 179.954h3.07v1.28h-1.46v9.46h1.46v1.29h-3.07v-12.03ZM180.729 191.974v-1.29h1.45v-9.46h-1.45v-1.28h3.06v12.03h-3.06Z"/><path fill="#D6CEF2" stroke="#30275B" stroke-linecap="round" stroke-linejoin="round" d="M251.91 174.634h-21.1a4.96 4.96 0 0 0-4.96 4.96v10.26a4.96 4.96 0 0 0 4.96 4.96h5.51l4.18 9.47 5.89-9.47h5.51a4.96 4.96 0 0 0 4.96-4.96v-10.26a4.96 4.96 0 0 0-4.96-4.96h.01Z"/><path fill="#30275B" d="M237.069 184.874c.51.17.76.51.76 1.31v2.44c0 .62.31.98.95.98h.27v1.29h-.64c-1.45 0-2.18-.73-2.18-2.09v-2.65c0-.42-.22-.62-.58-.62h-.42v-1.31h.42c.36 0 .58-.19.58-.62v-2.65c0-1.36.73-2.09 2.18-2.09h.64v1.28h-.27c-.64 0-.95.36-.95.98v2.44c0 .8-.24 1.14-.76 1.31ZM246.87 184.214v1.31h-.44c-.35 0-.57.19-.57.62v2.65c0 1.36-.75 2.09-2.2 2.09h-.64v-1.29h.27c.66 0 .96-.36.96-.98v-2.44c0-.8.23-1.14.75-1.31-.51-.17-.75-.51-.75-1.31v-2.44c0-.62-.31-.98-.96-.98h-.27v-1.28h.64c1.45 0 2.2.73 2.2 2.09v2.65c0 .42.22.62.57.62h.44Z"/><path fill="#D6CEF2" stroke="#30275B" stroke-linecap="round" stroke-linejoin="round" d="M313.96 172.554h-21.1a4.96 4.96 0 0 0-4.96 4.96v10.26a4.96 4.96 0 0 0 4.96 4.96h5.51l4.18 9.47 5.89-9.47h5.51a4.96 4.96 0 0 0 4.96-4.96v-10.26a4.96 4.96 0 0 0-4.96-4.96h.01Z"/><path fill="#30275B" d="M302.58 180.154c0-.64.48-1.07 1.05-1.07.57 0 1.05.42 1.05 1.07 0 .65-.48 1.07-1.05 1.07-.57 0-1.05-.45-1.05-1.07Zm2.11 4.89c0 .28-.06.51-.3 1.11l-.66 1.81h-1.04l.51-1.97c-.36-.15-.6-.49-.6-.95 0-.64.45-1.07 1.04-1.07.59 0 1.04.44 1.04 1.07h.01Z"/><path fill="#D6CEF2" stroke="#30275B" stroke-linecap="round" stroke-linejoin="round" d="M231.49 351.994h21.1a4.96 4.96 0 0 0 4.96-4.96v-10.26a4.96 4.96 0 0 0-4.96-4.96h-5.51l-1.61-9.47-8.46 9.47h-5.51a4.96 4.96 0 0 0-4.96 4.96v10.26a4.96 4.96 0 0 0 4.96 4.96h-.01Z"/><path fill="#30275B" d="m238.9 339.794-4.43 1.66 4.43 1.66v1.34l-5.92-2.3v-1.39l5.92-2.3v1.34-.01ZM243.581 335.134h1.44l-4.24 12.1h-1.44l4.24-12.1ZM251.24 340.764v1.39l-5.92 2.3v-1.34l4.43-1.66-4.43-1.66v-1.34l5.92 2.3v.01Z"/><path fill="#D6CEF2" stroke="#30275B" stroke-linecap="round" stroke-linejoin="round" d="M97.37 277.254h21.1a4.96 4.96 0 0 0 4.96-4.96v-10.26a4.96 4.96 0 0 0-4.96-4.96h-5.51l1.2-9.47-11.27 9.47h-5.51a4.96 4.96 0 0 0-4.96 4.96v10.26a4.96 4.96 0 0 0 4.96 4.96h-.01Z"/><path fill="#30275B" d="M103.62 270.744c0-.55.44-.99 1.04-.99.6 0 1.01.44 1.01.99s-.42 1-1.01 1c-.59 0-1.04-.45-1.04-1Zm.09-8.08h1.9l-.32 6.01h-1.27l-.31-6.01ZM107.271 264.964h5.92v1.28h-5.92v-1.28Zm0 3.11h5.92v1.29h-5.92v-1.29Z"/><path fill="#D6CEF2" d="M435.159 265.614c0 4.12-.34 8.11-.97 11.87-2.9 17.3-12 29.93-22.76 29.93-.96 0-1.93-.11-2.86-.3-11.75-2.49-20.87-20.12-20.87-41.5 0-23.08 10.63-31.25 23.72-31.25 13.09 0 23.73 8.16 23.73 31.25h.01Z"/><mask id="F" width="49" height="74" x="387" y="234" maskUnits="userSpaceOnUse" style="mask-type:luminance"><path fill="#fff" d="M435.159 265.614c0 4.12-.34 8.11-.97 11.87-2.9 17.3-12 29.93-22.76 29.93-.96 0-1.93-.11-2.86-.3-11.75-2.49-20.87-20.12-20.87-41.5 0-23.08 10.63-31.25 23.72-31.25 13.09 0 23.73 8.16 23.73 31.25h.01Z"/></mask><g mask="url(#F)"><path fill="url(#G)" d="M426.56 265.884c.88 12.38-1.25 24.82-4.81 36.71 8.94-7.34 13.05-18.87 16.77-29.82 2.7-7.95 5.43-16.15 4.95-24.53-.49-8.38-4.98-17.1-12.85-20.04-3.84-1.44-8.32-1.33-12.12.2-6.59 2.64-2.98 4.79-.22 9.53 4.95 8.47 7.59 18.22 8.28 27.97v-.02Z"/><path fill="#D6CEF2" d="M426.56 265.884c.88 12.38-1.25 24.82-4.81 36.71 8.94-7.34 13.05-18.87 16.77-29.82 2.7-7.95 5.43-16.15 4.95-24.53-.49-8.38-4.98-17.1-12.85-20.04-3.84-1.44-8.32-1.33-12.12.2-6.59 2.64-2.98 4.79-.22 9.53 4.95 8.47 7.59 18.22 8.28 27.97v-.02Z" opacity=".5"/></g><path stroke="#30275B" stroke-miterlimit="10" d="M435.159 265.614c0 4.12-.34 8.11-.97 11.87-2.9 17.3-12 29.93-22.76 29.93-.96 0-1.93-.11-2.86-.3-11.75-2.49-20.87-20.12-20.87-41.5 0-23.08 10.63-31.25 23.72-31.25 13.09 0 23.73 8.16 23.73 31.25h.01Z"/><path fill="#D6CEF2" d="M424.179 286.854c-1.59 5.33-4.21 10.34-7.78 14.6Z"/><path stroke="#30275B" stroke-miterlimit="10" d="M424.179 286.854c-1.59 5.33-4.21 10.34-7.78 14.6M424.93 283.944c-.13.56-.26 1.13-.41 1.69"/><path fill="#D6CEF2" d="M424.869 265.564c1.26 5.32 1.39 10.89.47 16.28Z"/><path stroke="#30275B" stroke-miterlimit="10" d="M424.869 265.564c1.26 5.32 1.39 10.89.47 16.28"/><path stroke="#30275B" stroke-miterlimit="10" d="M387.699 265.614s26.97-10.66 47.45 0"/><path fill="#D6CEF2" d="M411.43 234.374s2.7 10 3.01 26.26Z"/><path stroke="#30275B" stroke-miterlimit="10" d="M411.43 234.374s2.7 10 3.01 26.26"/><path fill="#BFBFBF" stroke="#30275B" stroke-linecap="round" stroke-linejoin="round" d="M415.19 246.534c.35 3.11-.19 5.76-1.2 5.92-1.01.16-2.11-2.23-2.46-5.34-.35-3.11.19-5.76 1.2-5.92 1.01-.16 2.11 2.23 2.46 5.34Z"/><path stroke="#30275B" stroke-miterlimit="10" d="M400.79 315.404h-31.62c-3.94 0-7.18-2.92-7.69-6.71-.07-.34-.09-.7-.09-1.07v-74.59c0-.36.02-.72.09-1.08.51-3.79 3.75-6.7 7.69-6.7h89.72c1.36 0 2.63.35 3.73.96"/><defs><linearGradient id="q" x1="299.386" x2="299.386" y1="248.935" y2="250.925" gradientUnits="userSpaceOnUse"><stop stop-color="#883CBA"/><stop offset="1" stop-color="#6C3BEC"/></linearGradient><linearGradient id="G" x1="429.15" x2="429.15" y1="227.188" y2="302.594" gradientUnits="userSpaceOnUse"><stop stop-color="#883CBA"/><stop offset="1" stop-color="#6C3BEC"/></linearGradient><linearGradient id="c" x1="184.805" x2="464.367" y1="21.769" y2="332.253" gradientUnits="userSpaceOnUse"><stop stop-color="#fff" stop-opacity=".18"/><stop offset=".524" stop-color="#B99FB9" stop-opacity=".18"/><stop offset="1" stop-color="#79477A" stop-opacity=".24"/></linearGradient><linearGradient id="e" x1="60.019" x2="60.019" y1="138.033" y2="219.376" gradientUnits="userSpaceOnUse"><stop stop-color="#883CBA"/><stop offset="1" stop-color="#6C3BEC"/></linearGradient><linearGradient id="f" x1="246.145" x2="246.145" y1="221.265" y2="318.415" gradientUnits="userSpaceOnUse"><stop stop-color="#883CBA"/><stop offset="1" stop-color="#6C3BEC"/></linearGradient><linearGradient id="h" x1="328.711" x2="328.711" y1="261.101" y2="286.21" gradientUnits="userSpaceOnUse"><stop stop-color="#883CBA"/><stop offset="1" stop-color="#6C3BEC"/></linearGradient><linearGradient id="i" x1="328.711" x2="328.711" y1="261.101" y2="286.21" gradientUnits="userSpaceOnUse"><stop stop-color="#883CBA"/><stop offset="1" stop-color="#6C3BEC"/></linearGradient><linearGradient id="j" x1="314.07" x2="314.07" y1="254.925" y2="282.525" gradientUnits="userSpaceOnUse"><stop stop-color="#883CBA"/><stop offset="1" stop-color="#6C3BEC"/></linearGradient><linearGradient id="k" x1="314.07" x2="314.07" y1="254.925" y2="282.525" gradientUnits="userSpaceOnUse"><stop stop-color="#883CBA"/><stop offset="1" stop-color="#6C3BEC"/></linearGradient><linearGradient id="l" x1="292.027" x2="292.027" y1="252.634" y2="266.032" gradientUnits="userSpaceOnUse"><stop stop-color="#883CBA"/><stop offset="1" stop-color="#6C3BEC"/></linearGradient><linearGradient id="m" x1="267.282" x2="267.282" y1="286.934" y2="294.825" gradientUnits="userSpaceOnUse"><stop stop-color="#883CBA"/><stop offset="1" stop-color="#6C3BEC"/></linearGradient><linearGradient id="n" x1="299.123" x2="299.123" y1="248.369" y2="257.158" gradientUnits="userSpaceOnUse"><stop stop-color="#883CBA"/><stop offset="1" stop-color="#6C3BEC"/></linearGradient><linearGradient id="o" x1="273.075" x2="273.075" y1="312.115" y2="312.785" gradientUnits="userSpaceOnUse"><stop stop-color="#883CBA"/><stop offset="1" stop-color="#6C3BEC"/></linearGradient><linearGradient id="p" x1="272.206" x2="272.206" y1="281.897" y2="315.958" gradientUnits="userSpaceOnUse"><stop stop-color="#883CBA"/><stop offset="1" stop-color="#6C3BEC"/></linearGradient><linearGradient id="b" x1="-49.518" x2="482.93" y1="-76.662" y2="191.34" gradientUnits="userSpaceOnUse"><stop stop-color="#5D488B" stop-opacity=".63"/><stop offset="1" stop-color="#3A335B" stop-opacity=".64"/></linearGradient><linearGradient id="r" x1="307.766" x2="307.766" y1="250.915" y2="293.465" gradientUnits="userSpaceOnUse"><stop stop-color="#883CBA"/><stop offset="1" stop-color="#6C3BEC"/></linearGradient><linearGradient id="s" x1="293.371" x2="293.371" y1="255.325" y2="265.301" gradientUnits="userSpaceOnUse"><stop stop-color="#883CBA"/><stop offset="1" stop-color="#6C3BEC"/></linearGradient><linearGradient id="t" x1="296.449" x2="296.449" y1="255.595" y2="256.095" gradientUnits="userSpaceOnUse"><stop stop-color="#883CBA"/><stop offset="1" stop-color="#6C3BEC"/></linearGradient><linearGradient id="u" x1="280.446" x2="280.446" y1="240.758" y2="295.855" gradientUnits="userSpaceOnUse"><stop stop-color="#883CBA"/><stop offset="1" stop-color="#6C3BEC"/></linearGradient><linearGradient id="v" x1="323.636" x2="323.636" y1="255.834" y2="338.945" gradientUnits="userSpaceOnUse"><stop stop-color="#883CBA"/><stop offset="1" stop-color="#6C3BEC"/></linearGradient><linearGradient id="w" x1="302.481" x2="302.481" y1="296.086" y2="319.635" gradientUnits="userSpaceOnUse"><stop stop-color="#883CBA"/><stop offset="1" stop-color="#6C3BEC"/></linearGradient><linearGradient id="x" x1="299.37" x2="299.37" y1="256.555" y2="276.685" gradientUnits="userSpaceOnUse"><stop stop-color="#883CBA"/><stop offset="1" stop-color="#6C3BEC"/></linearGradient><linearGradient id="z" x1="185.384" x2="185.384" y1="239.71" y2="320.82" gradientUnits="userSpaceOnUse"><stop stop-color="#883CBA"/><stop offset="1" stop-color="#6C3BEC"/></linearGradient><linearGradient id="A" x1="165.578" x2="165.578" y1="295.452" y2="300.794" gradientUnits="userSpaceOnUse"><stop stop-color="#883CBA"/><stop offset="1" stop-color="#6C3BEC"/></linearGradient><linearGradient id="B" x1="178.86" x2="178.86" y1="293.988" y2="299.209" gradientUnits="userSpaceOnUse"><stop stop-color="#883CBA"/><stop offset="1" stop-color="#6C3BEC"/></linearGradient><linearGradient id="C" x1="192.95" x2="192.95" y1="295.952" y2="303.224" gradientUnits="userSpaceOnUse"><stop stop-color="#883CBA"/><stop offset="1" stop-color="#6C3BEC"/></linearGradient><linearGradient id="D" x1="154.784" x2="154.784" y1="303.099" y2="307.914" gradientUnits="userSpaceOnUse"><stop stop-color="#883CBA"/><stop offset="1" stop-color="#6C3BEC"/></linearGradient><linearGradient id="E" x1="246.054" x2="246.054" y1="60.584" y2="143.454" gradientUnits="userSpaceOnUse"><stop stop-color="#883CBA"/><stop offset="1" stop-color="#6C3BEC"/></linearGradient><filter id="a" width="542.859" height="520.705" x="-36" y="-39.5" color-interpolation-filters="sRGB" filterUnits="userSpaceOnUse"><feFlood flood-opacity="0" result="BackgroundImageFix"/><feGaussianBlur in="BackgroundImageFix" stdDeviation="20"/><feComposite in2="SourceAlpha" operator="in" result="effect1_backgroundBlur_119_1405"/><feColorMatrix in="SourceAlpha" result="hardAlpha" values="0 0 0 0 0 0 0 0 0 0 0 0 0 0 0 0 0 0 127 0"/><feMorphology in="SourceAlpha" radius="15" result="effect2_dropShadow_119_1405"/><feOffset dy="50"/><feGaussianBlur stdDeviation="25"/><feComposite in2="hardAlpha" operator="out"/><feColorMatrix values="0 0 0 0 0.0481914 0 0 0 0 0.0364167 0 0 0 0 0.1 0 0 0 0.15 0"/><feBlend in2="effect1_backgroundBlur_119_1405" result="effect2_dropShadow_119_1405"/><feBlend in="SourceGraphic" in2="effect2_dropShadow_119_1405" result="shape"/></filter></defs></svg>