<svg xmlns="http://www.w3.org/2000/svg" width="141" height="32" fill="none"><path fill="#3DAEFF" d="M81.778 12.595h-5.55v.59c1.736 0 2.015.371 2.015 2.574v3.97c0 2.202-.279 2.605-2.015 2.605-1.333-.186-2.233-.9-3.473-2.264l-1.426-1.55c1.922-.342 2.945-1.552 2.945-2.917 0-1.705-1.457-3.008-4.186-3.008h-5.457v.59c1.736 0 2.015.371 2.015 2.574v3.97c0 2.202-.279 2.605-2.015 2.605v.59h6.17v-.59c-1.736 0-2.015-.403-2.015-2.605v-1.117h.527l3.442 4.311h9.023c4.434 0 6.357-2.357 6.357-5.18 0-2.822-1.923-5.148-6.357-5.148ZM68.786 17.65v-4.124h1.271c1.395 0 2.016.961 2.016 2.078 0 1.085-.62 2.047-2.016 2.047h-1.27Zm13.085 4.312h-.217c-1.116 0-1.271-.28-1.271-1.706v-6.73h1.488c3.225 0 3.814 2.357 3.814 4.187 0 1.891-.59 4.249-3.814 4.249ZM47.36 18.8l2.14-6.328c.62-1.83.341-2.357-1.643-2.357v-.62h5.83v.62c-1.954 0-2.42.465-3.194 2.73l-3.536 10.607h-.403l-3.163-9.708-3.224 9.708h-.403l-3.442-10.608c-.744-2.264-1.24-2.729-3.039-2.729v-.62h6.884v.62c-1.83 0-2.326.434-1.675 2.357l2.078 6.327 3.132-9.304h.589l3.07 9.304ZM57.903 23.327c-3.411 0-6.202-2.512-6.202-5.583 0-3.04 2.791-5.552 6.202-5.552 3.41 0 6.201 2.513 6.201 5.552 0 3.071-2.79 5.583-6.201 5.583Zm0-10.172c-2.853 0-3.845 2.573-3.845 4.59 0 2.047.992 4.59 3.845 4.59 2.884 0 3.876-2.543 3.876-4.59 0-2.017-.992-4.59-3.876-4.59Z"/><path fill="#fff" d="M95.792 22.303v.62h-7.1v-.62c2.077 0 2.45-.527 2.45-3.63v-4.961c0-3.102-.373-3.598-2.45-3.598v-.62h6.418c3.194 0 4.961 1.643 4.961 3.845 0 2.14-1.767 3.815-4.961 3.815h-1.768v1.52c0 3.102.372 3.629 2.45 3.629ZM95.11 10.61h-1.768v5.397h1.768c1.737 0 2.543-1.21 2.543-2.668 0-1.488-.806-2.73-2.543-2.73ZM121.374 20.008l-.155.558c-.279 1.024-.621 1.396-2.822 1.396h-.435c-1.612 0-1.891-.372-1.891-2.574V17.96c2.419 0 2.605.217 2.605 1.83h.589v-4.622h-.589c0 1.613-.186 1.83-2.605 1.83v-3.473h1.705c2.202 0 2.543.372 2.822 1.396l.155.588h.496l-.216-2.915h-9.117v.59c1.736 0 2.016.371 2.016 2.574v3.97c0 2.014-.237 2.522-1.606 2.594-1.302-.199-2.195-.909-3.417-2.253l-1.427-1.55c1.923-.342 2.946-1.552 2.946-2.917 0-1.705-1.457-3.008-4.186-3.008h-5.457v.59c1.736 0 2.015.371 2.015 2.574v3.97c0 2.202-.278 2.605-2.015 2.605v.59h6.171v-.59c-1.736 0-2.016-.403-2.016-2.605v-1.117h.527l3.442 4.311h12.744l.186-2.915h-.465ZM104.94 17.65v-4.124h1.271c1.395 0 2.016.961 2.016 2.078 0 1.085-.621 2.047-2.016 2.047h-1.271ZM127.669 23.327c-1.24 0-2.326-.651-2.791-1.055-.155.156-.434.62-.496 1.055h-.589v-4.28h.62c.248 2.047 1.674 3.256 3.504 3.256.992 0 1.799-.558 1.799-1.488 0-.806-.714-1.427-1.985-2.016l-1.767-.837c-1.241-.59-2.171-1.613-2.171-2.978 0-1.489 1.395-2.76 3.318-2.76 1.023 0 1.891.372 2.419.806.154-.124.31-.465.403-.838h.589v3.66h-.651c-.218-1.457-1.024-2.667-2.667-2.667-.868 0-1.675.496-1.675 1.272 0 .806.652 1.24 2.14 1.923l1.705.837c1.489.713 2.078 1.861 2.078 2.792 0 1.953-1.706 3.318-3.783 3.318ZM137.218 23.327c-1.241 0-2.326-.651-2.791-1.055-.155.156-.434.62-.496 1.055h-.589v-4.28h.62c.248 2.047 1.674 3.256 3.504 3.256.992 0 1.799-.558 1.799-1.488 0-.806-.713-1.427-1.985-2.016l-1.768-.837c-1.24-.59-2.17-1.613-2.17-2.978 0-1.489 1.395-2.76 3.318-2.76 1.023 0 1.891.372 2.418.806.155-.124.31-.465.403-.838h.589v3.66h-.651c-.217-1.457-1.023-2.667-2.666-2.667-.868 0-1.675.496-1.675 1.272 0 .806.651 1.24 2.14 1.923l1.705.837c1.489.713 2.077 1.861 2.077 2.792 0 1.953-1.705 3.318-3.782 3.318ZM2.273 16c0 5.433 3.157 10.128 7.734 12.353L3.462 10.414A13.676 13.676 0 0 0 2.272 16ZM25.259 15.307c0-1.696-.61-2.871-1.132-3.785-.696-1.131-1.348-2.089-1.348-3.22 0-1.26.957-2.435 2.305-2.435.06 0 .118.007.177.01a13.67 13.67 0 0 0-9.266-3.603c-4.794 0-9.012 2.46-11.466 6.187.322.01.626.017.883.017 1.436 0 3.658-.175 3.658-.175.74-.043.826 1.044.088 1.131 0 0-.744.088-1.571.13l4.997 14.868 3.003-9.008-2.138-5.86c-.739-.043-1.439-.13-1.439-.13-.74-.044-.653-1.175.087-1.131 0 0 2.266.174 3.614.174 1.435 0 3.658-.174 3.658-.174.74-.044.827 1.043.088 1.13 0 0-.745.088-1.571.131l4.959 14.755 1.369-4.575c.593-1.898 1.045-3.262 1.045-4.437Z"/><path fill="#fff" d="M16.236 17.2 12.12 29.169a13.722 13.722 0 0 0 8.433-.22 1.203 1.203 0 0 1-.097-.189l-4.219-11.558ZM28.037 9.414c.06.437.093.906.093 1.411 0 1.393-.26 2.959-1.044 4.916l-4.191 12.122c4.08-2.38 6.823-6.8 6.823-11.864 0-2.386-.609-4.63-1.68-6.585Z"/><path fill="#fff" d="M15.996 0C7.176 0 0 7.177 0 16s7.176 16 15.996 16 15.997-7.177 15.997-16S24.816 0 15.996 0Zm0 31.267C7.581 31.267.733 24.417.733 16 .733 7.582 7.58.734 15.996.734S31.258 7.582 31.258 16s-6.846 15.267-15.262 15.267Z"/></svg>