<svg xmlns="http://www.w3.org/2000/svg" width="164" height="32" fill="none"><g clip-path="url(#a)"><path fill="#fff" d="M16.294 16.753c0 2.447-.728 4.509-2.19 6.177-1.524 1.749-3.505 2.627-5.93 2.627-2.432 0-4.407-.878-5.932-2.627C.78 21.262.047 19.2.047 16.753c0-2.454.733-4.515 2.195-6.178 1.542-1.732 3.523-2.598 5.931-2.598 2.426 0 4.407.866 5.932 2.598 1.46 1.663 2.189 3.724 2.189 6.178Zm-4.83 0c0-1.109-.264-2.044-.796-2.8-.594-.86-1.426-1.288-2.495-1.288-1.068 0-1.9.427-2.495 1.287-.537.757-.803 1.692-.803 2.8 0 1.103.266 2.05.803 2.83.595.86 1.427 1.287 2.495 1.287 1.069 0 1.9-.428 2.495-1.288.532-.779.797-1.726.797-2.828Zm22.29 0c0 2.286-.66 4.283-1.982 5.992-1.415 1.87-3.24 2.812-5.458 2.812-1.565 0-2.893-.456-3.98-1.357 0 .207.024.71.07 1.513.046.807.07 1.466.07 1.985 0 2.87-.856 4.302-2.565 4.302-.699 0-1.27-.248-1.727-.74-.45-.495-.676-1.091-.676-1.795V10.8c0-.68.232-1.27.693-1.766a2.263 2.263 0 0 1 1.716-.738c1.028 0 1.779.512 2.252 1.535 1.011-1.236 2.391-1.854 4.141-1.854 2.224 0 4.043.924 5.464 2.777 1.317 1.715 1.981 3.713 1.981 5.999Zm-4.83 0c0-1.109-.27-2.044-.802-2.8-.595-.86-1.427-1.288-2.495-1.288-1.069 0-1.9.427-2.495 1.287-.532.757-.797 1.692-.797 2.8 0 1.103.265 2.05.797 2.83.595.86 1.426 1.287 2.495 1.287 1.068 0 1.9-.428 2.495-1.288.532-.779.802-1.726.802-2.828Zm22.398-.52c0 .808-.19 1.362-.572 1.675-.38.305-.976.461-1.779.461h-8.715c0 .924.433 1.634 1.3 2.13.698.387 1.553.584 2.564.584.786 0 1.727-.26 2.83-.774 1.103-.52 1.813-.774 2.12-.774.56 0 1.033.202 1.426.618.387.41.584.906.584 1.478 0 1.322-.988 2.35-2.964 3.089a13.24 13.24 0 0 1-4.602.837c-2.518 0-4.551-.837-6.105-2.505-1.554-1.67-2.333-3.765-2.333-6.3 0-2.413.808-4.474 2.425-6.193 1.611-1.722 3.616-2.582 6.007-2.582 2.223 0 4.083.815 5.573 2.442 1.49 1.629 2.241 3.568 2.241 5.815Zm-4.828-1.212c-.023-.74-.364-1.409-1.023-2.016-.658-.606-1.357-.905-2.096-.905-.762 0-1.473.3-2.131.905-.658.607-.988 1.276-.988 2.016h6.238Zm21.051 7.683c0 .705-.225 1.3-.675 1.796-.456.491-1.028.74-1.727.74-1.686 0-2.53-1.34-2.53-4.013 0-.514.035-1.322.104-2.436a39.64 39.64 0 0 0 .11-2.437c0-2.835-.918-4.254-2.75-4.254-1.83 0-2.743 1.42-2.743 4.254 0 .514.03 1.328.081 2.437.058 1.114.087 1.922.087 2.436 0 2.673-.832 4.012-2.495 4.012-.7 0-1.27-.248-1.721-.739-.456-.497-.682-1.09-.682-1.796V10.795c0-.7.226-1.293.682-1.772.45-.486 1.028-.727 1.727-.727 1.155 0 1.957.512 2.408 1.535.78-1.236 2.16-1.854 4.135-1.854 1.831 0 3.287.485 4.355 1.45 1.092 1.033 1.634 2.453 1.634 4.26v9.017Zm15.15-.513c0 1.091-.71 1.957-2.131 2.593a8.584 8.584 0 0 1-3.587.773c-2.432 0-4.407-.878-5.931-2.627-1.462-1.668-2.195-3.73-2.195-6.177 0-2.454.745-4.526 2.24-6.224 1.496-1.703 3.454-2.552 5.886-2.552 1.403 0 2.61.208 3.616.618 1.403.555 2.101 1.42 2.101 2.598a2.43 2.43 0 0 1-.554 1.576c-.37.45-.844.681-1.42.681-.394 0-.96-.132-1.699-.392-.739-.266-1.327-.393-1.76-.393-1.15 0-2.046.41-2.687 1.23-.595.739-.895 1.686-.895 2.858 0 1.102.266 2.038.803 2.794.594.883 1.433 1.322 2.5 1.322.475 0 1.121-.139 1.947-.422.826-.276 1.421-.42 1.79-.42.538 0 1 .23 1.393.68.387.456.582.947.582 1.484Zm17.551.513c0 .705-.225 1.3-.675 1.796-.456.491-1.034.74-1.733.74-1.051 0-1.802-.515-2.253-1.537-1.01 1.236-2.39 1.854-4.14 1.854-2.24 0-4.077-.941-5.499-2.812-1.293-1.709-1.945-3.706-1.945-5.992s.651-4.284 1.945-5.999c1.445-1.853 3.275-2.777 5.499-2.777 1.75 0 3.13.618 4.14 1.854.451-1.023 1.202-1.535 2.253-1.535.682 0 1.254.247 1.716.738.461.496.692 1.08.692 1.761v11.91Zm-4.828-5.951c0-1.109-.265-2.044-.797-2.8-.618-.86-1.45-1.288-2.495-1.288-1.068 0-1.9.427-2.495 1.287-.537.757-.802 1.692-.802 2.8 0 1.103.259 2.05.772 2.83.614.86 1.457 1.287 2.525 1.287 1.068 0 1.9-.428 2.495-1.288.532-.779.797-1.726.797-2.828Zm17.148-6.276c0 1.033-.503 1.743-1.508 2.13-.929.312-1.854.63-2.778.958-1.011.578-1.513 1.652-1.513 3.21v5.93c0 .704-.232 1.298-.681 1.795-.457.491-1.035.74-1.733.74-.704 0-1.283-.249-1.732-.74-.457-.497-.682-1.09-.682-1.796V10.795c0-.7.225-1.293.675-1.772.456-.486 1.035-.727 1.734-.727 1.154 0 1.956.512 2.408 1.535 1.034-1.236 2.143-1.854 3.338-1.854.681 0 1.265.248 1.75.739.479.497.722 1.085.722 1.761Zm12.596.22c0 1.073-.421 1.749-1.258 2.038-.411.144-1.272.219-2.583.219v9.75c0 .705-.231 1.3-.68 1.796-.458.491-1.035.74-1.733.74-.681 0-1.26-.249-1.722-.74-.462-.497-.693-1.09-.693-1.796v-9.75c-.993 0-1.715-.127-2.171-.375-.623-.347-.931-.976-.931-1.883 0-.905.318-1.523.959-1.853.433-.242 1.15-.369 2.143-.369V6.407c0-2.43.802-3.642 2.415-3.642 1.605 0 2.413 1.212 2.413 3.642v2.067c1.311 0 2.172.075 2.583.219.837.289 1.258.959 1.258 2.004Z"/><path fill="url(#b)" d="M163.952 7.765c-.013-1.482-2.753-2.154-9.844-2.154-16.639 0-20.86-.71-25.378-5.463 1.901 2.854 2.941 8.205 20.527 7.939 18.349-.283 7.155 4.729 3.898 10.391 5.874-5.24 10.779-8.694 10.797-10.691v-.022Zm-23.381 15.217a2.525 2.525 0 0 1-2.513 2.511 2.514 2.514 0 0 1-2.518-2.51v-.003a2.528 2.528 0 0 1 2.517-2.515h.001a2.514 2.514 0 0 1 2.513 2.517Zm11.458 0a2.525 2.525 0 0 1-2.513 2.511 2.515 2.515 0 0 1-2.517-2.51v-.003a2.528 2.528 0 0 1 2.516-2.515h.001a2.514 2.514 0 0 1 2.513 2.517Z"/></g><defs><linearGradient id="b" x1="81.999" x2="81.999" y1="25.344" y2=".149" gradientUnits="userSpaceOnUse"><stop stop-color="#04B6F0"/><stop offset="1" stop-color="#3ECAF0"/></linearGradient><clipPath id="a"><path fill="#fff" d="M0 0h164v32H0z"/></clipPath></defs></svg>