<svg xmlns="http://www.w3.org/2000/svg" width="118" height="32" fill="none"><path fill="#30C5F0" d="M72.719 27.113h12.737v-2.81H77.01c1.15-4.636 8.248-5.648 8.248-10.846 0-2.81-1.907-4.832-5.863-4.832-2.525 0-4.63.758-6.116 1.489l.898 2.585c1.374-.618 2.861-1.237 4.685-1.237 1.487 0 2.862.619 2.862 2.332.056 3.822-8.249 4.103-9.006 13.319Zm38.211-3.906c-3.872 0-7.07-3.203-7.07-7.08 0-3.878 3.198-7.081 7.07-7.081 3.871 0 7.07 3.203 7.07 7.08 0 3.878-3.199 7.081-7.07 7.081Zm0-12.897a5.775 5.775 0 0 0-5.779 5.788 5.775 5.775 0 0 0 5.779 5.788 5.775 5.775 0 0 0 5.779-5.788c0-3.175-2.581-5.788-5.779-5.788Z"/><path fill="#30C5F0" d="M114.942 16.127h-3.535v-3.54h-.954v4.495h4.489v-.955Z"/><path fill="#fff" d="M0 6.096h6.116c4.489 0 6.537 2.585 6.537 5.31 0 1.855-.898 3.484-2.525 4.355v.057c2.44.618 3.956 2.584 3.956 5.057 0 3.287-2.441 6.21-7.35 6.21H0V6.095Zm5.667 8.794c2.104 0 3.283-1.152 3.283-2.81 0-1.573-1.01-2.81-3.283-2.81H3.9v5.592c-.028.028 1.767.028 1.767.028Zm.59 9.076c2.524 0 3.955-.956 3.955-3.063 0-1.77-1.375-2.866-3.479-2.866H3.872v5.929h2.384ZM16.944 7.332A2.307 2.307 0 0 1 19.274 5c1.319 0 2.385.955 2.385 2.332 0 1.236-1.01 2.248-2.385 2.248-1.375 0-2.329-.955-2.329-2.248Zm.421 4.692h3.816v15.06h-3.816v-15.06Zm8.922 11.38v-8.401h-2.722v-3.007h2.722V8.512l3.815-1.096v4.58h4.573l-.954 3.007h-3.619v7.445c0 1.433.477 1.911 1.487 1.911.898 0 1.711-.337 2.329-.759l1.15 2.585c-1.094.759-2.918 1.152-4.433 1.152-2.721.113-4.348-1.404-4.348-3.933Zm10.829-11.38h3.198l.421 1.714c1.375-1.377 2.581-2.05 4.152-2.05.674 0 1.487.196 2.104.617l-1.374 3.203a3.109 3.109 0 0 0-1.712-.477c-1.01 0-1.851.421-3.058 1.489v10.649h-3.815V12.024h.084Zm11.362-4.692A2.307 2.307 0 0 1 50.808 5c1.319 0 2.328 1.011 2.328 2.332 0 1.236-1.01 2.248-2.384 2.248-1.375 0-2.273-.955-2.273-2.248Zm.421 4.692h3.816v15.06H48.9v-15.06Zm11.503 7.502-5.443-7.502h3.956l3.535 4.917 3.619-4.917h3.956l-5.527 7.502 5.583 7.558h-3.956l-3.62-5.057-3.674 5.057h-3.956c0 .029 5.527-7.558 5.527-7.558Z"/><path fill="#30C5F0" d="M97.296 19.948V8.625h-2.385l-9.061 11.8v2.248h8.192v4.496h3.282v-4.496h2.722v-2.725h-2.75Zm-3.254-2.67v2.585h-2.189c-.673 0-1.907.057-2.328.057l4.629-6.266c.028.562-.112 2.191-.112 3.625Z"/></svg>