<svg xmlns="http://www.w3.org/2000/svg" width="64" height="64" fill="none"><path stroke="url(#a)" stroke-width="2" d="m9.736 10.62.737-.757.143 12.16c.081 6.965.132 10.656.245 12.822.116 2.21.304 2.933.68 3.934 1.369 3.64 2.861 6.005 5.413 8.542 6.602 6.566 16.31 8.216 24.563 4.15 7.74-3.813 12.633-12.101 12.064-20.516-.38-5.618-2.297-9.78-6.367-13.87-3.079-3.094-6.725-5.136-10.715-5.969l-.487-.102c-.713-.151-1.31-.277-1.775-.342a4.329 4.329 0 0 0-.855-.049 1.87 1.87 0 0 0-.899.272c-.643.41-.77 1.118-.816 1.583-.04.41-.039.943-.037 1.547l.001.4V18.068l.82.15 2.11.389c7.622 1.402 12.66 8.88 11.073 16.41-.503 2.39-1.624 4.51-3.46 6.49-2.755 2.971-6.645 4.397-10.024 4.39-5.608-.01-10.284-3.182-12.56-7.886l-.019-.042a24.8 24.8 0 0 1-.303-.737c-.183-.467-.37-.991-.454-1.36-.573-2.489-.686-6.446-.644-9.864a123.934 123.934 0 0 1 .224-5.992l.006-.091.002-.023v-.007l.003-.037v-.038l-.09-15.516.144-.075c.023.819.045 1.953.066 3.334.046 2.968.087 7.061.112 11.566l-.008.087-.035.39a113.692 113.692 0 0 0-.356 6.04c-.056 1.783-.067 3.724.027 5.514.094 1.772.295 3.47.692 4.732a55.217 55.217 0 0 0 .543 1.62l.047.137.013.037.004.01v.003l.945-.329-.944.33.02.057.026.054c1.334 2.713 3.492 5.145 6.348 6.495.986.467 1.81.847 2.778 1.097.976.252 2.05.362 3.565.362 2.138 0 3.996-.68 5.986-1.593 1.304-.6 2.644-1.658 3.774-2.876 1.132-1.22 2.12-2.668 2.665-4.1C47.624 29.6 43.582 21.4 35.802 19.12l-.191-.056c-.627-.185-1.174-.345-1.603-.425-.418-.078-1.103-.165-1.66.276-.538.427-.636 1.101-.676 1.53-.042.448-.041 1.035-.04 1.718v3.771l.741.198 1.416.378c4.314 1.152 5.67 6.99 2.253 9.983-.649.569-1.22.939-1.849 1.176-.63.238-1.38.364-2.414.364-1.986 0-3.95-1.211-4.966-3.12-.595-1.119-.649-2.188-.649-2.693 0-2.669-.029-6.4-.058-9.46a2448.207 2448.207 0 0 0-.052-5.037l-.004-.313-.001-.081V17.3l-.091-15.64c.39-.089 1.911-.321 3.474-.52C34.572.485 42.32 2.182 47.51 5.147 54.572 9.18 59.928 16.122 62.158 24.15c.39 1.408.593 2.264.705 3.315.114 1.074.137 2.373.137 4.671 0 2.287-.023 3.589-.136 4.66-.11 1.049-.31 1.896-.691 3.271-3.033 10.91-10.725 18.695-21.774 22.009-2.267.68-3.285.813-7.47.902-3.401.073-5.512-.039-6.903-.326-5.434-1.124-10.497-3.63-14.46-7.145C1.362 46.46-1.794 32.255 3.601 19.597c1.311-3.078 3.457-6.229 6.134-8.977Z"/><defs><linearGradient id="a" x1="12.5" x2="48.5" y1="8.5" y2="55.5" gradientUnits="userSpaceOnUse"><stop stop-color="red"/><stop offset="1" stop-color="#FF006B"/></linearGradient></defs></svg>