<svg xmlns="http://www.w3.org/2000/svg" width="528" height="559" fill="none"><path fill="url(#a)" d="M352.405 349.275c-64.303 16.978-132.864-31.497-153.137-108.273-20.273-76.777 15.421-152.78 79.723-169.76 64.302-16.978 132.864 31.497 153.136 108.274 20.273 76.776-15.42 152.78-79.722 169.759Z"/><path fill="url(#b)" d="M277.606 68.947c65.335-17.251 134.986 31.994 155.579 109.987 20.594 77.993-15.666 155.203-81.001 172.455-65.335 17.251-134.986-31.994-155.58-109.987-20.594-77.993 15.667-155.203 81.002-172.455Zm-14.454 235.026c4.944 12.412 24.485 28.153 54.407 21.421 29.921-6.733 17.08-3.082 36.88-8.895 19.821-5.818 39.076-15.251 51.713-34.75 12.638-19.5 19.671-9.089 16.386-25.79-3.284-16.702-3.081-27.487-2.64-41.386.441-13.899-7.033-11.883-4.832-25.922 2.2-14.039-.113-31.646-11.825-44.781-11.707-13.115-33.153-38.695-64.066-45.96-30.913-7.264-59.968-7.576-77.603 8.159-17.64 15.714-45.637 54.155-47.813 69.269-2.181 15.094 2.222 50.454 5.45 62.433 6.445 23.916 19.207 32.424 21.58 39.933 2.352 7.514 17.425 13.876 22.369 26.289l-.006-.02Z" style="mix-blend-mode:multiply"/><path fill="url(#c)" d="M352.184 351.389c-65.33 17.25-134.986-31.992-155.58-109.987-20.594-77.994 15.672-155.204 81.002-172.455 65.33-17.25 134.985 31.993 155.579 109.987 20.595 77.994-15.671 155.204-81.001 172.455Z" style="mix-blend-mode:multiply"/><path fill="url(#d)" d="M380.229 131.209s3.691 7.831 4.845 13.022c1.155 5.191-2.259-16.258-57.106-20.665-54.847-4.406-69.036 72.234-69.036 72.234s-3.922-37.391 9.442-53.728c0 0-18.23 11.348-19.048 48.649-.819 37.301 49.851 83.249 49.851 83.249s-23.902-19.717-28.291-18.147c-4.389 1.57 20.044 40.014 46.757 40.88 26.713.865 39.311-45.172 39.311-45.172s-3.492 16.933 5.207 5.462 25.901-68.914 6.686-87.273c-19.215-18.359-79.071-16.986-74.983 35.616 4.087 52.601 26.785 69.153 36.819 64.707 0 0-18.136 15.391-36.307-38.511 0 0 11.189 50.488 32.848 47.127 21.66-3.36 30.949-71.762 30.94-83.595-.009-11.832-15.14-17.92-15.14-17.92s10.483 1.105 17.083 12.085c0 0-12.312-24.011-34.614-15.872s-23.435 34.986-23.435 34.986 1.376-15.768 16.8-20.534c0 0-17.552 7.772-13.317 41.511 4.26 33.753 13.539 34.31 27.088 11.952 13.543-22.378 25.206-49.258 15.227-52.876-9.984-3.638-34.519 5.545-37.722 20.952-3.222 15.412 1.892 40.026 8.827 35.641 6.935-4.384 28.283-43.752 20.359-45.901-7.925-2.148-23.288 9.157-22.756 17.974.552 8.812.595 21.674 12.28 5.369 0 0-2.439 3.219-5.102 4.116-2.647.873-4.545-13.772-1.938-18.485 2.607-4.713 21.051-5.991 12.952 11.358-8.124 17.334-25.427 18.592-25.051 2.807 0 0 .165 7.096 6.535 8.768-2.049-.714-7.123-4.113-4.86-19.964 2.811-19.674 32.145-16.255 35.493-14.803 3.348 1.453-5.697 26.279-9.559 35.499-3.863 9.22-25.597 32.29-30.11 4.055-4.512-28.234 6.947-49.326 26.535-53.979 19.587-4.653 24.445 10.141 23.558 16.368-.888 6.228-6.623 29.66-12.924 38.983 0 0 6.68-10.591 7.939-8.609 1.245 2.008-9.931 31.14-16.987 33.263-5.874 1.767 2.609-13.801 5.615-19.052-2.359 3.933-8.681 13.586-15.227 16.332-8.296 3.489-20.838-5.576-25.081-21.808-4.263-16.227-10.769-39.391 7.571-57.043 18.341-17.651 41.087-9.767 50.287-4.342 0 0-20.331-14.061-38.402-4.898 0 0 16.386-12.678 31.823-9.203 15.411 3.46 27.26 20.475 20.049 37.828 0 0 1.937-15.527-9.214-21.951 2.821 1.916 9.342 8.502 5.899 27.175-4.187 22.742-6.633-9.305-6.793-11.383.076 1.105 1.351 19.376-3.454 38.625-4.951 19.85-17.757 51.164-34.066 47.746-16.309-3.418-44.985-42.04-30.368-91.899 0 0-7.591 19.27-6.407 41.784 0 0-9.067-9.181-11.982-38.249-2.935-29.061 33.043-59.57 56.066-55.632 23.024 3.938-29.928 27.029-29.928 27.029s21.912-6.499 35.602-13.49c13.685-7.01 24.903-12.958 35.799-1.274 10.897 11.685-9.863 2.8-9.863 2.8s13.852 7.225 21.004 31.69c7.152 24.465 8.379 46.318-4.196 71.708-12.581 25.37-17.365 28.148-15.884 20.4 1.481-7.747 9.524-30.88 9.524-30.88s-6.495 16.211-13.449 30.272c-6.96 14.041-33.007 42.988-63.078 19.901-30.065-23.066-54.115-55.965-51.38-106.083 0 0-4.038 18.959 5.382 56.11 0 0-22.522-29.407-2.009-78.573 0 0-17.191 21.676-9.025 68.418 8.167 46.743 56.024 68.357 56.024 68.357s-12.212.541-27.961-15.098c0 0 26.217 34.88 73.743 20.08 47.525-14.799 50.145-87.151 49.906-97.235-.214-10.07 19.888 46.395-19.334 77.89 0 0 30.867-13.559 37.566-58.255 6.698-44.696-22.705-99.181-75.488-97.901 0 0 17.951-2.49 36.9 6.419-16.364-7.968-60.04-23.828-90.523 15.032-38.169 48.678 5.833 100.433 5.833 100.433s-16.818-28.209-14.584-44.745c2.233-16.536 17.318 46.576 32.898 70.179 0 0-41.064-36.693-42.644-78.489-1.581-41.795 36.575-92.244 97.491-68.95 60.916 23.293 58.572 98.905 55.928 123.144-2.65 24.218-48.129 67.99-108.583 59.806 0 0 8.898 5.916 21.941 6.474 0 0-40.647 1.105-70.307-28.949-28.055-28.401-50.511-65.918-41.93-109.466-1.98 12.661-2.386 40.376 19.744 77.07-6.004-10.531-24.268-47.986-11.614-96.678-1.168 4.917-12.142 55.957 22.303 100.282 0 0-54.088-109.047 28.117-140.749 82.205-31.702-5.982-25.358-43.051 22.813 0 0 23.205-38.971 41.606-43.938 18.4-4.967 54.262.883 54.262.883s-8.987-.029-5.865 3.106c3.147 3.15 29.319 7.621 24.809 3.489-4.51-4.132-14.243-5.673-14.243-5.673s19.719-.793 44.204 15.807c24.505 16.594 32.312 44.196 32.302 52.269-.036 8.058-21.02-24.373-29.376-40.039l.015-.025Zm-3.506 9.667c.435.253.87.506 1.31.779 0 0-.466-.288-1.31-.779Z" opacity=".23" style="mix-blend-mode:screen"/><path fill="url(#e)" d="m171.101 191.362 9.036-15.519 6.857-1.811-3.962-15.008 3.412-3.303 12.737-2.649-4.747-22.568c5.725-29.207 33.09-53.98 33.09-53.98l24.002 6.493c7.616-15.08 7.898-36.055 7.898-36.055l8.235 1.114 11.103-13.512 76.793 32.863 6.302-3.914 6.27 9.898 6.249-6.41 70.689 75.713-1.484 10.605 8.278 9.39c-1.794 51.06 2.954 101.409 2.954 101.409l-5.346 2.862.902 3.418c-9.875 14.637-12.695 32.886-12.695 32.886l-18.227 1.524-1.832 16.17-12.471 3.661-3.412 12.563-53.753 46.281-19.441-19.295-1.976 6.364-2.852.753-23.537-4.733c-24.888-29.518-41.423-34.283-41.423-34.283l-6.291 1.661-60.884-45.545-3.519-6.362c-9.619-83.877-16.92-90.712-16.92-90.712l-.035.031Zm67.09 89.862 7.541 18.153 6.318 5.407 2.553 15.488 14.345-1.235 5.838 7.114s36.338 9.207 51.016 6.37l6.737 6.421 5.987-13.221s27.29-25.056 55.483-36.287l7.097 1.393 7.007-16.239 22.425-21.521-2.328-16.932s.4-17.004-1.175-35.672c-1.576-18.667-6.062-22.957-6.062-22.957l2.873-22.633-10.238-6.406-6.51 4.273s-23.152-28.679-41.657-39.76l-19.125-20.395-6.403 3.53-5.031-8.646s-59.763 8.445-70.289 12.587l-2.632 16.663s-23.008 14.644-30.441 31.644l-13.859 8.809 3.06 18.556-11.567 12.899 17.646 86.496 11.391 6.101Z"/><path fill="url(#f)" d="m336.227 336.93 10.218-5.554s40.215-7.33 61.273-28.209l-10.345-5.664 13.987 3.231 2.308-22.484 25.244-21.249-7.957-20.877s10.669-38.344 1.624-58.588l.41-25.077-19.381-3.991-6.51 4.272c2.479-14.87-31.543-55.867-31.543-55.867l-8.497 12.889 4.305-18.36s-13.683-7.897-19.915-8.307l-5.127 9.51-1.418-4.385-8.447-6.425-1.554 5.669-2.837-6.154s-30.664-4.603-62.551 2.8l-9.795-37.096 7.986 1.072 11.103-13.512 76.793 32.863 6.302-3.915 6.27 9.899 6.248-6.41 70.69 75.713-1.484 10.605 8.278 9.389c-1.794 51.06 2.954 101.41 2.954 101.41l-5.347 2.861.903 3.419c-9.875 14.637-12.695 32.886-12.695 32.886l-18.227 1.524-1.832 16.17-12.471 3.661-3.412 12.563-53.312 45.904-12.193-46.177-.046-.009Z" opacity=".5" style="mix-blend-mode:multiply"/><g opacity=".56"><path fill="#B3FFFF" d="M304.572 208.847c.042.162.211.226.326.173.137-.057.18-.22.117-.376-.063-.157-.211-.226-.327-.173-.136.057-.179.22-.116.376ZM361.362 160.791c.042.162.21.226.326.173.136-.057.18-.22.117-.376-.043-.162-.211-.226-.327-.173-.136.057-.179.22-.116.376ZM319.896 151.012c.043.162.211.226.327.174.136-.058.18-.221.117-.377-.043-.162-.211-.225-.327-.173-.136.057-.18.22-.117.376ZM339.314 132.362c.043.162.211.226.327.174.136-.058.18-.221.117-.377-.043-.162-.211-.225-.327-.173-.136.057-.18.22-.117.376ZM353.689 205.074c.042.161.21.225.326.173.116-.052.18-.22.117-.377-.043-.161-.211-.225-.327-.173-.116.052-.179.22-.116.377ZM329.501 183.29c.043.162.211.226.327.173.136-.057.179-.22.116-.376-.042-.162-.21-.226-.326-.173-.116.052-.18.22-.117.376ZM303.409 192.97c.042.162.211.226.326.174.137-.058.18-.221.117-.377-.043-.162-.211-.225-.327-.173-.136.057-.179.22-.116.376ZM292.715 254.906c.043.162.211.225.327.173.136-.057.18-.22.117-.377-.043-.161-.211-.225-.327-.173-.116.053-.18.221-.117.377ZM336.939 230.224c.043.162.211.226.327.173.136-.057.179-.22.116-.376-.063-.157-.21-.226-.326-.173-.137.057-.18.22-.117.376ZM331.078 246.788c.042.161.211.225.327.173.136-.058.179-.22.116-.377-.042-.161-.211-.225-.327-.173-.136.058-.179.22-.116.377ZM316.399 296.662c.043.162.211.226.327.173.136-.057.179-.22.117-.376-.043-.162-.211-.226-.327-.173-.136.057-.18.22-.117.376ZM314.4 277.371c.042.161.21.225.326.173.136-.058.18-.22.117-.377-.043-.161-.211-.225-.327-.173-.136.058-.179.22-.116.377ZM357.17 266.77c.042.162.21.226.326.173.136-.057.18-.22.117-.376-.043-.162-.211-.226-.327-.173-.136.057-.179.22-.116.376Z" style="mix-blend-mode:screen"/><path fill="#B3FFFF" d="M295.63 237.346s.087.086.128.075c.04-.011.065-.082.049-.143-.017-.061-.088-.085-.128-.075-.041.011-.065.083-.049.143ZM283.467 248.564s.087.085.128.074c.04-.011.065-.082.049-.143-.016-.06-.088-.085-.128-.074-.041.01-.065.082-.049.143ZM337.742 221.878s.087.085.128.074c.04-.011.065-.082.049-.143-.016-.06-.088-.085-.128-.074-.041.01-.065.082-.049.143ZM341.959 175.241s.087.085.128.074c.04-.01.065-.082.049-.142-.016-.061-.088-.086-.128-.075-.041.011-.065.082-.049.143ZM350.445 159.606s.088.085.128.074c.041-.011.065-.082.049-.143-.016-.06-.087-.085-.128-.074-.04.01-.065.082-.049.143ZM344.634 152.594s.088.085.128.074c.041-.01.065-.082.049-.142-.016-.061-.087-.086-.128-.075-.04.011-.065.082-.049.143ZM357.678 141.188s.087.085.128.074c.04-.01.065-.082.049-.143-.016-.06-.088-.085-.128-.074-.041.01-.065.082-.049.143ZM332.216 127.443s.087.085.128.074c.04-.011.065-.082.049-.143-.016-.061-.088-.085-.128-.074-.041.01-.065.082-.049.143ZM363.554 200.154s.087.085.128.075c.04-.011.065-.083.049-.143-.016-.061-.088-.086-.128-.075-.041.011-.065.082-.049.143ZM363.001 213.304s.088.085.128.074c.041-.01.065-.082.049-.142-.016-.061-.087-.086-.128-.075-.04.011-.065.082-.049.143ZM351.833 214.111s.087.085.128.075c.04-.011.065-.083.049-.143-.016-.061-.088-.086-.128-.075-.041.011-.065.082-.049.143ZM326.25 198.104s.087.085.128.074c.04-.01.065-.082.049-.143-.016-.06-.088-.085-.128-.074-.041.011-.065.082-.049.143ZM312.611 176.196s.087.086.128.075c.04-.011.065-.082.048-.143-.016-.061-.087-.085-.127-.074-.041.01-.065.082-.049.142ZM306.748 219.221s.087.086.128.075c.04-.011.064-.082.048-.143-.016-.061-.087-.085-.128-.075-.04.011-.064.083-.048.143ZM337.775 244.046s.087.085.128.075c.04-.011.065-.083.049-.143-.016-.061-.088-.085-.128-.075-.041.011-.065.082-.049.143ZM308.588 264.216s.088.085.128.075c.041-.011.065-.083.049-.143-.016-.061-.087-.086-.128-.075-.04.011-.065.082-.049.143ZM347.593 289.833s.087.085.128.074c.04-.01.065-.082.049-.143-.016-.06-.088-.085-.128-.074-.041.011-.065.082-.049.143ZM321.571 285.604s.087.085.128.075c.04-.011.065-.082.049-.143-.016-.061-.088-.085-.128-.075-.041.011-.065.082-.049.143ZM338.39 270.388s.088.085.128.074c.041-.01.065-.082.049-.142-.016-.061-.087-.086-.128-.075-.04.011-.065.082-.049.143ZM365.823 248.411s.088.085.128.074c.041-.01.065-.082.049-.143-.016-.06-.087-.085-.128-.074-.04.011-.065.082-.049.143ZM363.51 233.421s.087.085.128.075c.04-.011.065-.083.049-.143-.016-.061-.088-.085-.128-.075-.041.011-.065.082-.049.143Z" opacity=".65" style="mix-blend-mode:screen"/><path fill="#B3FFFF" d="M316.7 230.851c.141-.037.205-.205.142-.361-.063-.157-.196-.251-.332-.194-.141.038-.205.206-.142.362.042.162.196.251.332.193ZM273.903 157.358c.142-.038.206-.206.143-.362-.043-.162-.196-.251-.332-.193-.142.037-.205.205-.143.362.043.161.196.25.332.193ZM266.596 204.335c.141-.037.205-.206.142-.362-.043-.162-.196-.251-.332-.193-.142.037-.205.205-.143.362.063.156.196.25.333.193ZM250.048 178.868c.141-.037.205-.205.142-.362-.043-.161-.196-.251-.332-.193-.142.037-.205.205-.142.362.042.161.196.251.332.193ZM312.157 172.918c.141-.037.205-.205.142-.361-.043-.162-.196-.251-.332-.194-.141.038-.205.206-.142.362.042.162.196.251.332.193ZM294.071 197.924c.141-.038.205-.206.142-.362-.043-.162-.196-.251-.332-.193-.136.057-.205.205-.142.361.042.162.196.251.332.194ZM303.072 229.884c.142-.037.206-.205.143-.362-.043-.161-.196-.25-.332-.193-.142.037-.206.206-.143.362.043.162.196.251.332.193ZM356.579 251.586c.142-.037.205-.205.142-.361-.042-.162-.196-.251-.332-.194-.141.038-.205.206-.142.362.043.162.196.251.332.193ZM334.198 196.243c.141-.038.205-.206.142-.362-.043-.162-.196-.251-.332-.194-.142.038-.205.206-.142.362.042.162.196.251.332.194ZM348.58 205.557c.141-.037.205-.205.142-.362-.043-.161-.196-.251-.332-.193-.142.037-.205.205-.143.362.063.156.196.251.333.193ZM391.833 230.14c.142-.038.205-.206.142-.362-.042-.162-.196-.251-.332-.194-.141.038-.205.206-.142.362.043.162.196.251.332.194ZM375.314 229.612c.141-.037.205-.205.142-.362-.043-.161-.196-.25-.332-.193-.141.037-.205.206-.142.362.043.162.196.251.332.193ZM365.075 178.051c.141-.038.205-.206.142-.362-.043-.162-.196-.251-.332-.193-.141.037-.205.205-.142.361.042.162.196.251.332.194Z" style="mix-blend-mode:screen"/><path fill="#B3FFFF" d="M341.423 245.571s.065-.082.049-.143c-.016-.06-.067-.09-.128-.074-.04.011-.065.082-.049.143.016.061.068.09.128.074ZM351.37 261.443s.065-.082.049-.143c-.016-.06-.067-.09-.128-.074-.04.011-.065.082-.049.143.016.061.067.09.128.074ZM327.019 194.05s.065-.082.049-.143c-.016-.061-.068-.091-.128-.075-.041.011-.065.083-.049.143.016.061.067.091.128.075ZM286.82 182.184s.065-.082.049-.143c-.016-.061-.067-.09-.128-.074s-.065.082-.049.143c.016.06.067.09.128.074ZM273.156 169.932s.065-.082.048-.143c-.016-.061-.067-.09-.127-.074-.041.01-.065.082-.049.143.016.06.067.09.128.074ZM267.294 175.678s.065-.082.049-.143c-.016-.061-.067-.091-.128-.075-.04.011-.065.082-.049.143.016.061.067.091.128.075ZM257.13 158.736s.065-.082.049-.143c-.016-.06-.067-.09-.128-.074s-.065.082-.049.143c.016.061.067.09.128.074ZM246.011 186.446s.065-.082.049-.143c-.016-.06-.067-.09-.128-.074-.04.011-.065.082-.049.143.016.061.068.09.128.074ZM307.662 160.648s.064-.082.048-.142c-.016-.061-.067-.091-.128-.075-.04.011-.065.082-.049.143.017.061.068.09.129.074ZM318.976 163.264s.065-.082.049-.143c-.016-.06-.067-.09-.128-.074-.04.01-.065.082-.049.143a.1.1 0 0 0 .128.074ZM319.947 176.444s.065-.082.049-.143a.1.1 0 0 0-.128-.074c-.061.016-.065.082-.049.143.016.061.067.09.128.074ZM306.872 203.957s.064-.083.048-.143c-.016-.061-.067-.091-.128-.075-.04.011-.065.082-.048.143.016.061.067.091.128.075ZM288.431 216.637s.065-.082.048-.143c-.016-.061-.067-.091-.128-.075-.04.011-.065.082-.048.143.016.061.067.091.128.075ZM325.552 229.878s.065-.082.049-.143c-.016-.061-.067-.091-.128-.074-.041.01-.065.082-.049.142.016.061.067.091.128.075ZM346.061 197.33s.065-.082.049-.143c-.016-.061-.068-.09-.128-.074-.041.01-.065.082-.049.143.016.06.067.09.128.074ZM364.163 234.418s.064-.082.048-.143c-.016-.061-.067-.09-.128-.074-.04.01-.065.082-.048.142.016.061.067.091.128.075ZM385.144 192.679s.065-.082.049-.143c-.016-.061-.067-.091-.128-.075-.041.011-.065.082-.049.143.016.061.067.091.128.075ZM382.187 222.453s.065-.082.049-.143c-.016-.061-.068-.09-.128-.074-.041.01-.065.082-.049.143.016.06.067.09.128.074ZM368.669 200.513s.065-.082.049-.143c-.016-.061-.067-.091-.128-.075s-.065.082-.049.143c.016.061.067.091.128.075ZM349.048 165.211s.065-.082.049-.142c-.016-.061-.067-.091-.128-.075-.041.011-.065.082-.049.143.016.061.067.09.128.074ZM336.251 165.669s.065-.082.049-.142c-.016-.061-.067-.091-.128-.075-.04.011-.065.082-.049.143.016.061.067.09.128.074Z" opacity=".65" style="mix-blend-mode:screen"/></g><path fill="#B3FFFF" d="M297.727 305.271c.182-.048.27-.287.191-.504-.059-.222-.283-.336-.46-.268-.182.048-.27.288-.191.505.059.222.283.335.46.267ZM239.043 204.47c.182-.048.27-.288.191-.504-.058-.223-.283-.336-.46-.268-.181.048-.27.287-.191.504.059.223.284.336.46.268ZM229.007 268.892c.181-.048.269-.287.191-.504-.059-.222-.284-.336-.46-.268-.182.048-.27.288-.191.505.058.222.283.336.46.267ZM206.326 233.967c.181-.048.27-.287.191-.504-.059-.223-.284-.336-.46-.268-.182.048-.27.287-.191.504.059.223.283.336.46.268ZM291.499 225.8c.182-.048.27-.287.192-.504-.059-.223-.284-.336-.46-.268-.182.048-.27.287-.191.504.058.223.283.336.459.268ZM266.696 260.11c.181-.048.27-.288.191-.505-.059-.222-.284-.336-.46-.267-.182.048-.27.287-.191.504.059.222.283.336.46.268ZM279.066 303.924c.181-.048.27-.288.191-.505-.059-.222-.284-.336-.46-.268-.182.049-.27.288-.191.505.059.222.283.336.46.268ZM352.449 333.705c.182-.048.27-.287.191-.504-.059-.222-.284-.336-.46-.268-.182.048-.27.288-.191.505.059.222.283.336.46.267ZM321.738 257.8c.182-.049.27-.288.192-.505-.059-.222-.284-.336-.46-.268-.182.048-.27.288-.191.505.058.222.283.336.459.268ZM341.468 270.57c.182-.048.27-.288.191-.505-.058-.222-.283-.336-.459-.268-.182.048-.27.288-.191.505.058.222.283.336.459.268ZM400.781 304.262c.182-.048.27-.288.191-.504-.059-.223-.283-.336-.46-.268-.182.048-.27.287-.191.504.059.222.283.336.46.268ZM378.135 303.556c.181-.048.27-.288.191-.504-.059-.223-.284-.336-.46-.268-.182.048-.27.287-.191.504.058.222.283.336.46.268ZM364.071 232.84c.181-.048.27-.288.191-.505-.059-.222-.284-.336-.46-.268-.182.049-.27.288-.191.505.059.222.283.336.46.268Z" style="mix-blend-mode:screen"/><path fill="#B3FFFF" d="M331.661 325.457s.101-.113.079-.194a.142.142 0 0 0-.179-.104c-.061.016-.101.113-.079.194a.142.142 0 0 0 .179.104ZM345.309 347.234s.1-.113.079-.195a.143.143 0 0 0-.179-.104c-.082.021-.101.113-.079.194a.143.143 0 0 0 .179.105ZM311.894 254.775s.101-.113.079-.194a.143.143 0 0 0-.179-.105c-.061.017-.101.114-.079.195a.142.142 0 0 0 .179.104ZM256.775 238.518s.1-.113.079-.194a.144.144 0 0 0-.18-.104c-.061.016-.1.113-.079.194a.143.143 0 0 0 .18.104ZM238.037 221.721s.1-.113.079-.194a.145.145 0 0 0-.18-.105c-.06.016-.1.114-.078.195a.142.142 0 0 0 .179.104ZM229.971 229.607s.1-.113.079-.195a.144.144 0 0 0-.18-.104c-.061.016-.1.113-.079.194a.145.145 0 0 0 .18.105ZM216.06 206.343s.1-.114.079-.195a.144.144 0 0 0-.18-.104c-.061.016-.1.113-.079.194a.145.145 0 0 0 .18.105ZM200.804 244.362s.1-.113.079-.194a.143.143 0 0 0-.179-.105c-.061.016-.101.114-.079.195a.142.142 0 0 0 .179.104ZM285.351 208.991s.1-.113.079-.194a.144.144 0 0 0-.18-.105c-.081.022-.1.114-.078.195a.142.142 0 0 0 .179.104ZM300.855 212.557s.1-.114.079-.195a.144.144 0 0 0-.18-.104c-.061.016-.1.113-.079.194a.145.145 0 0 0 .18.105ZM302.209 230.634s.101-.114.079-.195a.142.142 0 0 0-.179-.104c-.082.021-.101.113-.079.194a.143.143 0 0 0 .179.105ZM284.281 268.363s.1-.114.078-.195a.142.142 0 0 0-.179-.104c-.061.016-.1.113-.079.194a.144.144 0 0 0 .18.105ZM258.97 285.756s.1-.113.079-.194a.145.145 0 0 0-.18-.105c-.061.016-.1.114-.079.195a.144.144 0 0 0 .18.104ZM309.877 303.926s.101-.114.079-.195a.142.142 0 0 0-.179-.104c-.081.021-.1.113-.079.194a.143.143 0 0 0 .179.105ZM338.011 259.282s.1-.114.079-.195a.143.143 0 0 0-.18-.104c-.06.016-.1.113-.078.194a.143.143 0 0 0 .179.105ZM362.845 310.148s.101-.113.079-.194a.143.143 0 0 0-.179-.105c-.061.016-.101.113-.079.194a.143.143 0 0 0 .179.105ZM391.61 252.896s.1-.113.079-.194a.144.144 0 0 0-.18-.105c-.061.016-.1.113-.079.194a.144.144 0 0 0 .18.105ZM387.576 293.751s.1-.113.078-.194a.143.143 0 0 0-.179-.105c-.061.016-.1.113-.079.194a.144.144 0 0 0 .18.105ZM369.008 263.668s.1-.113.079-.194a.144.144 0 0 0-.18-.104c-.061.016-.1.113-.079.194a.144.144 0 0 0 .18.104ZM342.13 215.224s.1-.113.079-.194a.145.145 0 0 0-.18-.105c-.06.016-.1.113-.078.195a.143.143 0 0 0 .179.104ZM324.556 215.862s.1-.113.078-.195a.142.142 0 0 0-.179-.104c-.061.016-.1.113-.079.194a.144.144 0 0 0 .18.105Z" opacity=".65" style="mix-blend-mode:screen"/><path fill="#B3FFFF" d="M322.899 185.984c.182-.048.27-.287.191-.504-.059-.223-.283-.336-.46-.268-.182.048-.27.287-.191.504.059.223.283.336.46.268ZM264.19 85.168c.181-.048.269-.287.191-.504-.059-.222-.284-.336-.46-.268-.177.068-.27.288-.191.504.058.223.283.336.46.268ZM254.179 149.606c.181-.048.269-.288.191-.505-.059-.222-.284-.336-.46-.267-.182.048-.27.287-.191.504.058.222.283.336.46.268ZM231.498 114.68c.182-.048.27-.287.191-.504-.059-.222-.284-.336-.46-.268-.182.048-.27.288-.191.505.058.222.283.336.46.267ZM316.666 106.493c.182-.048.27-.288.191-.504-.059-.223-.283-.336-.46-.268-.182.048-.27.287-.191.504.059.222.284.336.46.268ZM291.868 140.823c.181-.048.27-.287.191-.504-.059-.222-.284-.336-.46-.268-.182.048-.27.288-.191.505.059.222.283.336.46.267ZM304.217 184.643c.182-.048.27-.287.191-.504-.058-.222-.283-.336-.459-.268-.182.048-.27.288-.191.505.058.222.283.336.459.267ZM377.601 214.425c.181-.048.269-.287.191-.504-.059-.223-.284-.336-.46-.268-.182.048-.27.287-.191.504.058.223.283.336.46.268ZM346.91 138.513c.182-.048.27-.287.191-.504-.078-.217-.283-.336-.459-.268-.182.048-.27.288-.191.505.058.222.283.336.459.267ZM366.635 151.263c.182-.048.27-.288.191-.504-.059-.223-.283-.336-.46-.268-.182.048-.27.287-.191.504.059.222.284.336.46.268ZM425.933 184.981c.181-.048.27-.288.191-.505-.059-.222-.284-.336-.46-.267-.182.048-.27.287-.191.504.058.222.283.336.46.268ZM403.281 184.255c.182-.048.27-.287.191-.504-.059-.223-.283-.336-.46-.268-.182.048-.27.287-.191.504.059.223.283.336.46.268ZM389.243 113.553c.182-.048.27-.288.191-.504-.059-.223-.283-.336-.46-.268-.182.048-.27.287-.191.504.059.223.283.336.46.268Z" style="mix-blend-mode:screen"/><path fill="#B3FFFF" d="M356.808 206.156s.1-.114.079-.195a.144.144 0 0 0-.18-.104c-.061.016-.1.113-.079.194a.145.145 0 0 0 .18.105ZM370.455 227.932s.101-.114.079-.195a.142.142 0 0 0-.179-.104c-.061.016-.1.113-.079.194a.143.143 0 0 0 .179.105ZM337.046 135.494s.1-.113.079-.194a.143.143 0 0 0-.179-.105c-.061.016-.101.113-.079.195a.142.142 0 0 0 .179.104ZM281.921 119.217s.1-.113.079-.194a.143.143 0 0 0-.179-.105c-.082.022-.101.114-.079.195a.142.142 0 0 0 .179.104ZM263.183 102.42s.101-.113.079-.194a.143.143 0 0 0-.179-.105c-.061.017-.101.114-.079.195a.142.142 0 0 0 .179.104ZM255.138 110.301s.1-.114.078-.195a.142.142 0 0 0-.179-.104c-.061.016-.1.113-.079.194a.145.145 0 0 0 .18.105ZM241.212 87.061s.1-.113.079-.194a.144.144 0 0 0-.18-.105c-.061.016-.1.113-.079.195a.144.144 0 0 0 .18.104ZM225.951 125.061s.1-.114.079-.195a.144.144 0 0 0-.18-.104c-.061.016-.1.113-.079.194a.145.145 0 0 0 .18.105ZM310.497 89.69s.101-.114.079-.195a.143.143 0 0 0-.179-.105c-.061.017-.1.114-.079.195a.143.143 0 0 0 .179.104ZM326.027 93.27s.1-.113.079-.194a.144.144 0 0 0-.18-.104c-.061.016-.1.113-.079.194a.144.144 0 0 0 .18.105ZM327.355 111.332s.101-.113.079-.194a.143.143 0 0 0-.179-.105c-.061.016-.1.113-.079.194a.143.143 0 0 0 .179.105ZM309.427 149.061s.1-.113.079-.194a.143.143 0 0 0-.18-.104c-.081.021-.1.113-.078.194a.142.142 0 0 0 .179.104ZM284.116 166.455s.1-.113.079-.194a.143.143 0 0 0-.179-.105c-.061.016-.101.113-.079.195a.143.143 0 0 0 .179.104ZM335.029 184.644s.1-.113.079-.194a.142.142 0 0 0-.179-.104c-.061.016-.101.113-.079.194a.142.142 0 0 0 .179.104ZM363.178 139.976s.1-.114.079-.195a.144.144 0 0 0-.18-.104c-.061.016-.1.113-.079.194a.145.145 0 0 0 .18.105ZM387.997 190.866s.1-.113.079-.194a.144.144 0 0 0-.18-.105c-.06.016-.1.114-.078.195a.142.142 0 0 0 .179.104ZM416.762 133.615s.1-.113.078-.194a.143.143 0 0 0-.179-.105c-.081.022-.1.114-.079.195a.143.143 0 0 0 .18.104ZM412.722 174.45s.1-.114.079-.195a.144.144 0 0 0-.18-.104c-.061.016-.1.113-.079.194a.145.145 0 0 0 .18.105ZM394.175 144.361s.1-.113.078-.194a.143.143 0 0 0-.179-.105c-.061.016-.1.114-.079.195a.143.143 0 0 0 .18.104ZM367.282 95.943s.1-.113.079-.194a.144.144 0 0 0-.18-.105c-.061.016-.1.114-.079.195a.144.144 0 0 0 .18.104ZM349.722 96.555s.1-.114.079-.195a.144.144 0 0 0-.18-.104c-.06.016-.1.113-.078.194a.143.143 0 0 0 .179.105Z" opacity=".65" style="mix-blend-mode:screen"/><path fill="#A600FF" d="m394.009 289.434 7.097 1.393 7.007-16.239 22.425-21.521-2.328-16.932s.4-17.004-1.175-35.672a109.867 109.867 0 0 0-.443-4.297c1.434 9.445 2.762 22.097 3.074 37.701l2.719 20.292-23.771 21.833-6.395 16.51-8.008-.828s-40.51 19.979-54.488 35.548l-7.143 11.709 5.986-13.221s27.29-25.056 55.484-36.287l-.041.011ZM422.403 176.285s1.254 3.931 2.714 11.508c-1.887-8.049-4.164-10.282-4.164-10.282l2.873-22.633-7.905-4.945 10.889 4.936-4.407 21.416ZM264.588 100.036l-2.632 16.663s-23.008 14.643-30.441 31.643l-13.86 8.809 3.061 18.557-11.567 12.899 17.646 86.495 11.391 6.102 7.541 18.152 6.318 5.407 2.553 15.488 14.345-1.234 5.838 7.113s36.337 9.207 51.016 6.37l-.146 15.098s-1.782-9.288-2.943-11.145c-1.167-1.877-49.266-8.672-49.266-8.672l-4.426-7.832-15.067 1.123-4.165-15.777-5.082-5.971-9.332-18.048-9.479-5.416-17.971-87.318 10.679-14.872-1.939-16.927 13.457-8.941s9.18-19.235 27.365-31.329l6.977-18.567 53.477-7.91c-18.51 2.831-46.456 7.376-53.337 10.08l-.011-.04ZM375.179 119.95c-3.283-2.682-6.582-5.099-9.743-6.991L346.31 92.565l19.786 18.554s3.845 3.745 9.083 8.831ZM346.295 92.59l-6.388 3.504-5.031-8.646 5.589 5.924 5.83-.782ZM407.078 152.745s-5.082-6.296-12.38-14.106c5.456 5.094 9.6 8.825 10.03 8.733 1.271-.271-.903-8.092-1.035-8.511 2.508 5.482 3.963 10.421 3.364 13.889l.021-.005Z" style="mix-blend-mode:screen"/><path fill="#FAB5FF" d="M165.754 293.867c-12.811 10.46 37.026 10.25 33.296 32.187-3.731 21.937-18.603 20.033-34.376 8.35-15.773-11.684-55.865-8.814-63.44 5.11-7.574 13.932 5.127 22.861-11.114 28.968-16.24 6.108-31.048.21-10.336-1.62 20.712-1.831 13.497-32.327 31.689-41.437s35.539-5.927 49.04 4.644c13.501 10.57 24.235-.87 2.704-3.419-21.53-2.548-20.549-16.28-18.27-24.684s14.54-18.237 44.849-9.182c30.309 9.056 4.811 31.773 31.712 48.817 26.891 17.047 21.972-32.528 3.426-35.302-18.547-2.783-39.869-17.791-1.073-36.321 29.34-14.012 47.39-8.788 53.139-6.327 1.629.696 4.667-.376 6.698-2.519 3.266-3.466 1.922-7.385-33.547-.812-22.251 4.123-10.929-16.932.898-21.086 11.82-4.143 32.1-8.099 17.83-18.142-14.27-10.043-13.334-47.041 4.052-51.69 17.386-4.648 35.355 42.724 43.639 47.246 8.284 4.521 13.328-12.781 5.222-21.629-8.105-8.848-13.859-6.093-8.297-15.808 5.561-9.714 10.056-7.96 11.313-2.891 1.257 5.07 8.365-2.782 8.365-2.782-8.868 13.549-17.053 1.799-16.122 12.189.931 10.391 5.075 1.03 19.184 13.962 14.1 12.942-24.955 41.596-24.906 23.773.049-17.824-14.991-36.621-23.677-21.746-8.685 14.875 11.408 14.808 17.518 45.654 8.813 44.425-22.059 14.55-39.932 14.757-17.886.201-27.182 35.473-22.898 67.481 4.286 32.017-57.715 55.555-44.74 11.762 12.975-43.793-19.002-57.961-31.811-47.493l-.035-.01Zm119.502-118.589c-11.579-5.654-19.669 12.014-7.834 17.749 11.836 5.735 19.289-12.154 7.834-17.749Zm-12.69 70.002c-1.133-6.784-39.582 14.725-23.846 14.448 12.085-.212 24.98-7.664 23.846-14.448Zm-44.173 41.164c3.882-23.309-19.07-11.275-24.278-.419-6.899 14.35 20.406 23.725 24.278.419Z" opacity=".02" style="mix-blend-mode:screen"/><path fill="#FAB5FF" d="M161.662 157.123c-8.555-3.845 18.782-11.039 13.517-22.495-5.265-11.457-13.133-8.234-20.06.473-6.927 8.706-29.315 13.015-35.51 6.508-6.195-6.513-.547-13.261-10.342-14.221-9.795-.96-17.042 4.439-5.425 2.403 11.617-2.037 12.141 15.708 23.446 18.025 11.305 2.317 20.342-1.969 26.188-9.733 5.845-7.764 13.405-3.078 1.983 1.474-11.422 4.552-8.869 11.922-6.386 16.186 2.482 4.264 10.644 7.846 25.921-1.554s-2.029-18.09 10.207-31.362c12.231-13.271 16.815 14.576 7.061 18.814-9.754 4.243-19.232 15.582 4.745 20.031 18.132 3.364 27.255-2.142 30.043-4.331.791-.62 2.613-.479 4.04.396 2.298 1.417 2.137 3.759-18.261 5.364-12.797 1.008-3.502 10.868 3.588 11.406 7.084.534 18.777-.276 12.433 7.312-6.345 7.588-.4 27.696 9.809 27.689 10.208-.006 13.098-28.562 16.973-32.251 3.875-3.69 9.179 5.038 6.037 11.068-3.142 6.031-6.699 5.367-2.226 9.867 4.474 4.5 6.679 2.881 6.623-.077-.055-2.959 4.992.295 4.992.295-6.848-6.113-9.607 1.517-10.623-4.305-1.015-5.822 2.63-1.308 8.461-10.453 5.826-9.15-19.78-19.101-17.136-9.355 2.644 9.745-2.837 22.236-9.78 15.371-6.942-6.865 4.076-9.776 2.895-27.55-1.694-25.601-14.222-4.726-24.045-2.218-9.829 2.513-20.102-15.424-22.454-33.566-2.352-18.147-39.778-21.934-26.24.126 13.539 22.06-1.901 34.502-10.456 30.653l-.018.01Zm82.887 47.363c-5.514 4.792-12.541-3.69-6.898-8.564 5.643-4.873 12.353 3.822 6.898 8.564Zm-17.231-36.443c.375 3.878-23.849-2.252-15.186-4.408 6.652-1.656 14.812.53 15.186 4.408Zm-30.246-16.045c5.549 12.185-8.793 8.966-13.241 3.79-5.886-6.84 7.697-15.975 13.241-3.79ZM327.724 422.604c1.664 9.291 15.364-15.639 25.263-7.701 9.898 7.938 4.83 14.832-5.362 19.468-10.191 4.636-19.866 25.439-15.027 33.077 4.845 7.638 12.813 3.773 11.357 13.57-1.455 9.797-8.496 15.553-3.67 4.709 4.825-10.843-12.371-15.69-11.871-27.292.5-11.602 6.891-19.378 15.899-23.188 9.007-3.81 6.279-12.336-.955-2.296-7.234 10.039-13.805 5.746-17.362 2.281-3.556-3.466-5.06-12.308 7.849-24.926 12.908-12.618 17.165 6.399 33.11-2.305 15.944-8.699-10.123-19.976-16.642-11.488-6.525 8.485-19.91 14.969-18.397-9.525 1.145-18.524 8.748-26.085 11.567-28.272.798-.621 1.106-2.434.6-4.041-.822-2.59-3.148-3.005-9.697 16.517-4.11 12.247-11.465.765-10.259-6.289 1.209-7.046 4.856-18.263-4.102-13.923-8.957 4.34-27.135-6.375-24.635-16.34 2.499-9.964 31.083-5.81 35.631-8.692 4.548-2.882-2.677-10.191-9.331-8.597-6.655 1.594-6.876 5.229-10.176-.237-3.3-5.467-1.181-7.224 1.693-6.447 2.875.777.931-4.946.931-4.946 4.295 8.179-3.827 9.009 1.608 11.422 5.436 2.414 1.92-2.247 12.272-5.707 10.355-3.452 13.815 23.976 4.947 19.015-8.868-4.961-22.401-2.661-17.395 5.793 5.007 8.455 10.539-1.591 27.603 3.903 24.579 7.907 1.14 15.039-3.708 24.016-4.854 8.982 10.148 23.392 27.285 30.119 17.141 6.73 11.696 44.192-6.533 25.586-18.228-18.605-34.146-6.571-32.478 2.721l-.015.015Zm-25.992-92.487c-6.025 4.212.538 13.144 6.675 8.826 6.136-4.319-.714-12.993-6.675-8.826ZM333.1 355.84c-3.694-1.314-3.627 23.833.594 15.902 3.242-6.09 3.101-14.589-.594-15.902Zm8.276 33.447c-10.539-8.394-10.9 6.394-6.933 12 5.24 7.418 17.475-3.612 6.933-12Z" opacity=".02" style="mix-blend-mode:screen"/><defs><radialGradient id="a" cx="0" cy="0" r="1" gradientTransform="rotate(165.209 145.463 125.156) scale(121.067 143.583)" gradientUnits="userSpaceOnUse"><stop stop-color="#00E7FF"/><stop offset=".26" stop-color="#469CFF"/><stop offset=".52" stop-color="#8659FF"/><stop offset=".74" stop-color="#B429FF"/><stop offset=".91" stop-color="#D00BFF"/><stop offset="1" stop-color="#DB00FF"/></radialGradient><radialGradient id="b" cx="0" cy="0" r="1" gradientTransform="matrix(-117.2119 30.94902 -36.70513 -139.01177 317.252 208.932)" gradientUnits="userSpaceOnUse"><stop offset=".64" stop-color="#540063"/><stop offset=".68" stop-color="#580666"/><stop offset=".72" stop-color="#641771"/><stop offset=".77" stop-color="#773583"/><stop offset=".83" stop-color="#925D9C"/><stop offset=".89" stop-color="#B591BC"/><stop offset=".96" stop-color="#DFD0E2"/><stop offset="1" stop-color="#fff"/></radialGradient><radialGradient id="c" cx="0" cy="0" r="1" gradientTransform="rotate(165.209 145.067 125.055) scale(104.389 123.803)" gradientUnits="userSpaceOnUse"><stop offset=".82" stop-color="#fff"/><stop offset=".84" stop-color="#DFD0E2"/><stop offset=".87" stop-color="#B591BC"/><stop offset=".9" stop-color="#925D9C"/><stop offset=".93" stop-color="#773583"/><stop offset=".96" stop-color="#641771"/><stop offset=".98" stop-color="#580666"/><stop offset="1" stop-color="#540063"/></radialGradient><linearGradient id="d" x1="307.814" x2="317.233" y1="61.083" y2="238.316" gradientUnits="userSpaceOnUse"><stop/><stop offset="1" stop-color="#B3E7FF"/></linearGradient><linearGradient id="e" x1="536.998" x2="44.094" y1="149.986" y2="280.136" gradientUnits="userSpaceOnUse"><stop stop-color="#291D6B"/><stop offset="1" stop-color="#6B2361"/></linearGradient><linearGradient id="f" x1="454.236" x2="178.15" y1="171.709" y2="244.609" gradientUnits="userSpaceOnUse"><stop stop-color="#2E0F74"/><stop offset="1" stop-color="#74146A"/></linearGradient></defs></svg>