<svg xmlns="http://www.w3.org/2000/svg" width="64" height="64" fill="none"><g clip-path="url(#a)"><path stroke="url(#b)" stroke-linecap="round" stroke-linejoin="round" stroke-miterlimit="10" stroke-width="2" d="M5.991 6.693h.99m4.602 0h.99m4.602 0h.99M.938 10.617v4.282a3.881 3.881 0 1 0 7.762 0v-4.282H.938Zm0 0h62.124m-62.124 0V61.23H45.26M.938 10.617V2.77H20.35m42.712 7.847H55.3v4.282a3.881 3.881 0 1 0 7.763 0v-4.282Zm0 0V61.23H48.885m14.178-50.613V2.77H23.975M11.051 34.308h5.415m-5.415 2.77h5.415m12.827-2.77h5.414m-5.414 2.77h5.414m12.827-2.77h5.415m-5.415 2.77h5.415M11.05 52.607h5.415m-5.415 2.77h5.415m-4.52-13.023H9.474a.697.697 0 0 0-.697.696v6.025a.697.697 0 0 0 .697.697h8.57a.697.697 0 0 0 .697-.697v-6.025a.697.697 0 0 0-.697-.697H15.57m13.722 10.254h5.414m-5.414 2.77h5.414m12.827-2.77h5.415m-5.415 2.77h5.415M12.585 18.782a3.881 3.881 0 0 1-3.882-3.882v-4.282h7.763v4.282a3.881 3.881 0 0 1-3.881 3.882Zm7.766 0a3.881 3.881 0 0 1-3.881-3.882v-4.282h7.762v4.282a3.881 3.881 0 0 1-3.881 3.882Zm7.766 0a3.881 3.881 0 0 1-3.881-3.882v-4.282h7.762v4.282a3.881 3.881 0 0 1-3.881 3.882Zm7.766 0a3.881 3.881 0 0 1-3.881-3.882v-4.282h7.762v4.282a3.881 3.881 0 0 1-3.881 3.882Zm7.766 0a3.881 3.881 0 0 1-3.881-3.882v-4.282h7.762v4.282a3.881 3.881 0 0 1-3.881 3.882Zm7.766 0a3.881 3.881 0 0 1-3.881-3.882v-4.282h7.763v4.282a3.881 3.881 0 0 1-3.882 3.882ZM18.044 31.473h-8.57a.697.697 0 0 1-.697-.697V24.75a.697.697 0 0 1 .697-.697h8.57a.697.697 0 0 1 .697.697v6.025a.697.697 0 0 1-.697.697Zm18.24 0h-8.569a.697.697 0 0 1-.697-.697V24.75a.697.697 0 0 1 .697-.697h8.57a.697.697 0 0 1 .697.697v6.025a.697.697 0 0 1-.697.697Zm18.242 0h-8.57a.697.697 0 0 1-.697-.697V24.75a.697.697 0 0 1 .697-.697h8.57a.697.697 0 0 1 .697.697v6.025a.697.697 0 0 1-.697.697ZM36.285 49.77h-8.57a.697.697 0 0 1-.697-.696v-6.025a.697.697 0 0 1 .697-.697h8.57a.697.697 0 0 1 .697.697v6.025a.697.697 0 0 1-.697.697Zm18.241 0h-8.57a.697.697 0 0 1-.697-.696v-6.025a.697.697 0 0 1 .697-.697h8.57a.697.697 0 0 1 .697.697v6.025a.697.697 0 0 1-.697.697Z"/></g><defs><linearGradient id="b" x1="15" x2="53.5" y1="13" y2="51.5" gradientUnits="userSpaceOnUse"><stop stop-color="#15E7C1"/><stop offset="1" stop-color="#18C888"/></linearGradient><clipPath id="a"><path fill="#fff" d="M0 0h64v64H0z"/></clipPath></defs></svg>