<svg xmlns="http://www.w3.org/2000/svg" width="1920" height="869" fill="none"><g fill-opacity=".1" fill-rule="evenodd" clip-path="url(#a)" clip-rule="evenodd"><path fill="url(#b)" d="M1920 118.973c-1.92-1.121-2.4-3.683-4-5.124-7.36-.48-10.88 2.562-14.88 5.444-3.36-1.441-6.88-.64-9.44.961-2.56-.64-5.28-1.121-6.24-3.202-1.28 0-1.6 1.441-3.52.96-1.28-2.402-2.4-4.964-4.48-6.405-.48.961-2.88-.96-3.68.481-1.6 0-1.6 1.441-3.2 1.441-1.12-.481-1.76-1.441-2.24-2.722-1.6.8-3.2-.641-4.96.48-.8-2.722-2.72-4.644-3.68-7.366-.96-.96-1.44-2.081-2.24-3.202-.96-.8-2.4-.961-2.72-2.242-.96 1.281-.96 3.523-2.72 4.163-2.88-.64-5.6-1.601-6.24-4.643-1.92 0-2.08 2.241-4.48 1.761-4.32-.96-4.64-5.925-8.16-7.686-.64-1.922-1.92-3.203-2.72-4.964-1.12-1.441-1.28-3.843-2.72-4.964-2.72-.48-2.88 1.602-4.96 1.762-1.92-2.723-5.92-3.043-8.64-4.964-3.52 1.28-3.84 5.604-6.72 7.366-2.08 0-2.88-.961-4.48-1.442-1.12.48-3.04.801-3.52-.48-1.28.64-2.72 1.281-3.68 2.242-1.92-.16-2.24-2.082-4-2.242-.96 0-.48 1.761-1.28 1.761-1.12 0-1.92.16-1.76 1.441-1.12.961-1.92 2.242-2.72 3.683-1.44-.64-2.4-1.921-3.68-2.722-1.6 1.762-2.08 4.644-4 5.925-2.4.48-4.32 0-5.44-1.761-1.28-1.281-1.12 1.12-2.72.96-.96-1.601-2.56-2.722-4-3.683-1.6-1.28-1.76 1.922-3.68 1.762-.32-.961-3.04-1.762-3.68-.961-1.6-.16-1.6-2.082-3.52-1.761-.96-.961-3.04-.64-3.2-2.242-1.28.48-2.4.48-3.68 0-.96-1.281-2.4-2.082-3.2-3.683-.48-.64-.64-1.922-1.28-2.242-1.44.32-.96-1.12-1.76-1.44-3.2.32-3.52 3.522-4.96 5.443-2.24.16-1.92 2.883-4 3.203-.64-1.281-2.88-1.121-4-1.761-1.6-2.723-2.4-6.406-4.96-8.167-1.6 1.441-1.6 4.484-3.2 5.925-2.24 4.003-4.96 7.365-6.72 11.849-1.92-.64-4.48-.8-5.44.96-1.44 0-2.88-1.12-4 0-1.76.641-2.08 2.403-3.2 3.684-1.76.48-2.56 1.921-4 2.722-7.68-.16-10.08 4.964-16.64 5.924-2.24 0-2.56-1.921-4.48-2.241-1.92 0-3.36-.961-5.44-.961-1.92-1.761-5.12-2.082-6.72-4.163-1.92-1.441-3.84-3.043-6.24-4.164-3.84-3.362-7.68-6.565-11.2-10.088-1.6-3.522-4.16-6.084-5.92-9.607-1.76-1.12-4-1.761-4.96-3.683-.96-.8-3.52 0-4-1.441-1.44-2.562-2.24-5.604-4-7.686-1.76-.32-.96 1.761-2.24 1.761-1.6-.32-2.08-1.921-4-1.761-1.6-.32-1.92.48-2.72.96 0-1.12-1.92-.48-2.24-1.44-.8.8-2.56.8-3.52 1.44-2.08-.32-2.4-2.561-4.48-2.721-3.04.32-4.16 2.562-5.44 4.643-1.12 0-.8-1.601-2.24-1.44-.8 1.44-1.6 2.721-3.68 2.721-.64 1.281-2.08 1.922-3.2 2.722-.96.961-1.44 2.082-2.24 3.203-1.12.32-2.72.32-3.2 1.441-.32 1.281-2.08.96-2.24 2.242-1.76 1.12-3.36 2.402-4.48 4.163-1.76.32-2.88 1.441-4.48 1.761-1.44 1.121-2.72 2.562-3.2 4.644-1.28.16-2.4.16-3.68 1.441-.8.8-1.44 2.402-1.76 3.683-2.08 0-2.56-1.921-4-2.722-2.08.16-3.36-.16-4.96-.48-.48-1.121-2.72-.641-3.2-1.762-1.28-.32-1.12-1.921-2.72-1.761-2.56-.48-3.36.96-5.44.96-2.24-.96-2.88-3.522-5.92-3.682-1.6-.801-2.24 0-2.72 1.44-2.56-1.6-4.8-.96-8.16-1.44-2.56-.64-3.68-2.722-6.72-2.722-2.4.8-3.2 3.042-4.96 4.643-1.76.48-2.56-.96-3.68 0-.64.8-.96 1.761-2.24 1.761-.96-1.12-2.56-1.6-3.68-2.722-1.6.48-2.24 1.922-4 2.242-2.08 0-2.24 1.601-3.68 2.242-1.6.48-1.12-1.761-2.24-2.242-.8-.32-1.92.32-2.72-.48-.48-.64-.96-1.441-1.76-2.242-2.24 1.921-3.68 4.483-4.48 7.846-2.24-.48-3.36-2.082-5.92-2.242-2.88 1.121-5.6-.32-6.72 2.242-1.6 0-.32-3.042-2.24-2.722-.32-1.12-1.28-1.761-1.28-3.203-1.92 0-.64 2.883-3.2 2.242-2.08.48-2.56-.8-3.68-1.44-.8-1.602-2.88 1.28-3.2-.962-2.08.48-2.24 3.043-4 3.683-1.12 1.281-2.88 1.922-4.96 2.242-2.4-.8-2.24-4.323-3.68-6.405-2.88-.16-2.24 3.203-5.44 2.722-4-.32-4.64-3.843-8.16-4.644-3.2.961-5.92 2.402-9.44 3.203-2.24.16-1.28-2.722-3.2-2.722-3.36.16-4 2.882-4.96 5.444-.64 0-.96-.96-1.28-1.441-.32-.32-.64 0-.96-.48-.32-.48-.32-1.121-.96-1.762-.64-.8-1.28-.64-2.72-1.44-2.08.16-2.4 2.08-3.68 3.202-1.44.64-1.44 0-3.2 0-.64 1.761-1.76 3.042-2.24 4.963-2.72.32-4.8 1.121-7.2 1.762-1.6.48-1.92 2.242-2.72 3.683-1.44-.8-1.6-3.043-3.68-3.203-1.92-.48-2.56.48-3.68.961-.64-1.921-2.4-2.722-2.72-4.964-1.28-1.28-1.44-3.683-3.68-4.163-1.44-1.281-1.44 1.601-2.72 1.761-.96-1.12-.96 2.402-2.72 1.762-1.12-4.964-5.12-7.046-5.92-12.33-2.56.32-3.68 2.082-5.44 3.203-1.76 0-3.2.48-4 1.44-1.6.32-1.92-.8-3.68-.48-2.56.961-5.28 1.602-6.24 4.163-1.28-1.76-2.88 0-4.48.48-.64 1.282-1.92-.8-2.24.481-.64.64-1.6.64-2.24 0-1.12 1.601-1.6 4.003-2.72 5.444-1.6 0-2.56-.64-3.68-1.44-2.88 3.362-5.12 7.205-9.44 9.127-1.28 2.722-2.88 5.284-4 8.166-1.6 2.242-1.6 6.245-4 7.686-1.6 1.441-2.08-.961-3.52-.961-.96-1.281-2.4.641-4 0-1.6.961-1.92 3.363-2.72 4.964-.48 1.922-2.4 2.562-3.68 3.683-3.2.16-4.8-1.281-6.72-2.242-2.56.32-2.24 3.843-4.96 4.163-3.2.161-4.32-1.761-7.2-1.761-3.68.48-4.64 3.843-8.16 4.644-1.92 0-1.44-2.562-2.72-3.203-1.92-.64-3.04-2.242-5.92-1.761-.8-1.601-2.56-2.242-3.2-4.163-1.6 0-1.28 2.401-3.2 2.241-1.12-1.441-1.92-3.042-3.68-3.683-1.44-.16-1.92.641-2.24 1.442-.64 1.12-1.76-.481-1.76.48-2.72-.801-4.64-2.562-7.68-3.203-3.68.801-6.24 2.883-8.16 5.445-2.4-.321-2.56 1.601-4 2.241-1.44 0-2.24.801-4 .481-2.08.16-2.08 2.402-3.68 3.202-1.6-.8-2.24 0-4 0-4.32-.96-7.36-3.202-11.2-4.643-1.28-1.441-2.4-3.043-3.68-4.644-.96-1.761-1.44-3.683-3.68-4.163-1.92 0-3.52.48-4 1.761-1.76-.961-1.92 1.121-3.68 1.441-2.4-.64-3.2-2.722-4.96-4.163-2.56-.48-4.16-2.402-5.92-2.242 0-1.601-1.28-1.761-2.24-2.241-3.36-8.647-6.24-17.614-9.92-26.1-2.4-.801-3.04-3.364-6.24-3.203-.48-1.121-1.6-1.762-2.72-2.242-.32-.96-.8 0-1.28 0s-.48-1.121-1.28-.96c-2.08-1.442-2.24-4.805-5.44-4.965-.64-2.882-3.36-4.003-4.48-6.405-1.92-.48-1.44 1.601-3.2 1.441-.48-2.241-3.04-2.402-4-4.163-1.12 1.601-1.92 3.523-3.2 4.964-.8.8-2.24-.8-3.68-.96-1.28 1.12-1.92 2.881-3.2 4.162-1.44 0-1.12-1.6-1.76-2.241-1.44 0-.64 2.402-2.24 2.241-.64.801-3.04 0-2.72 1.762-.8-.48-.8-1.601-1.28-2.242-2.4.8-3.2 3.203-4 5.444-3.04.32-3.2 3.363-6.24 3.683-1.92 0-3.04-.64-4-1.44-2.56 0-1.12-4.004-3.68-4.164-3.04-.32-3.04 2.402-4.48 3.683-.16 1.12-1.28 1.44-1.28 2.722-1.44-.16-1.92.64-2.24 1.441-1.6.8-1.28 0-2.24-.96-1.6.32-2.24 1.92-3.2 1.76-1.12 1.121-2.08.32-4 .961-1.6-.32-2.4-1.44-3.2-2.722-2.56 0-3.2 1.762-5.44 1.762-.16-.961-2.56-.48-2.24.48-1.12 0-.64-1.761-1.28-2.242-1.12 0-1.76.8-3.2.48-3.36-4.323-8.64-6.885-12.64-10.568-5.12-2.402-8.64-6.565-13.6-9.127-5.28-1.12-10.4-2.562-15.36-4.163-1.76-.32-2.24.8-4 .48-2.72-.64-4.96-1.921-8.64-1.761-2.08-1.121-4.64-1.922-8.16-1.761-1.44-1.281-3.84-1.602-5.92-2.242-6.56.96-12.96.32-17.6-2.722-1.6.16-2.88.64-4.96.48-2.24 0-2.24-1.922-4.96-1.441-1.28-.8-3.52-.8-4.96-1.441-3.04-.32-4.96.48-7.68.48-3.36-.64-6.4-1.761-10.88-1.441-6.56-2.882-12.32-6.565-18.88-9.608-3.2.961-6.56-.48-9.44-.48-.32 0-.48.48-.48.48-2.88-.16-5.12-.32-8.64.48-3.2-.48-4.96-2.24-7.68-3.202-3.2-.48-4.32 1.121-7.2.961-4.48-.8-8.48-1.921-12.16-3.683-4 0-9.92-.96-13.92-2.241-2.24-.32-2.24-.32-4.48 0-2.88-2.402-7.68-2.883-11.2-4.644-1.76-1.441-3.52-2.722-5.44-4.163-1.6.32-2.24-.48-3.2-.961-1.92 0-3.68.16-4.96.96-2.4-.8-3.68-2.721-6.72-2.721-4.16 0-5.76 2.401-8.64 3.682-3.04 1.121-7.04 1.121-10.4 1.762-8.32-1.441-17.28.8-22.08-4.163-6.08.48-10.56-2.883-14.88-2.723-2.72-1.12-4.32-3.202-6.72-4.643-4.96-1.441-10.56-2.082-13.92-4.964-3.04-.48-5.92-.96-8.64-1.762-8.8-.32-15.36-1.28-24.32-.48-1.76 0-2.56.96-4 1.441-1.44 0-2.24-.8-4-.48-1.6-.32-1.76.96-3.2.96-8.96 0-15.84.641-22.56.961-3.52 1.121-5.92 3.523-8.96 4.964-2.72-2.081-8.32 0-10.88-.48-2.56-.32-3.52-2.402-6.24-2.722-1.44-1.441-3.04-2.722-5.92-2.722-1.28-2.242-3.68-3.203-5.92-4.644-4.64.64-6.72-1.441-9.92-2.242-3.2 0-5.12 1.601-8.64 1.441-2.24 0-2.88-1.6-4.96-1.761-2.88-.32-4.64.48-7.2.48-2.88 1.441-4.48 1.602-7.68 2.242-4.64.32-9.44-1.441-13.92-1.441-3.04 0-6.24.96-8.96 1.761-2.08.64-4.32 1.441-5.92 2.722-3.04-.96-4.96 1.602-6.72.48-3.52 2.563-9.12 2.883-11.68 6.406-.8.8-.8-.32-2.24 0-1.6.96-2.72 2.082-4 3.202-3.84.64-6.88 2.242-9.44 4.164-5.28.48-10.56 1.12-13.92 3.683-2.72-1.121-4.16-3.363-7.68-3.683-3.36.48-6.08 1.44-8.96 2.241-3.52-1.28-5.44-4.323-8.64-5.924-3.84-.32-7.04-.48-10.4 0-3.52 1.12-5.76 3.683-8.64 5.444-2.56 2.082-6.08 3.363-8.96 4.964-4.64.96-11.2 0-15.84.96-2.4-.8-4.48-1.76-7.2-2.241-6.56 2.402-12.32 5.444-17.6 9.127-2.56.64-4.96 2.082-7.2 3.202-6.4 3.203-13.44 6.245-19.84 10.088-3.52 1.121-7.68 1.602-11.68 2.242-4 1.922-8.32 3.843-11.68 6.405-3.2-.32-4.64.96-7.68.96-2.08-.32-4.32-.48-5.92-1.44-2.24 1.12-5.6 0-8.16 0-3.04-2.562-7.36-3.683-11.68-4.964-6.56 0-10.24 3.363-15.84 4.644-1.76.96-4 1.76-5.44 3.202-2.08.16-3.36 1.12-5.44 1.441-3.84 2.082-7.2 4.484-9.92 7.686-5.76 2.402-10.56 5.765-17.6 6.886-3.84-.16-6.88-1.281-11.2-.961-4.32.96-7.52 2.722-11.68 3.683-2.08 1.12-4.32 2.242-6.24 3.683-8.16 2.241-15.52 5.284-21.12 10.088-3.68 1.44-5.6 4.643-8.64 6.885-3.2 1.921-5.28 4.964-8.16 7.366-5.28.16-7.84 3.042-11.68 4.643-2.72 0-6.24-.48-7.68.961-2.08.48-1.44-1.761-3.68-1.441-5.28 1.121-10.4 2.242-13.92 4.964-2.24.16-4.16.64-6.24.961-2.24-.641-1.44-3.043-4.48-1.762a13.25 13.25 0 0 0-5.92-5.924c-.48-3.363-2.4-5.285-4-7.366-1.6.48-3.68.48-5.44.961-1.92 0-1.44-2.563-2.72-3.203-.64-1.441-1.44-2.402-2.72-3.203-1.44-1.28-2.24 1.121-4.48.48-2.4-1.28-4.16-3.362-6.24-4.963-2.56.16-3.2 2.242-5.44 2.722-1.12 0-2.24 0-2.72-.48-1.44.8-3.36 3.042-5.44 1.761-1.44.8-2.08 2.562-2.72 4.163-3.52.16-5.76 1.922-7.68 3.683-2.08-.16-3.36.16-4.96.481-4 2.241-6.24 6.565-10.88 8.166-2.72 0-4.8-.961-7.2-1.441-1.76.64-2.88 1.921-4 3.202-1.92-1.12-2.4-3.682-5.92-3.202-2.72-.641-2.24 1.921-3.68 2.722-2.08-.32-2.72-3.042-4.96-1.761-.16-1.602-1.12-2.562-2.24-3.203-2.56-1.121-3.2.641-5.44.961-.32-1.601-1.44-2.242-1.76-3.683-.32-1.121-1.92.801-2.72-.48-1.44-4.004-4.48-6.405-5.92-10.569-3.68.801-4 5.124-6.24 7.366-2.56.32-3.68-.801-4.48-2.242-1.6 0-2.24.801-3.68.961-.48-1.921-2.08-2.402-2.24-4.644-2.08 1.281-4.8 2.082-6.72 3.683-1.76-1.6-4.48-2.562-5.92-4.643-.96-.64-1.12-2.242-2.24-2.722-.96-.801-2.4-.961-2.72-2.242-1.44-.64-2.24.32-3.2 1.441-2.08-1.441-3.36-4.804-7.2-3.203-1.12-2.401-3.04-4.003-3.68-6.885-1.76 0-1.44 1.922-3.2.96 0-2.24-2.56-2.24-2.72-4.643-.96-1.28-1.76-2.722-2.24-4.643-1.76-2.883-3.2-5.925-4-9.608-2.88-.32-4.64.48-6.72.96-3.04-1.92-4.8-5.283-6.24-8.646-3.36-.96-5.28-3.363-6.72-6.405-2.24 0-3.68-.8-5.12-1.761v521.208h1920V118.973Z"/><path fill="url(#c)" d="M1920 214.408c-.96-.961-2.24-1.762-2.56-3.363-1.92 0-1.28 2.722-3.52 2.562-1.12-1.441-2.08-3.363-4-4.003-1.6-.16-2.08.64-2.56 1.441-.64 1.281-1.92-.641-1.92.48-3.04-.96-5.12-2.882-8.48-3.522-4 .96-6.88 3.202-8.96 6.084-2.72-.32-2.88 1.762-4.48 2.562-1.6 0-2.56.801-4.48.481-2.24.16-2.4 2.562-4 3.522-1.76-.96-2.4 0-4.48 0-4.64-1.12-8.16-3.522-12.48-5.124-1.44-1.601-2.72-3.362-4-4.963-.96-1.922-1.6-4.004-4-4.484-2.08 0-3.84.48-4.48 2.082-1.92-1.121-2.08 1.121-4 1.441-2.72-.641-3.52-3.043-5.44-4.484-2.72-.48-4.48-2.562-6.4-2.562 0-1.761-1.44-1.921-2.56-2.562-3.68-9.607-7.04-19.535-10.88-28.822-2.56-.961-3.36-3.683-7.04-3.523-.64-1.281-1.76-1.922-3.04-2.562-.32-1.121-.96 0-1.44 0-.64 0-.48-1.281-1.44-.961-2.24-1.601-2.4-5.284-5.92-5.604-.8-3.203-3.68-4.324-4.96-7.046-2.24-.48-1.6 1.762-3.52 1.441-.64-2.401-3.36-2.562-4.48-4.483-1.28 1.761-2.08 3.843-3.52 5.604-.96.801-2.4-.8-4-.96-1.28 1.281-2.24 3.202-3.52 4.483-1.6 0-1.28-1.761-1.92-2.562-1.6 0-.64 2.722-2.56 2.562-.8.961-3.36 0-3.04 2.082-.8-.481-.96-1.762-1.44-2.562-2.72.8-3.52 3.522-4.48 6.084-3.36.321-3.52 3.843-7.04 4.004-2.08 0-3.36-.641-4.48-1.442-2.88 0-1.28-4.483-4-4.483-3.36-.32-3.36 2.722-4.96 4.003-.16 1.281-1.44 1.601-1.44 3.042-1.6-.16-2.08.641-2.56 1.442-1.76.8-1.44 0-2.56-.961-1.76.32-2.56 2.242-3.52 2.081-1.28 1.281-2.24.321-4.48.961-1.76-.32-2.72-1.601-3.52-3.042-2.88 0-3.52 1.921-5.92 2.081-.16-1.12-2.72-.48-2.56.481-1.28 0-.8-1.922-1.44-2.562-1.12.16-1.92.8-3.52.48-3.68-4.804-9.44-7.526-13.92-11.689-5.76-2.722-9.44-7.206-14.88-10.088-5.76-1.281-11.52-2.882-16.96-4.483-1.92-.321-2.4.96-4.48.48-3.04-.801-5.44-2.082-9.44-2.082-2.4-1.281-5.12-2.241-8.96-2.081-1.6-1.441-4.32-1.762-6.4-2.562-7.36 1.121-14.4.32-19.36-3.043-1.76.321-3.2.801-5.44.481-2.4 0-2.56-2.242-5.44-1.441-1.44-.961-3.84-.801-5.44-1.441-3.36-.321-5.44.48-8.48.48-3.84-.641-7.04-1.922-12-1.441-7.2-3.203-13.6-7.366-20.96-10.568-3.52 1.12-7.2-.481-10.4-.481-.32 0-.48.481-.48.481-3.2-.161-5.76-.321-9.44.48-3.52-.48-5.6-2.402-8.48-3.523-3.52-.64-4.8 1.121-8 .961-4.96-.961-9.44-2.242-13.44-4.003-4.48 0-10.88-1.121-15.36-2.562-2.4-.321-2.56-.321-4.96 0-3.2-2.562-8.32-3.203-12.48-4.964a82.059 82.059 0 0 0-5.92-4.484c-1.76.321-2.4-.64-3.52-.96-2.24 0-4.16.16-5.44.96-2.56-.96-4-3.042-7.52-3.042-4.48 0-6.4 2.562-9.44 4.003-3.36 1.121-7.68 1.281-11.52 2.082-9.12-1.602-19.04.8-24.32-4.484-6.88.641-11.68-3.202-16.48-3.042-3.04-1.121-4.8-3.683-7.52-5.124-5.44-1.441-11.68-2.242-15.36-5.605-3.36-.48-6.56-1.12-9.44-2.081-9.76-.32-16.96-1.281-26.88-.48-1.92 0-2.88 1.12-4.48 1.44-1.6 0-2.56-.8-4.48-.48-1.76-.32-1.92 1.121-3.52.961-9.92 0-17.44.64-24.96.96-3.84 1.282-6.56 3.844-9.92 5.605-3.04-2.402-9.12 0-12-.48-2.88-.48-4-2.722-7.04-3.043-1.6-1.6-3.36-2.882-6.4-3.042-1.44-2.402-4.16-3.523-6.4-4.964-5.12.64-7.52-1.441-10.88-2.562-3.68 0-5.6 1.761-9.44 1.441-2.56 0-3.2-1.761-5.44-2.081-3.2-.32-5.12.64-8 .48-3.2 1.601-4.96 1.761-8.48 2.562-5.28.32-10.4-1.601-15.36-1.441-3.36 0-7.04 1.12-9.92 2.081-2.24.64-4.8 1.602-6.4 3.043-3.36-.96-5.6 1.761-7.52.48-3.84 2.722-10.08 3.203-12.96 7.046-.96.96-.96-.32-2.56 0-1.76.96-3.04 2.241-4.48 3.522-4.32.801-7.52 2.402-10.4 4.484-5.92.64-11.68 1.281-15.36 4.003-2.88-1.281-4.64-3.683-8.48-4.003-3.68.48-6.72 1.601-9.92 2.562-4-1.441-5.92-4.804-9.44-6.565-4.32-.32-7.84-.48-11.52 0-3.84 1.28-6.24 4.003-9.44 6.085-2.88 2.241-6.72 3.682-9.92 5.604-5.12 1.121-12.32 0-17.44.961-2.56-.961-4.96-1.922-8-2.562-7.2 2.562-13.6 6.084-19.36 10.088-2.88.8-5.44 2.241-8 3.522-7.04 3.523-14.88 7.046-21.92 11.049-4 1.121-8.48 1.761-12.96 2.562-4.48 2.242-9.12 4.163-12.96 7.046-3.52-.321-5.12 1.12-8.48.96-2.4-.32-4.8-.48-6.4-1.441-2.4 1.281-6.24 0-8.96 0-3.36-2.722-8.16-4.163-12.96-5.604-7.36.16-11.36 3.683-17.44 4.964-2.08 1.121-4.48 1.921-5.92 3.522-2.24.161-3.84 1.281-5.92 1.442-4.32 2.241-8 4.963-10.88 8.646-6.4 2.562-11.68 6.245-19.36 7.526-4.32-.32-7.68-1.281-12.48-.961-4.64.961-8.32 3.043-12.96 4.004-2.4 1.281-4.8 2.562-7.04 4.003-8.96 2.402-17.12 5.924-23.36 11.048-4 1.602-6.24 5.124-9.44 7.526-3.52 2.242-5.76 5.605-8.96 8.007-5.76.16-8.64 3.362-12.96 4.963-3.04 0-6.88-.48-8.48.961-2.4.481-1.6-2.081-4-1.441-5.76 1.121-11.52 2.562-15.36 5.604-2.4.161-4.64.641-7.04.961-2.4-.64-1.6-3.362-4.96-2.081a14.936 14.936 0 0 0-6.4-6.566c-.48-3.682-2.56-5.764-4.48-8.006-1.76.641-4.16.481-5.92.961-2.24 0-1.6-2.722-3.04-3.523-.64-1.601-1.6-2.722-3.04-3.523-1.6-1.281-2.4 1.281-4.96.481-2.72-1.441-4.64-3.683-7.04-5.605-2.72.16-3.52 2.562-5.92 3.043-1.28 0-2.4 0-3.04-.481-1.6.801-3.68 3.363-5.92 2.082-1.6.961-2.24 2.722-3.04 4.484-4 .16-6.24 2.081-8.48 4.003-2.24-.321-3.68.32-5.44.48-4.48 2.562-6.88 7.206-12 9.127-3.04 0-5.28-1.121-8-1.441-1.92.801-3.2 2.082-4.48 3.523-2.24-1.121-2.56-4.003-6.4-3.523-2.88-.64-2.56 2.082-4 3.042-2.24-.32-2.88-3.522-5.44-2.081-.16-1.762-1.12-2.882-2.56-3.523-2.88-1.281-3.52.641-5.92.961-.32-1.762-1.6-2.402-1.92-4.003-.48-1.281-2.24.96-3.04-.481-1.6-4.483-4.96-7.045-6.4-11.689-4 .961-4.32 5.605-7.04 8.006-2.72.321-4-.96-4.96-2.562-1.76 0-2.4.961-4 .961-.48-2.081-2.4-2.722-2.56-4.964-2.4 1.441-5.28 2.402-7.52 4.003-2.08-1.761-4.96-2.722-6.4-4.963-1.12-.641-1.12-2.563-2.56-3.043-.96-.801-2.56-1.121-3.04-2.562-1.6-.801-2.56.32-3.52 1.441-2.4-1.601-3.84-5.284-8-3.523-1.28-2.562-3.36-4.323-4-7.525-1.92 0-1.6 2.241-3.52.96-.16-2.562-2.88-2.402-3.04-4.964-1.12-1.441-1.92-3.042-2.56-5.124-1.92-3.202-3.52-6.565-4.48-10.568-3.2-.48-5.12.481-7.52.961-3.36-2.242-5.28-5.765-7.04-9.608-3.84-1.12-5.92-3.682-7.52-7.045-3.84 0-5.44-2.242-8-3.523h-6.4c-2.56-2.081-4.32-4.964-6.4-7.526-1.6.321-1.28-1.281-2.56-1.441-1.6.32-2.08-.64-2.56-1.441-1.28-1.281-3.2-1.761-4.48-3.042 0-.801-.32-1.281-.96-1.442-.96-3.202-2.24-5.924-3.04-9.127-1.44-2.081-2.56-4.483-4.96-5.604-4.32.64-5.76 4.323-9.92 4.964-1.44.961-2.56-1.601-3.52-2.562-1.28-1.121-2.72-1.922-4.48-2.562-2.88 1.12-2.56 5.444-4.48 7.526-1.44-1.441-2.08-3.683-3.52-5.124-1.28 1.121-2.72 1.121-4 0-1.12.96-3.68.32-4.48 1.441-1.28.64-1.6 2.081-3.52 2.081-.96-1.921-1.6-4.003-2.56-6.084-.32-2.562-2.24-3.363-4-4.484-3.2.32-3.52 3.523-5.44 4.964-4.64-3.363-6.88-9.127-11.52-12.65-5.28 2.562-7.2 8.487-11.52 12.17-2.08-.48-4-3.523-7.04-3.043-1.92.32-2.4.961-3.52 3.043-.64 1.44-2.4 1.601-3.52 2.562-3.52-.16-6.08-1.602-8.96-2.562-1.28-1.441-1.92.64-3.04.96-1.28 0-2.4-2.241-3.52-.48a22.588 22.588 0 0 0-6.4-7.526c-1.28 2.562-2.72 5.124-3.52 8.007-2.56 1.921-5.28 3.682-8 5.604-2.08-1.762-2.4-5.284-4-7.526-3.84 1.761-3.84 7.686-8.48 8.647-1.92 0-1.76-2.242-1.92-4.003-1.12-.641-.96-2.722-1.44-4.003-.48-1.602-1.28.64-1.92.48-.64-.48-.96-1.281-1.44-2.082-.8-1.28-3.52-.8-4.96-1.44-2.56 4.803-4.8 9.927-6.4 15.691-1.92 0-1.12-2.562-3.04-2.562-7.04 2.402-9.92 8.807-13.92 14.091-1.28 0-.96.801-1.92 0 0-1.281-.32-.64-.96-.48-2.08 1.281-4.16 2.402-4.48 5.604-1.6-.32-2.24.321-3.52.481-.8 3.523-2.56 6.085-4 9.127-.32 1.921-1.44 2.882-1.92 4.483-1.12 1.121-1.28 3.043-3.04 3.523-1.6 1.281-2.08-2.081-2.56-3.523-3.68.961-5.44 0-8-1.441-1.76-2.882-3.36-6.084-5.44-8.646-2.24-.161-2.88-.641-4.96 0-.96-2.723-5.28-2.082-7.52-3.523-2.08.48-4.64-.32-8 0-2.88-.32-2.08-4.324-4.96-4.484-5.44-.32-6.88 3.363-12 3.523-2.24 1.121-4.16 2.722-5.44 5.124-4 0-4.96 3.363-8 4.484-2.4-.161-3.36.96-5.92.48-1.44 0-1.28 1.441-1.92 2.082-.8.48-1.6 1.12-1.92 2.081-.8 1.601-2.56 2.402-3.52 4.003-4 1.281-7.36 3.363-11.52 4.484-1.76.48-2.4 2.242-3.52 3.523-1.6.8-2.88 1.761-4 3.042-1.76.48-2.72 2.082-4 3.042-1.28.961-2.88 1.762-4 3.043-6.88 2.402-14.24 4.483-20 8.006-4.16 0-8.16.48-10.88 2.082-1.12-.481-2.56-.801-3.52-1.442-4.96 2.562-11.84 6.085-18.88 3.523-3.2 0-3.2 3.523-5.44 4.484-7.52 2.081-17.44 2.241-24.32-.961-2.56.32-3.36 2.722-7.04 2.082-2.88-.161-4.96-1.281-6.4-3.043-3.52 1.121-5.92-1.601-9.44-2.081-2.88-1.281-4.48-3.843-6.4-6.085-3.52-.961-6.4-2.562-9.92-3.523-1.12-2.082-3.04-3.363-4-5.604-1.28-1.762-3.2-2.722-4-4.964-3.84 1.281-5.12 5.284-11.52 4.003-1.12-5.444-2.72-10.248-4-15.692-1.12-.961-3.2-1.121-4.96-1.441-2.24-2.562-4.64-5.124-8.96-5.605-1.92.32-2.4 1.922-3.04 3.523-3.04 3.523-4.8 8.326-8.48 11.049-2.08 0-2.56-1.762-4.48-2.082-2.08.64-2.88.32-4-.961-1.76.641-3.04 1.601-4 3.043-1.92.32-3.2 1.441-4.48 2.562-.8 0-1.28-.161-1.92-.481v552.913h1920V214.408h.32Z"/><path fill="url(#d)" d="M1920 869V364.125s-1.28-.481-2.24-.961c-3.52.32-4.16 3.683-6.24 5.444-2.4 1.121-2.56.16-5.44 0-1.12 3.043-3.2 5.284-3.84 8.647-4.8.48-8.32 2.082-12.48 3.203-2.72.8-3.36 3.843-4.64 6.245-2.56-1.442-2.72-5.124-6.24-5.445-3.36-.8-4.32.801-6.24 1.602-1.28-3.203-4.16-4.644-4.64-8.647-2.08-2.242-2.56-6.405-6.24-7.046-2.4-2.242-2.56 2.722-4.64 3.203-1.6-2.082-1.6 4.003-4.64 3.202-1.92-8.486-8.64-12.169-10.08-21.296-4.32.64-6.4 3.522-9.28 5.444-3.04 0-5.44.8-7.04 2.402-2.88.64-3.36-1.281-6.24-.801-4.32 1.601-9.12 2.882-10.88 7.046-2.24-3.203-4.96 0-7.84.8-1.12 2.242-3.2-1.441-3.84.801-.96.961-2.88.961-3.84 0-1.92 2.722-2.56 6.725-4.64 9.447-2.88 0-4.48-1.281-6.24-2.402-4.96 5.765-8.8 12.49-16.32 15.693-2.24 4.803-4.96 9.127-7.04 14.091-2.88 4.003-2.88 10.728-7.04 13.29-2.72 2.562-3.52-1.601-6.24-1.601-1.6-2.402-4.16 1.121-7.04 0-2.72 1.761-3.2 5.764-4.64 8.647-.96 3.362-4 4.323-6.24 6.244-5.44.321-8.32-2.081-11.68-4.003-4.48.641-4 6.565-8.48 7.046-5.44.32-7.36-3.043-12.48-3.203-6.4.801-8 6.726-13.92 7.847-3.36 0-2.4-4.324-4.64-5.445-3.36-1.121-5.12-3.683-10.08-3.202-1.44-2.722-4.48-3.843-5.44-7.046-2.88.16-2.08 4.163-5.44 4.003-1.76-2.402-3.2-5.124-6.24-6.245-2.4-.32-3.2.961-3.84 2.402-.96 1.922-2.88-.8-3.04.801-4.8-1.441-8-4.484-13.12-5.444-6.4 1.441-10.72 4.964-13.92 9.447-4.16-.64-4.64 2.722-7.04 4.003-2.56 0-3.84 1.281-7.04.801-3.52.32-3.68 4.163-6.24 5.444-2.72-1.441-3.68 0-7.04 0-7.36-1.761-12.64-5.444-19.36-7.846-2.08-2.562-4.16-5.124-6.24-7.846-1.6-2.882-2.56-6.245-6.24-7.046-3.36 0-5.92.801-7.04 3.203-3.04-1.762-3.36 1.921-6.24 2.402-4.16-.961-5.6-4.804-8.48-7.046-4.32-.64-7.04-4.003-10.08-4.003 0-2.722-2.24-2.882-3.84-4.003-5.76-14.892-10.88-30.424-17.12-44.835-4-1.441-5.12-5.765-10.88-5.444-.96-1.922-2.72-3.043-4.64-4.004-.48-1.601-1.44.161-2.4 0-.8-.16-.8-2.081-2.4-1.601-3.52-2.402-3.84-8.166-9.28-8.647-1.28-5.124-5.76-6.725-7.84-11.048-3.36-.801-2.56 2.722-5.44 2.402-.96-3.843-5.28-4.164-7.04-7.046-2.08 2.722-3.36 6.085-5.44 8.647-1.44 1.281-3.84-1.281-6.24-1.601-2.08 2.081-3.36 4.964-5.44 7.045-2.56.16-1.92-2.722-3.04-4.003-2.4 0-.96 4.163-3.84 4.003-1.12 1.441-5.28 0-4.64 3.203-1.28-.641-1.44-2.722-2.4-4.003-4.16 1.281-5.44 5.444-7.04 9.447-5.28.48-5.6 5.925-10.88 6.245-3.36.16-5.12-1.121-7.04-2.402-4.48 0-2.08-6.885-6.24-7.046-5.12-.48-5.28 4.164-7.84 6.245-.32 2.082-2.24 2.402-2.4 4.644-2.4-.32-3.2.961-3.84 2.402-2.72 1.281-2.4 0-3.84-1.601-2.88.48-3.84 3.362-5.44 3.202-1.92 2.082-3.52.48-7.04 1.601-2.72-.64-4.16-2.562-5.44-4.643-4.32-.16-5.44 2.882-9.28 3.202-.32-1.761-4.32-.8-3.84.801-1.92 0-1.28-2.882-2.4-4.003-1.76.32-2.88 1.281-5.44.8-5.76-7.526-14.72-11.689-21.76-18.094-8.8-4.163-14.72-11.209-23.36-15.692-9.12-2.082-17.92-4.323-26.4-7.046-3.04-.48-3.84 1.442-7.04.801-4.8-1.121-8.64-3.363-14.72-3.202-3.68-2.082-8-3.363-13.92-3.203-2.4-2.242-6.72-2.722-10.08-4.003-11.36 1.761-22.4.64-30.24-4.804-2.72.32-5.12 1.121-8.48.801-3.68 0-3.84-3.363-8.48-2.402-2.24-1.441-5.92-1.281-8.48-2.402-5.28-.641-8.48.801-13.28.801-5.92-1.121-10.88-3.043-18.56-2.402-11.2-5.124-21.28-11.369-32.64-16.493-5.44 1.601-11.2-.801-16.32-.801-.64 0-.8.801-.8.801-5.12-.32-8.96-.641-14.72.8-5.44-.8-8.64-3.843-13.28-5.444-5.6-.961-7.52 1.922-12.48 1.601-7.68-1.441-14.72-3.362-20.96-6.244-6.88 0-16.96-1.762-24-4.004-3.84-.48-4-.48-7.84 0-5.12-4.003-13.12-5.124-19.36-7.846-3.04-2.402-6.08-4.803-9.28-7.045-2.72.48-3.68-.961-5.44-1.601-3.36 0-6.4.32-8.48 1.601-4-1.441-6.24-4.644-11.68-4.644-7.04 0-9.92 4.163-14.72 6.245-5.12 1.922-12 1.922-17.92 3.203-14.24-2.402-29.76 1.281-38.08-7.046-10.56.961-18.24-4.804-25.6-4.644-4.64-1.761-7.36-5.604-11.68-7.846-8.48-2.402-18.24-3.523-24-8.647-5.28-.64-10.08-1.761-14.72-3.202-15.2-.48-26.4-2.082-41.92-.801-3.04 0-4.48 1.762-7.04 2.402-2.56 0-3.84-1.281-7.04-.8-2.88-.481-3.04 1.761-5.44 1.601-15.52 0-27.2 1.121-38.88 1.601-6.08 1.922-10.08 5.925-15.52 8.647-4.8-3.683-14.24.16-18.56-.801-4.48-.64-6.24-4.163-10.88-4.643-2.56-2.402-5.28-4.644-10.08-4.644-2.24-3.683-6.4-5.444-10.08-7.846-8 .961-11.68-2.402-17.12-4.003-5.6 0-8.8 2.722-14.72 2.402-4 0-4.96-2.723-8.48-3.203-4.96-.64-7.84.961-12.48.801-4.96 2.562-7.84 2.722-13.28 4.003-8.16.64-16.32-2.562-24-2.402-5.12 0-10.88 1.761-15.52 3.202-3.52 1.121-7.36 2.562-10.08 4.644-5.12-1.601-8.64 2.722-11.68.801-6.08 4.323-15.68 5.124-20.16 11.048-1.44 1.441-1.44-.48-3.84 0-2.72 1.441-4.8 3.523-7.04 5.445-6.72 1.121-11.68 3.843-16.32 7.045-9.12.961-18.24 1.922-24 6.245-4.64-1.921-7.36-5.764-13.28-6.245-5.6.801-10.56 2.402-15.52 4.003-6.24-2.081-9.28-7.365-14.72-10.248-6.72-.48-12.16-.8-17.92 0-6.08 1.922-9.92 6.245-14.72 9.448-4.48 3.683-10.4 5.764-15.52 8.646-8 1.602-19.36-.16-27.2 1.602-4-1.441-7.84-3.043-12.48-4.003-11.2 4.003-21.12 9.447-30.24 15.692-4.48 1.121-8.48 3.523-12.48 5.444-10.88 5.604-23.04 10.889-34.24 17.294-6.24 1.921-13.28 2.722-20.16 4.003-7.04 3.362-14.24 6.565-20.16 11.048-5.44-.64-8.16 1.762-13.12 1.602-3.68-.481-7.52-.801-10.08-2.402-3.84 2.081-9.76 0-13.92 0-5.28-4.324-12.8-6.405-20.16-8.647-11.36.32-17.76 5.604-27.2 7.846-3.2 1.762-6.88 3.043-9.28 5.444-3.52.321-5.92 1.922-9.28 2.402-6.72 3.523-12.48 7.846-17.12 13.451-9.92 4.163-18.24 9.928-30.24 11.849-6.56-.32-12-2.082-19.36-1.601-1.28.32-2.4.64-3.52.961v524.57h1920l.16-.16Z"/></g><defs><linearGradient id="b" x1="960" x2="960" y1="-.076" y2="568.125" gradientUnits="userSpaceOnUse"><stop stop-color="#79477A"/><stop offset="1" stop-color="#16112C"/></linearGradient><linearGradient id="c" x1="959.84" x2="959.84" y1="77.595" y2="704.231" gradientUnits="userSpaceOnUse"><stop stop-color="#79477A"/><stop offset="1" stop-color="#16112C"/></linearGradient><linearGradient id="d" x1="959.92" x2="959.92" y1="216.017" y2="869.16" gradientUnits="userSpaceOnUse"><stop stop-color="#79477A"/><stop offset="1" stop-color="#16112C"/></linearGradient><clipPath id="a"><path fill="#fff" d="M0 0h1920v869H0z"/></clipPath></defs></svg>