<svg xmlns="http://www.w3.org/2000/svg" width="64" height="64" fill="none"><path fill="url(#a)" d="m46.844 33.464-14-22a1.001 1.001 0 0 0-1.688 0l-14 22a1 1 0 0 0-.105.852L22.613 51H21a1 1 0 0 0-1 1v4a1 1 0 0 0 1 1h1v5a1 1 0 0 0 1 1h18a1 1 0 0 0 1-1v-5h1a1 1 0 0 0 1-1v-4a1 1 0 0 0-1-1h-1.612l5.56-16.684a.998.998 0 0 0-.104-.852ZM32 36a2 2 0 1 1 0 4 2 2 0 0 1 0-4Zm8 25H24v-4h16v4Zm2-8v2H22v-2h20Zm-2.721-2H24.72L19.1 34.135 31 15.434v18.692a4 4 0 1 0 2 0V15.434l11.901 18.701L39.28 51Z"/><path fill="url(#b)" d="M62 1h-6a1 1 0 0 0-1 1v2H36V2a1 1 0 0 0-1-1h-6a1 1 0 0 0-1 1v2H9V2a1 1 0 0 0-1-1H2a1 1 0 0 0-1 1v6a1 1 0 0 0 1 1h6a1 1 0 0 0 1-1V6h12.081a25.324 25.324 0 0 0-7.688 4.627C9.27 14.297 7 19.047 7 24H6a1 1 0 0 0-1 1v4a1 1 0 0 0 1 1h4a1 1 0 0 0 1-1v-4a1 1 0 0 0-1-1H9c0-8.761 8.093-16.233 19-17.727V8a1 1 0 0 0 1 1h6a1 1 0 0 0 1-1V6.272C46.907 7.768 55 15.24 55 24h-1a1 1 0 0 0-1 1v4a1 1 0 0 0 1 1h4a1 1 0 0 0 1-1v-4a1 1 0 0 0-1-1h-1c0-4.954-2.27-9.703-6.392-13.373A25.324 25.324 0 0 0 42.918 6H55v2a1 1 0 0 0 1 1h6a1 1 0 0 0 1-1V2a1 1 0 0 0-1-1ZM7 7H3V3h4v4Zm2 21H7v-2h2v2ZM34 7h-4V3h4v4Zm23 21h-2v-2h2v2Zm4-21h-4V3h4v4Z"/><defs><linearGradient id="a" x1="7" x2="51" y1="13.5" y2="56.5" gradientUnits="userSpaceOnUse"><stop stop-color="#4BDFFF"/><stop offset="1" stop-color="#0D57AD"/></linearGradient><linearGradient id="b" x1="7" x2="51" y1="13.5" y2="56.5" gradientUnits="userSpaceOnUse"><stop stop-color="#4BDFFF"/><stop offset="1" stop-color="#0D57AD"/></linearGradient></defs></svg>