<svg xmlns="http://www.w3.org/2000/svg" width="148" height="104" fill="none"><g clip-path="url(#a)"><path fill="#FFA92C" d="m133.757.05-3.274 2.701c1.489-.676 2.748-1.56 3.274-2.702ZM36.349 81.76c3.423-1.444 5.823-4.21 9.536-5.064.703 1.588 2.902 2.544 5.25 2.832 2.349.281 4.855-.004 7.304-.284 5.79-.674 11.727-1.38 17.09-3.418 3.605-1.372 6.792-3.295 9.911-5.223 5.127-3.177 10.232-6.472 14.107-10.415 3.485-3.544 5.914-7.699 5.951-11.722.08.026.168.05.271.062.926.066 1.826-.482 2.448-1.039 1.208-1.078 1.999-2.376 2.237-3.675.181-.958-.552-2.205-1.863-1.843-.519.144-.883.504-1.368.7-1.696.691-2.983-.885-3.292-2.144l-3.561-14.47c.851-.07 1.702-.142 2.561-.214 3.565-3.94 7.851-7.604 12.698-10.841l14.854-12.25c-.876.399-1.841.727-2.783.993-2.523.71-5.258 1.216-7.311 2.543-1.79 1.152-3.116 2.934-5.387 3.27-1.077.163-2.124-.062-3.182-.122-3.87-.212-7.79 1.835-10.219 4.248-2.429 2.412-3.784 5.206-5.648 7.824-5.367 7.52-16.587 13.955-27.751 13.509-3.023-.12-6.054-.801-7.793-2.418-1.347-1.253-1.636-3.152-.628-4.698-.415.12-.866.131-1.213-.032-.531.552-1.06 1.109-1.59 1.66-.713.052-1.398-.167-1.761-.56 1.678-2.156 3.347-4.318 5.025-6.475-2.75.71-5.498 1.427-8.247 2.137-2.59-2.253-8.01-2.033-11.984-.34-3.965 1.697-6.806 4.483-9.44 7.199-5.306 5.466-10.492 11.177-12.738 17.394.555-1.407.553-2.871-.006-4.172-.822.841-1.653 1.684-2.477 2.52-.051-1.137-.131-2.338-1.063-3.19-.931-.847-3.046-1.095-4.2-.183-.581.456-.774 1.07-.906 1.643a14.263 14.263 0 0 0-.249 5.282c-.469-.374-1.255.391-1.352.93-1.052 6.044-1.146 12.19 1.265 17.72 2.412 5.532 7.568 10.417 15.089 12.578 3.8 1.093 8.51 1.405 12.424-.248l-.01-.004Z"/><path fill="#FF7E27" d="M92.84 23.47c.651-.394 1.336-.736 2.056-1.027a4.979 4.979 0 0 0-2.056 1.027ZM71.161 29.09c-1.838.177-3.501 1.099-4.904 2.263.084-.05.175-.1.26-.145 1.48-.825 2.99-1.667 4.644-2.118Z"/><path fill="#FF7E27" d="M74.445 48.916c2.836-1.542 5.284-3.57 7.02-5.818.036.433.071.867.115 1.299a14.014 14.014 0 0 0 2.318-2.236l.47 1.08c.043.101.096.213.222.26.451.18.885-.487.895-.906.074-2.496.532-5.054 1.377-7.607.909-2.755 2.24-5.487 3.582-8.215.553-1.134 1.306-2.409 2.404-3.305-.62.377-1.207.8-1.73 1.252.125-.288-.523-.207-.846.006-3.086 2.067-3.548 5.495-6.457 7.709-.819.626-1.82 1.129-2.507 1.83-.299.302-.547.648-.94.891-.295.18-.644.289-.98.383-2 .589-4.03 1.188-6.034 1.331-2.004.143-4.007-.229-5.017-1.333-.443.576-.62 1.227-.494 1.795-.182-.222-.365-.45-.547-.672-.676 2.51-.759 5.008-.244 7.33-1.113-.08-1.665-.872-2.088-1.601-.102.417-.197.828-.298 1.245-1.251-1.467-1.66-3.338-2.045-5.168-.166-.787-.335-1.596-.093-2.449.238-.824.843-1.62 1.478-2.382a17.51 17.51 0 0 1 2.266-2.29c-3.194 1.784-6.484 3.696-8.444 6.245-.66.864-1.142 1.778-1.432 2.692-1.381 3.07-1.782 6.227-1.115 9.077.104.439.344.94.963.933.137-.267.145-.552.02-.779.942.058 1.634.508 2.443.769.819.265 1.989.287 2.736-.315-.502.472-.27 1.114.291 1.349.563.241 1.325.186 2.047.098 3.907-.471 7.895-1.76 11.376-3.678-.232.389-.473.779-.704 1.173l-.008.007Z"/><path fill="#FFCB48" d="M52.577 65.04a2.572 2.572 0 0 0-.159 1.602c.056-.536.103-1.072.159-1.602Z"/><path fill="#FFCB48" d="M35.486 80.166c6.13 2.5 14.12 2.633 21.565 1.172 7.445-1.461 14.42-4.389 20.84-7.739 8.492-4.431 16.773-10.376 18.224-17.423-3.143 4.756-8.566 8.906-15.047 11.538-2.712 1.768-6.069 3.02-9.533 3.534-3.286 1.414-7.72.77-11.268-.045-2.073-.475-4.198-.97-5.8-1.963-1.057-.657-1.834-1.583-2.048-2.593-4.557.165-8.14-3.004-7.036-6.216-.291.44-.582.879-.88 1.32l-1.09-2.491c.17 1.99-.52 4.092-1.964 5.964-3.936-5.71-4.743-12.68-2.225-19.344l-.084 1.647c.201-4.047 3.984-8.223 9.289-10.263.643-.248 1.331-.48 1.803-.889.422-.364.608-.825.893-1.247.938-1.37 2.99-2.28 5.013-2.734 2.023-.454 4.11-.554 6.158-.873 5.638-.872 10.711-3.316 15.91-5.435-.827-.026-1.557-.313-2.258-.576-10.245-3.85-24.786-2.12-34.571 3.995-5.92-.235-12.247 2.56-15.922 6.306-3.945 4.02-5.3 8.886-5.444 13.483-.054 1.578 1.542 5.686.96 6.844-1.51 3-3.543.209-3.107-1.536-.163.643-.324 1.29-.486 1.933-1.706-.54-1.912-2.165-1.883-3.553.075-4.186.407-8.395.997-12.61l-.842 1.349c.655-2.299.828-4.622.512-6.863-5.115 7.33-5.18 15.433-5.132 23.174.02 3.22.127 6.639 2.63 9.11.803.788 1.828 1.456 2.507 2.301 1.281 1.589 1.233 3.623 1.988 5.41 1.282 3.053 5.087 5.303 9.636 5.701l-1.355-2.235c2.514 1.496 5.482 2.622 8.715 3.307.114-.49.22-.977.335-1.46Z"/><path fill="#FFCB48" d="M82.993 66.288c-1.19.334-2.254.993-2.882 1.799.322-.121.635-.246.956-.379.683-.446 1.338-.91 1.926-1.42ZM71.061 71.316c.156-.022.317-.057.472-.079a7.616 7.616 0 0 0 1.478-.836c-.65.307-1.3.608-1.95.915ZM113.962 11.67a19.3 19.3 0 0 0 1.798-.262c-.602.055-1.206.15-1.798.262ZM103.13 17.37a11.224 11.224 0 0 0-1.775 2.267c.595-.755 1.181-1.513 1.775-2.267Z"/><path fill="#FFCB48" d="M66.582 62.374c-.492-.034-.985-.073-1.478-.107a52.242 52.242 0 0 1 10.181-.554c-2.561-.162-5.107-.38-7.49-.91-2.882-.643-5.55-1.782-7.117-3.563-1.073-1.22-1.576-2.676-1.972-4.145.541 1.06 1.97 1.836 3.47 2.298 3.451 1.063 7.672 1.033 11.523.011 1.197-.104 2.39-.328 3.498-.745 1.265-.475 2.362-1.185 3.333-1.949 2.34-1.835 4.058-4.138 4.444-6.441 2.97-3.14 5.947-6.339 7.716-9.82 1.661-3.282 2.185-6.692 3.375-10.035 1.198-3.345 3.249-6.796 7.113-9.105-.013.02-.027.034-.04.053 2.744-2.758 7.128-4.79 11.65-5.243l-3.209.156a19.626 19.626 0 0 1 2.39-.612c-3.48.372-7.048.019-10.383 1.018-1.672.501-3.17 1.318-4.556 2.196-3.56 2.273-6.485 5.057-8.487 8.077.28-.357.337-.79.142-1.131-1.73.644-2.376 2.148-2.984 3.437-1.099 2.35-2.74 4.621-4.838 6.68-1.654 1.631-3.73 3.2-6.347 3.857 3.4-.403 6.715-1.845 8.91-3.875-.62.939-1.067 1.915-1.319 2.903.932-.513 1.862-1.032 2.802-1.547-.495 1.46.039 2.899-.143 4.372-.263 2.148-2.013 4.179-3.707 6.107-.81.914-1.647 1.862-2.892 2.495-1.168.596-2.557.85-3.897 1.095-2.795.498-5.59 1.002-8.384 1.506.768.031 1.483.28 1.941.684-3.043 1.365-6.688 1.332-10.016 1.104-2.02-.138-4.079-.35-5.718-1.081a5.357 5.357 0 0 1-1.53-1.012c.51-1.081.135-2.293-.989-2.955a6.284 6.284 0 0 0-.003.967 2.76 2.76 0 0 0 .379 1.987c.321 1.048.797 2.074 1.278 3.077 1.142 2.406 2.292 4.811 3.433 7.212.739 1.558 1.736 3.296 4.006 3.707 1.864.34 3.999-.337 5.945-.192l-.03.023ZM75.285 61.713c.526.033 1.06.066 1.585.093a45.22 45.22 0 0 0-1.585-.093ZM112.268 44.961c.154.864-.192 1.788-.871 2.592.231.213.493.41.786.595.337-1.073.368-2.167.085-3.187ZM108.04 31.593c-.069.036-.128.081-.197.116-.154.173-.316.346-.487.515.231-.208.453-.422.684-.63ZM121.04 11.068a49.725 49.725 0 0 0 4.575-4.584c-3.602 2.466-7.261 4.988-9.764 8.02-.4.483-.756.98-1.103 1.482 2.386-1.479 4.662-3.06 6.293-4.913l-.001-.005ZM119.141 44.476c.375-.344.703-.715.995-1.098l-.1-.983c-.032.712-.347 1.44-.894 2.087l-.001-.006Z"/><path fill="#FFCB48" d="M111.818 60.962c5.11-2.71 8.349-6.929 9.935-11.153 1.586-4.224 1.702-8.51 1.802-12.747-.9.08-1.626.713-1.891 1.339-.266.626-.202 1.268-.256 1.903-.09 1.046-.538 2.11-1.271 3.08.205 2.278.191 4.642-1.328 6.8-1.799 2.555-5.353 4.305-8.796 5.874.141-.245.079-.639-.123-.88l-1.531-1.811a10.065 10.065 0 0 0-.421-3.727c1.438-.35 2.673-1.137 3.462-2.076-1.602-1.457-1.938-3.579-2.849-5.395-.885-1.764-2.378-3.32-2.968-5.172-.571-1.79.022-4.06 2.262-5.276 2.441-2.768 2.599-6.303 5.582-8.85-.944.302-1.888.604-2.825.898l1.343-2.722c.844-1.708 1.696-3.416 2.812-5.062-.672.42-1.353.831-2.035 1.236-2.478 1.484-4.962 2.975-7.439 4.458-2.939 1.763-6.016 3.648-7.471 6.113-.696 1.177-.986 2.415-1.213 3.637a44.67 44.67 0 0 0-.772 9.12c.778-3.398 2.87-6.757 5.993-9.606-.46 2.45-.912 4.903-1.372 7.352-.138.73-.275 1.467-.514 2.198-.91 2.744-3.373 5.347-6.694 7.085 2.008-.873 4.016-1.746 6.032-2.62-.247 1.016-.494 2.026-.74 3.043.433-.245.876-.492 1.31-.737-.913 3.293-2.571 6.552-4.885 9.61 2.28-2.31 4.888-4.466 7.775-6.428l.022 5.344c.003 1.33.015 2.666.4 3.934.282.922.831 1.837 1.931 2.318 1.925.825 4.696.001 6.733-1.08Z"/><path fill="#FFE66C" d="M68.32 73.58c-7.3 1.8-14.757 3.617-22.188 3.75-1.772.032-3.544-.034-5.183-.384-1.438-.305-2.747-.83-3.819-1.524-1.658-1.07-2.813-2.566-4.866-3.259-.57-.193-1.196-.313-1.738-.535-.768-.309-1.35-.8-1.853-1.313-1.513-1.525-2.52-3.318-2.936-5.23-.297-1.382-.292-2.812-.253-4.237.1-3.253.388-6.522.87-9.797a143.63 143.63 0 0 0-1.627 12.513c-.22 2.574-.29 5.33 1.733 7.273l-.814-3.345c-.062-.863-.131-1.724-.194-2.593a29.166 29.166 0 0 0 2.388 8.927c.05-.24.098-.486.148-.727.127 1.089.735 2.103 1.718 2.865-.12-.864-.241-1.727-.369-2.584.492 1.11 1.682 1.957 2.983 2.622 5.987 3.059 14.613 2.904 22.424 1.239-.013.02-.036.03-.042.047 4.744-.388 9.493-1.686 13.617-3.718l.002.01Z"/><path fill="#FFCB48" d="M92.2 67.604a41.492 41.492 0 0 1-.902 2.51c1.121-1.091 1.823-2.142.902-2.51ZM75.271 83.546c-.028.358-.055.722-.084 1.08.282-1.382 1.508-2.735 3.215-3.554-.413.647-.624 1.344-.622 2.015.263-1.395 1.682-2.656 3.27-3.622 1.589-.966 3.397-1.734 4.946-2.734 2.925-1.887 4.327-4.186 5.318-6.62-1.323 1.278-3.232 2.614-3.825 2.957-2.916 1.7-6.299 2.952-9.115 4.745-6 3.825-8.65 10.073-6.325 14.937 1.08-3.07 2.158-6.144 3.238-9.213l-.016.009Z"/><path fill="#FFE66C" d="M41.732 60.745c.48 1.044 1.19 2.207 2.984 2.53-.02-.257-.074-.508-.112-.767a18.068 18.068 0 0 0 2.57 3.315c-.316-4.597-2.13-9.03-3.114-13.56-.41-1.872-.658-3.784-.605-5.697a53.96 53.96 0 0 0-4.444 7.807 115.748 115.748 0 0 0 2.727 6.36l-.006.013ZM36.753 60.233c.052-.177.113-.35.174-.529l-.231-.45c.016.327.04.652.057.98ZM37.37 58.387a37.25 37.25 0 0 0-.435 1.316 42.576 42.576 0 0 0 2.854 4.815c-.8-2.044-1.61-4.088-2.41-6.133l-.008.002Z"/><path fill="#FFE66C" d="m38.787 53.822 4.677-7.49-.01.234c2.858-4.196 6.39-8.275 10.562-12.15l-3.404 1.267c-.18-.35-.132-.74.114-1.097-3.773.892-7.597 2.066-9.988 3.986-1.694 1.361-2.513 2.977-3.068 4.563a17.563 17.563 0 0 0-.975 4.833c-.095-.301-.206-.594-.302-.895-.59.308-.373.825-.455 1.256-.082.437-1.226.884-1.497.493.137 3.309.913 6.58 2.305 9.728.043-.465.078-.928.12-1.393.166.41.323.822.488 1.227a48.187 48.187 0 0 1 1.641-4.008l-.225-.556.017.002Zm-.913-6.203a9.977 9.977 0 0 0-.686 1.795 6.874 6.874 0 0 1-.128-.388c.268-.47.546-.937.814-1.407Z"/></g><defs><clipPath id="a"><path fill="#fff" d="m133.757.05 14.12 79.183-133.655 23.835L.102 23.884z"/></clipPath></defs></svg>