<svg xmlns="http://www.w3.org/2000/svg" width="64" height="64" fill="none"><path fill="url(#a)" d="M52.848 20.227h-4.654v-4.959c0-2.84-1.069-5.547-3.01-7.62a.955.955 0 1 0-1.396 1.306 9.207 9.207 0 0 1 2.494 6.314v4.959H26.831c-6.15 0-11.152 5.003-11.152 11.152v3.42H14.18a2.216 2.216 0 0 0-1.577.653l-5.073 5.074v-5.104c0-.782-.419-1.517-1.093-1.918a9.29 9.29 0 0 1-4.526-7.946v-10.29c0-5.095 4.145-9.24 9.24-9.24h25.89a9.19 9.19 0 0 1 3.452.666.956.956 0 0 0 .715-1.773 11.092 11.092 0 0 0-4.167-.805h-25.89C5.002 4.116 0 9.12 0 15.268v10.29a11.21 11.21 0 0 0 5.46 9.59.322.322 0 0 1 .159.274v5.565a1.716 1.716 0 0 0 1.062 1.59c.43.207 1.31.177 1.875-.373l5.4-5.4a.316.316 0 0 1 .225-.093h1.498v4.958c0 1.505.294 2.966.876 4.341a.956.956 0 0 0 1.761-.745 9.182 9.182 0 0 1-.726-3.596v-10.29c0-5.095 4.146-9.24 9.24-9.24h26.018c5.095 0 9.24 4.145 9.24 9.24v10.29a9.18 9.18 0 0 1-4.45 7.9 2.235 2.235 0 0 0-1.066 1.901v6.235l-6.142-6.142a2.214 2.214 0 0 0-1.577-.654H26.83a9.215 9.215 0 0 1-6.244-2.428.956.956 0 1 0-1.292 1.409 11.121 11.121 0 0 0 7.536 2.931h22.022a.32.32 0 0 1 .225.093l6.468 6.47c.5.383.988.68 1.876.372a1.715 1.715 0 0 0 1.062-1.59V51.47c0-.11.056-.212.146-.267C61.992 49.16 64 45.596 64 41.67v-10.29c0-6.15-5.003-11.152-11.152-11.152Z"/><path fill="url(#b)" d="M37.141 43.023c-.56-.792-1.581-1.323-2.746-1.323-1.766 0-3.202 1.22-3.202 2.721 0 1.5 1.436 2.721 3.202 2.721 1.55 0 2.845-.94 3.14-2.184a5.323 5.323 0 0 0 3.001-3.274 3.143 3.143 0 0 0 2.442-3.06v-3.446c0-1.44-.975-2.655-2.298-3.023a8.696 8.696 0 0 0-2.702-5.013 8.698 8.698 0 0 0-5.906-2.304 8.69 8.69 0 0 0-8.608 7.317 3.143 3.143 0 0 0-2.297 3.023v3.446a3.142 3.142 0 0 0 3.138 3.139 3.142 3.142 0 0 0 3.139-3.139v-3.447c0-1.349-.856-2.502-2.054-2.944a6.786 6.786 0 0 1 6.682-5.483c3.253 0 6.056 2.356 6.68 5.483a3.143 3.143 0 0 0-2.051 2.945v3.446c0 1.276.765 2.375 1.86 2.866a3.414 3.414 0 0 1-1.42 1.533Zm-2.746 2.207c-.76 0-1.29-.426-1.29-.809 0-.382.53-.809 1.29-.809s1.29.427 1.29.81c0 .382-.53.809-1.29.809Zm-8.863-6.605a1.228 1.228 0 0 1-2.453 0v-3.447c0-.677.55-1.227 1.226-1.227.677 0 1.227.55 1.227 1.227v3.447Zm13.08-3.447a1.228 1.228 0 0 1 2.453 0v3.447c0 .676-.55 1.226-1.226 1.226-.676 0-1.226-.55-1.226-1.226v-3.447Zm6.85-4.923h7.613a.956.956 0 0 0 0-1.911h-7.614a.956.956 0 0 0 0 1.911Zm0 4.28h5.87a.956.956 0 0 0 0-1.912h-5.87a.956.956 0 0 0 0 1.912Z"/><path fill="url(#c)" d="M9.404 18.044a1.425 1.425 0 1 0 0-2.85 1.425 1.425 0 0 0 0 2.85Z"/><path fill="url(#d)" d="M13.72 18.044a1.425 1.425 0 1 0 0-2.85 1.425 1.425 0 0 0 0 2.85Z"/><path fill="url(#e)" d="M18.011 18.044a1.425 1.425 0 1 0 0-2.85 1.425 1.425 0 0 0 0 2.85Z"/><defs><linearGradient id="a" x1="15.448" x2="48.493" y1="15.735" y2="65.426" gradientUnits="userSpaceOnUse"><stop stop-color="#009A63"/><stop offset=".939" stop-color="#ACDE1E"/></linearGradient><linearGradient id="b" x1="15.448" x2="48.493" y1="15.735" y2="65.426" gradientUnits="userSpaceOnUse"><stop stop-color="#009A63"/><stop offset=".939" stop-color="#ACDE1E"/></linearGradient><linearGradient id="c" x1="15.448" x2="48.493" y1="15.735" y2="65.426" gradientUnits="userSpaceOnUse"><stop stop-color="#009A63"/><stop offset=".939" stop-color="#ACDE1E"/></linearGradient><linearGradient id="d" x1="15.448" x2="48.493" y1="15.735" y2="65.426" gradientUnits="userSpaceOnUse"><stop stop-color="#009A63"/><stop offset=".939" stop-color="#ACDE1E"/></linearGradient><linearGradient id="e" x1="15.448" x2="48.493" y1="15.735" y2="65.426" gradientUnits="userSpaceOnUse"><stop stop-color="#009A63"/><stop offset=".939" stop-color="#ACDE1E"/></linearGradient></defs></svg>