<svg xmlns="http://www.w3.org/2000/svg" width="64" height="64" fill="none"><g clip-path="url(#a)"><path fill="url(#b)" d="M59.438 62H2.562A2.565 2.565 0 0 1 0 59.437V14.56a1 1 0 0 1 1-1h60a1 1 0 0 1 1 1v44.877A2.565 2.565 0 0 1 59.437 62ZM2 15.56v43.877a.563.563 0 0 0 .563.563h56.874a.562.562 0 0 0 .563-.563V15.56H2Z"/><path fill="url(#c)" d="M61 15.56H1a.999.999 0 0 1-1-1V2.563A2.565 2.565 0 0 1 2.563 0h56.874A2.565 2.565 0 0 1 62 2.563V14.56a1.004 1.004 0 0 1-.617.924c-.121.05-.252.076-.383.076Zm-59-2h58V2.563A.563.563 0 0 0 59.437 2H2.563A.563.563 0 0 0 2 2.563V13.56Z"/><path fill="url(#d)" d="M54.667 9.405a1.625 1.625 0 1 0 0-3.25 1.625 1.625 0 0 0 0 3.25Z"/><path fill="url(#e)" d="M48.5 9.405a1.625 1.625 0 1 0 0-3.25 1.625 1.625 0 0 0 0 3.25Z"/><path fill="url(#f)" d="M42.333 9.405a1.625 1.625 0 1 0 0-3.25 1.625 1.625 0 0 0 0 3.25Z"/><path fill="url(#g)" d="M25.186 49.39H13.001a2.058 2.058 0 0 1-2.022-1.673L8.75 36.009a1 1 0 0 1 1.964-.375l2.23 11.709 4.773.018-.786-11.471a1 1 0 0 1 1.995-.137l.796 11.616 5.465.02a1 1 0 0 1 0 2Zm8.904-6.041a1 1 0 0 1-.984-1.188l1.243-6.527a1 1 0 1 1 1.965.375l-1.243 6.527a1 1 0 0 1-.981.813Zm-7.51 1.605c-.024 0-.047 0-.07-.002a1 1 0 0 1-.93-1.066l.558-8.133a1 1 0 0 1 1.995.137l-.557 8.133a1 1 0 0 1-.997.931Z"/><path fill="url(#h)" d="M36.833 36.821H8.23a2.052 2.052 0 0 1-2.05-2.05v-1.69a2.052 2.052 0 0 1 2.05-2.05h28.603a2.052 2.052 0 0 1 2.05 2.05v1.69a2.052 2.052 0 0 1-2.05 2.05ZM8.23 33.031l-.05 1.74 28.653.05a.05.05 0 0 0 .05-.05v-1.69l-28.653-.05Z"/><path fill="url(#i)" d="M35.484 33.031a.997.997 0 0 1-.682-.268l-8.968-8.367a1 1 0 0 1 1.364-1.463l8.968 8.367a1 1 0 0 1-.682 1.731Zm-25.905 0a1 1 0 0 1-.682-1.731l8.968-8.367a1 1 0 0 1 1.364 1.462l-8.968 8.368a.996.996 0 0 1-.682.268Z"/><path fill="url(#j)" d="M25.384 26.58h-5.705a2.135 2.135 0 0 1-2.132-2.134v-1.564a2.134 2.134 0 0 1 2.132-2.132h5.705a2.134 2.134 0 0 1 2.132 2.132v1.564a2.135 2.135 0 0 1-2.132 2.133Zm-5.705-3.83a.133.133 0 0 0-.132.132v1.564a.133.133 0 0 0 .132.133h5.705a.133.133 0 0 0 .132-.133v-1.564a.133.133 0 0 0-.132-.132h-5.705Zm11.666 32.313a7.178 7.178 0 1 1 7.178-7.177 7.186 7.186 0 0 1-7.178 7.177Zm0-12.356a5.178 5.178 0 1 0 5.178 5.179 5.184 5.184 0 0 0-5.178-5.179Z"/><path fill="url(#k)" d="M30.567 50.53v-1.746H28.82a.329.329 0 0 1-.329-.329v-.899c0-.181.148-.328.33-.328h1.746V45.48c0-.181.147-.329.329-.329h.898c.182 0 .33.148.33.33v1.746h1.746c.181 0 .329.147.329.329v.898a.329.329 0 0 1-.33.33h-1.746v1.746a.33.33 0 0 1-.329.329h-.898a.33.33 0 0 1-.33-.33ZM53.04 26.509H43.25a1 1 0 1 1 0-2h9.791a1 1 0 0 1 0 2Zm0 6.523H43.25a1 1 0 1 1 0-2h9.791a1 1 0 0 1 0 2Zm0 6.524H43.25a1 1 0 0 1 0-2h9.791a1 1 0 1 1 0 2Z"/></g><defs><linearGradient id="g" x1="12" x2="56" y1="3.5" y2="59" gradientUnits="userSpaceOnUse"><stop stop-color="#FF2EC4"/><stop offset="1" stop-color="#B132FF"/></linearGradient><linearGradient id="b" x1="12" x2="56" y1="3.5" y2="59" gradientUnits="userSpaceOnUse"><stop stop-color="#FF2EC4"/><stop offset="1" stop-color="#B132FF"/></linearGradient><linearGradient id="d" x1="12" x2="56" y1="3.5" y2="59" gradientUnits="userSpaceOnUse"><stop stop-color="#FF2EC4"/><stop offset="1" stop-color="#B132FF"/></linearGradient><linearGradient id="e" x1="12" x2="56" y1="3.5" y2="59" gradientUnits="userSpaceOnUse"><stop stop-color="#FF2EC4"/><stop offset="1" stop-color="#B132FF"/></linearGradient><linearGradient id="f" x1="12" x2="56" y1="3.5" y2="59" gradientUnits="userSpaceOnUse"><stop stop-color="#FF2EC4"/><stop offset="1" stop-color="#B132FF"/></linearGradient><linearGradient id="c" x1="12" x2="56" y1="3.5" y2="59" gradientUnits="userSpaceOnUse"><stop stop-color="#FF2EC4"/><stop offset="1" stop-color="#B132FF"/></linearGradient><linearGradient id="h" x1="12" x2="56" y1="3.5" y2="59" gradientUnits="userSpaceOnUse"><stop stop-color="#FF2EC4"/><stop offset="1" stop-color="#B132FF"/></linearGradient><linearGradient id="i" x1="12" x2="56" y1="3.5" y2="59" gradientUnits="userSpaceOnUse"><stop stop-color="#FF2EC4"/><stop offset="1" stop-color="#B132FF"/></linearGradient><linearGradient id="j" x1="12" x2="56" y1="3.5" y2="59" gradientUnits="userSpaceOnUse"><stop stop-color="#FF2EC4"/><stop offset="1" stop-color="#B132FF"/></linearGradient><linearGradient id="k" x1="12" x2="56" y1="3.5" y2="59" gradientUnits="userSpaceOnUse"><stop stop-color="#FF2EC4"/><stop offset="1" stop-color="#B132FF"/></linearGradient><clipPath id="a"><path fill="#fff" d="M0 0h64v64H0z"/></clipPath></defs></svg>