<svg xmlns="http://www.w3.org/2000/svg" width="360" height="355" fill="none"><g filter="url(#a)" shape-rendering="crispEdges"><path fill="url(#b)" fill-opacity=".35" d="m16.714 135.581-.11.506c-.01.048.004-.019-.007.029l-.15.723c-1.368 6.557-11.834 63.519 25.72 113.523 39.912 53.144 109.503 73.799 165.426 92.015 55.933 18.217 108.317-2.81 127.972-49.637 19.655-46.828-20.037-72.046-28.798-133.193-8.752-61.156-1.77-78.763-42.591-125.323-40.821-46.56-124.605-45.456-181.245 2.353-52.983 44.712-64.899 92.958-66.217 99.004Z"/><path stroke="url(#c)" stroke-opacity=".25" stroke-width="2" d="m17.582 136.292.109-.498c1.289-5.911 13.124-53.929 65.885-98.453 56.355-47.568 139.49-48.49 179.848-2.458 20.341 23.2 28.702 39.104 33.103 56.77 2.208 8.863 3.426 18.194 4.639 29.169.25 2.26.5 4.589.758 6.997.994 9.274 2.113 19.715 3.853 31.869l.99-.141-.99.142c3.582 25.001 12.32 44.067 20.041 60.916 1.774 3.87 3.494 7.623 5.086 11.305 8.521 19.708 13.41 37.402 3.739 60.443-19.416 46.256-71.203 67.161-126.74 49.073-2.524-.822-5.075-1.649-7.65-2.483-25.967-8.417-54.284-17.596-80.945-30.377-29.295-14.045-56.516-32.407-76.341-58.805-37.284-49.643-26.895-106.23-25.542-112.718l.15-.715v-.004m.007-.032-.006.032m.006-.032v.005m0-.005v.005m-.006.027v-.006l.001-.002v-.002l.001-.002m-.002.012.002-.012m0 0v-.001m0 .001v-.001m0 0v-.001m0 .001v-.001m0 0v-.001m0 .001v-.001m0 0 .001-.003m0 .003v-.003m0 0v-.001m0 .001v-.001m0 0 .001-.003m0 .003v-.003m0 0v-.002m0 .002v-.002m0 0 .001-.003m0 .003v-.003m-.806-.901c.208.002.431.046.658.156.03.066.054.134.074.202.051.17.074.333.082.418a1.618 1.618 0 0 0-.377-.483 1.75 1.75 0 0 0-.437-.293Zm-.148 1.481a1.65 1.65 0 0 1-.165-.062c.562-.007 1.003-.31 1.079-.389a2.07 2.07 0 0 1-.405.516 1.511 1.511 0 0 1-.509-.065Z"/></g><path fill="url(#d)" d="M332.286 182.48s0-3.983-5.595-9.566c-5.595-5.573-9.201-8.765-9.201-8.765s-2.802 9.165 2.401 14.739c5.203 5.573 12.395 10.756 12.395 10.756v-7.174.01Z"/><path fill="url(#e)" d="M324.167 207.365s0-3.983-5.595-9.566c-5.595-5.573-9.201-8.765-9.201-8.765s-2.803 9.166 2.4 14.739c5.204 5.574 12.396 10.756 12.396 10.756v-7.174.01Z"/><path fill="url(#f)" d="M331.943 189.264s.421-3.963 6.58-8.918c6.16-4.954 10.081-7.745 10.081-7.745s1.808 9.403-3.95 14.405c-5.758 5.002-13.466 9.394-13.466 9.394l.765-7.136h-.01Z"/><path fill="url(#g)" d="M322.121 218.655s.841-3.897 7.488-8.184c6.648-4.287 10.837-6.65 10.837-6.65s.813 9.546-5.452 13.91c-6.255 4.373-14.385 7.927-14.385 7.927l1.512-7.013v.01Z"/><path fill="url(#h)" d="M323.965 250.696s0-3.983 5.595-9.566c5.595-5.573 9.201-8.765 9.201-8.765s2.802 9.166-2.401 14.739c-5.203 5.574-12.395 10.757-12.395 10.757v-7.175.01Z"/><path fill="url(#i)" d="M323.872 258.508s.564-3.945-4.18-10.261c-4.744-6.317-7.852-9.976-7.852-9.976s-4.075 8.67.267 14.93c4.343 6.259 10.741 12.405 10.741 12.405l1.024-7.098Z"/><path fill="url(#j)" d="M318.354 281.688s0-3.983 5.595-9.566c5.595-5.573 9.201-8.765 9.201-8.765s2.802 9.165-2.401 14.739c-5.203 5.573-12.395 10.756-12.395 10.756v-7.174.01Z"/><path fill="url(#k)" d="M322.091 302.706s-1.013-3.859 2.984-10.661c3.998-6.812 6.667-10.804 6.667-10.804s5.04 8.155 1.425 14.862c-3.615 6.708-9.258 13.539-9.258 13.539l-1.827-6.936h.009Z"/><path stroke="#2F275A" stroke-linecap="round" stroke-linejoin="round" stroke-width=".5" d="M332.795 181.46c-.325 4.259-.813 8.66-1.53 12.367-2.21 11.394-7.747 18.74-9.957 29.029-2.209 10.29 4.142 23.543 2.439 36.767-1.702 13.214-6.867 20.569-5.394 29.382 1.473 8.822 9.22 32.708 9.22 32.708M331.887 191.912l6.035-4.611M332.162 186.605l-2.525-4.478"/><path stroke="#2F275A" stroke-linecap="round" stroke-linejoin="round" stroke-width=".5" d="M321.643 222.389s5.05-3.772 10.243-7.545M324.167 214.529s-4.209-8.222-8.981-13.672M324.168 256.355s3.931-7.688 10.808-14.396M323.183 261.947s-2.525-6.011-5.471-10.346c-2.945-4.335-3.366-4.897-3.366-4.897M318.354 289.015s2.027-5.116 4.552-9.165c2.525-4.059 5.892-7.689 5.892-7.689M323.917 309.642s-.593-4.774 1.511-8.823c2.104-4.058 4.495-9.365 5.471-11.461"/><path fill="url(#l)" d="M295.616 235.71s-.43-2.496 2.468-6.603c2.908-4.106 4.811-6.488 4.811-6.488s2.754 5.44.105 9.508c-2.649 4.059-6.599 8.089-6.599 8.089l-.785-4.497v-.009Z"/><path fill="url(#m)" d="M303.429 250.429s-.431-2.496 2.467-6.602c2.908-4.106 4.811-6.488 4.811-6.488s2.755 5.44.106 9.508c-2.65 4.059-6.6 8.089-6.6 8.089l-.784-4.497v-.01Z"/><path fill="url(#n)" d="M296.582 239.92s-.698-2.439-5.098-4.878c-4.399-2.439-7.163-3.772-7.163-3.772s-.115 6.097 4.045 8.603c4.161 2.515 9.469 4.43 9.469 4.43l-1.253-4.392v.009Z"/><path fill="url(#o)" d="M305.935 257.289s-.947-2.353-5.585-4.325c-4.639-1.972-7.518-3.001-7.518-3.001s.536 6.069 4.935 8.136c4.4 2.068 9.89 3.421 9.89 3.421l-1.712-4.231h-.01Z"/><path fill="url(#p)" d="M308.268 277.582s-.431-2.496-4.553-5.392c-4.122-2.897-6.724-4.507-6.724-4.507s-.755 6.05 3.109 8.984c3.864 2.935 8.952 5.402 8.952 5.402l-.784-4.496v.009Z"/><path fill="url(#q)" d="M309.188 282.479s-.784-2.41 1.502-6.888c2.286-4.469 3.835-7.108 3.835-7.108s3.501 5.002 1.454 9.394c-2.047 4.393-5.385 8.937-5.385 8.937l-1.415-4.344.009.009Z"/><path fill="url(#r)" d="M316.217 302.63s.287-2.515 4.237-5.64c3.951-3.125 6.456-4.878 6.456-4.878s1.1 5.993-2.592 9.146c-3.691 3.154-8.627 5.907-8.627 5.907l.526-4.535Z"/><path fill="url(#s)" d="M315.176 296.409s-.43-2.496-4.553-5.393c-4.122-2.896-6.723-4.506-6.723-4.506s-.756 6.05 3.108 8.984c3.864 2.935 8.952 5.402 8.952 5.402l-.784-4.497v.01Z"/><path fill="url(#t)" d="M315.117 309.994s.21-2.524-3.032-6.364c-3.252-3.84-5.356-6.05-5.356-6.05s-2.267 5.659.726 9.48c2.994 3.82 7.279 7.488 7.279 7.488l.383-4.544v-.01Z"/><path stroke="#2F275A" stroke-linecap="round" stroke-linejoin="round" stroke-width=".5" d="M295.195 235.118c.67 2.639 1.454 5.345 2.315 7.593 2.63 6.908 6.905 10.919 9.411 17.131 2.506 6.212-.028 15.215 2.477 23.313 2.506 8.108 6.552 12.157 6.581 17.845.038 5.688-2.219 21.503-2.219 21.503M296.908 241.578l-4.295-2.239M296.152 238.281l1.091-3.077"/><path stroke="#2F275A" stroke-linecap="round" stroke-linejoin="round" stroke-width=".5" d="M306.652 259.585s-3.577-1.82-7.25-3.63M304.213 254.926s1.741-5.611 4.141-9.546M308.768 281.155s-3.3-4.393-8.35-7.861M309.992 284.557s.928-4.04 2.305-7.079c1.377-3.04 1.578-3.43 1.578-3.43M315.777 305.316s2.841-3.468 4.61-4.764c1.77-1.295 2.994-2.591 2.994-2.591M315.968 301s-1.827-2.982-3.854-5.259c-2.028-2.267-4.534-4.182-4.534-4.182M314.736 314.539s-.153-3.059-1.913-5.374c-1.759-2.315-3.835-5.392-4.677-6.593"/><path fill="#2F275A" d="M302.312 319.75h36.632v27.343a2.9 2.9 0 0 1-2.907 2.896H305.22a2.9 2.9 0 0 1-2.908-2.896V319.75Z"/><path fill="#2F275A" d="M338.629 324.513h-36.316a2.86 2.86 0 0 1-2.87-2.858 2.86 2.86 0 0 1 2.87-2.858h36.316a2.86 2.86 0 0 1 2.869 2.858 2.86 2.86 0 0 1-2.869 2.858ZM268.943 70.18c17.96 0 32.519-14.503 32.519-32.393S286.903 5.394 268.943 5.394s-32.519 14.503-32.519 32.393 14.559 32.393 32.519 32.393Z"/><path fill="#D8D2F3" d="M279.547 63.825c14.435-5.833 21.39-22.218 15.534-36.597-5.855-14.38-22.304-21.307-36.739-15.475-14.435 5.833-21.39 22.218-15.534 36.598 5.855 14.379 22.304 21.307 36.739 15.474Z"/><path stroke="#2F275A" stroke-miterlimit="10" stroke-width="2" d="m250.648 42.96 18.297-5.173V12.301"/><path fill="#2F275A" d="M111.164 182.614H75.46L28.719 57.652h35.704l46.741 124.962Z"/><path fill="#D8D2F3" d="M111.164 182.614H75.46L28.719 57.652h35.704l46.741 124.962Z" opacity=".2"/><path fill="#2F275A" d="M54.877 88.168h-9.182c-1.148 0-2.42-.924-2.84-2.067l-3.55-9.48c-.43-1.143.154-2.067 1.301-2.067h9.182c1.148 0 2.42.924 2.841 2.067l3.548 9.48c.43 1.143-.153 2.067-1.3 2.067ZM66.785 63.969H31.081l-2.362-6.317h35.704l2.362 6.317Z"/><path stroke="#2F275A" stroke-linecap="round" stroke-linejoin="round" d="m43.277 64.998 1.024 2.744M44.654 64.998l1.024 2.744M46.031 64.998l1.024 2.744M47.41 64.998l1.024 2.744M48.785 64.998l1.024 2.744M50.154 64.998l1.033 2.744M51.531 64.998l1.024 2.744M52.908 64.998l1.024 2.744M54.287 64.998l1.023 2.744M55.664 64.998l1.023 2.744"/><path fill="#D8D2F3" d="m51.911 82.232-8.646-5.459c-.2-.124-.43-.152-.574-.057-.143.095-.172.286-.086.486l3.96 8.508c.095.21.306.38.535.438.048.01.096.02.134.02.163 0 .287-.077.335-.21l.909-2.802 3.443-.038c.21 0 .344-.133.344-.333s-.143-.42-.354-.553Z"/><path fill="#2F275A" d="m51.73 82.614-8.636-5.46 3.96 8.508.975-3.01 3.701-.038Z"/><path fill="#D8D2F3" d="m67.894 82.614-8.646-5.46 3.96 8.508.985-3.01 3.701-.038ZM72.323 87.453 71.54 85.7l-1.014 1.477 1.798.276ZM93.212 143.294l-.784-1.753-1.014 1.476 1.798.277ZM99.618 160.433l-.784-1.753-1.014 1.477 1.798.276ZM106.189 178.011l-.775-1.753-1.014 1.477 1.789.276ZM69.378 123.505l-.775-1.753-1.023 1.477 1.798.276ZM76.78 143.294l-.774-1.753-1.024 1.476 1.799.277ZM83.198 160.433l-.784-1.753-1.014 1.477 1.798.276ZM89.767 178.011l-.784-1.753-1.014 1.477 1.798.276ZM51.902 106.251l1.511.972 4.123-8.594-1.502-.962-4.132 8.584ZM53.756 97.848c-2.181-1.705-2.344-2.039-1.808-3.963-1.129 1.543-1.463 1.572-3.864.314 2.18 1.706 2.343 2.039 1.808 3.964 1.128-1.544 1.463-1.572 3.864-.315ZM60.97 98.772c-1.35-1.048-1.445-1.257-1.12-2.448-.698.953-.899.972-2.391.2 1.349 1.048 1.444 1.257 1.119 2.448.698-.952.9-.971 2.391-.2ZM60.557 102.812c-.966-.753-1.033-.895-.794-1.753-.497.677-.64.696-1.703.143.967.753 1.033.896.794 1.753.498-.676.641-.695 1.703-.143ZM82.242 140.893l.928.648 4.122-8.584-.927-.658-4.123 8.594ZM78.779 104.041l-7.632-4.82 3.5 7.516.86-2.658 3.272-.038Z"/><path fill="#D8D2F3" d="M73.04 104.479c-2.792 0-5.68-1.639-6.436-3.658-.755-2.02.909-3.659 3.701-3.659 2.793 0 5.682 1.639 6.437 3.659.756 2.019-.908 3.658-3.701 3.658ZM70.469 97.6c-2.554 0-4.094 1.449-3.424 3.221.66 1.772 3.28 3.22 5.834 3.22s4.094-1.448 3.424-3.22c-.66-1.772-3.28-3.22-5.834-3.22Z"/><path fill="#D8D2F3" d="M69.674 103.746c-.69 0-1.454-.562-1.713-1.248-.258-.686.096-1.248.785-1.248.688 0 1.454.562 1.712 1.248.258.686-.096 1.248-.784 1.248Zm-.766-2.049c-.45 0-.67.362-.507.81.163.448.66.81 1.11.81.45 0 .67-.362.507-.81-.163-.448-.66-.81-1.11-.81Z"/><path fill="#D8D2F3" d="m69.798 105.05-.306-.409c.555-.229.851-.563.89-.991.057-.543-.326-1.067-.326-1.067l.354-.153s.507.696.44 1.41c-.057.543-.41.953-1.061 1.22l.01-.01ZM65.017 117.446l-5.318-3.868-1.129 1.791 5.318 3.868 1.129-1.791ZM56.494 122.448l.87.629 1.952-3.096c-.22-.229-.307-.534-.173-.734.153-.238.536-.238.861 0 .325.238.469.619.325.857-.124.2-.411.229-.698.096l-1.951 3.096.813.591 4.81-1.344.297-2.829-5.25-3.811-2.42 1.296.564 5.249Z"/><path stroke="#2F275A" stroke-linecap="round" stroke-linejoin="round" d="M51.453 110.32h30.73"/><path fill="#D8D2F3" d="m78.187 113.578-1.128 1.791 5.317 3.868 1.129-1.791-5.318-3.868ZM74.408 117.189l.564 5.249.87.629 1.952-3.096c-.22-.229-.306-.534-.172-.734.153-.238.535-.238.86 0 .326.238.47.619.326.858-.125.2-.411.228-.698.095l-1.951 3.096.813.591 4.81-1.343.297-2.83-5.251-3.811-2.42 1.296Z"/><path fill="#D8D2F3" d="M73.097 118.732c.048-.371.105-.772.144-1.219a3.186 3.186 0 0 0-.756-2.392c-.909-1.076-2.276-1.429-2.334-1.438-.143-.038-.258.038-.239.171.01.134.144.267.287.305.01 0 1.177.295 1.913 1.172.46.543.66 1.21.593 1.972-.038.438-.086.838-.134 1.201-.258 1.905-.411 3.048 2.764 4.944a.297.297 0 0 0 .172.048c.077 0 .134-.029.163-.095.048-.105-.038-.267-.172-.353-2.755-1.648-2.65-2.429-2.391-4.325l-.01.009ZM59.496 131.47l.182.496c.067.171.65 1.715.956 2.239l.89-.22c-.144-.238-.43-.933-.66-1.524h3.797l3.175 8.489h-1.425l.373.991h3.845l-.373-.991h-1.425l-3.175-8.489h3.691c.201.534.517 1.372.67 1.791h1.004c-.239-.638-.851-2.286-.851-2.286l-.182-.496H59.496Z"/><path fill="#D8D2F3" d="M79.468 155.031c.813 2.182-.985 3.954-4.017 3.954-3.032 0-6.16-1.772-6.972-3.954-.813-2.182.985-3.954 4.017-3.954 3.032 0 6.16 1.772 6.972 3.954Z" opacity=".44"/><path stroke="#D8D2F3" stroke-miterlimit="10" d="M79.468 155.031c.813 2.182-.985 3.954-4.017 3.954-3.032 0-6.16-1.772-6.972-3.954-.813-2.182.985-3.954 4.017-3.954 3.032 0 6.16 1.772 6.972 3.954Z"/><path fill="#D8D2F3" d="m90.78 155.146 3.605-6.526c.153-.267.536-.324.918-.134.46.229.756.715.66 1.077l-1.941 7.212-3.243-1.629Z"/><path fill="#D8D2F3" d="M90.177 155.689c1.415-.19 4.189 1.02 4.266 2.849.019.457-.287.772-.641.981-1.072.648-2.573.677-4.036.696.353-.248.497-.705.382-1.201-.115-.514-.468-1.029-.66-1.543-.258-.734-.124-1.725.68-1.772M82.682 170.018c-.42-.914-.947-1.476-1.31-1.781l-1.09 1.724c.42.353 1.032.991 1.51 2.02.421.915.804 1.572 1.081 1.991l1.062-1.696c-.344-.485-.804-1.276-1.263-2.258h.01ZM81.418 172.01c-.42-.915-.947-1.477-1.31-1.782l-1.09 1.724c.42.353 1.032.991 1.51 2.02.422.915.804 1.572 1.081 1.992l1.062-1.696c-.344-.486-.803-1.277-1.262-2.258h.01ZM83.044 169.98c.421.915.804 1.572 1.081 1.991l1.569-2.496-3.51-2.553-.65 1.029c.42.352 1.032.991 1.51 2.02v.009ZM80.166 174.01c-.42-.914-.947-1.477-1.31-1.781l-.909 1.448.153 3.296c.01.229.316.448.507.362l2.793-1.095c-.344-.486-.794-1.268-1.234-2.23Zm-1.234 2.201-.086-1.753 1.598 1.162-1.512.591ZM93.948 171.571l-1.196 1.906 6.179 4.487 1.195-1.906.373.277 2.822-4.488-6.935-5.03-2.821 4.487.373.277.01-.01Zm4.571 5.297-4.686-3.401.851-1.362 4.687 3.401-.861 1.362h.01ZM35.61 59.319l.22.61-.86 1.048 1.644 1.048.23.61-2.592-1.658 1.358-1.658ZM33.45 59.319l.22.61-.851 1.048 1.645 1.048.22.61-2.592-1.658 1.358-1.658Z"/><path fill="#2F275A" d="M180.307 132.594h-73.846L83.889 69.866h73.846l22.572 62.728Z"/><path fill="url(#u)" d="M175.077 129.174h-65.832L89.131 73.287h65.832l20.114 55.887Z"/><path fill="#D8D2F3" d="m162.554 94.39-10.884-7.985-8.599 22.237-22.294-6.269-11.535 26.801h65.832l-12.52-34.785ZM117.191 85.262c-1.53-4.25-6.226-7.698-10.502-7.698-4.275 0-6.484 3.449-4.954 7.698 1.53 4.25 6.227 7.698 10.502 7.698s6.484-3.449 4.954-7.698Z"/><path fill="#2F275A" d="M187.958 121.791h-73.847l-22.572-62.72h73.847l22.572 62.72Z"/><path fill="url(#v)" d="M182.727 118.37h-65.832L96.781 62.492h65.832l20.114 55.878Z"/><path fill="#D8D2F3" d="m170.205 83.586-10.885-7.984-8.598 22.246-22.295-6.278-11.534 26.8h65.831l-12.519-34.784ZM124.844 74.468c-1.531-4.25-6.227-7.698-10.502-7.698-4.276 0-6.485 3.449-4.955 7.698 1.531 4.25 6.227 7.698 10.502 7.698s6.485-3.449 4.955-7.698Z"/><path fill="#000" d="m188.292 49.23 1.779 4.287h-.516c-.373-.753-.708-1.296-1.005-1.62a4.558 4.558 0 0 0-1.54-1.152c-.554-.248-1.214-.372-1.97-.372h-2.582l5.126 13.977c.412 1.124.794 1.829 1.139 2.105.478.381 1.08.562 1.788.562h.641l.182.496h-7.786l-.182-.496h.651c.775 0 1.243-.238 1.396-.705.096-.285-.048-.943-.421-1.972l-5.126-13.977h-2.21c-.86 0-1.444.067-1.759.191-.412.171-.689.495-.842.981-.153.486-.115 1.144.124 1.973h-.516l-1.358-4.288h14.997l-.01.01Z"/><path stroke="#2F275A" stroke-miterlimit="10" stroke-width=".5" d="M199.473 57.842h5.624M204.915 72.677h-28.282L166.16 44.152h28.282l10.473 28.525Z"/><path fill="#D8D2F3" stroke="#2F275A" stroke-miterlimit="10" stroke-width=".5" d="M172.607 58.9h-2.114l-.774-2.114h2.113l.775 2.115ZM200.918 58.9h-2.114l-.775-2.114h2.114l.775 2.115ZM167.642 45.362h-2.123l-.775-2.106h2.123l.775 2.106ZM195.953 45.362h-2.124l-.774-2.106h2.123l.775 2.106ZM181.808 45.362h-2.123l-.775-2.106h2.123l.775 2.106ZM177.99 73.563h-2.114l-.774-2.115h2.113l.775 2.115ZM206.301 73.563h-2.114l-.775-2.115h2.114l.775 2.115Z"/><path stroke="#2F275A" stroke-miterlimit="10" stroke-width=".5" d="m190.932 73.182 2.056 5.602"/><path fill="#D8D2F3" stroke="#2F275A" stroke-miterlimit="10" stroke-width=".5" d="M192.156 73.563h-2.114l-.774-2.115h2.113l.775 2.115Z"/><path fill="#2F275A" d="M194.461 79.832h-2.124l-.775-2.105h2.124l.775 2.105Z"/><path stroke="#2F275A" stroke-miterlimit="10" stroke-width=".5" d="M174.939 67.322h23.749"/><path fill="#2F275A" d="M206.205 57.843c-.23-.61-.909-1.115-1.521-1.115-.612 0-.937.495-.708 1.115.23.61.909 1.114 1.521 1.114.612 0 .937-.495.708-1.114Z"/><path fill="#000" d="m75.14 209.109 25.624 21.875L76.346 350h1.645l27.163-116.825 24.886 20.779-35.14 95.903 2.2-.372 36.967-93.339 102.856 93.339h62.589l-73.206-142.929-151.165 2.553Z" opacity=".2"/><path fill="#2F275A" stroke="#2F275A" stroke-linecap="round" stroke-linejoin="round" d="M77.991 350h-1.645L73.87 207.08h6.61L77.99 350ZM220.37 350h-1.655l-2.477-142.92h6.609L220.37 350Z"/><path fill="#D8D2F3" stroke="#2F275A" stroke-linecap="round" stroke-linejoin="round" d="M230.459 204.87H71.346v3.706h159.113v-3.706ZM35.406 281.593l-2.888 6.079s3.538 3.839 5.145 3.839c1.607 0 2.248-1.601 4.18-2.239 1.932-.638 5.145-6.726 5.145-6.726s-1.931-3.201-3.854-3.525c-1.922-.324-4.82-1.277-6.427-1.601-1.607-.324-1.282 4.164-1.282 4.164l-.019.009Z"/><path stroke="#2F275A" stroke-linecap="round" stroke-linejoin="round" d="m35.408 281.593 1.932 3.201v2.878s1.932.962 2.573 0c.64-.963 3.539-4.164 3.539-4.164l-1.282-2.877M37.338 287.681l-3.54-.638"/><path fill="#D8D2F3" stroke="#2F275A" stroke-linecap="round" stroke-linejoin="round" d="m90.794 339.195-6.494 1.848s-.564 5.183.498 6.384c1.061 1.2 2.697.628 4.447 1.648 1.76 1.019 8.465-.591 8.465-.591s1.138-3.554.105-5.211c-1.033-1.658-2.22-4.45-3.042-5.869-.822-1.41-3.988 1.791-3.988 1.791h.01Z"/><path stroke="#2F275A" stroke-linecap="round" stroke-linejoin="round" d="m90.796 339.195-1.139 3.554-2.17 1.905s.544 2.077 1.702 1.925c1.157-.153 5.47-.105 5.47-.105l1.32-2.868M87.477 344.654l-1.846-3.068"/><path fill="#D8D2F3" stroke="#2F275A" stroke-linecap="round" stroke-linejoin="round" d="M25.125 280.316s-5.46 3.526-4.495 5.441c.966 1.915 1.607 3.201 2.573 3.839.966.638 3.855 1.601 4.82.962.966-.638 3.214-2.239 3.54-4.801.325-2.563 1.28-2.878.325-4.164-.966-1.277-6.753-1.277-6.753-1.277h-.01Z"/><path stroke="#2F275A" stroke-linecap="round" stroke-linejoin="round" d="m20.62 285.757 3.854 2.562 3.213-.323 1.282-3.526s0-1.924-1.932-1.924-2.889.962-2.889.962l.641 1.925"/><path fill="#D8D2F3" stroke="#2F275A" stroke-linecap="round" stroke-linejoin="round" d="M48.902 275.839s-4.82 4.478-4.18 7.679c.642 3.201 6.753 5.764 6.753 5.764l7.393-4.164-2.247-5.764-4.82-2.563-2.89-.962-.009.01Z"/><path stroke="#2F275A" stroke-linecap="round" stroke-linejoin="round" d="m44.723 283.517 5.145 1.925 5.787-1.925-2.248-5.125"/><path stroke="#2F275A" stroke-linecap="round" stroke-linejoin="round" d="m48.904 275.839-.316 6.717 3.854 1.286"/><path fill="#D8D2F3" stroke="#2F275A" stroke-linecap="round" stroke-linejoin="round" d="M63.363 336.023s-4.82 4.478-4.18 7.679c.642 3.201 6.753 5.764 6.753 5.764l7.393-4.164-2.247-5.764-4.82-2.563-2.89-.962-.009.01Z"/><path stroke="#2F275A" stroke-linecap="round" stroke-linejoin="round" d="m59.193 343.711 5.136 1.915 5.787-1.915-2.248-5.126"/><path stroke="#2F275A" stroke-linecap="round" stroke-linejoin="round" d="m63.364 336.023-.315 6.726 3.854 1.277"/><path fill="#D8D2F3" stroke="#2F275A" stroke-linecap="round" stroke-linejoin="round" d="M31.227 271.037s-4.82 4.478-4.18 7.679c.64 3.201 6.752 5.764 6.752 5.764l7.394-4.163-2.248-5.765-4.82-2.562-2.889-.963-.01.01Z"/><path stroke="#2F275A" stroke-linecap="round" stroke-linejoin="round" d="m27.047 278.716 5.146 1.925 5.786-1.925-2.248-5.126"/><path stroke="#2F275A" stroke-linecap="round" stroke-linejoin="round" d="m31.228 271.036-.316 6.717 3.855 1.286"/><path fill="#2F275A" stroke="#2F275A" stroke-linecap="round" stroke-linejoin="round" d="M58.198 350H20.055l-5.72-62.985h49.583L58.198 350Z"/><path fill="#D8D2F3" stroke="#2F275A" stroke-linecap="round" stroke-linejoin="round" d="M32.834 339.547s-5.46 3.525-4.495 5.44c.966 1.915 1.607 3.202 2.573 3.84.966.638 3.854 1.601 4.82.962.967-.638 3.214-2.239 3.54-4.802.325-2.562 1.28-2.877.325-4.163-.967-1.277-6.753-1.277-6.753-1.277h-.01Z"/><path stroke="#2F275A" stroke-linecap="round" stroke-linejoin="round" d="m28.338 344.988 3.854 2.562 3.214-.323 1.282-3.526s0-1.924-1.932-1.924-2.889.962-2.889.962l.641 1.925"/><path fill="gray" stroke="#2F275A" stroke-linecap="round" stroke-linejoin="round" d="M133.972 161.309c0 .991-.947 1.801-2.114 1.801-1.167 0-2.114-.81-2.114-1.801 0-.991.947-1.801 2.114-1.801 1.167 0 2.114.81 2.114 1.801ZM135.999 166.797c0 .991-.947 1.801-2.114 1.801-1.167 0-2.114-.81-2.114-1.801 0-.991.947-1.8 2.114-1.8 1.167 0 2.114.809 2.114 1.8ZM138.036 172.285c0 .99-.947 1.8-2.114 1.8-1.167 0-2.113-.81-2.113-1.8 0-.991.946-1.801 2.113-1.801s2.114.81 2.114 1.801ZM140.065 177.773c0 .991-.947 1.801-2.113 1.801-1.167 0-2.114-.81-2.114-1.801 0-.991.947-1.801 2.114-1.801 1.166 0 2.113.81 2.113 1.801Z"/><path fill="#2F275A" stroke="#2F275A" stroke-linecap="round" stroke-linejoin="round" d="M111.419 204.516h-14.49l-2.171-23.923h18.832l-2.171 23.923Z"/><path fill="url(#w)" stroke="#2F275A" stroke-linecap="round" stroke-linejoin="round" d="m112.875 188.453-16.633 8.451.689 7.612h7.757l7.517-8.612.67-7.451Z"/><path fill="url(#x)" stroke="#2F275A" stroke-linecap="round" stroke-linejoin="round" d="M115.273 177.735H93.084v5.202h22.189v-5.202Z"/><path fill="#2F275A" stroke="#2F275A" stroke-linecap="round" stroke-linejoin="round" d="M154.286 204.783h-26.063a3.304 3.304 0 0 1-3.309-3.296 3.305 3.305 0 0 1 3.309-3.297h26.063a3.305 3.305 0 0 1 3.31 3.297 3.304 3.304 0 0 1-3.31 3.296Z"/><path fill="#2F275A" stroke="#2F275A" stroke-linecap="round" stroke-linejoin="round" d="M223.599 204.869h-80.226l-19.139-51.887h80.236l19.129 51.887Z"/><path fill="gray" stroke="#2F275A" stroke-linecap="round" stroke-linejoin="round" d="M218.51 199.477H150l-16.346-44.312h68.52l16.336 44.312Z"/><path fill="#2F275A" stroke="#2F275A" stroke-linecap="round" stroke-linejoin="round" d="M231.974 223.4s-3.463 5.068-6.303 7.631c-2.841 2.563-11.526 10.585-18.728 22.732-7.202 12.148-12.204 24.562-16.967 35.309-4.763 10.747-13.352 30.583-17.713 36.623-4.361 6.041-7.231 9.27-7.231 9.27s-7.125.162-15.561-.581-11.927-2.267-12.032-.076c-.105 2.191 5.7 8.213 9.89 9.251 4.189 1.039 9.526 2.658 10.826 3.897 1.292 1.248 2.918 2.677 5.003 1.762 2.075-.914 8.435-9.718 15.513-15.796 7.078-6.079 15.504-12.081 23.136-26.229 7.633-14.148 8.025-22.237 13.371-27.544 5.347-5.316 10.999-13.652 17.828-18.044 6.829-4.393 27.211-12.529 33.725-20.999 6.513-8.46 3.118-18.759-3.147-22.437-6.265-3.677-26.704-5.002-31.601 5.231h-.009Z"/><path fill="#D8D2F3" stroke="#2F275A" stroke-linecap="round" stroke-linejoin="round" d="M177.303 316.768c-1.922 3.849-3.682 7.05-5.04 8.927-4.361 6.041-7.231 9.27-7.231 9.27s-7.125.162-15.561-.581-11.927-2.267-12.032-.076c-.105 2.191 5.7 8.213 9.89 9.251 4.189 1.048 9.526 2.658 10.826 3.897 1.292 1.248 2.918 2.677 5.003 1.762 2.075-.914 8.435-9.718 15.513-15.796 3.29-2.83 6.877-5.65 10.54-9.27-5.777-1.382-9.679-4.821-11.898-7.384h-.01Z"/><path fill="url(#y)" stroke="#2F275A" stroke-linecap="round" stroke-linejoin="round" d="M163.158 349.218c.631-.276 1.673-1.305 3.012-2.753-5.719-1.134-8.675-4.002-11.295-4.735-3.682-1.02-6.8-3.03-6.8-3.03l2.85-4.202c-.478-.038-.966-.076-1.454-.123-8.436-.744-11.927-2.268-12.032-.077-.105 2.192 5.7 8.213 9.89 9.251 4.189 1.048 9.526 2.659 10.826 3.897 1.292 1.248 2.918 2.677 5.003 1.763v.009Z"/><path fill="#2F275A" d="M173.07 250.229s1.521 7.079 4.907 13.824 10.836 13.824 16.25 17.873c5.413 4.05 22.849 19.56 31.486 31.87 1.081 1.543-3.051 6.745-8.12 11.299-5.079 4.554-7.279 6.24-4.572 7.079 2.707.838 9.143.505 15.571-4.888 6.437-5.392 10.664-8.936 12.692-13.319 1.014-2.191-4.572-4.887-7.958-7.755-3.386-2.868-15.915-21.751-19.808-30.516-3.893-8.766-13.715-21.247-20.994-25.629"/><path stroke="#2F275A" stroke-linecap="round" stroke-linejoin="round" d="M173.07 250.229s1.521 7.079 4.907 13.824 10.836 13.824 16.25 17.873c5.413 4.05 22.849 19.56 31.486 31.87 1.081 1.543-3.051 6.745-8.12 11.299-5.079 4.554-7.279 6.24-4.572 7.079 2.707.838 9.143.505 15.571-4.888 6.437-5.392 10.664-8.936 12.692-13.319 1.014-2.191-4.572-4.887-7.958-7.755-3.386-2.868-15.915-21.751-19.808-30.516-3.893-8.766-13.715-21.247-20.994-25.629"/><path fill="#D8D2F3" stroke="#2F275A" stroke-linecap="round" stroke-linejoin="round" d="M241.285 313.958c1.014-2.192-4.571-4.888-7.957-7.756-2.85-2.41-12.156-16.139-17.36-25.666l-11.525 10.146c7.164 6.603 15.906 15.473 21.262 23.114 1.081 1.543-3.051 6.745-8.12 11.299-5.079 4.554-7.279 6.241-4.572 7.079 2.707.838 9.144.505 15.571-4.887 6.437-5.393 10.664-8.937 12.692-13.32l.009-.009Z"/><path fill="url(#z)" stroke="#2F275A" stroke-linecap="round" stroke-linejoin="round" d="M237.815 309.489a121.266 121.266 0 0 0-3.462 5.488c-3.214 5.393-12.023 12.309-13.199 11.128-.66-.657-1.33-1.791-1.779-2.668a74.102 74.102 0 0 1-1.769 1.658c-5.079 4.554-7.279 6.241-4.572 7.079 2.706.838 9.143.505 15.571-4.888 6.436-5.392 10.664-8.936 12.692-13.319.612-1.334-1.206-2.849-3.482-4.478Z"/><path fill="#D8D2F3" stroke="#2F275A" stroke-linecap="round" stroke-linejoin="round" d="M283.768 324.924h-57.549v2.696h57.549v-2.696Z"/><path fill="#D8D2F3" stroke="#2F275A" stroke-linecap="round" stroke-linejoin="round" d="m231.47 252.582-10.071 95.903a.772.772 0 0 0 .774.848.773.773 0 0 0 .766-.658l14.968-96.093h-6.437ZM277.515 252.582l10.071 95.903a.772.772 0 0 1-.774.848.773.773 0 0 1-.766-.658l-14.968-96.093h6.437ZM259.228 252.582l.507 95.979a.77.77 0 0 1-.775.772h-.009a.775.775 0 0 1-.775-.734l-5.375-96.026h6.437l-.01.009Z"/><path fill="url(#A)" d="M280.722 238.082h-53.293c-2.625 0-4.753 2.12-4.753 4.735v6.041c0 2.615 2.128 4.735 4.753 4.735h53.293c2.625 0 4.754-2.12 4.754-4.735v-6.041c0-2.615-2.129-4.735-4.754-4.735Z"/><mask id="B" width="64" height="16" x="222" y="238" maskUnits="userSpaceOnUse" style="mask-type:luminance"><path fill="#fff" d="M280.722 238.083h-53.293c-2.625 0-4.753 2.12-4.753 4.735v6.04c0 2.616 2.128 4.736 4.753 4.736h53.293c2.625 0 4.754-2.12 4.754-4.736v-6.04c0-2.615-2.129-4.735-4.754-4.735Z"/></mask><g mask="url(#B)"><path fill="#000" d="M280.723 238.083h-52.078l-1.55 3.249s48.09.829 48.09 3.601c0 2.773.832 6.364-8.617 6.364-7.652 0-33.332.363-42.839.505.382.477.841.867 1.377 1.172l2.793.629h52.824c2.62 0 4.753-2.115 4.753-4.735v-6.04c0-2.611-2.123-4.735-4.753-4.735v-.01Z" opacity=".2"/></g><path stroke="#2F275A" stroke-linecap="round" stroke-linejoin="round" d="M280.722 238.082h-53.293c-2.625 0-4.753 2.12-4.753 4.735v6.041c0 2.615 2.128 4.735 4.753 4.735h53.293c2.625 0 4.754-2.12 4.754-4.735v-6.041c0-2.615-2.129-4.735-4.754-4.735Z"/><path fill="#2F275A" d="M174.428 256.297c-1.186-3.877-6.093-11.632 17.435-27.82 12.472-8.584 39.444-15.177 39.444-15.177l2.535-2.867s7.278 7.583 21.5 7.078c14.223-.504 23.022-6.745 24.715-6.24 1.693.505 1.865 4.888 1.186 13.148s-1.521 12.481-8.12 14.5c-6.6 2.02-21.157 2.697-31.649 2.525-10.492-.171-15.571-.838-15.571-.838s-22.514 14.167-36.565 15.177"/><path stroke="#2F275A" stroke-linecap="round" stroke-linejoin="round" d="M174.428 256.297c-1.186-3.877-6.093-11.632 17.435-27.82 12.472-8.584 39.444-15.177 39.444-15.177l2.535-2.867s7.278 7.583 21.5 7.078c14.223-.504 23.022-6.745 24.715-6.24 1.693.505 1.865 4.888 1.186 13.148s-1.521 12.481-8.12 14.5c-6.6 2.02-21.157 2.697-31.649 2.525-10.492-.171-15.571-.838-15.571-.838s-22.514 14.167-36.565 15.177"/><path fill="#D8D2F3" stroke="#2F275A" stroke-linecap="round" stroke-linejoin="round" d="M226.563 163.387c-1.024.324-31.993 6.412-34.7 5.898-2.707-.505-9.813-6.574-12.357-6.412-2.535.171-7.613 1.01-8.12 2.363-.507 1.352 1.186 5.897 1.186 5.897s-1.693 2.525-.842 3.706c.842 1.182 5.758-1.686 5.758-1.686s5.585 4.049 8.12 3.201c2.535-.838 5.251-1.858 5.251-1.858s39.778 2.363 40.285 2.525c.507.171 5.414 1.181 5.921-5.897.506-7.079-4.572-9.614-10.493-7.756l-.009.019Z"/><path stroke="#2F275A" stroke-linecap="round" stroke-linejoin="round" d="m172.562 171.143 6.944-5.726"/><path fill="#2F275A" d="m175.098 168.618 3.73-11.633 1.521.333-1.866 8.432-3.385 2.868Z"/><path fill="#D8D2F3" d="M202.355 175.697s-41.136 11.299-47.736 10.451c-6.599-.838-8.636-3.706-10.157-3.706-1.521 0-5.758 2.02-7.613 1.858-1.865-.172-4.065-.677-4.065.505 0 1.181 1.693 3.039 2.707 3.039 1.013 0 5.078-.172 5.078-.172s-7.957 2.363-8.292 3.878c-.335 1.515.679 2.868 2.2 3.201 1.52.334 2.2 1.01 2.2 1.01s.679 2.525 1.692 3.706c1.014 1.182 4.065 1.687 7.451 1.01 3.386-.676 9.306-3.706 10.664-4.554 1.359-.848 42.486-4.554 45.537-5.23 3.051-.677 6.771-.677 7.957-2.697 1.186-2.019-7.613-12.309-7.613-12.309l-.01.01Z"/><mask id="C" width="79" height="26" x="132" y="175" maskUnits="userSpaceOnUse" style="mask-type:luminance"><path fill="#fff" d="M202.353 175.697s-41.136 11.299-47.736 10.451c-6.599-.838-8.636-3.706-10.157-3.706-1.521 0-5.758 2.02-7.613 1.858-1.865-.172-4.065-.677-4.065.505 0 1.181 1.693 3.039 2.707 3.039 1.013 0 5.078-.172 5.078-.172s-7.957 2.363-8.292 3.878c-.335 1.515.679 2.868 2.2 3.201 1.521.334 2.2 1.01 2.2 1.01s.679 2.525 1.692 3.706c1.014 1.182 4.065 1.687 7.451 1.01 3.386-.676 9.306-3.706 10.664-4.554 1.359-.848 42.486-4.554 45.537-5.23 3.051-.677 6.771-.677 7.957-2.697 1.186-2.019-7.613-12.309-7.613-12.309l-.01.01Z"/></mask><g mask="url(#C)"><path fill="url(#D)" d="M152.61 194.312c-7.068 0-5.5-7.041-7.852-5.869-2.057 1.02-10.081 2.049-12.358 4.631.335.829 1.1 1.457 2.076 1.676 1.521.334 2.2 1.01 2.2 1.01s.679 2.525 1.693 3.707c1.013 1.181 4.064 1.686 7.45 1.009 3.386-.676 9.306-3.706 10.665-4.554 1.358-.838 42.485-4.554 45.536-5.23 2.458-.543 5.365-.648 7.01-1.744.584-.59.938-.962.938-.962l-4.362-4.249s-45.928 10.556-52.996 10.556v.019Z"/><path fill="#D8D2F3" d="M152.61 194.312c-7.068 0-5.5-7.041-7.852-5.869-2.057 1.02-10.081 2.049-12.358 4.631.335.829 1.1 1.457 2.076 1.676 1.521.334 2.2 1.01 2.2 1.01s.679 2.525 1.693 3.707c1.013 1.181 4.064 1.686 7.45 1.009 3.386-.676 9.306-3.706 10.665-4.554 1.358-.838 42.485-4.554 45.536-5.23 2.458-.543 5.365-.648 7.01-1.744.584-.59.938-.962.938-.962l-4.362-4.249s-45.928 10.556-52.996 10.556v.019Z" opacity=".5"/></g><path stroke="#2F275A" stroke-linecap="round" stroke-linejoin="round" d="M202.355 175.697s-41.136 11.299-47.736 10.451c-6.599-.838-8.636-3.706-10.157-3.706-1.521 0-5.758 2.02-7.613 1.858-1.865-.172-4.065-.677-4.065.505 0 1.181 1.693 3.039 2.707 3.039 1.013 0 5.078-.172 5.078-.172s-7.957 2.363-8.292 3.878c-.335 1.515.679 2.868 2.2 3.201 1.52.334 2.2 1.01 2.2 1.01s.679 2.525 1.692 3.706c1.014 1.182 4.065 1.687 7.451 1.01 3.386-.676 9.306-3.706 10.664-4.554 1.359-.848 42.486-4.554 45.537-5.23 3.051-.677 6.771-.677 7.957-2.697 1.186-2.019-7.613-12.309-7.613-12.309l-.01.01Z"/><path fill="url(#E)" d="M237.055 134.385s-3.72 10.118-8.464 16.864c-4.744 6.745-6.772 13.824-3.721 21.417 3.051 7.584 9.651 9.27 9.651 9.27s-2.372 22.256-1.693 28.163c.679 5.898 9.813 12.815 23.528 13.32 13.716.505 25.557-4.383 25.557-9.109 0-4.725-9.651-29.849-9.651-35.07s.842-21.579-3.721-36.252c-4.571-14.672-20.649-19.388-31.486-8.603Z"/><mask id="F" width="59" height="96" x="223" y="128" maskUnits="userSpaceOnUse" style="mask-type:luminance"><path fill="#fff" d="M237.057 134.385s-3.72 10.118-8.464 16.863c-4.744 6.746-6.772 13.824-3.721 21.418 3.051 7.584 9.651 9.27 9.651 9.27s-2.372 22.256-1.693 28.163c.679 5.897 9.813 12.814 23.528 13.319 13.716.505 25.556-4.382 25.556-9.108 0-4.726-9.65-29.849-9.65-35.07s.842-21.58-3.721-36.252c-4.571-14.672-20.649-19.388-31.486-8.603Z"/></mask><g mask="url(#F)"><path fill="#000" d="M268.543 142.989c-2.458-7.908-8.263-12.91-14.786-14.168-3.147.696-11.736 2.706-13.888 3.201a22.894 22.894 0 0 0-2.812 2.363s-3.72 10.118-8.464 16.864c-3.176 4.525-5.127 9.194-5.155 14.072 12.491 2.944 31.562 7.726 29.668 8.26-2.745.781-14.528-5.478-10.989-1.563 3.529 3.907 22.371 21.894 16.881 20.332-5.5-1.563-17.665-14.472-14.528-8.213 3.137 6.26 11.773 16.426 9.028 16.426-2.745 0-17.273-14.473-12.165-5.869 5.107 8.603 28.262 22.284 20.802 24.247-4.304 1.124-13.438.829-18.746 1.724 3.596 1.525 7.967 2.563 12.96 2.754 13.715.505 25.556-4.383 25.556-9.108 0-4.726-9.651-29.85-9.651-35.071 0-5.221.842-21.579-3.72-36.251h.009Z" opacity=".2"/></g><path stroke="#2F275A" stroke-linecap="round" stroke-linejoin="round" d="M237.055 134.385s-3.72 10.118-8.464 16.864c-4.744 6.745-6.772 13.824-3.721 21.417 3.051 7.584 9.651 9.27 9.651 9.27s-2.372 22.256-1.693 28.163c.679 5.898 9.813 12.815 23.528 13.32 13.716.505 25.557-4.383 25.557-9.109 0-4.725-9.651-29.849-9.651-35.07s.842-21.579-3.721-36.252c-4.571-14.672-20.649-19.388-31.486-8.603Z"/><path stroke="#2F275A" stroke-linecap="round" stroke-linejoin="round" d="M239.129 175.305s12.434 20.008 30.606 25.724M237.693 178.64s4.783 15.72 17.216 23.342M240.268 166.044s11.238-4.878 15.838-8.031M235.658 167.188s4.036.857 14.404 0"/><path fill="url(#G)" d="M236.039 136.92s-3.213 1.858-7.106 5.897c-3.893 4.04-22.687 32.374-22.687 32.374s5.586 11.633 7.279 11.976c1.693.334 31.141-24.79 33.858-27.82 2.706-3.039 4.399-8.603 3.558-10.956"/><mask id="H" width="46" height="52" x="206" y="136" maskUnits="userSpaceOnUse" style="mask-type:luminance"><path fill="#fff" d="M236.037 136.919s-3.213 1.858-7.106 5.898c-3.893 4.039-22.687 32.374-22.687 32.374s5.586 11.633 7.279 11.976c1.693.333 31.141-24.79 33.858-27.82 2.706-3.039 4.399-8.603 3.558-10.957"/></mask><g mask="url(#H)"><path fill="#000" d="M247.373 159.338c2.707-3.04 4.4-8.604 3.558-10.957l-6.685-5.145-2.133 2.201s-.153 8.632-7.853 13.291c-7.699 4.659-10.989 4.697-12.166 10.556-1.176 5.869 2.745 7.432-1.96 8.213-4.706.781-7.853 1.172-7.853 4.297 0 .924.105 2.686.354 4.639.354.41.66.677.89.725 1.693.333 31.141-24.791 33.858-27.82h-.01Z" opacity=".2"/></g><path stroke="#2F275A" stroke-linecap="round" stroke-linejoin="round" d="M236.039 136.92s-3.213 1.858-7.106 5.897c-3.893 4.04-22.687 32.374-22.687 32.374s5.586 11.633 7.279 11.976c1.693.334 31.141-24.79 33.858-27.82 2.706-3.039 4.399-8.603 3.558-10.956"/><path fill="#D8D2F3" stroke="#2F275A" stroke-linecap="round" stroke-linejoin="round" d="M199.81 176.877s5.251 12.481 6.437 13.825c1.186 1.353 7.451.505 9.479-1.01 2.027-1.515 1.692-4.554 1.692-4.554s-7.785-13.663-8.636-14.329c-.842-.677-1.186.838-4.744 2.019-3.558 1.182-4.907 1.687-4.228 4.049Z"/><path fill="#D8D2F3" d="M208.277 102.517s-.335 4.888.507 6.412c.841 1.515 3.213 3.039 3.213 5.059s-1.693 4.726-1.186 6.24c.507 1.515 3.214 1.687 3.214 1.687s5.079 6.24 6.599 8.432c1.521 2.191 2.2 1.352 4.572.676s7.451-5.059 10.33-8.432c2.879-3.372-1.865-13.662-8.121-20.569-6.255-6.908-15.57-6.746-17.608-4.726-2.027 2.02-1.52 5.231-1.52 5.231v-.01Z"/><mask id="I" width="29" height="36" x="208" y="96" maskUnits="userSpaceOnUse" style="mask-type:luminance"><path fill="#fff" d="M208.279 102.517s-.335 4.888.507 6.412c.841 1.515 3.213 3.039 3.213 5.059s-1.693 4.726-1.186 6.24c.507 1.515 3.214 1.687 3.214 1.687s5.079 6.24 6.599 8.432c1.521 2.191 2.2 1.352 4.572.676s7.451-5.059 10.33-8.432c2.878-3.372-1.865-13.662-8.121-20.569-6.255-6.908-15.57-6.746-17.608-4.726-2.027 2.02-1.52 5.231-1.52 5.231v-.01Z"/></mask><g mask="url(#I)"><path fill="url(#J)" d="M221.694 97.791c-.784 3.849-1.568 10.366.785 14.796 3.529 6.65 6.284 10.166 4.313 15.644a29.228 29.228 0 0 1-1.071 2.591c2.535-1.086 7.116-5.097 9.794-8.241 2.879-3.372-1.865-13.662-8.12-20.569a18.085 18.085 0 0 0-5.71-4.221h.009Z"/><path fill="#D8D2F3" d="M221.694 97.791c-.784 3.849-1.568 10.366.785 14.796 3.529 6.65 6.284 10.166 4.313 15.644a29.228 29.228 0 0 1-1.071 2.591c2.535-1.086 7.116-5.097 9.794-8.241 2.879-3.372-1.865-13.662-8.12-20.569a18.085 18.085 0 0 0-5.71-4.221h.009Z" opacity=".5"/><path stroke="#2F275A" stroke-linecap="round" stroke-linejoin="round" d="M212.006 109.766s0-2.524 3.051-.838M214.166 112.12l.402 2.324s1.855.639 3.223-1.762"/></g><path stroke="#2F275A" stroke-linecap="round" stroke-linejoin="round" d="M208.277 102.517s-.335 4.888.507 6.412c.841 1.515 3.213 3.039 3.213 5.059s-1.693 4.726-1.186 6.24c.507 1.515 3.214 1.687 3.214 1.687s5.079 6.24 6.599 8.432c1.521 2.191 2.2 1.352 4.572.676s7.451-5.059 10.33-8.432c2.879-3.372-1.865-13.662-8.121-20.569-6.255-6.908-15.57-6.746-17.608-4.726-2.027 2.02-1.52 5.231-1.52 5.231v-.01Z"/><path fill="#2F275A" d="m203.034 95.105-.029.676-.316 8.261 9.144 1.181 2.028-3.544v3.877s3.892-.505 8.292 1.182c4.4 1.686 9.985 13.662 9.651 18.55-.335 4.887-4.572 5.897-4.065 13.319.507 7.422 11.85 14.834 20.477 10.118 8.627-4.716 9.985-10.795 13.543-9.613 3.558 1.181 8.972 8.432 12.357-1.858 3.386-10.29 1.866-16.864-6.092-25.295-7.958-8.432-14.222-7.756-15.236-14.5-1.014-6.746-3.214-15.855-10.492-20.913-7.279-5.06-17.771-5.393-26.742-1.515-8.972 3.877-12.53 15.682-12.53 20.064l.01.01Z"/><mask id="K" width="74" height="79" x="202" y="72" maskUnits="userSpaceOnUse" style="mask-type:luminance"><path fill="#fff" d="m203.03 95.105-.029.677-.315 8.26 9.143 1.181 2.028-3.544v3.878s3.892-.505 8.292 1.181c4.4 1.687 9.985 13.663 9.651 18.55-.335 4.888-4.572 5.898-4.065 13.319.507 7.422 11.85 14.834 20.477 10.118 8.627-4.716 9.985-10.794 13.543-9.613 3.558 1.182 8.972 8.432 12.358-1.858 3.385-10.289 1.865-16.863-6.093-25.295-7.958-8.431-14.222-7.755-15.236-14.5-1.014-6.746-3.214-15.854-10.492-20.913-7.279-5.06-17.771-5.393-26.742-1.515-8.972 3.878-12.53 15.682-12.53 20.065l.01.01Z"/></mask><g mask="url(#K)"><path fill="#575757" d="M208.12 98.974c-.057 0-.124 0-.182-.02-.975-.218-1.119-1.905-1.205-6.011-.028-1.058-.048-2.163-.114-3.03 0-.086-.02-.162-.029-.219-.804.972-2.535 5.002-3.835 8.603l-.9-.324c3.463-9.603 4.591-9.46 4.955-9.413.66.086.727.953.755 1.277.067.905.096 2.01.115 3.087.038 1.696.096 4.468.459 5.059.144-.105.479-.467 1.072-1.648.994-1.982 1.874-2.897 2.792-2.85 1.138.049 1.722 1.544 2.152 2.64.125.324.259.667.354.8.421.115 1.913-1.41 2.716-2.22.24-.238.469-.486.699-.705.363-.362.832-.752 1.358-.676.526.076.794.572 1.071 1.096.258.485.545 1.028 1.071 1.448.306.238.459.2.526.19.689-.162 1.521-2.01 2.487-4.154.23-.495.459-1.029.717-1.581.316-.686.746-1.477 1.454-1.41.899.066 1.301 1.457 1.913 3.563.497 1.715 1.071 3.668 1.903 4.735.211.267.517.581.785.543.746-.114 1.568-2.315 2.066-3.64.306-.81.564-1.505.822-1.933.268-.448.612-.534.813-.524.708.019 1.186.962 1.856 2.248.497.972 1.176 2.296 1.74 2.515.115.048.153.02.182.01.373-.19.689-1.41.956-2.401.297-1.143.613-2.325 1.167-3.154.335-.505.775-.8 1.301-.886 1.253-.2 2.64.877 3.577 1.6-.048-.485-.153-1.152-.239-1.733-.478-3.163-.622-4.707.182-5.135.373-.2.813-.086 1.31.352.66.581 1.53 1.544 2.449 2.563 1.75 1.953 4.409 4.916 5.48 4.63.296-.076.459-.533.536-.905l.937.2c-.201.915-.612 1.458-1.224 1.62-1.54.4-3.635-1.782-6.437-4.916-.899-1-1.741-1.944-2.363-2.487a2.264 2.264 0 0 0-.229-.171c-.211.6.143 2.944.315 4.097.345 2.238.412 2.839-.028 3.115-.191.124-.431.114-.641-.029a8.774 8.774 0 0 1-.603-.447c-.755-.582-2.008-1.553-2.85-1.42-.268.048-.478.19-.66.476-.468.696-.755 1.801-1.033 2.868-.373 1.41-.688 2.63-1.444 3.01-.201.106-.545.191-.966.02-.899-.362-1.578-1.686-2.238-2.973-.296-.58-.736-1.429-.995-1.677-.22.362-.478 1.048-.746 1.782-.707 1.896-1.511 4.05-2.821 4.25-.584.085-1.157-.21-1.684-.896-.956-1.22-1.549-3.259-2.075-5.06-.325-1.124-.775-2.657-1.09-2.877 0 .038-.192.2-.488.858-.258.553-.488 1.077-.717 1.572-1.196 2.658-1.99 4.411-3.138 4.687-.449.105-.899-.019-1.348-.371-.689-.543-1.052-1.239-1.32-1.753-.124-.229-.297-.553-.383-.6 0 0-.143.038-.526.419-.229.219-.459.457-.688.695-1.588 1.62-2.602 2.592-3.472 2.525a.956.956 0 0 1-.718-.438c-.143-.22-.277-.553-.44-.982-.277-.705-.784-2.01-1.3-2.029-.153-.029-.794.143-1.894 2.325-.775 1.553-1.358 2.22-1.951 2.22h-.029Z"/><path stroke="#575757" stroke-miterlimit="10" d="M227.145 137.255s2.372-8.794 4.734-6.012c2.372 2.792 4.093 3.649 4.304 1.287.22-2.363 0-5.793 2.372-2.573s8.187 6.441 8.617 1.505c.431-4.935 1.081-11.585 3.874-8.155 2.802 3.43 5.165 6.012 5.385 4.078.22-1.934 2.152-3.43 3.013-1.286.86 2.143 1.511 4.287 2.152-.648.65-4.935-2.372-10.299.86-9.013 3.233 1.286 4.735 5.573 4.735 3.22s-3.874-5.145-.431-4.287c3.443.857 3.874 3.001 4.304 1.715.431-1.287-1.941-4.288 1.081-4.288"/></g><path stroke="#2F275A" stroke-linecap="round" stroke-linejoin="round" d="m203.034 95.105-.029.676-.316 8.261 9.144 1.181 2.028-3.544v3.877s3.892-.505 8.292 1.182c4.4 1.686 9.985 13.662 9.651 18.55-.335 4.887-4.572 5.897-4.065 13.319.507 7.422 11.85 14.834 20.477 10.118 8.627-4.716 9.985-10.795 13.543-9.613 3.558 1.181 8.972 8.432 12.357-1.858 3.386-10.29 1.866-16.863-6.092-25.295-7.958-8.432-14.222-7.756-15.236-14.5-1.014-6.746-3.214-15.855-10.492-20.913-7.279-5.06-17.771-5.393-26.742-1.515-8.972 3.877-12.53 15.682-12.53 20.064l.01.01Z"/><path stroke="#2F275A" stroke-miterlimit="10" d="M5.5 349.999h350"/><defs><linearGradient id="p" x1="302.992" x2="302.992" y1="267.683" y2="282.069" gradientUnits="userSpaceOnUse"><stop stop-color="#883CBA"/><stop offset="1" stop-color="#6C3BEC"/></linearGradient><linearGradient id="J" x1="228.644" x2="228.644" y1="97.791" y2="130.822" gradientUnits="userSpaceOnUse"><stop stop-color="#883CBA"/><stop offset="1" stop-color="#6C3BEC"/></linearGradient><linearGradient id="c" x1="141.769" x2="387.932" y1="18.753" y2="237.731" gradientUnits="userSpaceOnUse"><stop stop-color="#fff" stop-opacity=".18"/><stop offset=".524" stop-color="#B99FB9" stop-opacity=".18"/><stop offset="1" stop-color="#79477A" stop-opacity=".24"/></linearGradient><linearGradient id="d" x1="324.511" x2="324.511" y1="164.149" y2="189.644" gradientUnits="userSpaceOnUse"><stop stop-color="#883CBA"/><stop offset="1" stop-color="#6C3BEC"/></linearGradient><linearGradient id="e" x1="316.392" x2="316.392" y1="189.034" y2="214.529" gradientUnits="userSpaceOnUse"><stop stop-color="#883CBA"/><stop offset="1" stop-color="#6C3BEC"/></linearGradient><linearGradient id="f" x1="340.03" x2="340.03" y1="172.601" y2="196.4" gradientUnits="userSpaceOnUse"><stop stop-color="#883CBA"/><stop offset="1" stop-color="#6C3BEC"/></linearGradient><linearGradient id="g" x1="330.545" x2="330.545" y1="203.821" y2="225.658" gradientUnits="userSpaceOnUse"><stop stop-color="#883CBA"/><stop offset="1" stop-color="#6C3BEC"/></linearGradient><linearGradient id="h" x1="331.74" x2="331.74" y1="232.365" y2="257.861" gradientUnits="userSpaceOnUse"><stop stop-color="#883CBA"/><stop offset="1" stop-color="#6C3BEC"/></linearGradient><linearGradient id="i" x1="316.999" x2="316.999" y1="238.271" y2="265.606" gradientUnits="userSpaceOnUse"><stop stop-color="#883CBA"/><stop offset="1" stop-color="#6C3BEC"/></linearGradient><linearGradient id="j" x1="326.128" x2="326.128" y1="263.357" y2="288.852" gradientUnits="userSpaceOnUse"><stop stop-color="#883CBA"/><stop offset="1" stop-color="#6C3BEC"/></linearGradient><linearGradient id="k" x1="328.225" x2="328.225" y1="281.241" y2="309.642" gradientUnits="userSpaceOnUse"><stop stop-color="#883CBA"/><stop offset="1" stop-color="#6C3BEC"/></linearGradient><linearGradient id="l" x1="299.872" x2="299.872" y1="222.619" y2="240.216" gradientUnits="userSpaceOnUse"><stop stop-color="#883CBA"/><stop offset="1" stop-color="#6C3BEC"/></linearGradient><linearGradient id="m" x1="307.685" x2="307.685" y1="237.339" y2="254.936" gradientUnits="userSpaceOnUse"><stop stop-color="#883CBA"/><stop offset="1" stop-color="#6C3BEC"/></linearGradient><linearGradient id="n" x1="291.078" x2="291.078" y1="231.27" y2="244.303" gradientUnits="userSpaceOnUse"><stop stop-color="#883CBA"/><stop offset="1" stop-color="#6C3BEC"/></linearGradient><linearGradient id="o" x1="300.244" x2="300.244" y1="249.963" y2="261.52" gradientUnits="userSpaceOnUse"><stop stop-color="#883CBA"/><stop offset="1" stop-color="#6C3BEC"/></linearGradient><linearGradient id="b" x1="-23.716" x2="381.686" y1="-68.035" y2="95.406" gradientUnits="userSpaceOnUse"><stop stop-color="#5D488B" stop-opacity=".63"/><stop offset="1" stop-color="#3A335B" stop-opacity=".64"/></linearGradient><linearGradient id="q" x1="312.84" x2="312.84" y1="268.483" y2="286.814" gradientUnits="userSpaceOnUse"><stop stop-color="#883CBA"/><stop offset="1" stop-color="#6C3BEC"/></linearGradient><linearGradient id="r" x1="321.378" x2="321.378" y1="292.112" y2="307.165" gradientUnits="userSpaceOnUse"><stop stop-color="#883CBA"/><stop offset="1" stop-color="#6C3BEC"/></linearGradient><linearGradient id="s" x1="309.9" x2="309.9" y1="286.51" y2="300.896" gradientUnits="userSpaceOnUse"><stop stop-color="#883CBA"/><stop offset="1" stop-color="#6C3BEC"/></linearGradient><linearGradient id="t" x1="310.513" x2="310.513" y1="297.58" y2="314.548" gradientUnits="userSpaceOnUse"><stop stop-color="#883CBA"/><stop offset="1" stop-color="#6C3BEC"/></linearGradient><linearGradient id="u" x1="132.104" x2="132.104" y1="73.287" y2="129.174" gradientUnits="userSpaceOnUse"><stop stop-color="#883CBA"/><stop offset="1" stop-color="#6C3BEC"/></linearGradient><linearGradient id="v" x1="139.754" x2="139.754" y1="62.492" y2="118.37" gradientUnits="userSpaceOnUse"><stop stop-color="#883CBA"/><stop offset="1" stop-color="#6C3BEC"/></linearGradient><linearGradient id="w" x1="104.558" x2="104.558" y1="188.453" y2="204.516" gradientUnits="userSpaceOnUse"><stop stop-color="#883CBA"/><stop offset="1" stop-color="#6C3BEC"/></linearGradient><linearGradient id="x" x1="104.179" x2="104.179" y1="177.735" y2="182.937" gradientUnits="userSpaceOnUse"><stop stop-color="#883CBA"/><stop offset="1" stop-color="#6C3BEC"/></linearGradient><linearGradient id="y" x1="151.804" x2="151.804" y1="333.163" y2="349.499" gradientUnits="userSpaceOnUse"><stop stop-color="#883CBA"/><stop offset="1" stop-color="#6C3BEC"/></linearGradient><linearGradient id="z" x1="226.642" x2="226.642" y1="309.489" y2="332.522" gradientUnits="userSpaceOnUse"><stop stop-color="#883CBA"/><stop offset="1" stop-color="#6C3BEC"/></linearGradient><linearGradient id="A" x1="254.076" x2="254.076" y1="238.082" y2="253.593" gradientUnits="userSpaceOnUse"><stop stop-color="#883CBA"/><stop offset="1" stop-color="#6C3BEC"/></linearGradient><linearGradient id="D" x1="171.184" x2="171.184" y1="183.737" y2="200.78" gradientUnits="userSpaceOnUse"><stop stop-color="#883CBA"/><stop offset="1" stop-color="#6C3BEC"/></linearGradient><linearGradient id="E" x1="252.668" x2="252.668" y1="128.499" y2="223.455" gradientUnits="userSpaceOnUse"><stop stop-color="#883CBA"/><stop offset="1" stop-color="#6C3BEC"/></linearGradient><linearGradient id="G" x1="228.702" x2="228.702" y1="136.92" y2="187.171" gradientUnits="userSpaceOnUse"><stop stop-color="#883CBA"/><stop offset="1" stop-color="#6C3BEC"/></linearGradient><filter id="a" width="406.883" height="473.898" x="-25.92" y="-40" color-interpolation-filters="sRGB" filterUnits="userSpaceOnUse"><feFlood flood-opacity="0" result="BackgroundImageFix"/><feGaussianBlur in="BackgroundImageFix" stdDeviation="20"/><feComposite in2="SourceAlpha" operator="in" result="effect1_backgroundBlur_202_5032"/><feColorMatrix in="SourceAlpha" result="hardAlpha" values="0 0 0 0 0 0 0 0 0 0 0 0 0 0 0 0 0 0 127 0"/><feMorphology in="SourceAlpha" radius="15" result="effect2_dropShadow_202_5032"/><feOffset dy="50"/><feGaussianBlur stdDeviation="25"/><feComposite in2="hardAlpha" operator="out"/><feColorMatrix values="0 0 0 0 0.0481914 0 0 0 0 0.0364167 0 0 0 0 0.1 0 0 0 0.15 0"/><feBlend in2="effect1_backgroundBlur_202_5032" result="effect2_dropShadow_202_5032"/><feBlend in="SourceGraphic" in2="effect2_dropShadow_202_5032" result="shape"/></filter></defs></svg>