<svg xmlns="http://www.w3.org/2000/svg" width="1920" height="2762" fill="none"><path fill="#D7D3F4" fill-opacity=".1" d="M450.885 2300.77c.419-.11.508-1.14.198-2.29-.309-1.16-.9-2.01-1.319-1.89-.419.11-.507 1.14-.198 2.29.31 1.16.901 2 1.319 1.89ZM407.697 2191.57c.419-.11.507-1.14.198-2.3-.31-1.15-.901-2-1.32-1.89-.419.12-.507 1.14-.197 2.3.309 1.16.9 2 1.319 1.89ZM1579.69 2072.72c.42-.11.51-1.14.2-2.29-.31-1.16-.9-2-1.32-1.89-.42.11-.5 1.14-.19 2.3.3 1.15.9 2 1.31 1.88ZM1597.89 1904.46c.42-.11.51-1.14.2-2.3-.31-1.15-.9-2-1.32-1.89-.42.12-.51 1.14-.2 2.3s.9 2 1.32 1.89ZM477.171 2326.13c.419-.12.508-1.14.198-2.3s-.9-2-1.319-1.89c-.419.11-.508 1.14-.198 2.3.31 1.15.9 2 1.319 1.89ZM1051.78 2459.81c.31 1.17.22 2.19-.2 2.3-.42.11-1.01-.73-1.32-1.89-.31-1.16-.22-2.18.2-2.3.42-.11 1.01.73 1.32 1.89ZM1091.63 2494c.42-.11.51-1.14.2-2.3-.31-1.15-.9-2-1.32-1.89-.42.12-.51 1.14-.2 2.3s.9 2 1.32 1.89ZM1208.05 2005.13c.42-.11.51-1.14.2-2.3-.31-1.15-.9-2-1.32-1.89-.42.11-.51 1.14-.2 2.3.31 1.15.9 2 1.32 1.89ZM1843.01 1838.78c.31 1.16.22 2.18-.2 2.3-.42.11-1.01-.73-1.32-1.89-.31-1.17-.22-2.19.2-2.3.42-.11 1.01.73 1.32 1.89ZM1456.81 1850.75c.42-.12.51-1.14.2-2.3s-.9-2-1.32-1.89c-.42.11-.51 1.14-.2 2.3.31 1.15.9 2 1.32 1.89ZM1345.49 1901.51c.42-.11.51-1.14.2-2.3-.31-1.15-.9-2-1.32-1.89-.42.11-.51 1.14-.2 2.3.31 1.15.9 2 1.32 1.89ZM897.921 2513.35c.419-.11.507-1.14.198-2.29-.31-1.16-.901-2-1.32-1.89-.419.11-.507 1.14-.197 2.29.309 1.16.9 2.01 1.319 1.89ZM707.265 2184.62c.419-.11.508-1.14.198-2.29-.31-1.16-.9-2.01-1.319-1.89-.419.11-.508 1.14-.198 2.29.31 1.16.9 2 1.319 1.89ZM718.06 2123.71c.419-.11.507-1.14.198-2.29-.31-1.16-.901-2.01-1.32-1.89-.419.11-.507 1.14-.197 2.29.309 1.16.9 2 1.319 1.89ZM1314.69 2066.97c.42-.11.51-1.14.2-2.3-.31-1.15-.9-2-1.32-1.89-.42.12-.5 1.14-.19 2.3s.9 2 1.31 1.89ZM828.228 2566.82c.419-.11.507-1.14.197-2.3-.309-1.15-.9-2-1.319-1.89-.419.12-.507 1.14-.198 2.3.31 1.16.901 2 1.32 1.89ZM987.759 2152.33c.311 1.16.223 2.18-.198 2.29-.421.12-1.008-.72-1.319-1.88-.312-1.17-.224-2.19.197-2.3.422-.11 1.008.73 1.32 1.89ZM505.99 2507.37c.418-.12.507-1.14.197-2.3-.309-1.16-.9-2-1.319-1.89-.419.11-.507 1.14-.198 2.3.31 1.15.901 2 1.32 1.89ZM546.022 2539.26c.419-.11.508-1.14.198-2.3-.31-1.15-.901-2-1.319-1.89-.419.12-.508 1.14-.198 2.3.31 1.15.9 2 1.319 1.89ZM352.512 2556.32c.311 1.16.223 2.18-.198 2.29-.422.12-1.008-.72-1.319-1.89-.312-1.16-.224-2.18.197-2.29.422-.12 1.008.72 1.32 1.89ZM161.675 2229.88c.419-.12.508-1.14.198-2.3s-.9-2-1.319-1.89c-.419.11-.508 1.14-.198 2.3.31 1.15.9 2 1.319 1.89ZM238.984 2213.6c.419-.12.507-1.14.198-2.3-.31-1.16-.901-2-1.32-1.89-.418.11-.507 1.14-.197 2.3.309 1.15.9 2 1.319 1.89ZM282.637 2612.07c.419-.11.507-1.14.198-2.29-.31-1.16-.901-2.01-1.32-1.89-.418.11-.507 1.14-.197 2.29.309 1.16.9 2 1.319 1.89ZM441.954 2199.88c.419-.11.507-1.14.197-2.29-.309-1.16-.9-2-1.319-1.89-.419.11-.507 1.14-.198 2.29.31 1.16.901 2.01 1.32 1.89ZM1251.94 2071.48c.41-.11.5-1.14.19-2.3-.31-1.15-.9-2-1.32-1.89-.42.12-.5 1.14-.19 2.3s.9 2 1.32 1.89ZM1523.14 2031.01c.42-.11.5-1.14.2-2.3-.31-1.15-.91-2-1.32-1.89-.42.11-.51 1.14-.2 2.3.31 1.15.9 2 1.32 1.89ZM1308.72 2280.36c.42-.11.51-1.14.2-2.29-.31-1.16-.9-2-1.32-1.89-.42.11-.51 1.14-.2 2.29.31 1.16.9 2.01 1.32 1.89ZM1413.04 2320.35c.42-.11.51-1.14.2-2.3-.31-1.15-.9-2-1.32-1.89-.42.11-.5 1.14-.19 2.3.3 1.15.9 2 1.31 1.89ZM1731 2105.8c.42-.11.51-1.14.2-2.29-.31-1.16-.9-2-1.32-1.89-.42.11-.51 1.14-.2 2.3.31 1.15.9 2 1.32 1.88ZM807.297 2276c.419-.11.508-1.14.198-2.3-.31-1.15-.9-2-1.319-1.89-.419.12-.508 1.14-.198 2.3s.9 2 1.319 1.89ZM825.491 2107.73c.419-.11.507-1.14.198-2.3-.31-1.15-.901-2-1.32-1.89-.419.12-.507 1.14-.197 2.3.309 1.16.9 2 1.319 1.89ZM435.638 2208.4c.419-.11.507-1.14.198-2.29-.31-1.16-.901-2-1.32-1.89-.418.11-.507 1.14-.197 2.29.309 1.16.9 2.01 1.319 1.89ZM684.591 2051.73c.312 1.16.224 2.18-.197 2.29-.422.12-1.008-.72-1.32-1.89-.311-1.16-.223-2.18.198-2.29.421-.11 1.008.73 1.319 1.89ZM573.077 2104.79c.419-.11.507-1.14.198-2.3-.31-1.15-.901-2-1.319-1.89-.419.11-.508 1.14-.198 2.3.309 1.15.9 2 1.319 1.89ZM542.298 2270.25c.418-.12.507-1.14.197-2.3-.309-1.16-.9-2-1.319-1.89-.419.11-.507 1.14-.198 2.3.31 1.15.901 2 1.32 1.89ZM479.537 2274.75c.419-.11.507-1.14.197-2.3-.309-1.15-.9-2-1.319-1.89-.419.12-.507 1.14-.198 2.3.31 1.15.901 2 1.32 1.89ZM774.271 2027.75c.419-.11.507-1.14.198-2.3-.31-1.15-.901-2-1.32-1.89-.418.12-.507 1.14-.197 2.3.309 1.16.9 2 1.319 1.89ZM.64 2378.25c.42-.11.508-1.14.199-2.3-.31-1.15-.9-2-1.32-1.89-.419.12-.507 1.14-.197 2.3s.9 2 1.319 1.89ZM11.434 2317.33c.419-.11.507-1.14.198-2.29-.31-1.16-.9-2-1.32-1.89-.419.11-.507 1.14-.197 2.29.31 1.16.9 2.01 1.319 1.89ZM100.853 2467.33c.312 1.17.224 2.19-.197 2.3-.422.11-1.008-.73-1.32-1.89-.311-1.16-.223-2.18.198-2.29.421-.12 1.008.72 1.319 1.88ZM118.85 2301.36c.419-.11.507-1.14.198-2.29-.31-1.16-.901-2-1.32-1.89-.419.11-.507 1.14-.197 2.3.309 1.15.9 2 1.319 1.88ZM-22.219 2247.7c.419-.11.508-1.14.198-2.3-.31-1.15-.9-2-1.32-1.89-.418.11-.507 1.14-.197 2.3.31 1.15.9 2 1.32 1.89ZM67.646 2221.37c.419-.11.507-1.14.197-2.29-.31-1.16-.9-2-1.319-1.89-.419.11-.507 1.14-.198 2.29.31 1.16.9 2.01 1.32 1.89ZM536.292 2483.6c.419-.12.507-1.14.198-2.3-.31-1.16-.901-2-1.32-1.89-.419.11-.507 1.14-.197 2.3.309 1.15.9 2 1.319 1.89ZM640.63 2523.63c.419-.12.507-1.14.198-2.3-.31-1.16-.901-2-1.32-1.89-.418.11-.507 1.14-.197 2.3.309 1.15.9 2 1.319 1.89ZM958.602 2309.08c.419-.11.508-1.14.198-2.3-.31-1.15-.9-2-1.319-1.89-.419.12-.508 1.14-.198 2.3s.9 2 1.319 1.89Z"/><path fill="#D7D3F4" fill-opacity=".1" fill-rule="evenodd" d="M943.697 2099.59c3.09-2.67-3.096-15.99-6.438-13.13-3.351 2.89 2.956 16.13 6.438 13.13ZM831.901 2324.33c3.09-2.67-3.097-15.99-6.438-13.13-3.352 2.89 2.956 16.13 6.438 13.13ZM956.686 2245.09c6.227-3.26-3.096-15.98-6.438-13.12-3.342 2.85-2.981 18.03 6.438 13.12ZM754.805 1895.58c2.672-1.38-1.336-6.87-2.744-5.63-1.432 1.24-1.267 7.72 2.744 5.63ZM687.82 2177.5c2.671-1.38-1.337-6.87-2.745-5.63-1.408 1.25-1.267 7.72 2.745 5.63ZM841.472 2199.36c1.308-.68-.647-3.37-1.362-2.76-.716.62-.62 3.81 1.362 2.76ZM673.4 1785.19c2.671-1.38-1.313-6.86-2.744-5.63-1.432 1.24-1.268 7.72 2.744 5.63ZM922.293 2075.75c.616-2.3-2.291-6.57-4.765-7.23-2.474-.66-5.649 5.58-4.984 7.49.665 1.91 8.664 3.79 9.749-.26ZM773.463 2130.74c.616-2.3-2.291-6.57-4.765-7.23-2.474-.67-5.649 5.58-4.985 7.49.665 1.91 8.665 3.79 9.75-.26ZM921.315 2044.12c.741-.25 1.714-3.04 1.657-4.6-.048-1.59-2.226-1.77-2.731-.92-.482.87-.248 5.97 1.051 5.51l.023.01ZM782.855 2296.58c.74-.24 1.713-3.03 1.656-4.59-.048-1.6-2.226-1.78-2.731-.92-.482.86-.248 5.97 1.051 5.51h.024ZM657.156 2148.83c.74-.24 1.714-3.03 1.656-4.59-.048-1.6-2.226-1.78-2.731-.92-.505.86-.248 5.97 1.075 5.51ZM893.013 2000.85c.74-.24 1.713-3.04 1.656-4.6-.048-1.59-2.226-1.77-2.731-.91-.482.86-.248 5.96 1.051 5.5l.024.01ZM905.755 2030.31c-.525-3.27-4.409-3.24-4.924-1.32-.515 1.92 3.217 4.98 4.152 4.2.911-.79 1.04-1.27.772-2.88ZM1078.02 2089.3c-.52-3.26-4.41-3.24-4.92-1.32-.52 1.93 3.22 4.99 4.15 4.21.93-.78 1.04-1.27.77-2.89ZM1296.97 1839.39c3.09-2.67-3.1-15.99-6.44-13.13-3.34 2.85 2.96 16.13 6.44 13.13ZM442.242 2075.83c3.091-2.66-3.096-15.98-6.438-13.13-3.351 2.9 2.957 16.14 6.438 13.13ZM1316.86 1836.11c.61-2.3-2.29-6.58-4.77-7.24-2.47-.66-5.65 5.59-4.98 7.49.66 1.91 8.66 3.8 9.75-.25ZM1101.94 1945.81c.61-2.29-2.29-6.57-4.77-7.23-2.47-.66-5.65 5.58-4.98 7.49.66 1.91 8.66 3.79 9.75-.26ZM119.142 1741.18c3.091-2.66-3.096-15.98-6.438-13.12-3.351 2.89 2.956 16.13 6.438 13.12ZM97.738 1717.35c.616-2.3-2.291-6.57-4.765-7.23-2.474-.67-5.65 5.58-4.984 7.49.664 1.91 8.664 3.79 9.749-.26ZM96.76 1685.71c.74-.24 1.714-3.03 1.657-4.59-.048-1.6-2.226-1.78-2.731-.92-.482.86-.248 5.97 1.074 5.51ZM68.457 1642.45c.74-.25 1.714-3.04 1.657-4.6-.057-1.56-2.227-1.77-2.732-.92-.481.87-.247 5.97 1.075 5.52ZM81.2 1671.9c-.525-3.26-4.41-3.24-4.925-1.32-.515 1.93 3.218 4.99 4.152 4.21.935-.78 1.04-1.27.773-2.89ZM277.382 1587.41c.616-2.3-2.291-6.57-4.765-7.23-2.474-.67-5.649 5.58-4.984 7.49.664 1.91 8.664 3.79 9.749-.26ZM1189.69 1833.11c.74-.24 1.71-3.03 1.66-4.59-.05-1.6-2.23-1.77-2.71-.91s-.25 5.97 1.05 5.5ZM1721.71 2232.43c3.09-2.67-3.1-15.99-6.44-13.13-3.34 2.86 2.96 16.13 6.44 13.13ZM1609.89 2457.16c3.09-2.67-3.1-15.99-6.44-13.13-3.34 2.86 2.96 16.13 6.44 13.13ZM1734.68 2377.92c6.22-3.26-3.1-15.98-6.44-13.12-3.35 2.89-2.98 18.03 6.44 13.12ZM1619.49 2332.2c1.3-.68-.65-3.38-1.37-2.76-.71.62-.62 3.81 1.37 2.76ZM1700.28 2208.59c.62-2.3-2.29-6.58-4.76-7.24-2.48-.66-5.65 5.59-4.99 7.49.67 1.91 8.67 3.8 9.75-.25ZM1699.33 2176.95c.74-.24 1.71-3.03 1.66-4.59-.06-1.56-2.23-1.78-2.74-.92-.48.87-.24 5.97 1.08 5.51ZM1671 2133.68c.74-.24 1.72-3.03 1.66-4.59-.05-1.6-2.23-1.78-2.73-.92-.48.87-.25 5.97 1.05 5.51h.02ZM1683.75 2163.14c-.53-3.27-4.41-3.24-4.93-1.32-.51 1.92 3.22 4.98 4.15 4.2.91-.78 1.04-1.27.78-2.88ZM1856.01 2222.14c-.52-3.27-4.41-3.25-4.92-1.32-.52 1.92 3.22 4.98 4.15 4.2.91-.79 1.04-1.27.77-2.88ZM1879.95 2078.65c.62-2.3-2.29-6.57-4.76-7.23-2.48-.66-5.65 5.58-4.99 7.49.67 1.91 8.67 3.79 9.75-.26ZM1967.7 1965.95c.74-.24 1.72-3.03 1.66-4.59-.06-1.56-2.23-1.78-2.73-.92-.51.86-.25 5.97 1.05 5.51h.02ZM134.699 2110.11c.74-.24 1.714-3.04 1.656-4.6-.048-1.59-2.226-1.77-2.731-.91-.482.86-.248 5.96 1.075 5.51ZM256.769 1857.11c.74-.24 1.714-3.04 1.657-4.6-.048-1.59-2.227-1.77-2.708-.91-.482.87-.248 5.97 1.051 5.51ZM1324.94 2183.27c.74-.24 1.71-3.03 1.65-4.59-.04-1.6-2.22-1.77-2.73-.92-.48.87-.25 5.97 1.08 5.51ZM1182.68 2061.84c-.52-3.27-4.41-3.24-4.92-1.32-.52 1.92 3.22 4.98 4.15 4.2.93-.78 1.04-1.26.77-2.88ZM1406.51 1904.34c-.53-3.26-4.41-3.24-4.93-1.32-.51 1.93 3.22 4.99 4.15 4.21.91-.79 1.04-1.27.78-2.89ZM251.242 1799.98c-.525-3.27-4.409-3.25-4.924-1.32-.515 1.92 3.217 4.98 4.152 4.2.911-.79 1.039-1.27.772-2.88ZM1505.04 2612.58c3.09-2.66-3.1-15.98-6.44-13.12-3.35 2.89 2.96 16.13 6.44 13.12ZM1500.57 2408.56c.62-2.3-2.29-6.58-4.76-7.24-2.48-.66-5.65 5.59-4.99 7.49.67 1.91 8.67 3.8 9.75-.25ZM1469.75 2484.76c.74-.25 1.71-3.04 1.66-4.6-.05-1.59-2.23-1.77-2.73-.92-.51.86-.25 5.97 1.07 5.52ZM1516.78 2558.97c-.53-3.27-4.41-3.24-4.93-1.32-.51 1.92 3.22 4.98 4.15 4.2.91-.78 1.04-1.26.78-2.88Z" clip-rule="evenodd"/><path fill="#D7D3F4" fill-opacity=".1" d="M561.833 781.584c.378.212 1.159-.462 1.744-1.506.586-1.044.753-2.062.375-2.274-.378-.212-1.159.462-1.745 1.506-.585 1.043-.753 2.061-.374 2.274ZM607.162 673.252c.379.212 1.16-.462 1.745-1.506.585-1.043.753-2.061.375-2.273-.378-.212-1.16.462-1.745 1.505-.585 1.044-.753 2.062-.375 2.274ZM1529.15 1406.49c.38.21 1.16-.46 1.75-1.51.58-1.04.75-2.06.37-2.27-.38-.21-1.16.46-1.74 1.5-.59 1.05-.75 2.07-.38 2.28ZM1659.67 1298.73c.37.22 1.15-.46 1.74-1.5.59-1.05.75-2.06.37-2.28-.37-.21-1.15.47-1.74 1.51-.59 1.04-.75 2.06-.37 2.27ZM562.947 818.088c.378.212 1.16-.462 1.745-1.506.585-1.044.753-2.062.375-2.274-.379-.212-1.16.462-1.745 1.506-.585 1.043-.753 2.061-.375 2.274ZM880.953 1314.99c-.589 1.05-1.364 1.72-1.745 1.51-.38-.21-.213-1.22.375-2.27.589-1.05 1.364-1.72 1.745-1.51.38.21.214 1.22-.375 2.27ZM885.614 1367.29c.378.22 1.159-.46 1.744-1.5.585-1.05.753-2.06.375-2.28-.378-.21-1.159.47-1.745 1.51-.585 1.04-.753 2.06-.374 2.27ZM1310.3 1098.61c.38.21 1.16-.46 1.74-1.51.59-1.04.76-2.06.38-2.27-.38-.21-1.16.46-1.75 1.5-.58 1.05-.75 2.07-.37 2.28ZM1881 1422.86c-.59 1.05-1.36 1.72-1.75 1.51-.38-.22-.21-1.23.38-2.28.59-1.05 1.36-1.71 1.74-1.5.38.21.22 1.22-.37 2.27ZM1596.17 1161.77c.38.22 1.16-.46 1.75-1.5.58-1.04.75-2.06.37-2.27-.38-.22-1.16.46-1.74 1.5-.59 1.04-.76 2.06-.38 2.27ZM1481.04 1120.39c.38.21 1.16-.46 1.74-1.51.59-1.04.76-2.06.38-2.27-.38-.21-1.16.46-1.75 1.51-.58 1.04-.75 2.06-.37 2.27ZM733.428 1245.9c.378.21 1.16-.47 1.745-1.51.585-1.04.753-2.06.375-2.27-.379-.22-1.16.46-1.745 1.5-.585 1.05-.753 2.06-.375 2.28ZM826.469 877.444c.378.212 1.159-.462 1.744-1.506.586-1.043.754-2.061.375-2.274-.378-.212-1.159.462-1.744 1.506-.586 1.044-.754 2.062-.375 2.274ZM876.725 841.376c.378.212 1.16-.462 1.745-1.505.585-1.044.753-2.062.375-2.274-.378-.212-1.16.462-1.745 1.505-.585 1.044-.753 2.062-.375 2.274ZM1343.46 1217.34c.38.21 1.16-.46 1.75-1.51.58-1.04.75-2.06.37-2.27-.38-.21-1.16.46-1.74 1.51-.59 1.04-.75 2.06-.38 2.27ZM646.205 1235.51c.378.21 1.159-.46 1.745-1.51.585-1.04.753-2.06.374-2.27-.378-.21-1.159.46-1.744 1.51-.586 1.04-.753 2.06-.375 2.27ZM1049.82 1050.17c-.59 1.05-1.37 1.72-1.75 1.51-.38-.22-.21-1.23.38-2.28.59-1.05 1.36-1.71 1.74-1.5.38.21.22 1.22-.37 2.27ZM457.032 967.956c.378.212 1.159-.462 1.744-1.506.586-1.044.754-2.062.375-2.274-.378-.212-1.159.462-1.744 1.506-.586 1.044-.753 2.062-.375 2.274ZM463.423 1018.74c.378.21 1.159-.46 1.744-1.51.586-1.04.753-2.06.375-2.27-.378-.21-1.159.46-1.745 1.5-.585 1.05-.753 2.07-.374 2.28ZM312.982 895.837c-.589 1.05-1.365 1.719-1.745 1.505-.381-.213-.214-1.224.375-2.273.588-1.05 1.364-1.719 1.744-1.506.381.213.214 1.224-.374 2.274ZM404.293 528.898c.378.212 1.159-.462 1.744-1.505.586-1.044.753-2.062.375-2.274-.378-.212-1.159.462-1.745 1.506-.585 1.043-.753 2.061-.374 2.273ZM471.004 571.222c.378.212 1.159-.462 1.745-1.506.585-1.043.753-2.061.375-2.273-.379-.213-1.16.461-1.745 1.505-.585 1.044-.753 2.062-.375 2.274ZM224.03 886.963c.378.213 1.159-.461 1.744-1.505.586-1.044.753-2.062.375-2.274-.378-.212-1.159.462-1.745 1.506-.585 1.043-.753 2.061-.374 2.273ZM625.881 703.123c.378.213 1.159-.462 1.744-1.505.586-1.044.753-2.062.375-2.274-.378-.212-1.159.462-1.745 1.506-.585 1.043-.753 2.061-.374 2.273ZM1295.39 1176.75c.37.21 1.16-.46 1.74-1.51.59-1.04.75-2.06.38-2.27-.38-.21-1.16.46-1.75 1.5-.58 1.05-.75 2.07-.37 2.28ZM1517.79 1337.13c.38.22 1.16-.46 1.75-1.5.58-1.05.75-2.06.37-2.28-.38-.21-1.16.47-1.74 1.51-.59 1.04-.76 2.06-.38 2.27ZM1190.19 1365.93c.38.21 1.16-.46 1.74-1.5.59-1.05.76-2.07.38-2.28-.38-.21-1.16.46-1.75 1.51-.58 1.04-.75 2.06-.37 2.27ZM1236.96 1467.4c.37.21 1.16-.46 1.74-1.51.59-1.04.75-2.06.38-2.27-.38-.21-1.16.46-1.75 1.5-.58 1.05-.75 2.07-.37 2.28ZM1614.37 1535.81c.38.22 1.16-.46 1.75-1.5.58-1.05.75-2.06.37-2.28-.38-.21-1.16.47-1.74 1.51-.59 1.04-.76 2.06-.38 2.27ZM834.277 1012.7c.379.22 1.16-.46 1.745-1.5.585-1.04.753-2.06.375-2.27-.378-.22-1.159.46-1.745 1.5-.585 1.04-.753 2.06-.375 2.27ZM964.791 904.946c.379.212 1.16-.462 1.745-1.505.585-1.044.753-2.062.375-2.274-.378-.212-1.16.462-1.745 1.505-.585 1.044-.753 2.062-.375 2.274ZM615.41 704.813c.378.213 1.159-.461 1.745-1.505.585-1.044.753-2.062.374-2.274-.378-.212-1.159.462-1.744 1.506-.586 1.043-.753 2.061-.375 2.273ZM903.026 766.476c-.589 1.05-1.365 1.719-1.745 1.506-.381-.213-.214-1.224.375-2.274s1.364-1.719 1.745-1.505c.38.213.213 1.224-.375 2.273ZM786.147 726.599c.379.212 1.16-.462 1.745-1.506.585-1.043.753-2.061.375-2.273-.378-.213-1.159.462-1.745 1.505-.585 1.044-.753 2.062-.375 2.274ZM648.587 823.556c.378.212 1.159-.462 1.745-1.505.585-1.044.753-2.062.375-2.274-.379-.212-1.16.462-1.745 1.505-.585 1.044-.753 2.062-.375 2.274ZM600.513 782.959c.378.212 1.16-.462 1.745-1.505.585-1.044.753-2.062.375-2.274-.379-.212-1.16.462-1.745 1.505-.585 1.044-.753 2.062-.375 2.274ZM983.969 811.926c.378.212 1.159-.462 1.744-1.505.586-1.044.753-2.062.375-2.274-.378-.212-1.159.462-1.744 1.505-.586 1.044-.754 2.062-.375 2.274ZM185.414 522.678c.378.212 1.159-.462 1.744-1.505.586-1.044.754-2.062.375-2.274-.378-.212-1.159.462-1.744 1.505-.586 1.044-.754 2.062-.375 2.274ZM235.673 486.606c.378.212 1.159-.462 1.745-1.506.585-1.043.753-2.061.374-2.274-.378-.212-1.159.462-1.744 1.506-.586 1.044-.753 2.062-.375 2.274ZM194.953 656.423c-.589 1.05-1.364 1.719-1.745 1.506-.38-.214-.214-1.224.375-2.274s1.364-1.719 1.745-1.506c.38.214.214 1.224-.375 2.274ZM323.72 550.174c.378.212 1.16-.462 1.745-1.506.585-1.044.753-2.062.375-2.274-.378-.212-1.16.462-1.745 1.506-.585 1.044-.753 2.062-.375 2.274ZM260.203 413.257c.378.212 1.159-.462 1.745-1.505.585-1.044.753-2.062.375-2.274-.379-.212-1.16.462-1.745 1.505-.585 1.044-.753 2.062-.375 2.274ZM342.915 457.158c.378.212 1.159-.462 1.745-1.505.585-1.044.753-2.062.375-2.274-.379-.212-1.16.462-1.745 1.506-.585 1.043-.753 2.061-.375 2.273ZM495.322 972.096c.378.213 1.159-.461 1.744-1.505.586-1.044.754-2.062.375-2.274-.378-.212-1.159.462-1.744 1.506-.586 1.043-.754 2.061-.375 2.273ZM542.066 1073.6c.378.22 1.159-.46 1.744-1.5.586-1.04.754-2.06.375-2.28-.378-.21-1.159.47-1.744 1.51-.586 1.04-.753 2.06-.375 2.27ZM919.497 1142.03c.378.21 1.16-.46 1.745-1.51.585-1.04.753-2.06.375-2.27-.379-.21-1.16.46-1.745 1.51-.585 1.04-.753 2.06-.375 2.27Z"/><path fill="#D7D3F4" fill-opacity=".1" fill-rule="evenodd" d="M1019.44 744.831c.77-4.008-12.33-10.641-13.18-6.329-.85 4.345 12.3 10.842 13.18 6.329ZM1070.7 990.55c.78-4.007-12.32-10.64-13.18-6.328-.84 4.345 12.31 10.842 13.18 6.328ZM1119.69 851.088c2.87-6.415-12.33-10.64-13.18-6.328-.86 4.312 8.82 16.011 13.18 6.328ZM744.812 701.479c1.243-2.738-5.301-4.569-5.639-2.722-.36 1.856 3.78 6.845 5.639 2.722ZM866.661 964.383c1.244-2.738-5.3-4.569-5.638-2.722-.338 1.846 3.78 6.845 5.638 2.722ZM1000.88 886.465c.61-1.344-2.592-2.25-2.772-1.322-.18.928 1.869 3.374 2.772 1.322ZM612.552 665.145c1.244-2.738-5.278-4.578-5.638-2.722-.36 1.856 3.78 6.846 5.638 2.722ZM987.875 739.354c-.939-2.187-5.868-3.745-8.221-2.735-2.354 1.011-.981 7.884.722 8.97 1.702 1.087 9.153-2.382 7.499-6.235ZM904.998 874.653c-.939-2.188-5.868-3.745-8.221-2.735-2.354 1.01-.981 7.884.722 8.97 1.702 1.087 9.153-2.382 7.499-6.235ZM967.527 715.107c.431-.649-.532-3.445-1.543-4.635-1.024-1.223-2.846-.015-2.712.971.157.977 3.498 4.84 4.233 3.674l.022-.01ZM1015 999.108c.44-.65-.53-3.445-1.54-4.636-1.02-1.222-2.84-.015-2.71.971.16.977 3.5 4.837 4.23 3.674l.02-.009ZM824.834 960.84c.431-.649-.533-3.444-1.543-4.635-1.025-1.222-2.847-.015-2.712.971.134.987 3.497 4.84 4.255 3.664ZM918.519 698.636c.431-.649-.532-3.445-1.543-4.635-1.024-1.223-2.846-.015-2.712.971.157.977 3.498 4.84 4.233 3.674l.022-.01ZM946.759 713.89c-2.435-2.242-5.47.183-4.685 2.011.785 1.828 5.611 1.922 5.862.732.23-1.182.033-1.639-1.177-2.743ZM1118.59 653.625c-2.44-2.242-5.47.182-4.69 2.011.79 1.828 5.61 1.922 5.86.731.25-1.19.04-1.638-1.17-2.742ZM1135.91 321.816c.77-4.008-12.33-10.641-13.19-6.329-.85 4.312 12.31 10.842 13.19 6.329ZM610.841 1036.5c.777-4.01-12.325-10.64-13.182-6.33-.843 4.34 12.306 10.84 13.182 6.33ZM1149.5 306.933c-.94-2.188-5.87-3.746-8.22-2.735-2.35 1.01-.98 7.883.72 8.97 1.7 1.086 9.15-2.383 7.5-6.235ZM1048.57 526.113c-.94-2.188-5.86-3.745-8.22-2.735-2.35 1.01-.98 7.883.72 8.97 1.71 1.087 9.16-2.382 7.5-6.235ZM149.944 973.581c.778-4.007-12.324-10.64-13.181-6.328-.844 4.345 12.305 10.842 13.181 6.328ZM118.383 968.107c-.939-2.188-5.868-3.746-8.221-2.735-2.354 1.01-.981 7.883.721 8.97 1.703 1.086 9.153-2.383 7.5-6.235ZM98.034 943.858c.432-.649-.532-3.444-1.542-4.635-1.025-1.223-2.847-.015-2.713.971.157.977 3.498 4.84 4.255 3.664ZM49.027 927.388c.431-.649-.532-3.444-1.543-4.635-1.01-1.19-2.846-.015-2.712.971.156.977 3.497 4.84 4.255 3.664ZM77.266 942.642c-2.434-2.242-5.47.182-4.684 2.011.785 1.828 5.61 1.922 5.862.731.251-1.19.033-1.638-1.178-2.742ZM179.08 754.865c-.939-2.188-5.867-3.746-8.221-2.735-2.353 1.01-.98 7.883.722 8.97 1.702 1.086 9.153-2.383 7.499-6.235ZM1047.76 383.28c.43-.65-.53-3.445-1.54-4.636-1.03-1.222-2.85-.015-2.69.962.15.977 3.49 4.84 4.23 3.674ZM1712.78 367.699c.78-4.007-12.33-10.64-13.18-6.328-.86 4.312 12.3 10.841 13.18 6.328ZM1764.02 613.428c.78-4.007-12.32-10.64-13.18-6.328-.86 4.312 12.3 10.841 13.18 6.328ZM1813.01 473.964c2.87-6.415-12.33-10.64-13.19-6.328-.84 4.344 8.82 16.011 13.19 6.328ZM1694.22 509.332c.61-1.344-2.59-2.25-2.77-1.322-.18.928 1.87 3.374 2.77 1.322ZM1681.19 362.232c-.93-2.187-5.86-3.745-8.22-2.735-2.35 1.011-.98 7.884.72 8.971 1.71 1.086 9.16-2.383 7.5-6.236ZM1660.87 337.975c.43-.649-.53-3.445-1.54-4.635s-2.85-.015-2.72.971c.16.977 3.5 4.84 4.26 3.664ZM1611.84 321.516c.43-.649-.53-3.445-1.54-4.635-1.03-1.223-2.85-.016-2.72.971.16.977 3.5 4.84 4.24 3.673l.02-.009ZM1640.08 336.767c-2.44-2.242-5.47.183-4.69 2.011.79 1.828 5.61 1.922 5.87.731.22-1.181.03-1.638-1.18-2.742ZM1811.91 276.502c-2.44-2.241-5.47.183-4.69 2.011.79 1.829 5.61 1.922 5.86.732.23-1.181.04-1.638-1.17-2.743ZM1741.91 148.981c-.93-2.187-5.86-3.745-8.22-2.735-2.35 1.011-.98 7.884.73 8.97 1.7 1.087 9.15-2.382 7.49-6.235ZM1741.1 6.148c.43-.65-.53-3.445-1.54-4.635s-2.85-.016-2.71.97c.13.987 3.49 4.84 4.23 3.674l.02-.01ZM390.476 1253.75c.431-.65-.533-3.45-1.543-4.64-1.025-1.22-2.846-.01-2.712.97.156.98 3.497 4.84 4.255 3.67ZM329.792 979.47c.432-.649-.532-3.445-1.542-4.635-1.025-1.223-2.847-.015-2.69.962.156.976 3.497 4.839 4.232 3.673ZM1370.69 574.634c.43-.649-.53-3.445-1.54-4.635-1.02-1.223-2.85-.015-2.71.971.15.977 3.5 4.84 4.25 3.664ZM1183.8 567.282c-2.43-2.242-5.47.182-4.68 2.011.78 1.828 5.61 1.922 5.86.731.25-1.19.03-1.638-1.18-2.742ZM1262.15 305.054c-2.44-2.242-5.47.182-4.69 2.011.79 1.828 5.61 1.922 5.86.731.23-1.181.04-1.638-1.17-2.742ZM290.093 938.011c-2.434-2.241-5.469.183-4.685 2.011.785 1.829 5.611 1.923 5.863.732.229-1.181.033-1.638-1.178-2.743ZM1777.84 800.403c.78-4.007-12.32-10.64-13.18-6.328-.84 4.345 12.31 10.842 13.18 6.328ZM1648.07 642.901c-.94-2.187-5.86-3.745-8.22-2.735-2.35 1.011-.98 7.884.72 8.97 1.71 1.087 9.16-2.382 7.5-6.235ZM1671.02 721.83c.43-.649-.53-3.445-1.54-4.635-1.03-1.223-2.85-.015-2.72.971.14.987 3.5 4.84 4.26 3.664ZM1753.88 751.026c-2.43-2.242-5.47.182-4.68 2.011.78 1.828 5.61 1.922 5.86.731.23-1.181.03-1.638-1.18-2.742Z" clip-rule="evenodd"/></svg>