<svg width="1920" height="2081" viewBox="0 0 1920 2081" fill="none" xmlns="http://www.w3.org/2000/svg">
<g style="mix-blend-mode:screen" opacity="0.1">
<path fill-rule="evenodd" clip-rule="evenodd" d="M1557.8 1936.87C1557.8 1936.87 1494.73 1974.37 1458.57 1987.43C1422.41 2000.51 1405.08 1990.63 1405.08 1990.63C1405.08 1990.63 1374.29 1994.43 1354.32 2004.44C1334.36 2014.44 1330.03 2023.45 1316.97 2034.44C1303.9 2045.44 1263.69 2017.79 1263.69 2017.79L1188.72 2047L1088.83 2080.52C1088.83 2080.52 1172.63 2051.99 1186.69 2024.71C1201.2 1996.56 1277.4 2001.95 1290.47 1990.97C1303.53 1980 1318.66 1984.48 1332.45 1968.51C1346.25 1952.53 1361.82 1934.25 1382.29 1921.68C1402.76 1909.11 1443.97 1891.62 1465.85 1884.31C1487.72 1877 1521.52 1871.24 1521.52 1871.24L1579.44 1867.34L1638.19 1847.91L1890.05 1880.67C1890.05 1880.67 1755.56 1939.74 1696.7 1951.14C1674.43 1955.44 1557.79 1936.88 1557.79 1936.88L1557.8 1936.87Z" fill="url(#paint0_linear_572_3696)"/>
</g>
<g style="mix-blend-mode:screen" opacity="0.1">
<path fill-rule="evenodd" clip-rule="evenodd" d="M416.911 1661.18C416.911 1661.18 362.687 1645.67 333.7 1642.77C304.712 1639.87 294.819 1649.94 294.819 1649.94C294.819 1649.94 271.946 1652.67 255.249 1649.09C238.553 1645.51 233.249 1639.87 221.209 1634.37C209.169 1628.87 186.989 1640.46 186.989 1640.46L121.003 1636.88L52.9986 1631.45C52.9986 1631.45 121.006 1638.26 131.055 1644.55C141.105 1650.84 201.079 1664.44 213.119 1669.94C225.159 1675.44 234.804 1669.58 248.586 1678.49C262.369 1687.4 277.995 1697.65 295.687 1702.97C313.38 1708.29 347.077 1713.43 364.464 1714.77C381.849 1716.1 407.36 1714.23 407.36 1714.23L449.567 1706.77L496.222 1710.2L667.479 1642.46C667.479 1642.46 557.054 1624.22 512.305 1626.53C495.384 1627.4 416.913 1661.19 416.913 1661.19L416.911 1661.18Z" fill="url(#paint1_linear_572_3696)"/>
</g>
<g style="mix-blend-mode:screen" opacity="0.1">
<path fill-rule="evenodd" clip-rule="evenodd" d="M1700.01 1158.21C1700.01 1158.21 1428.52 1161.3 1389.53 1154.74C1350.54 1148.17 1383.86 1113.78 1364.06 1108.35C1314.75 1094.82 1134.77 1135.48 1134.77 1135.48C1134.77 1135.48 1103.79 1140.9 1080.74 1117.41C1057.7 1093.89 1011.84 1094.66 1011.84 1094.66L924.479 1104.18C924.479 1104.18 1145.94 1139.21 1175.66 1159.47C1205.39 1179.73 1226.66 1172.94 1267.52 1171.11C1308.41 1169.29 1437.74 1153.07 1463.33 1175.49C1488.93 1197.87 1817.56 1308.24 1867.84 1304.53C1918.13 1300.82 2079.32 1244.68 2079.32 1244.68C2079.32 1244.68 1761.27 1175.53 1700.02 1158.18L1700.01 1158.21Z" fill="url(#paint2_linear_572_3696)"/>
</g>
<g style="mix-blend-mode:screen" opacity="0.1">
<path fill-rule="evenodd" clip-rule="evenodd" d="M1557.8 126.873C1557.8 126.873 1494.73 164.369 1458.57 177.43C1422.41 190.508 1405.08 180.63 1405.08 180.63C1405.08 180.63 1374.29 184.434 1354.32 194.436C1334.36 204.436 1330.03 213.446 1316.97 224.441C1303.9 235.436 1263.69 207.789 1263.69 207.789L1188.72 237.003L1088.83 270.518C1088.83 270.518 1172.63 241.993 1186.69 214.712C1201.2 186.563 1277.4 191.952 1290.47 180.973C1303.53 169.995 1318.66 174.483 1332.45 158.514C1346.25 142.529 1361.82 124.25 1382.29 111.681C1402.76 99.1119 1443.97 81.6153 1465.85 74.3091C1487.72 67.0029 1521.52 61.2352 1521.52 61.2352L1579.44 57.3372L1638.19 37.9059L1890.05 70.6679C1890.05 70.6679 1755.56 129.743 1696.7 141.135C1674.43 145.439 1557.79 126.876 1557.79 126.876L1557.8 126.873Z" fill="url(#paint3_linear_572_3696)"/>
</g>
<g style="mix-blend-mode:screen" opacity="0.1">
<path fill-rule="evenodd" clip-rule="evenodd" d="M235.79 1037.96C235.79 1037.96 163.611 1014.82 125.607 1009.98C87.6022 1005.15 75.8123 1019.02 75.8123 1019.02C75.8123 1019.02 46.3536 1022.26 24.2607 1016.79C2.1587 1011.33 -7.33606 988.594 -23.5757 980.556C-39.8244 972.532 -74.9005 997.665 -74.9005 997.665L-170.53 956.717L-232.613 931.739C-232.613 931.739 -159.732 969.444 -145.98 978.513C-132.227 987.582 -44.5291 1036.88 -28.2804 1044.91C-12.0318 1052.93 -0.122129 1044.96 18.7602 1057.81C37.6582 1070.66 59.0625 1085.43 82.6498 1093.35C106.237 1101.27 150.595 1109.35 173.358 1111.68C196.122 1114 229.081 1112.02 229.081 1112.02L283.174 1102.67L344.207 1108.69L559.612 1018.26C559.612 1018.26 414.06 989.822 356.119 991.888C334.206 992.666 235.79 1037.96 235.79 1037.96Z" fill="url(#paint4_linear_572_3696)"/>
</g>
<g style="mix-blend-mode:screen" opacity="0.1">
<path fill-rule="evenodd" clip-rule="evenodd" d="M416.911 601.176C416.911 601.176 362.687 585.674 333.7 582.772C304.712 579.87 294.819 589.938 294.819 589.938C294.819 589.938 271.946 592.672 255.249 589.092C238.553 585.511 233.249 579.873 221.209 574.373C209.169 568.872 186.989 580.463 186.989 580.463L121.003 576.877L52.9986 571.452C52.9986 571.452 121.006 578.256 131.055 584.549C141.105 590.842 201.079 604.439 213.119 609.94C225.159 615.441 234.804 609.575 248.586 618.486C262.369 627.398 277.995 637.645 295.687 642.967C313.38 648.289 347.077 653.427 364.464 654.769C381.849 656.098 407.36 654.228 407.36 654.228L449.567 646.768L496.222 650.197L667.479 582.457C667.479 582.457 557.054 564.222 512.305 566.534C495.384 567.403 416.913 601.188 416.913 601.188L416.911 601.176Z" fill="url(#paint5_linear_572_3696)"/>
</g>
<defs>
<linearGradient id="paint0_linear_572_3696" x1="1262.55" y1="1950.84" x2="1761.87" y2="1964.82" gradientUnits="userSpaceOnUse">
<stop stop-color="#402C4E"/>
<stop offset="0.956063" stop-color="#402C4E" stop-opacity="0.36"/>
</linearGradient>
<linearGradient id="paint1_linear_572_3696" x1="524.937" y1="1668.72" x2="157.706" y2="1650.23" gradientUnits="userSpaceOnUse">
<stop stop-color="#402C4E"/>
<stop offset="0.956063" stop-color="#402C4E" stop-opacity="0.36"/>
</linearGradient>
<linearGradient id="paint2_linear_572_3696" x1="1217.64" y1="1078.32" x2="1749.32" y2="1460.33" gradientUnits="userSpaceOnUse">
<stop stop-color="#402C4E"/>
<stop offset="0.956063" stop-color="#402C4E" stop-opacity="0.36"/>
</linearGradient>
<linearGradient id="paint3_linear_572_3696" x1="1262.55" y1="140.844" x2="1761.87" y2="154.816" gradientUnits="userSpaceOnUse">
<stop stop-color="#402C4E"/>
<stop offset="0.956063" stop-color="#402C4E" stop-opacity="0.36"/>
</linearGradient>
<linearGradient id="paint4_linear_572_3696" x1="45.7764" y1="814.347" x2="391.275" y2="1081.15" gradientUnits="userSpaceOnUse">
<stop stop-color="#402C4E"/>
<stop offset="0.956063" stop-color="#402C4E" stop-opacity="0.36"/>
</linearGradient>
<linearGradient id="paint5_linear_572_3696" x1="524.937" y1="608.721" x2="157.706" y2="590.228" gradientUnits="userSpaceOnUse">
<stop stop-color="#402C4E"/>
<stop offset="0.956063" stop-color="#402C4E" stop-opacity="0.36"/>
</linearGradient>
</defs>
</svg>
