<svg xmlns="http://www.w3.org/2000/svg" width="64" height="64" fill="none"><path stroke="#362F58" stroke-linecap="round" stroke-linejoin="round" stroke-width="2" d="M54.667 30.133v-11.36c0-10.746-2.507-13.44-12.587-13.44H21.92c-10.08 0-12.587 2.694-12.587 13.44V48.8c0 7.093 3.894 8.773 8.614 3.707l.027-.027c2.186-2.32 5.52-2.133 7.413.4l2.693 3.6M21.334 18.667h21.333M24 29.333h16"/><path stroke="#362F58" stroke-linecap="round" stroke-linejoin="round" stroke-miterlimit="10" stroke-width="2" d="m48.563 39.387-9.44 9.44c-.374.374-.72 1.067-.8 1.574l-.507 3.6c-.187 1.306.72 2.213 2.026 2.027l3.6-.507c.507-.08 1.227-.427 1.574-.8l9.44-9.44c1.627-1.627 2.4-3.52 0-5.92-2.373-2.373-4.267-1.6-5.894.026Z"/><path stroke="#362F58" stroke-linecap="round" stroke-linejoin="round" stroke-miterlimit="10" stroke-width="2" d="M47.198 40.747c.8 2.88 3.04 5.12 5.92 5.92"/></svg>