<svg xmlns="http://www.w3.org/2000/svg" width="64" height="64" fill="none"><path stroke="#37305B" stroke-linecap="round" stroke-linejoin="round" stroke-width="2" d="M28.67 44.96v5.414c0 4.587-4.266 8.294-9.52 8.294-5.253 0-9.546-3.707-9.546-8.294v-5.413c0 4.587 4.267 7.84 9.547 7.84 5.253 0 9.52-3.28 9.52-7.84Z"/><path stroke="#37305B" stroke-linecap="round" stroke-linejoin="round" stroke-width="2" d="M28.666 37.627c0 1.333-.373 2.56-1.013 3.626-1.573 2.587-4.8 4.214-8.533 4.214-3.734 0-6.96-1.654-8.534-4.214a6.996 6.996 0 0 1-1.013-3.626c0-2.294 1.067-4.347 2.774-5.84 1.733-1.52 4.106-2.427 6.746-2.427 2.64 0 5.014.933 6.747 2.427 1.76 1.466 2.826 3.546 2.826 5.84Z"/><path stroke="#37305B" stroke-linecap="round" stroke-linejoin="round" stroke-width="2" d="M28.67 37.627v7.333c0 4.587-4.266 7.84-9.52 7.84-5.253 0-9.546-3.28-9.546-7.84v-7.333c0-4.587 4.267-8.294 9.547-8.294 2.64 0 5.013.934 6.747 2.427 1.706 1.493 2.773 3.573 2.773 5.867ZM58.667 29.253v5.494c0 1.466-1.173 2.666-2.667 2.72h-5.227c-2.88 0-5.52-2.107-5.76-4.987a5.356 5.356 0 0 1 1.6-4.347 5.315 5.315 0 0 1 3.84-1.6H56c1.494.054 2.667 1.254 2.667 2.72Z"/><path stroke="#37305B" stroke-linecap="round" stroke-linejoin="round" stroke-width="2" d="M5.333 28v-5.333c0-7.254 4.374-12.32 11.174-13.174.693-.106 1.413-.16 2.16-.16h24c.693 0 1.36.027 2 .134 6.88.8 11.333 5.893 11.333 13.2v3.866h-5.547a5.315 5.315 0 0 0-3.84 1.6 5.356 5.356 0 0 0-1.6 4.347c.24 2.88 2.88 4.987 5.76 4.987H56v3.866c0 8-5.333 13.334-13.333 13.334H36"/></svg>