<svg xmlns="http://www.w3.org/2000/svg" width="64" height="64" fill="none"><path stroke="#37305A" stroke-linecap="round" stroke-linejoin="round" stroke-width="2" d="M45.334 56H18.666C8 56 5.333 53.333 5.333 42.667V21.333C5.334 10.667 8 8 18.668 8h26.666C56 8 58.668 10.667 58.668 21.333v21.334C58.667 53.333 56 56 45.333 56ZM37.334 21.333h13.333M40 32h10.667M45.334 42.667h5.333"/><path stroke="#37305A" stroke-linecap="round" stroke-linejoin="round" stroke-width="2" d="M22.666 30.107a4.827 4.827 0 1 0 0-9.654 4.827 4.827 0 0 0 0 9.654ZM32 43.547a8.055 8.055 0 0 0-7.306-7.254 20.591 20.591 0 0 0-4.054 0c-3.867.374-6.933 3.387-7.306 7.254"/></svg>