<svg xmlns="http://www.w3.org/2000/svg" width="64" height="64" fill="none"><path stroke="#362F58" stroke-linecap="round" stroke-linejoin="round" stroke-miterlimit="10" stroke-width="2" d="M21.334 5.333v8M42.666 5.333v8M9.334 24.24h45.333M58.667 50.667c0 2-.56 3.893-1.547 5.493A10.586 10.586 0 0 1 48 61.333c-2.693 0-5.147-.986-7.013-2.666a9.584 9.584 0 0 1-2.107-2.507 10.455 10.455 0 0 1-1.547-5.493C37.334 44.773 42.108 40 48 40c3.2 0 6.053 1.413 8 3.627 1.654 1.893 2.667 4.346 2.667 7.04Z"/><path stroke="#362F58" stroke-linecap="round" stroke-linejoin="round" stroke-width="2" d="m43.84 50.667 2.64 2.64 5.68-5.254"/><path stroke="#362F58" stroke-linecap="round" stroke-linejoin="round" stroke-miterlimit="10" stroke-width="2" d="M56 22.667v20.96A10.623 10.623 0 0 0 48 40c-5.893 0-10.667 4.773-10.667 10.667 0 2 .56 3.893 1.547 5.493.56.96 1.28 1.813 2.107 2.507H21.333C12 58.667 8 53.333 8 45.333V22.667c0-8 4-13.334 13.333-13.334h21.334C52 9.333 56 14.667 56 22.667Z"/><path stroke="#362F58" stroke-linecap="round" stroke-linejoin="round" stroke-width="2" d="M31.988 36.533h.024M22.118 36.533h.024M22.118 44.533h.024"/></svg>