<svg xmlns="http://www.w3.org/2000/svg" width="64" height="64" fill="none"><path fill="url(#a)" d="M58 15.988H42.4a1 1 0 0 0 0 2H58c.551 0 1 .45 1 1.001v5.001H42.95a1 1 0 1 0 0 2H59V59c0 .55-.449 1-1 1H6c-.551 0-1-.45-1-1V25.99h16.05a1 1 0 0 0 0-2H5v-5c0-.552.449-1.001 1-1.001h15.6a1 1 0 0 0 0-2H6c-1.654 0-3 1.345-3 3V59C3 60.654 4.346 62 6 62h52c1.654 0 3-1.346 3-3V18.99c0-1.655-1.346-3.002-3-3.002Z"/><path fill="url(#b)" d="M7.29 20.28c-.18.19-.29.44-.29.71 0 .27.11.52.29.71.19.18.44.29.71.29.26 0 .52-.11.71-.29.18-.19.29-.45.29-.71 0-.26-.11-.52-.29-.71-.38-.37-1.05-.37-1.42 0Zm4 0c-.18.19-.29.45-.29.71 0 .26.11.52.29.71.19.18.45.29.71.29.26 0 .52-.11.71-.29.18-.19.29-.45.29-.71 0-.26-.11-.52-.29-.71-.38-.37-1.05-.37-1.42 0Zm4 0c-.18.19-.29.45-.29.71 0 .27.11.52.29.7a1 1 0 0 0 1.42.01c.18-.19.29-.44.29-.71 0-.26-.11-.52-.29-.71-.37-.37-1.05-.37-1.42 0Zm1.901 16.125a1.002 1.002 0 0 0-.12.96l2 5.002a1 1 0 0 0 1.488.457l5.584-3.765c.276.78.571 1.552.886 2.317l.003.004c.05.12.124.23.217.323.043.043.099.066.149.1.056.04.106.087.17.114a1 1 0 0 0 .383.077l.003.001h.428l-1.276 2.553A1 1 0 0 0 28 45.996h8a.999.999 0 0 0 .895-1.448l-1.277-2.553h.132c.052 0 .096-.022.145-.03.05.008.1.03.15.03a1 1 0 0 0 .926-.62c.315-.764.61-1.536.887-2.316l5.583 3.765a1 1 0 0 0 1.488-.457l2-5.002a1.002 1.002 0 0 0-.12-.96L40.68 27.98c.514-4.03.482-8.65-.92-13.393-1.306-4.415-3.667-8.543-7.017-12.27-.38-.421-1.108-.421-1.488 0-3.35 3.728-5.712 7.856-7.017 12.27-1.402 4.743-1.434 9.363-.92 13.393l-6.128 8.426Zm12.427 7.59 1-2h2.764l1 2h-4.764Zm10.616-13.23 4.632 6.37-1.334 3.338-4.998-3.37c.566-1.701 1.212-3.859 1.7-6.338ZM26.157 15.154C27.28 11.36 29.242 7.784 32 4.508c2.757 3.275 4.72 6.851 5.843 10.646 1.362 4.608 1.362 9.052.827 12.928l-.007.055c-.603 4.322-1.869 7.93-2.68 10.226a46.012 46.012 0 0 1-.612 1.632h-6.742a45.387 45.387 0 0 1-.612-1.632c-.811-2.296-2.078-5.904-2.68-10.226-.003-.019-.004-.036-.008-.055-.534-3.876-.534-8.32.828-12.928Zm-.69 21.948-4.999 3.37-1.334-3.337 4.632-6.37c.488 2.479 1.134 4.637 1.7 6.337ZM31 50.997v3a1 1 0 0 0 2 0v-3a1 1 0 0 0-2 0Zm-4-2v3a1 1 0 1 0 2 0v-3a1 1 0 1 0-2 0Zm9-1a1 1 0 0 0-1 1v3a1 1 0 0 0 2 0v-3a1 1 0 0 0-1-1Z"/><path fill="url(#c)" d="M32 24.99c2.757 0 5-2.243 5-5a5.007 5.007 0 0 0-5-5.002c-2.757 0-5 2.244-5 5.001a5.007 5.007 0 0 0 5 5.002Zm0-8.001c1.654 0 3 1.346 3 3 0 1.655-1.346 3.001-3 3.001s-3-1.346-3-3c0-1.655 1.346-3.001 3-3.001Z"/><defs><linearGradient id="a" x1="17" x2="54.5" y1="14.5" y2="62" gradientUnits="userSpaceOnUse"><stop stop-color="#3FFFA3"/><stop offset=".939" stop-color="#20B59A"/></linearGradient><linearGradient id="b" x1="17" x2="54.5" y1="14.5" y2="62" gradientUnits="userSpaceOnUse"><stop stop-color="#3FFFA3"/><stop offset=".939" stop-color="#20B59A"/></linearGradient><linearGradient id="c" x1="17" x2="54.5" y1="14.5" y2="62" gradientUnits="userSpaceOnUse"><stop stop-color="#3FFFA3"/><stop offset=".939" stop-color="#20B59A"/></linearGradient></defs></svg>