<svg width="202" height="47" viewBox="0 0 202 47" fill="none" xmlns="http://www.w3.org/2000/svg">
<path d="M116.236 23.4V18.6H118.836V14.2H124.436V18.6H130.196V23.4H124.436V34.2H130.436V39H118.836V23.4H116.236Z" fill="white"/>
<path d="M135.577 36.48C133.471 34.3733 132.417 31.8133 132.417 28.8C132.417 25.7867 133.471 23.24 135.577 21.16C137.711 19.0533 140.324 18 143.417 18C146.564 18 149.151 19.04 151.177 21.12C153.204 23.2 154.217 25.76 154.217 28.8V30H138.217C138.431 31.3333 139.031 32.4667 140.017 33.4C141.004 34.3333 142.137 34.8 143.417 34.8C144.831 34.8 146.044 34.4 147.057 33.6C147.457 33.2533 147.777 32.8533 148.017 32.4H154.017C153.564 33.76 152.897 34.96 152.017 36C149.884 38.4 147.017 39.6 143.417 39.6C140.324 39.6 137.711 38.56 135.577 36.48ZM138.417 26.6H148.217C148.004 25.5333 147.457 24.64 146.577 23.92C145.724 23.1733 144.671 22.8 143.417 22.8C142.164 22.8 141.097 23.16 140.217 23.88C139.337 24.6 138.737 25.5067 138.417 26.6Z" fill="white"/>
<path d="M159.562 36.48C157.455 34.3733 156.402 31.8133 156.402 28.8C156.402 25.7867 157.455 23.24 159.562 21.16C161.695 19.0533 164.308 18 167.402 18C171.108 18 173.935 19.3333 175.882 22C176.762 23.1467 177.402 24.48 177.802 26H172.002C171.762 25.4133 171.442 24.88 171.042 24.4C170.028 23.3333 168.815 22.8 167.402 22.8C165.988 22.8 164.762 23.36 163.722 24.48C162.708 25.6 162.202 27.04 162.202 28.8C162.202 30.56 162.708 32 163.722 33.12C164.762 34.24 165.988 34.8 167.402 34.8C168.815 34.8 170.028 34.2667 171.042 33.2C171.442 32.72 171.762 32.1867 172.002 31.6H177.802C177.428 33.1467 176.815 34.48 175.962 35.6C174.015 38.2667 171.162 39.6 167.402 39.6C164.308 39.6 161.695 38.56 159.562 36.48Z" fill="white"/>
<path d="M181 39V11H186.6V21.4H186.8C187.147 20.7867 187.64 20.2267 188.28 19.72C189.747 18.5733 191.387 18 193.2 18C195.733 18 197.693 18.7333 199.08 20.2C200.493 21.6667 201.2 23.8 201.2 26.6V39H195.6V27.4C195.6 25.9067 195.227 24.7733 194.48 24C193.76 23.2 192.733 22.8 191.4 22.8C190.067 22.8 188.933 23.3067 188 24.32C187.067 25.3333 186.6 26.6267 186.6 28.2V39H181Z" fill="white"/>
<path d="M2.68 36.64C0.893333 34.64 0 32.0267 0 28.8C0 25.5733 0.893333 22.9733 2.68 21C4.49333 19 6.73333 18 9.4 18C11.1867 18 12.8 18.5333 14.24 19.6C14.8533 20.1067 15.3733 20.64 15.8 21.2H16V11H21.6V39H16V36.4H15.8C15.3733 36.96 14.8533 37.4933 14.24 38C12.8 39.0667 11.1867 39.6 9.4 39.6C6.73333 39.6 4.49333 38.6133 2.68 36.64ZM7.2 24.4C6.26667 25.4667 5.8 26.9333 5.8 28.8C5.8 30.6667 6.26667 32.1333 7.2 33.2C8.13333 34.2667 9.33333 34.8 10.8 34.8C12.3467 34.8 13.6 34.28 14.56 33.24C15.52 32.1733 16 30.6933 16 28.8C16 26.9067 15.52 25.44 14.56 24.4C13.6 23.3333 12.3467 22.8 10.8 22.8C9.33333 22.8 8.13333 23.3333 7.2 24.4Z" fill="white"/>
<path d="M26 39V18.6H31.6V21.6H31.8C32.04 20.96 32.4 20.4 32.88 19.92C33.9733 18.7733 35.3467 18.2 37 18.2H39.4V23.6H36.4C34.88 23.6 33.6933 24.0133 32.84 24.84C32.0133 25.64 31.6 26.76 31.6 28.2V39H26Z" fill="white"/>
<path d="M43.8909 36.64C42.1043 34.64 41.2109 32.0267 41.2109 28.8C41.2109 25.5733 42.1043 22.9733 43.8909 21C45.7043 19 47.9443 18 50.6109 18C52.3976 18 54.0109 18.5333 55.4509 19.6C56.0643 20.1067 56.5843 20.64 57.0109 21.2H57.2109V18.6H62.8109V39H57.2109V36.4H57.0109C56.5843 36.96 56.0643 37.4933 55.4509 38C54.0109 39.0667 52.3976 39.6 50.6109 39.6C47.9443 39.6 45.7043 38.6133 43.8909 36.64ZM48.4109 24.4C47.4776 25.4667 47.0109 26.9333 47.0109 28.8C47.0109 30.6667 47.4776 32.1333 48.4109 33.2C49.3443 34.2667 50.5443 34.8 52.0109 34.8C53.5576 34.8 54.8109 34.28 55.7709 33.24C56.7309 32.1733 57.2109 30.6933 57.2109 28.8C57.2109 26.9067 56.7309 25.44 55.7709 24.4C54.8109 23.3333 53.5576 22.8 52.0109 22.8C50.5443 22.8 49.3443 23.3333 48.4109 24.4Z" fill="white"/>
<path fill-rule="evenodd" clip-rule="evenodd" d="M91.0109 28.8C91.0109 31.8133 92.0776 34.3733 94.2109 36.48C96.3443 38.56 99.0109 39.6 102.211 39.6C105.384 39.6 108.038 38.56 110.171 36.48C112.331 34.3733 113.411 31.8133 113.411 28.8C113.411 25.7867 112.331 23.24 110.171 21.16C108.038 19.0533 105.384 18 102.211 18C99.0109 18 96.3443 19.0533 94.2109 21.16C92.0776 23.24 91.0109 25.7867 91.0109 28.8ZM98.4792 24.4136C97.5003 25.4895 97.0109 26.9515 97.0109 28.7998C97.0109 30.6481 97.5003 32.1102 98.4792 33.186C99.458 34.2619 100.736 34.7998 102.313 34.7998C103.808 34.7998 105.032 34.2619 105.983 33.186C106.935 32.1102 107.411 30.6481 107.411 28.7998C107.411 26.9515 106.935 25.4895 105.983 24.4136C105.032 23.3377 103.808 22.7998 102.313 22.7998C100.736 22.7998 99.458 23.3377 98.4792 24.4136Z" fill="#7D4FFF"/>
<path fill-rule="evenodd" clip-rule="evenodd" d="M66.2109 28.6C66.2109 31.72 67.1176 34.2667 68.9309 36.24C70.7443 38.2133 72.9709 39.2 75.6109 39.2C77.3976 39.2 79.0109 38.6667 80.4509 37.6C81.0376 37.1467 81.5576 36.6 82.0109 35.96H82.2109V41.8H69.2109V46.6H87.8109V18.6H82.2109V21.24H82.0109C81.5843 20.68 81.0643 20.1467 80.4509 19.64C78.9843 18.5467 77.3709 18 75.6109 18C72.9709 18 70.7443 18.9867 68.9309 20.96C67.1176 22.9333 66.2109 25.48 66.2109 28.6ZM72.0109 28.6C72.0109 26.8133 72.4909 25.4 73.4509 24.36C74.4109 23.32 75.6643 22.8 77.2109 22.8C78.6776 22.8 79.8776 23.32 80.8109 24.36C81.7443 25.4 82.2109 26.8133 82.2109 28.6C82.2109 30.3867 81.7443 31.8 80.8109 32.84C79.8776 33.88 78.6776 34.4 77.2109 34.4C75.6643 34.4 74.4109 33.88 73.4509 32.84C72.4909 31.8 72.0109 30.3867 72.0109 28.6Z" fill="#7D4FFF"/>
<ellipse cx="77.1369" cy="28.2263" rx="2.12924" ry="3.39623" fill="#D7D3F4"/>
<ellipse cx="102.137" cy="28.2263" rx="2.12924" ry="3.39623" fill="#D7D3F4"/>
<path d="M103.8 16L107.8 0L110.8 19C108.3 15 103.8 16 103.8 16Z" fill="black"/>
<path fill-rule="evenodd" clip-rule="evenodd" d="M103.8 16C103.8 16 104.68 15.8044 105.879 15.9323C106.643 16.0138 107.536 16.227 108.413 16.7064C109.27 17.1748 110.111 17.8975 110.8 19L107.8 0L103.8 16Z" fill="#7D4FFF"/>
<path fill-rule="evenodd" clip-rule="evenodd" d="M74.8 16C74.8 16 73.9198 15.8044 72.7216 15.9323C71.9574 16.0138 71.0639 16.227 70.187 16.7064C69.3301 17.1748 68.4891 17.8975 67.8 19L70.8 0L74.8 16Z" fill="#7D4FFF"/>
</svg>
