<svg xmlns="http://www.w3.org/2000/svg" width="64" height="64" fill="none"><g clip-path="url(#a)"><path fill="url(#b)" d="M26.839 57.806h2.064v2.065H26.84v-2.065Zm-14.452 0h2.065v2.065h-2.065v-2.065Z"/><path fill="url(#c)" d="m63.706 18.837-5.9-9.833v-6.94A2.067 2.067 0 0 0 55.742 0H20.645a2.067 2.067 0 0 0-2.064 2.065v6.94l-5.9 9.832a2.072 2.072 0 0 0-.294 1.062v1.778c0 1.344.866 2.48 2.065 2.907v6.384h-3.288l-1.76-12.67a2.072 2.072 0 0 0-2.045-1.782H2.065A2.067 2.067 0 0 0 0 18.581v2.064c0 1.139.926 2.065 2.065 2.065h5.868l4.32 31.112c-2.283.531-3.995 2.573-3.995 5.017A5.167 5.167 0 0 0 13.42 64a5.171 5.171 0 0 0 5.057-4.129h4.338A5.17 5.17 0 0 0 27.87 64a5.17 5.17 0 0 0 5.057-4.129h26.943a2.067 2.067 0 0 0 2.064-2.065V24.584A3.094 3.094 0 0 0 64 21.677V19.9c0-.374-.102-.741-.294-1.062ZM2.065 20.645v-2.064h5.294l.287 2.064H2.065ZM56.19 10.323l4.955 8.258H52.38l-2.477-8.258h6.286ZM15.484 22.71a1.033 1.033 0 0 1-1.032-1.033v-1.032h9.028a5.908 5.908 0 0 1-4.493 2.065h-3.503ZM51.613 8.258h-2.067l-.002-2.064h2.069v2.064ZM39.226 18.581v-8.258h8.522l2.477 8.258h-11Zm8.256-10.323h-2.063V6.194h2.069c-.007.505-.007 1.18-.006 2.064Zm-4.127 0H37.16V6.194h6.194v2.064Zm-6.194 2.065v8.258h-11l2.478-8.258h8.522ZM24.006 18.58h-8.764l4.955-8.258h6.287l-2.478 8.258Zm12.467 2.064-.819.614a7.298 7.298 0 0 1-4.35 1.45 7.201 7.201 0 0 1-5.064-2.064h10.233Zm13.662 0a7.63 7.63 0 0 1-5.232 2.065 7.626 7.626 0 0 1-5.23-2.065h10.462Zm-29.49-18.58h35.097v6.193h-2.065V6.194a2.067 2.067 0 0 0-2.064-2.065H37.16a2.067 2.067 0 0 0-2.064 2.065v2.064H20.645V2.065ZM35.25 33.032v2.065H11.738l-.287-2.065h23.797Zm-7.668 4.13-1.032 4.128h-5.904v-4.129h6.936Zm-9 4.128h-5.983l-.574-4.129h6.557v4.13Zm-5.696 2.065h5.696v4.129h-5.122l-.574-4.13Zm7.76 0h5.387L25 47.484h-4.355v-4.13Zm7.516 0h4.53l-1.427 4.129h-4.136l1.033-4.13Zm2.807 6.193h.297c.879 0 1.663-.557 1.952-1.389l.232-.675h1.648v4.129h-4.13v-2.065Zm2.438-8.258h-4.729l1.032-4.129h5.124l-1.427 4.13ZM13.419 61.935a3.1 3.1 0 0 1-3.096-3.096 3.1 3.1 0 0 1 3.096-3.097 3.1 3.1 0 0 1 3.097 3.097 3.1 3.1 0 0 1-3.097 3.096Zm14.452 0a3.1 3.1 0 0 1-3.097-3.096 3.1 3.1 0 0 1 3.097-3.097 3.1 3.1 0 0 1 3.097 3.097 3.1 3.1 0 0 1-3.097 3.096Zm5.057-4.129a5.17 5.17 0 0 0-5.057-4.129 5.17 5.17 0 0 0-5.057 4.13h-4.338a5.167 5.167 0 0 0-4.145-4.038l-.586-4.22h15.158v2.064c0 1.139.926 2.064 2.065 2.064h4.129a2.067 2.067 0 0 0 2.064-2.064v-4.13a2.067 2.067 0 0 0-2.064-2.064h-.934l3.038-8.791c.074-.218.112-.444.112-.672v-2.924a2.067 2.067 0 0 0-2.065-2.064H16.517v-6.194h2.472a7.969 7.969 0 0 0 5.88-2.58 9.255 9.255 0 0 0 6.435 2.58 9.38 9.38 0 0 0 5.59-1.864l1.204-.902a9.692 9.692 0 0 0 6.806 2.766 9.689 9.689 0 0 0 6.614-2.584 7.965 7.965 0 0 0 5.882 2.584h2.472v33.032H32.928ZM60.903 22.71H57.4a5.908 5.908 0 0 1-4.493-2.065h9.03v1.032c0 .57-.464 1.033-1.033 1.033Z"/><path fill="url(#d)" d="M22.71 4.129h2.064v2.065H22.71V4.129Zm4.129 0h2.064v2.065H26.84V4.129Zm4.129 0h2.064v2.065h-2.064V4.129Zm14.451 41.29H41.29a2.067 2.067 0 0 0-2.064 2.065v4.129c0 1.139.926 2.064 2.064 2.064h4.13a2.067 2.067 0 0 0 2.064-2.064v-4.13a2.067 2.067 0 0 0-2.065-2.064Zm-4.129 6.194v-4.13h4.13v4.13h-4.13Zm16.819-7.956-1.84 1.84a2.02 2.02 0 0 0-.527-.078h-4.13a2.067 2.067 0 0 0-2.064 2.065v4.129c0 1.139.926 2.064 2.065 2.064h4.129a2.067 2.067 0 0 0 2.064-2.064v-4.13a2.02 2.02 0 0 0-.077-.527l1.84-1.84-1.46-1.459Zm-2.366 7.956h-4.13v-4.13h2.67l-.606.606-.302-.303-1.46 1.46 1.762 1.762 2.065-2.065.001 2.67ZM41.29 43.355h14.452a2.067 2.067 0 0 0 2.064-2.065V28.903a2.067 2.067 0 0 0-2.064-2.064H41.29a2.067 2.067 0 0 0-2.064 2.064V41.29c0 1.139.926 2.065 2.064 2.065Zm6.194-14.452h2.064v2.065h-2.064v-2.065Zm-6.194 0h4.13v2.065c0 1.138.925 2.064 2.064 2.064h2.064a2.067 2.067 0 0 0 2.065-2.064v-2.065h4.129l.001 12.387H41.29V28.903Z"/><path fill="url(#e)" d="M51.613 37.161h2.064v2.065h-2.064V37.16Zm-4.13 0h2.065v2.065h-2.064V37.16Z"/></g><defs><linearGradient id="b" x1="6.194" x2="51.613" y1="12.903" y2="57.29" gradientUnits="userSpaceOnUse"><stop stop-color="#FFCB48"/><stop offset="1" stop-color="#EC7B03"/></linearGradient><linearGradient id="c" x1="6.194" x2="51.613" y1="12.903" y2="57.29" gradientUnits="userSpaceOnUse"><stop stop-color="#FFCB48"/><stop offset="1" stop-color="#EC7B03"/></linearGradient><linearGradient id="d" x1="6.194" x2="51.613" y1="12.903" y2="57.29" gradientUnits="userSpaceOnUse"><stop stop-color="#FFCB48"/><stop offset="1" stop-color="#EC7B03"/></linearGradient><linearGradient id="e" x1="6.194" x2="51.613" y1="12.903" y2="57.29" gradientUnits="userSpaceOnUse"><stop stop-color="#FFCB48"/><stop offset="1" stop-color="#EC7B03"/></linearGradient><clipPath id="a"><path fill="#fff" d="M0 0h64v64H0z"/></clipPath></defs></svg>