<svg xmlns="http://www.w3.org/2000/svg" width="467" height="427" fill="none"><g filter="url(#a)" shape-rendering="crispEdges"><path fill="url(#b)" fill-opacity=".35" d="M70.496 32.567c-.002 0-.003-.003-.002-.004C85.991 14.037 106.938-.295 131.917.005c42.621.53 65.654 38.254 90.128 67.371 12.686 15.095 27.066 29.66 45.894 36.757 28.253 10.635 59.698 4.425 87.225-5.45 12.329-4.425 26.928-10.647 40.813-7.467 42.206 9.656 37.805 61.173 30.834 93.782-9.414 44.027-24.716 90.912-55.723 124.753-74.239 80.992-207.842 31.341-274.799-33.288-4.92-4.747-9.644-9.714-14.069-14.922-11.465-13.481-21.316-28.345-28.99-44.304-21.605-44.868-24.566-99.427-5.854-145.805 5.438-13.48 13.318-27.132 23.122-38.86a.003.003 0 0 0-.002-.005Z"/><path stroke="url(#c)" stroke-opacity=".25" stroke-width="2" d="M267.587 105.069h-.001c-19.083-7.194-33.602-21.934-46.306-37.05-3.568-4.244-7.091-8.651-10.638-13.09-8.693-10.876-17.532-21.935-27.536-31.226-14.036-13.035-30.223-22.437-51.201-22.698l135.682 104.064Zm0 0c28.595 10.764 60.326 4.452 87.915-5.445l-.301-.838m-87.614 6.283 87.614-6.283m0 0 .301.838c1.191-.427 2.399-.87 3.622-1.318 5.148-1.885 10.559-3.868 16.103-5.237 6.848-1.692 13.796-2.42 20.526-.878h.001m-40.553 6.595 40.553-6.595m0 0c10.343 2.367 17.783 7.28 23.049 13.795 5.278 6.53 8.416 14.721 10.049 23.693 3.268 17.964.459 38.839-3.019 55.11-9.405 43.983-24.662 90.649-55.482 124.287-36.805 40.152-88.359 47.983-139.194 37.659-50.849-10.327-100.82-38.798-134.173-70.992l-.695.72M395.754 92.191 96.289 276.463m0 0 .695-.72c-4.9-4.727-9.601-9.67-14.002-14.849v-.001m13.307 15.57-13.307-15.57m0 0c-11.413-13.42-21.217-28.213-28.851-44.089-21.49-44.63-24.428-98.896-5.827-144.998l-.924-.372.924.372c5.402-13.39 13.23-26.951 22.961-38.593a1.07 1.07 0 0 0 .081-.11m11.636 227.79L71.346 33.103m0 0C86.731 14.75 107.387.71 131.904 1.005L71.346 33.103Z"/></g><path stroke="#30275B" stroke-linecap="round" stroke-linejoin="round" d="M6 413.914h451.576M280.154 180.435V10.894h10.497M280.154 200.611v-4.494M317.648 10.894h108.311V216.42H280.154M304.363 10.894h9.518"/><path stroke="#30275B" stroke-linecap="round" stroke-linejoin="round" d="M420.488 16.367H285.641v194.579h134.847V16.366Z"/><path stroke="#30275B" stroke-linecap="round" stroke-linejoin="round" d="M414.208 26.783v80.807h-122.3v-5.277M291.908 89.96V22.106h122.3M291.908 98.27v-5.128M393.559 113.651h26.916M383.984 113.651h3.814M285.641 113.651h93.792"/><path stroke="#30275B" stroke-linecap="round" stroke-linejoin="round" d="M346.283 107.59v-2.788h11.269v1.59h-4.494v1.198M285.869 186.473s1.867 1.418 3.18 9.979c0 0 2.27-13.677 5.013-13.896 2.742-.219 2.189 8.907 2.189 8.907s.461-4.494 2.604-4.287c2.155.208 0 9.276 0 9.276s2.581-7.064 5.024-6.948c2.442.115-1.625 12.813-1.625 12.813s6.268-4.54 8.815-2.316c2.535 2.223-1.406 7.823-1.406 7.823s8.988-1.947 10.393 3.33M320.045 206.026s3.918-2.569 6.994-1.371c0 0-1.959-2.984 0-4.816 1.959-1.832 4.482 4.816 4.482 4.816s.277-11.119 4.194-10.566c3.918.565 0 10.566 0 10.566s6.995-6.211 8.677-4.044c1.682 2.166-1.118 5.415-1.118 5.415s4.194-1.336 7.282 1.786c0 0 4.69-4.782 9.91-5.473 0 0-3.469-10.071-1.786-12.099 1.682-2.028 4.735 8.781 4.735 8.781s1.337-7.029 5.716-7.582c0 0-3.641-1.982-2.57-4.989 1.072-3.008 6.119.702 6.119.702s-2.075-5.288 1.209-6.74c3.273-1.452 4.644 4.424 4.644 4.424s.91-6.153 4.759-5.818c3.825.334 2.604 7.42 2.604 7.42s3.629-5.634 5.577-5.058c3.883 1.152 2.707 10.047 2.707 10.047s5.427-3.768 6.822-2.028c1.509 1.867-5.646 6.695-5.646 6.695s5.381.599 8.734 3.733"/><path stroke="#30275B" stroke-linecap="round" stroke-linejoin="round" d="M420.474 188.501s-.622-5.646-6.268-5.945c-5.646-.3 1.556 12.386 1.556 12.386s-4.655-3.86-6.338-2.673c-1.67 1.187 4.782 7.72 4.782 7.72s-3.099-2.869-6.36-1.982c-3.261.887 1.866 9.979 1.866 9.979s-6.798-1.786-14.357 1.682M227.969 363.468v50.146M227.969 347.06v10.739M16.877 413.913v-93.447h211.091v20.51"/><path stroke="#30275B" stroke-linecap="round" stroke-linejoin="round" d="M47.631 330.687H29.322v74.654M215.536 413.614v-82.927H58.277M206.756 310.787h-5.818M192.595 310.787H11.635v9.61h221.588v-9.61h-22.757M24.113 249.211s17.342 1.372 18.068 14.162c0 0-17.56 8.088-18.068-14.162ZM58.428 252.392s9.69-13.101 25.35-6.383c0 0-9.565 15.843-25.35 6.383ZM82.44 211.026s2.788 25.2-20.153 18.263c0 0 7.282-18.528 20.153-18.263ZM54.28 197.003s18.148 9.783 4.805 24.635c0 0-12.72-10.6-4.805-24.635ZM31.947 219.518s19.727-1.993 19.727 16.27c0 0-19.727.772-19.727-16.27Z"/><path stroke="#30275B" stroke-linecap="round" stroke-linejoin="round" d="M46.733 273.686c-.288-6.13-.288-14.012 3.456-22.342 8.63-19.22 11.557-35.409 7.04-46.816"/><path stroke="#30275B" stroke-linecap="round" stroke-linejoin="round" d="M38.435 224.427s11.823 4.701 15.844 16.88M76.206 221.108s-6.833 9.31-18.413 8.308M76.206 248.682s-18.92 5.45-26.444 3.664M29.771 254.973s8.458 9.287 16.973 9.137"/><path stroke="#30275B" stroke-miterlimit="10" d="M69.236 273.685H28.111c-.553 0-1.003.449-1.003 1.003v3.122c0 .553.45 1.003 1.003 1.003h1.198l3.664 31.986h31.399l3.664-31.986h1.198c.553 0 1.003-.45 1.003-1.003v-3.122c0-.554-.45-1.003-1.002-1.003Z"/><path stroke="#30275B" stroke-linecap="round" stroke-linejoin="round" d="M31.947 278.813h23.92M60.387 278.813h3.595"/><path fill="#30275B" d="M97.44 413.913s-1.97-7.524.335-10.301c4.136-5.001-.507-9.195 3.641-10.935l1.74 2.017c.334-2.051-.634-8.273 7.063-9.092 9.31-.979 9.483 5.796 9.979 8.02l-.15-3.122c3.964 0 1.913 3.963 7.927 10.439 4.586 4.943 4.598 11.28 4.344 12.963h-34.89l.012.011ZM168.43 413.913c-3.745-1.671-.3-15.786-.3-15.786s-5.035-3.387 0-6.89c0 0 5.635 5.473 14.3 2.328 0 0 .979-9.449 6.89-8.239 0 0 1.521 5.992 4.978 9.402 9.391 9.264 21.535 10.324 23.563 14.795.611 1.337-.126 4.39-.126 4.39H168.43Z"/><path fill="url(#d)" stroke="#30275B" stroke-linecap="round" stroke-linejoin="round" d="m152.415 188.626 4.621 9.76s19.058 39.395 30.73 84.494c.277 1.071 6.315 22.434 1.475 75.633l2.765 9.333-3.018 15.417s4.539 6.557 4.378 8.7c0 0-11.2 2.085-14.921 4.09-2.904 1.567-11.627 10.175-11.627 10.175-2.477-.507-2.684-10.52-2.684-10.52s-5.185-88.804-6.66-92.629c-1.475-3.826-10.578-20.326-24.739-58.085 0 0-.323 52.738-4.102 66.081-3.365 11.868.622 45.088.622 45.088l-2.27 36.975s7.974 8.285 1.51 10.509c0 0-4.321-8.308-16.627-10.198-6.257-.956-14.058 10.152-14.058 10.152-2.73-.876 1.164-14.83 1.164-14.83-8.722-65.816-2.281-53.902-4.021-86.073-1.118-20.648-6.983-108.979-.104-116.157l57.601 2.085h-.035Z"/><path fill="#000" d="M91.52 219.045c30.799 2.431 57.485-7.651 69.054-12.917-2.19-4.943-3.549-7.731-3.549-7.731l-4.621-9.76-57.6-2.085c-2.478 2.581-3.296 15.751-3.284 32.493ZM132.967 245.686c14.023 37.275 23.022 53.59 24.497 57.404.841 2.201 2.903 32.355 4.516 57.67 1.855-23.022 3.745-47.322 3.918-52.093.346-9.483-6.51-22.503-7.547-25.868-1.037-3.353 1.302-7.005 1.302-7.005l-12.341-15.556c.415-5.277-6.107-28.31-6.107-28.31-3.883 3.675-7.305 11.499-8.227 13.746l-.011.012Z" opacity=".2"/><path stroke="#30275B" stroke-linecap="round" stroke-linejoin="round" d="m152.415 188.626 4.621 9.76s19.058 39.395 30.73 84.494c.277 1.071 6.315 22.434 1.475 75.633l2.765 9.333-3.018 15.417s4.539 6.557 4.378 8.7c0 0-11.2 2.085-14.921 4.09-2.904 1.567-11.627 10.175-11.627 10.175-2.477-.507-2.684-10.52-2.684-10.52s-5.185-88.804-6.66-92.629c-1.475-3.826-10.578-20.326-24.739-58.085 0 0-.323 52.738-4.102 66.081-3.365 11.868.622 45.088.622 45.088l-2.27 36.975s7.974 8.285 1.51 10.509c0 0-4.321-8.308-16.627-10.198-6.257-.956-14.058 10.152-14.058 10.152-2.73-.876 1.164-14.83 1.164-14.83-8.722-65.816-2.281-53.902-4.021-86.073-1.118-20.648-6.983-108.979-.104-116.157l57.601 2.085h-.035Z"/><path stroke="#30275B" stroke-linecap="round" stroke-linejoin="round" d="M132.713 245.006s7.04-13.597 13.043-17.376M148.394 223.228s-21.385 6.51-28.794 7.766"/><path stroke="#30275B" stroke-linecap="round" stroke-linejoin="round" d="M137.447 201.405c.922 17.802 7.202 20.844 1.13 24.727 0 0 .161 8.331-2.847 13.608M99.966 194.595s2.523 27.366-5.9 32.516"/><path stroke="#30275B" stroke-linecap="round" stroke-linejoin="round" d="M94.077 203.421s-.634 18.217 0 32.897c0 0 2.108 62.048 4.205 69.837 2.109 7.789-3.237 19.554-2.777 53.245M114.288 385.799c-1.993-.381-4.102-.208-5.899.783M126.951 393.15c-2.639-2.524-5.715-4.736-9.068-6.211M123.425 249.304c-4.724 5.289-12.202 15.278-19.876 16.131M130.707 240.685a199.31 199.31 0 0 1-4.471 5.416M123.967 302.698s-10.739 14.622-16.627 15.464M136.607 242.367s19.128 53.269 25.776 58.534c0 0 .761 39.165.968 52.842.207 13.689 3.365 31.871 3.365 31.871M187.131 385.211s-7.374 2.546-10.946 4.171c-3.583 1.625-4.839 5.208-4.839 5.208"/><path stroke="#30275B" stroke-linecap="round" stroke-linejoin="round" d="M168.501 281.682c-10.278-6.453-23.805-14.495-29.267-25.845M177.443 287.005a166.993 166.993 0 0 1-5.75-3.342M145.1 208.607c-5.52-.081-11.569-.807-16.282-3.918M153.868 208.088a54.878 54.878 0 0 1-4.77.438"/><path fill="#30275B" d="M164.098 85.766c-4.217-6.384-25.706-8.009-39.498-8.009-13.793 0-30.535-2.327-38.094 13.251-5.772 11.88 7.513 74.7 7.513 74.7l-3.26 27.124c24.98 7.835 67.786 6.107 67.786 6.107l-5.762-24.52s15.533-82.27 11.315-88.653Z"/><path fill="#DCD5F7" stroke="#30275B" stroke-linecap="round" stroke-linejoin="round" d="M116.418 61.982s1.855 14.784-3.779 17.975c0 0 2.811 10.843 12.651 11.511 9.84.669 14.242-9.932 14.242-9.932l-23.125-19.554h.011Z"/><path fill="url(#e)" d="m168.735 23.991 25.185-2.323a2.164 2.164 0 0 1 2.356 1.959l1.662 18.013-29.499 2.721-1.662-18.013a2.164 2.164 0 0 1 1.958-2.357Z"/><mask id="f" width="32" height="24" x="166" y="21" maskUnits="userSpaceOnUse" style="mask-type:luminance"><path fill="#fff" d="m168.735 23.991 25.185-2.323a2.164 2.164 0 0 1 2.356 1.959l1.662 18.013-29.499 2.721-1.662-18.013a2.164 2.164 0 0 1 1.958-2.357Z"/></mask><g fill="#000" mask="url(#f)"><path d="m168.735 23.991 25.185-2.323a2.164 2.164 0 0 1 2.356 1.959l1.662 18.013-29.499 2.721-1.662-18.013a2.164 2.164 0 0 1 1.958-2.357Z" opacity=".3"/><path d="m194.669 23.512-7.263.67 1.34 14.525 7.263-.67-1.34-14.525Z" opacity=".3"/></g><path stroke="#30275B" stroke-linecap="round" stroke-linejoin="round" d="m168.735 23.991 25.185-2.323a2.164 2.164 0 0 1 2.356 1.959l1.662 18.013-29.499 2.721-1.662-18.013a2.164 2.164 0 0 1 1.958-2.357Z"/><path fill="url(#g)" d="m212.347 19.98 25.184-2.323a2.163 2.163 0 0 1 2.356 1.958l1.662 18.014-29.499 2.72-1.662-18.013a2.164 2.164 0 0 1 1.959-2.356Z"/><mask id="h" width="32" height="24" x="210" y="17" maskUnits="userSpaceOnUse" style="mask-type:luminance"><path fill="#fff" d="m212.347 19.98 25.184-2.323a2.163 2.163 0 0 1 2.356 1.958l1.662 18.014-29.499 2.72-1.662-18.013a2.164 2.164 0 0 1 1.959-2.356Z"/></mask><g fill="#000" mask="url(#h)"><path d="m212.347 19.98 25.184-2.323a2.163 2.163 0 0 1 2.356 1.958l1.662 18.014-29.499 2.72-1.662-18.013a2.164 2.164 0 0 1 1.959-2.356Z" opacity=".3"/><path d="m237.791 19.547-4.383.404 1.34 14.526 4.383-.404-1.34-14.526Z" opacity=".3"/></g><path stroke="#30275B" stroke-linecap="round" stroke-linejoin="round" d="m212.347 19.98 25.184-2.323a2.163 2.163 0 0 1 2.356 1.958l1.662 18.014-29.499 2.72-1.662-18.013a2.164 2.164 0 0 1 1.959-2.356Z"/><path fill="url(#i)" stroke="#30275B" stroke-linecap="round" stroke-linejoin="round" d="m203.153 20.832 25.185-2.323a2.164 2.164 0 0 1 2.356 1.958l1.662 18.014-29.499 2.72-1.662-18.013a2.164 2.164 0 0 1 1.958-2.356Z"/><path fill="url(#j)" stroke="#30275B" stroke-linecap="round" stroke-linejoin="round" d="m246.764 16.798 25.185-2.323a2.163 2.163 0 0 1 2.356 1.958l1.662 18.014-29.499 2.72-1.662-18.013a2.164 2.164 0 0 1 1.958-2.356Z"/><path fill="#000" d="m229.087 20.353-7.263.67 1.34 14.526 7.263-.67-1.34-14.526ZM272.22 16.362l-7.263.67 1.34 14.526 7.263-.67-1.34-14.526Z" opacity=".3"/><path fill="url(#k)" d="m288.495 29.052 7.639 82.823-133.453 12.318-7.639-82.824a5.238 5.238 0 0 1 4.736-5.703l123.013-11.35a5.237 5.237 0 0 1 5.704 4.736Z"/><mask id="l" width="142" height="101" x="155" y="24" maskUnits="userSpaceOnUse" style="mask-type:luminance"><path fill="#fff" d="m288.495 29.052 7.639 82.823-133.453 12.318-7.639-82.824a5.238 5.238 0 0 1 4.736-5.703l123.013-11.35a5.237 5.237 0 0 1 5.704 4.736Z"/></mask><g mask="url(#l)"><path fill="#000" d="m288.495 29.052 7.639 82.823-133.453 12.318-7.639-82.824a5.238 5.238 0 0 1 4.736-5.703l123.013-11.35a5.237 5.237 0 0 1 5.704 4.736Z" opacity=".3"/></g><path stroke="#30275B" stroke-linecap="round" stroke-linejoin="round" d="m288.495 29.052 7.639 82.823-133.453 12.318-7.639-82.824a5.238 5.238 0 0 1 4.736-5.703l123.013-11.35a5.237 5.237 0 0 1 5.704 4.736Z"/><path fill="url(#m)" stroke="#30275B" stroke-linecap="round" stroke-linejoin="round" d="m288.494 29.052 7.639 82.823-99.024 9.137-7.639-82.823a5.238 5.238 0 0 1 4.735-5.704l88.585-8.17a5.237 5.237 0 0 1 5.704 4.737Z"/><path fill="#000" d="m282.065 32.612-84.655 7.813a2.16 2.16 0 0 1-2.351-1.96 2.152 2.152 0 0 1 1.959-2.35l84.655-7.812a2.16 2.16 0 0 1 2.351 1.959 2.16 2.16 0 0 1-1.959 2.35Z" opacity=".3"/><path fill="#30275B" d="M133.31 32.67s-19.531-3.918-21.72 8.653c-2.19 12.571 4.977 17.918 4.977 17.918l16.731-26.571h.012Z"/><path fill="#DCD5F7" d="M116.613 66.143c-2.005-5.6-2.731-12.191-1.002-19.462 1.912-8.077 11.534-19.161 26.098-9.08 7.513 5.197 7.962 16.478 5.635 26.802-.554 2.466-.139 4.874-.957 7.132-2.88 7.95-8.146 14.07-11.027 14.219-4.816.23-14.426-5.577-14.023-10.647"/><path stroke="#30275B" stroke-linecap="round" stroke-linejoin="round" d="M116.613 66.143c-2.005-5.6-2.731-12.191-1.002-19.462 1.912-8.077 11.534-19.161 26.098-9.08 7.513 5.197 7.962 16.478 5.635 26.802-.554 2.466-.139 4.874-.957 7.132-2.88 7.95-8.146 14.07-11.027 14.219-4.816.23-14.426-5.577-14.023-10.647"/><path stroke="#30275B" stroke-linecap="round" stroke-linejoin="round" d="M136.017 62.49s-3.883-2.81-7.617-.506M143.357 61.983s2.939-2.696 4.851-2.316"/><path fill="#30275B" d="M130.533 66.8c0 .714.369 1.29.818 1.29.45 0 .818-.576.818-1.29 0-.715-.368-1.291-.818-1.291-.449 0-.818.576-.818 1.29ZM143.357 67.376c.452 0 .818-.578.818-1.29 0-.713-.366-1.291-.818-1.291-.452 0-.818.578-.818 1.29 0 .713.366 1.291.818 1.291Z"/><path stroke="#30275B" stroke-linecap="round" stroke-linejoin="round" d="M141.71 64.702c-1.441 1.867.576 8.988 0 9.483-.576.507-4.241-.933-4.241-.933s-.864-1.083.934-1.648M138.392 77.757s-4.92 0-6.234-1.786"/><path fill="url(#n)" stroke="#30275B" stroke-linecap="round" stroke-linejoin="round" d="m126.673 51.128-.38 5.946s-4.217 2.178-5.266 4.39c-1.048 2.212-.668 4.62-.668 4.62s-2.558-4.47-3.929-4.102c-.496.139-.496 2.005-.496 2.005s-5.727-12.847-.553-19.657c5.174-6.81 11.315 6.81 11.315 6.81l-.023-.012Z"/><path fill="#DCD5F7" d="M118.548 64.794s-1.152-4.31-5.035-5.461c-3.883-1.153-1.221 9.194 2.086 10.566 3.306 1.37 4.136 2.304 4.332 1.083"/><path stroke="#30275B" stroke-linecap="round" stroke-linejoin="round" d="M118.548 64.794s-1.152-4.31-5.035-5.461c-3.883-1.153-1.221 9.194 2.086 10.566 3.306 1.37 4.136 2.304 4.332 1.083"/><path fill="#30275B" d="M113.26 50.38c-.323-.438-1.74-11.5 5.565-16.5 7.317-5 19.681-4.448 27.562 2.443 7.87 6.89 5.623 18.839 0 22.918v-4.99s-2.593 5.002-10.37 5.416l2.373-3.664s-3.813 2.247-10.566 2.109c0 0 3.169-2.535 2.708-4.782 0 0-10.704 6.026-17.272-2.961v.011Z"/><path fill="#DCD5F7" stroke="#30275B" stroke-linecap="round" stroke-linejoin="round" d="M114.631 90.34c-5.392.645-13.055 7.685-8.031 20.187 3.192 7.928 29.417 3.215 29.417 3.215 9.725-3.998 23.932-18.436 34.36-25.13 0 0-2.201-13.816-4.736-11.869-11.776 9.022-21.478 9.645-37.909 17.549 0 0-9.702-4.356-13.089-3.952h-.012Z"/><path fill="#DCD5F7" d="M126.673 105.688c-.162 5.162 1.958 6.072 5.53 7.294Z"/><path stroke="#30275B" stroke-linecap="round" stroke-linejoin="round" d="M126.673 105.688c-.162 5.162 1.958 6.072 5.53 7.294"/><path fill="#DCD5F7" d="M164.824 77.757c.242-.749 4.563-8.411 5.842-10.37 1.279-1.959 6.741-3.71 8.872-4.886 2.132-1.175 2.282-2.96 3.492-1.682 1.21 1.28 0 4.194-6.384 7.294 0 0 5.093.242 6.799 0 1.705-.242 3.226-1.798 3.986-.715.761 1.084.911 2.996-2.892 4.16-3.802 1.175-5.623 1.106-5.623 1.106s4.863 1.141 5.473 1.59c.611.45 1.521 1.498 2.432 1.66.91.16 1.901 1.175.23 2.362s-3.872.08-3.872.08 4.402 2.132 3.042 3.492c-1.371 1.37-5.772 1.06-5.772 1.06s-6.534 7.904-12.007 6.233"/><path stroke="#30275B" stroke-linecap="round" stroke-linejoin="round" d="M164.824 77.757c.242-.749 4.563-8.411 5.842-10.37 1.279-1.959 6.741-3.71 8.872-4.886 2.132-1.175 2.282-2.96 3.492-1.682 1.21 1.28 0 4.194-6.384 7.294 0 0 5.093.242 6.799 0 1.705-.242 3.226-1.798 3.986-.715.761 1.084.911 2.996-2.892 4.16-3.802 1.175-5.623 1.106-5.623 1.106s4.863 1.141 5.473 1.59c.611.45 1.521 1.498 2.432 1.66.91.16 1.901 1.175.23 2.362s-3.872.08-3.872.08 4.402 2.132 3.042 3.492c-1.371 1.37-5.772 1.06-5.772 1.06s-6.534 7.904-12.007 6.233"/><path stroke="#30275B" stroke-linecap="round" stroke-linejoin="round" d="M172.625 67.376s1.21.172 1.59 1.532c.38 1.371 1.487 1.44 2.178 2.961.691 1.521.484 3.883 1.164 4.678.679.795 0 4.218 0 4.218"/><path stroke="#DCD5F7" stroke-linecap="round" stroke-linejoin="round" d="M115.774 89.36c-2.823-3.595-9.161-1.97-9.161-1.97"/><path stroke="#DCD5F7" stroke-linecap="round" stroke-linejoin="round" d="M103.156 80.765s6.522.957 8.446 6.384M114.633 115.124s-6.36 4.921-16.04-2.154"/><path stroke="#DCD5F7" stroke-linecap="round" stroke-linejoin="round" d="M106.612 116.611s-3.227 4.459-11.096 4.401M147.022 172.714s-16.638 13.251-33.542 11.557M102.049 143.573s25.833 18.943 44.972 20.153"/><path fill="#30275B" d="m322.487 146.202-4.655 25.061-37.586 22.838 5.197 9.54s43.451-13.262 44.511-16.35c1.049-3.1 11.085-35.927 11.085-35.927l-18.54-5.162h-.012Z"/><path fill="url(#o)" stroke="#30275B" stroke-linecap="round" stroke-linejoin="round" d="m338.895 103.845-2.511 30.373-1.326 15.936c-7.247 3.526-14.333-1.775-14.771-2.12-.012-.012-.023-.012-.023-.012 2.039-5.772 4.332-38.416 18.631-44.177Z"/><path fill="#30275B" d="m336.384 134.218-1.325 15.936c-7.248 3.526-14.334-1.775-14.772-2.12.311.138 4.125 1.751 6.602-.012 0 0-2.131-2.431-2.281-3.042-.15-.599 2.281-.76 2.281-.76s-1.613-12.917 2.685-18.378c1.682-2.144 4.31 2.235 6.81 8.376Z"/><path fill="url(#p)" stroke="#30275B" stroke-linecap="round" stroke-linejoin="round" d="m364.983 385.12 1.198 3.376s-2.777 4.667-5.853 8.239c0 0-1.187-.381-3.042 1.29-1.867 1.671-2.028 4.333-2.028 4.333s-8.792 10.554-19.969 10.704c-11.176.15-7.8-5.473-7.8-5.473l37.494-22.481v.012Z"/><path fill="#DCD5F7" d="M354.486 358.261s-14.968-5.519-17.918 5.52c0 0 2.673 12.156 1.072 18.804-1.602 6.637-9.656 19.347-10.163 21.766-.979 4.713-.242 5.036-.242 5.036s5.865 3.387 13.746-.242c7.87-3.63 21.524-19.254 23.656-22.469 2.143-3.215-6.683-15.936-6.683-15.936l-3.48-12.479h.012Z"/><mask id="q" width="39" height="55" x="326" y="356" maskUnits="userSpaceOnUse" style="mask-type:luminance"><path fill="#fff" d="M354.486 358.261s-14.968-5.519-17.918 5.52c0 0 2.673 12.156 1.072 18.804-1.602 6.637-9.656 19.347-10.163 21.766-.979 4.713-.242 5.036-.242 5.036s5.865 3.387 13.746-.242c7.87-3.63 21.524-19.254 23.656-22.469 2.143-3.215-6.683-15.936-6.683-15.936l-3.48-12.479h.012Z"/></mask><g mask="url(#q)"><path fill="url(#r)" d="M354.486 358.261s-14.968-5.519-17.918 5.52c0 0 2.673 12.156 1.072 18.804-1.602 6.637-9.656 19.347-10.163 21.766-.979 4.713-.242 5.036-.242 5.036s5.865 3.387 13.746-.242c7.87-3.63 21.524-19.254 23.656-22.469 2.143-3.215-6.683-15.936-6.683-15.936l-3.48-12.479h.012Z" opacity=".4"/></g><path stroke="#30275B" stroke-linecap="round" stroke-linejoin="round" d="M354.486 358.261s-14.968-5.519-17.918 5.52c0 0 2.673 12.156 1.072 18.804-1.602 6.637-9.656 19.347-10.163 21.766-.979 4.713-.242 5.036-.242 5.036s5.865 3.387 13.746-.242c7.87-3.63 21.524-19.254 23.656-22.469 2.143-3.215-6.683-15.936-6.683-15.936l-3.48-12.479h.012Z"/><path stroke="#30275B" stroke-linecap="round" stroke-linejoin="round" d="M346.823 373.875s2.489 11.026-3.745 21.673"/><path fill="url(#s)" stroke="#30275B" stroke-linecap="round" stroke-linejoin="round" d="M343.078 398.417s-1.602 4.563-6.418 5.923c-4.816 1.359-9.183 0-9.183 0l3.595-7.294s5.219 2.397 11.994 1.36l.012.011Z"/><path stroke="#30275B" stroke-linecap="round" stroke-linejoin="round" d="M345.187 394.027s-7.835.473-11.925-1.129M346.639 389.706s-7.328 1.118-11.418-1.198M347.895 384.901s-6.418.933-10.612-1.048M348.598 379.463s-7.144 2.235-10.52 0"/><path fill="url(#t)" stroke="#30275B" stroke-linecap="round" stroke-linejoin="round" d="m349.67 366.027 1.244 7.847s-9.448 6.234-15.693-1.544l.023-8.192s2.316 5.519 14.414 1.889h.012Z"/><path fill="#30275B" d="M341.466 189.872c-9.576 30.338-39.292 78.998-36.273 91.442 1.648 6.798 11.453 45.329 19.116 62.267 2.926 6.464 9.218 10.785 9.218 10.785l4.551 9.76c11.096 4.828 15.071-5.001 15.071-5.001l-2.235-11.061c5.945-10.808 3.411-10.808-4.275-66.831-.91-6.602 14.403-27.008 14.403-27.008l7.87 51.321 1.279 42.057 4.09 12.997s1.003 12.202.922 12.94h18.229l2.016-13.412s8.469-7.985 8.469-17.203-1.82-56.172 0-69.849c1.821-13.678-4.275-77.443-4.275-77.443l-58.176-5.773v.012Z"/><path fill="url(#u)" d="m217.602 160.704 25.199 2.165a2.163 2.163 0 0 1 1.972 2.344l-1.548 18.024-29.515-2.536 1.548-18.024a2.165 2.165 0 0 1 2.344-1.973Z"/><mask id="v" width="32" height="24" x="213" y="160" maskUnits="userSpaceOnUse" style="mask-type:luminance"><path fill="#fff" d="m217.602 160.704 25.199 2.165a2.163 2.163 0 0 1 1.972 2.344l-1.548 18.024-29.515-2.536 1.548-18.024a2.165 2.165 0 0 1 2.344-1.973Z"/></mask><g fill="#000" mask="url(#v)"><path d="m217.602 160.704 25.199 2.165a2.163 2.163 0 0 1 1.972 2.344l-1.548 18.024-29.515-2.536 1.548-18.024a2.165 2.165 0 0 1 2.344-1.973Z" opacity=".3"/><path d="m243.208 164.824-7.267-.624-1.248 14.534 7.267.624 1.248-14.534Z" opacity=".3"/></g><path stroke="#30275B" stroke-linecap="round" stroke-linejoin="round" d="m217.602 160.704 25.199 2.165a2.163 2.163 0 0 1 1.972 2.344l-1.548 18.024-29.515-2.536 1.548-18.024a2.165 2.165 0 0 1 2.344-1.973Z"/><path fill="url(#w)" d="m261.215 164.459 25.199 2.165a2.163 2.163 0 0 1 1.973 2.343l-1.549 18.024-29.515-2.535 1.548-18.024a2.164 2.164 0 0 1 2.344-1.973Z"/><mask id="x" width="32" height="23" x="257" y="164" maskUnits="userSpaceOnUse" style="mask-type:luminance"><path fill="#fff" d="m261.215 164.459 25.199 2.165a2.163 2.163 0 0 1 1.973 2.343l-1.549 18.024-29.515-2.535 1.548-18.024a2.164 2.164 0 0 1 2.344-1.973Z"/></mask><g fill="#000" mask="url(#x)"><path d="m261.215 164.459 25.199 2.165a2.163 2.163 0 0 1 1.973 2.343l-1.549 18.024-29.515-2.535 1.548-18.024a2.164 2.164 0 0 1 2.344-1.973Z" opacity=".3"/><path d="m286.344 168.526-4.385-.377-1.249 14.534 4.386.377 1.248-14.534Z" opacity=".3"/></g><path stroke="#30275B" stroke-linecap="round" stroke-linejoin="round" d="m261.215 164.459 25.199 2.165a2.163 2.163 0 0 1 1.973 2.343l-1.549 18.024-29.515-2.535 1.548-18.024a2.164 2.164 0 0 1 2.344-1.973Z"/><path fill="url(#y)" stroke="#30275B" stroke-linecap="round" stroke-linejoin="round" d="m252.029 163.664 25.199 2.165a2.164 2.164 0 0 1 1.973 2.344l-1.548 18.024-29.516-2.536 1.549-18.024a2.163 2.163 0 0 1 2.343-1.973Z"/><path fill="url(#z)" stroke="#30275B" stroke-linecap="round" stroke-linejoin="round" d="m295.656 167.419 25.199 2.165a2.162 2.162 0 0 1 1.973 2.343l-1.548 18.024-29.516-2.535 1.549-18.024a2.162 2.162 0 0 1 2.343-1.973Z"/><path fill="#000" d="m277.65 167.784-7.267-.624-1.249 14.534 7.267.624 1.249-14.534ZM320.798 171.488l-7.267-.625-1.248 14.534 7.267.624 1.248-14.533Z" opacity=".3"/><path fill="url(#A)" d="m334.551 186.876-7.121 82.869-133.522-11.476 7.121-82.869c.254-2.892 2.789-5.024 5.669-4.771l123.083 10.578c2.881.253 5.024 2.777 4.77 5.669Z"/><mask id="B" width="142" height="100" x="193" y="170" maskUnits="userSpaceOnUse" style="mask-type:luminance"><path fill="#fff" d="m334.551 186.876-7.121 82.869-133.522-11.476 7.121-82.869c.254-2.892 2.789-5.024 5.669-4.771l123.083 10.578c2.881.253 5.024 2.777 4.77 5.669Z"/></mask><g mask="url(#B)"><path fill="#000" d="m334.551 186.876-7.121 82.869-133.522-11.476 7.121-82.869c.254-2.892 2.789-5.024 5.669-4.771l123.083 10.578c2.881.253 5.024 2.777 4.77 5.669Z" opacity=".3"/></g><path stroke="#30275B" stroke-linecap="round" stroke-linejoin="round" d="m334.551 186.876-7.121 82.869-133.522-11.476 7.121-82.869c.254-2.892 2.789-5.024 5.669-4.771l123.083 10.578c2.881.253 5.024 2.777 4.77 5.669Z"/><path fill="url(#C)" stroke="#30275B" stroke-linecap="round" stroke-linejoin="round" d="m334.552 186.877-7.121 82.869-99.081-8.515 7.12-82.869a5.234 5.234 0 0 1 5.67-4.771l88.642 7.617c2.88.253 5.024 2.777 4.77 5.669Z"/><path fill="#000" d="m327.604 189.25-84.702-7.282a2.167 2.167 0 0 1-1.97-2.34 2.167 2.167 0 0 1 2.339-1.97l84.702 7.282a2.167 2.167 0 0 1 1.97 2.339 2.167 2.167 0 0 1-2.339 1.971Z" opacity=".3"/><path fill="#DCD5F7" d="M394.018 374.024s-6.384-4.563-19.6-3.641c0 0-.957 15.843-2.754 20.452-1.798 4.609-11.269 12.594-13.032 13.954-1.763 1.371-1.763 6.153-1.763 6.153h40.11s-.68-10.601-3.192-20.349l.231-16.58v.011Z"/><mask id="D" width="41" height="41" x="356" y="370" maskUnits="userSpaceOnUse" style="mask-type:luminance"><path fill="#fff" d="M394.018 374.024s-6.384-4.563-19.6-3.641c0 0-.957 15.843-2.754 20.452-1.798 4.609-11.269 12.594-13.032 13.954-1.763 1.371-1.763 6.153-1.763 6.153h40.11s-.68-10.601-3.192-20.349l.231-16.58v.011Z"/></mask><g mask="url(#D)"><path fill="url(#E)" d="M394.018 374.024s-6.384-4.563-19.6-3.641c0 0-.957 15.843-2.754 20.452-1.798 4.609-11.269 12.594-13.032 13.954-1.763 1.371-1.763 6.153-1.763 6.153h40.11s-.68-10.601-3.192-20.349l.231-16.58v.011Z" opacity=".4"/></g><path stroke="#30275B" stroke-linecap="round" stroke-linejoin="round" d="M394.018 374.024s-6.384-4.563-19.6-3.641c0 0-.957 15.843-2.754 20.452-1.798 4.609-11.269 12.594-13.032 13.954-1.763 1.371-1.763 6.153-1.763 6.153h40.11s-.68-10.601-3.192-20.349l.231-16.58v.011Z"/><path stroke="#30275B" stroke-linecap="round" stroke-linejoin="round" d="M385.733 376.075s-.945 14.587-3.215 18.39c-2.258 3.802-4.448 5.772-4.448 5.772"/><path fill="url(#F)" stroke="#30275B" stroke-linecap="round" stroke-linejoin="round" d="M376.93 402.288s-2.016 2.512-4.251 2.847c-2.247.345-14.046-.346-14.046-.346l4.816-4.16s9.84-1.647 13.481 1.659Z"/><path stroke="#30275B" stroke-linecap="round" stroke-linejoin="round" d="M381.147 398.866s-8.55-4.92-14.645-1.21M383.21 395.536s-5.969-4.666-13.009-2.108M385.734 390.455s-6.43-4.989-13.205-1.809M386.608 384.106s-7.789-4.194-13.469-1.014"/><path fill="url(#G)" stroke="#30275B" stroke-linecap="round" stroke-linejoin="round" d="M396.979 410.953v2.962h-4.598s-3.952-2.282-7.708 0h-21.651c-3.756 0-6.614-1.487-6.614-1.487l.461-1.486h40.11v.011Z"/><path fill="url(#H)" stroke="#30275B" stroke-linecap="round" stroke-linejoin="round" d="m391.229 373.113-1.026 6.453s-12.041-3.906-18.689-1.371v-7.951s12.386-4.355 19.715 2.858v.011Z"/><path fill="url(#I)" d="M404.25 212.041s-25.591 5.012-50.687-3.122c-5.542-1.798-11.073-4.241-16.293-7.525 0 0 .069-1.613.115-4.251.208-10.302.15-36.215-5.277-42.68-3.411-4.044-6.165-29.048.507-41.688l20.406-16.408c28.253 5.519 34.222 12.998 38.889 29.129.864 2.95 1.67 6.188 2.569 9.759.979 3.895 1.901 8.654 2.777 13.885 4.24 25.787 6.994 62.901 6.994 62.901Z"/><mask id="J" width="77" height="118" x="328" y="96" maskUnits="userSpaceOnUse" style="mask-type:luminance"><path fill="#fff" d="M404.25 212.041s-25.591 5.012-50.687-3.122c-5.542-1.798-11.073-4.241-16.293-7.525 0 0 .069-1.613.115-4.251.208-10.302.15-36.215-5.277-42.68-3.411-4.044-6.165-29.048.507-41.688l20.406-16.408c28.253 5.519 34.222 12.998 38.889 29.129.864 2.95 1.67 6.188 2.569 9.759.979 3.895 1.901 8.654 2.777 13.885 4.24 25.787 6.994 62.901 6.994 62.901Z"/></mask><g mask="url(#J)"><path fill="#000" d="m397.255 149.14-11.522 51.471s-16.65 4.655-32.171 8.308c-5.542-1.798-11.073-4.241-16.292-7.525 0 0 .069-1.613.115-4.251 13.942-7.133 34.291-17.618 34.129-18.114-.265-.772 0-27.665 0-27.665s18.379-4.275 20.395-25.868c.864 2.95 1.671 6.188 2.57 9.76.979 3.894 1.901 8.653 2.776 13.884Z" opacity=".2"/></g><path stroke="#30275B" stroke-linecap="round" stroke-linejoin="round" d="M404.25 212.041s-25.591 5.012-50.687-3.122c-5.542-1.798-11.073-4.241-16.293-7.525 0 0 .069-1.613.115-4.251.208-10.302.15-36.215-5.277-42.68-3.411-4.044-6.165-29.048.507-41.688l20.406-16.408c28.253 5.519 34.222 12.998 38.889 29.129.864 2.95 1.67 6.188 2.569 9.759.979 3.895 1.901 8.654 2.777 13.885 4.24 25.787 6.994 62.901 6.994 62.901Z"/><path fill="#DCD5F7" stroke="#30275B" stroke-linecap="round" stroke-linejoin="round" d="M353.943 74.89s-9.011 12.904 2.973 22.975c0 0-14.542 16.327-19.323 14.08-2.017-.944 0-6.832 0-6.832l-8.435-15.59 24.785-14.61v-.024Z"/><path fill="#DCD5F7" d="M350.983 81.515c2.823-12.295 1.463-30.604-15.763-28.98-12.075 1.141-20.683 7.825-17.33 24.025 1.418 6.844 2.582 16.523 8.85 25.246 1.74 2.419 19.945-6.142 18.85-13.067"/><path stroke="#30275B" stroke-linecap="round" stroke-linejoin="round" d="M350.983 81.515c2.823-12.295 1.463-30.604-15.763-28.98-12.075 1.141-20.683 7.825-17.33 24.025 1.418 6.844 2.582 16.523 8.85 25.246 1.74 2.419 19.945-6.142 18.85-13.067"/><path stroke="#30275B" stroke-linecap="round" stroke-linejoin="round" d="M326.336 73.887s3.618-1.659 7.478.726M317.672 75.397s.576-1.567 2.592-1.187"/><path fill="#DCD5F7" d="M321.98 77.954s-3.549 6.464-3.56 7.386c0 .921 4.367 1.22 4.367 1.22"/><path stroke="#30275B" stroke-linecap="round" stroke-linejoin="round" d="M321.98 77.954s-3.549 6.464-3.56 7.386c0 .921 4.367 1.22 4.367 1.22"/><path fill="#30275B" d="M329.609 79.291c.023.703-.311 1.279-.749 1.302-.438.011-.807-.541-.83-1.244-.023-.703.312-1.28.749-1.302.438-.012.807.541.83 1.244Z"/><path stroke="#30275B" stroke-linecap="round" stroke-linejoin="round" d="M324.596 91.275s6.821-1.28 8.019-3.676"/><path fill="#30275B" d="m317.625 65.476 5.3-1.544s7.432-3.4 9.011-2.973c1.579.426 4.782 5.415 4.69 8.227 0 0 4.989 4.39 5.623 10.785l1.532-.703s-.081-5.727 3.192-5.612c3.272.116 4.747 4.068 4.517 5.3-.231 1.234-3.791 6.35-3.791 6.35s8.192-1.222 8.469-17.238c.265-16.016-17.342-18.782-25.903-18.09-8.561.691-13.043.484-13.043.484l.484 4.574-3.503.91 2.616 3.192-2.858 1.314 3.676 5.024h-.012Z"/><path stroke="#DCD5F7" stroke-linecap="round" stroke-linejoin="round" d="M347.307 240.593s20.867 5.52 26.513 21.052M356.869 248.937s-11.28 18.77-28.529 28.518M341.027 354.493s6.407-1.44 8.147-3.929M376.701 356.879s6.268-3.25 12.502 0M396.98 269.492s-10.52 27.25-15.843 29.774M350.924 226.813c.288 2.961 12.698 16.685 22.895 22.135M361.49 215.233s2.478 5.427.876 11.58c-1.602 6.153 0 10.209 0 10.209"/><path stroke="#30275B" stroke-linecap="round" stroke-linejoin="round" d="M338.896 158.565s19.393 25.108 40.237 33.346M359.014 117.995s-.069 17.065 12.237 24.762"/><path fill="#DCD5F7" d="M365.939 142.895c-2.604 2.569.242 34.659.242 34.659s-15.14 5.934-19.864 9.748c-4.725 3.814-27.182 12.571-27.182 12.571s-3.457 11.776.864 12.18c4.31.403 48.936-14.807 59.145-20.142 0 0 6.649-39.211 6.603-49.143"/><path stroke="#30275B" stroke-linecap="round" stroke-linejoin="round" d="M365.939 142.895c-2.604 2.569.242 34.659.242 34.659s-15.14 5.934-19.864 9.748c-4.725 3.814-27.182 12.571-27.182 12.571s-3.457 11.776.864 12.18c4.31.403 48.936-14.807 59.145-20.142 0 0 6.649-39.211 6.603-49.143"/><path fill="#DCD5F7" d="M320.91 199.159c-2.074-.392-5.716-1.751-7.697-1.302-1.971.461-5.474 2.581-9.115 3.491-3.641.911-2.131 2.282 0 2.731 2.132.461 4.713 0 4.713 0l-2.95 2.892s-4.678 2.432-5.254 2.432c-1.06 0-4.862 1.037-4.563 2.65.3 1.613 2.431 1.429 4.863 1.521 0 0-3.872.772-3.492 2.984.265 1.509 4.563.15 6.833.15 0 0-1.82 1.97-.461 2.581 1.36.611 4.367-.91 4.367-.91s-.115 1.636 1.256 1.809c1.371.172 4.782-1.199 7.098-2.57 2.316-1.371 4.39-3.146 6.579-4.862 2.19-1.717 2.985-1.925 2.985-1.925"/><path stroke="#30275B" stroke-linecap="round" stroke-linejoin="round" d="M320.91 199.159c-2.074-.392-5.716-1.751-7.697-1.302-1.971.461-5.474 2.581-9.115 3.491-3.641.911-2.131 2.282 0 2.731 2.132.461 4.713 0 4.713 0l-2.95 2.892s-4.678 2.432-5.254 2.432c-1.06 0-4.862 1.037-4.563 2.65.3 1.613 2.431 1.429 4.863 1.521 0 0-3.872.772-3.492 2.984.265 1.509 4.563.15 6.833.15 0 0-1.82 1.97-.461 2.581 1.36.611 4.367-.91 4.367-.91s-.115 1.636 1.256 1.809c1.371.172 4.782-1.199 7.098-2.57 2.316-1.371 4.39-3.146 6.579-4.862 2.19-1.717 2.985-1.925 2.985-1.925"/><path stroke="#30275B" stroke-linecap="round" stroke-linejoin="round" d="M300.906 213.573s2.282-.138 3.192-.369c.91-.23 1.821-.53 1.821-.53M304.248 216.708s2.581-.381 3.952-1.372M308.166 218.379s1.855-.231 2.881-1.06M306.229 207.812s-.841 1.902 0 2.962c.841 1.06 1.821 1.129 1.971 2.35.149 1.222 2.131 1.153 2.846 1.913.726.761 1.256 2.178 3.537 2.282"/><path fill="url(#K)" d="M364.982 109.606c-7.847 17.757 0 42.392 0 42.392s18.977 6.452 20.763 3.675c1.775-2.788 4.955-16.396 5.496-22.687"/><path stroke="#30275B" stroke-linecap="round" stroke-linejoin="round" d="M364.982 109.606c-7.847 17.757 0 42.392 0 42.392s18.977 6.452 20.763 3.675c1.775-2.788 4.955-16.396 5.496-22.687"/><path stroke="#30275B" stroke-linecap="round" stroke-linejoin="round" d="M385.734 134.956s-8.101 11.096-14.484 11.246"/><path fill="#30275B" d="M102.766 283.802s6.141-3.952 14.576-1.82c8.434 2.132 30.304 33.427 33.346 36.468 3.041 3.042 8.734 4.667 13.976 10.129 8.296 8.653 20.36 16.304 21.582 16.304 1.221 0 2.201-.76 3.722-1.06 1.521-.3 13.296-1.371 13.296-1.371s3.953.875 0 2.569c-3.952 1.694-3.641 3.203-3.641 3.203s-.795 1.279.795 2.489c1.591 1.21 2.524.553 4.794 3.768 2.27 3.215-3.203 1.394-3.203 1.394s1.209 3.48-1.21 3.111c-2.432-.368-.3 3.377-4.252 2.87-3.952-.507-12.41-5.842-14.541-11.431 0 0-34.487-16.488-39.661-20.74-5.162-4.252-26.87-27.043-28.403-27.354"/><path fill="url(#L)" d="M192.998 314.682h25.292c1.198 0 2.166.968 2.166 2.167v18.09h-29.624v-18.09c0-1.199.968-2.167 2.166-2.167Z"/><mask id="M" width="31" height="21" x="190" y="314" maskUnits="userSpaceOnUse" style="mask-type:luminance"><path fill="#fff" d="M192.998 314.682h25.292c1.198 0 2.166.968 2.166 2.167v18.09h-29.624v-18.09c0-1.199.968-2.167 2.166-2.167Z"/></mask><g fill="#000" mask="url(#M)"><path d="M192.998 314.682h25.292c1.198 0 2.166.968 2.166 2.167v18.09h-29.624v-18.09c0-1.199.968-2.167 2.166-2.167Z" opacity=".3"/><path d="M218.866 316.595h-7.294v14.587h7.294v-14.587Z" opacity=".3"/></g><path stroke="#30275B" stroke-linecap="round" stroke-linejoin="round" d="M192.998 314.682h25.292c1.198 0 2.166.968 2.166 2.167v18.09h-29.624v-18.09c0-1.199.968-2.167 2.166-2.167Z"/><path fill="url(#N)" d="M236.783 314.682h25.292c1.199 0 2.166.968 2.166 2.167v18.09h-29.624v-18.09c0-1.199.968-2.167 2.166-2.167Z"/><mask id="O" width="31" height="21" x="234" y="314" maskUnits="userSpaceOnUse" style="mask-type:luminance"><path fill="#fff" d="M236.783 314.682h25.292c1.199 0 2.166.968 2.166 2.167v18.09h-29.624v-18.09c0-1.199.968-2.167 2.166-2.167Z"/></mask><g fill="#000" mask="url(#O)"><path d="M236.783 314.682h25.292c1.199 0 2.166.968 2.166 2.167v18.09h-29.624v-18.09c0-1.199.968-2.167 2.166-2.167Z" opacity=".3"/><path d="M262.155 316.595h-4.401v14.587h4.401v-14.587Z" opacity=".3"/></g><path stroke="#30275B" stroke-linecap="round" stroke-linejoin="round" d="M236.783 314.682h25.292c1.199 0 2.166.968 2.166 2.167v18.09h-29.624v-18.09c0-1.199.968-2.167 2.166-2.167Z"/><path fill="url(#P)" stroke="#30275B" stroke-linecap="round" stroke-linejoin="round" d="M227.567 314.682h25.291c1.199 0 2.167.968 2.167 2.167v18.09H225.4v-18.09c0-1.199.968-2.167 2.167-2.167Z"/><path fill="url(#Q)" stroke="#30275B" stroke-linecap="round" stroke-linejoin="round" d="M271.352 314.682h25.292c1.198 0 2.166.968 2.166 2.167v18.09h-29.624v-18.09c0-1.199.967-2.167 2.166-2.167Z"/><path fill="#000" d="M253.434 316.595h-7.293v14.587h7.293v-14.587ZM296.735 316.595h-7.294v14.587h7.294v-14.587Z" opacity=".3"/><path fill="url(#R)" d="M311.772 330.722v83.18H177.754v-83.18a5.24 5.24 0 0 1 5.243-5.243h123.532a5.24 5.24 0 0 1 5.243 5.243Z"/><mask id="S" width="135" height="89" x="177" y="325" maskUnits="userSpaceOnUse" style="mask-type:luminance"><path fill="#fff" d="M311.772 330.722v83.18H177.754v-83.18a5.24 5.24 0 0 1 5.243-5.243h123.532a5.24 5.24 0 0 1 5.243 5.243Z"/></mask><g mask="url(#S)"><path fill="#000" d="M311.772 330.722v83.18H177.754v-83.18a5.24 5.24 0 0 1 5.243-5.243h123.532a5.24 5.24 0 0 1 5.243 5.243Z" opacity=".3"/></g><path stroke="#30275B" stroke-linecap="round" stroke-linejoin="round" d="M311.772 330.722v83.18H177.754v-83.18a5.24 5.24 0 0 1 5.243-5.243h123.532a5.24 5.24 0 0 1 5.243 5.243Z"/><path fill="url(#T)" stroke="#30275B" stroke-linecap="round" stroke-linejoin="round" d="M311.771 330.722v83.18H212.32v-83.18a5.24 5.24 0 0 1 5.243-5.243h88.965a5.24 5.24 0 0 1 5.243 5.243Z"/><path fill="#000" d="M305.054 333.683h-85.013a2.164 2.164 0 0 1-2.166-2.166c0-1.199.968-2.166 2.166-2.166h85.013c1.198 0 2.166.967 2.166 2.166a2.164 2.164 0 0 1-2.166 2.166Z" opacity=".3"/><path fill="url(#U)" stroke="#30275B" stroke-linecap="round" stroke-linejoin="round" d="M147.646 413.902c-6.925 0-16.627-4.448-27.816-9.149-11.603-4.885-24.819-10.047-38.231-10.819-5-.288-1.97 19.968-1.97 19.968H68.681s-10.785-14.426-12.006-27.343c0 0 8.826-5.45 10.946-5.772.438-.07 1.256-.093 2.2-.104 2.374-.023 5.543.104 5.543.104s-.011 0-.023-.012c-.507-.3-8.584-5.162-13.043-10.105-3.676-4.079-5.358-10.52-5.485-14.369-.058-1.912.841-7.604.841-7.604l57.52.956s.622.438 1.729 1.256c6.671 4.862 31.053 22.976 43.243 36.63 3.941 4.413 6.603 8.353 6.995 11.234 1.82 13.309-9.046 15.129-19.496 15.129Z"/><path fill="#30275B" d="m160.147 387.539-27.976 6.395s-7.294 3.894-12.341 10.819c-11.603-4.885-24.819-10.047-38.231-10.819-5-.288-1.97 19.968-1.97 19.968H68.681s-10.785-14.426-12.006-27.343c0 0 10.186 14.519 12.617 21.847 0 0 3.952-13.643 10.335-19.116 0 0-4.297-5.012-9.805-8.607 2.374-.023 5.542.104 5.542.104s-.011 0-.023-.012c-.507-.3-8.584-5.162-13.043-10.105-3.676-4.079-5.162-10.532-5.485-14.369-.161-1.889.07-7.604.07-7.604s42.897 6.118 60.02 2.212c6.671 4.862 31.053 22.976 43.243 36.63Z"/><path stroke="#30275B" stroke-linecap="round" stroke-linejoin="round" d="M115.188 386.56s22.791 11.419 28.863 15.889c6.073 4.471 7.893 3.25 7.893 3.25M62.31 385.35s5.474 8.353 5.773 10.865"/><path fill="#30275B" d="M153.971 225.004s12.167-5.289 11.027 17.168c-1.141 22.457 2.961 23.598 2.961 23.598s-30.546 12.537-38.289 1.821c-7.755-10.716-.392-40.041 24.301-42.587Z"/><path fill="#DCD5F7" stroke="#30275B" stroke-linecap="round" stroke-linejoin="round" d="M152.255 265.769s-12.56 5.923-13.701 11.396c-1.14 5.473-16.868-2.754-16.868-2.754l11.395-16.385 19.174 7.755v-.012Z"/><path fill="url(#V)" stroke="#30275B" stroke-linecap="round" stroke-linejoin="round" d="M69.939 325.871c-28.853 36.676-5.427 54.386 27.227 51.459l-6.545 10.336 16.42 2.846s12.605-8.227 29.774-17.019c29.221-14.967 41.02-14.08 37.989-29.071-3.042-14.991-38.819-24.716-74.723-8.918 0 0-19.507-23.16-30.142-9.633Z"/><path fill="#DCD5F7" stroke="#30275B" stroke-linecap="round" stroke-linejoin="round" d="M79.985 405.71s7.501-20.764 10.635-21.881c3.134-1.118 14.91 3.341 16.42 6.683 0 0 3.998-6.13 5.646-3.526 1.636 2.616-.726 6.867 0 10.209.726 3.341 8.814 7.904 12.064 8.503 3.249.611 5.07 2.432 5.07 4.252v3.952H79.985s-1.82-3.387 0-8.204v.012Z"/><path stroke="#30275B" stroke-linecap="round" stroke-linejoin="round" d="M112.686 393.934s-6.603 3.261-9.023 2.35c-2.408-.91 1.233 5.474 2.144 6.073.91.599 6.867-2.132 6.867-2.132M86.219 390.511s8.953.173 11.695 3.423M79.984 405.71s14.288 3.341 15.498 3.341c1.21 0 5.773-1.67 5.773-1.67s3.917 1.97 6.51 3.191c2.604 1.21 19.623 0 19.623 0M97.166 377.33c13.654-1.486 40.133-18.286 49.316-24.128 9.172-5.842 11.603-4.321 11.603-4.321"/><path fill="url(#W)" stroke="#30275B" stroke-linecap="round" stroke-linejoin="round" d="m56.883 348.697 2.178-16.535 5.254-3.964c8.503-20.66 47.092-59.248 57.601-59.122 15.797.185 18.585 16.766 20.533 34.914 1.947 18.147-22.665 15.417-22.665 15.417v4.562l-14 7.248 8.481-.265s-24.382 23.702-57.382 17.756v-.011Z"/><path fill="#DCD5F7" stroke="#30275B" stroke-linecap="round" stroke-linejoin="round" d="M125.258 237.067c3.307-10.358 18.447-13.135 23.874-11.43 3.411 1.072 8.158 4.828 10.267 9.368 1.383 2.973-1.509 8.261.553 11.338 2.95 4.413 2.696 13.723 1.636 19.542-.564 3.111-13.516 4.966-24.093-2.281-11.361-7.778-15.44-16.478-12.237-26.525v-.012Z"/><path fill="#30275B" d="M140.548 222.595s13.32-2.178 13.413 1.256c.587 22.734-13.032 27.504-13.032 27.504s-5.566-4.436-6.822-1.394c-1.256 3.042 1.971 11.442 5.9 11.626 0 0-3.042 3.964-.161 9.494 0 0-22.561 3.768-24.428-6.694 0 0 1.256-4.955 1.867-11.039 1.463-14.645-1.959-24.508 23.252-30.765l.011.012Z"/><path fill="#DCD5F7" d="M158.34 245.755c2.777 2.512 4.77 2.512 4.736 3.399-.104 2.812-3.492 4.206-3.492 4.206"/><path stroke="#30275B" stroke-linecap="round" stroke-linejoin="round" d="M158.34 245.755c2.777 2.512 4.77 2.512 4.736 3.399-.104 2.812-3.492 4.206-3.492 4.206M159.549 258.015s-2.8 1.106-6.072.15"/><path fill="#30275B" d="M152.174 231.801s8.85-2.569 7.225 11.811c0 0 3.699-5.001 3.687-10.647-.023-9.748-13.055-7.8-13.055-7.8l1.694 6.901"/><path stroke="#30275B" stroke-linecap="round" stroke-linejoin="round" d="M160.216 238.842s-.738-.657-2.351-.427M154.247 238.692s-4.759.265-6.821 3.491"/><path fill="#30275B" d="M153.107 246.251c.069.76-.253 1.417-.726 1.463-.472.046-.91-.541-.991-1.302-.069-.76.254-1.417.726-1.463.473-.046.91.541.991 1.302Z"/><path stroke="#30275B" stroke-linecap="round" stroke-linejoin="round" d="M97.914 380.787s10.601 1.118 12.905 5.773"/><path fill="#DCD5F7" d="M124.75 276.854s6.141-3.952 14.576-1.82c8.434 2.132 30.304 33.427 33.346 36.468 3.042 3.042 8.734 4.667 13.977 10.129 8.296 8.653 20.36 16.304 21.581 16.304 1.222 0 2.201-.761 3.722-1.06 1.521-.3 13.297-1.371 13.297-1.371s3.952.875 0 2.569-3.641 3.203-3.641 3.203-.795 1.279.795 2.489 2.523.553 4.793 3.768-3.203 1.394-3.203 1.394 1.21 3.48-1.21 3.111c-2.431-.368-.3 3.377-4.252 2.87-3.952-.507-12.409-5.842-14.541-11.431 0 0-34.487-16.488-39.66-20.74-5.162-4.252-26.871-27.043-28.403-27.354"/><path stroke="#30275B" stroke-linecap="round" stroke-linejoin="round" d="M124.75 276.854s6.141-3.952 14.576-1.82c8.434 2.132 30.304 33.427 33.346 36.468 3.042 3.042 8.734 4.667 13.977 10.129 8.296 8.653 20.36 16.304 21.581 16.304 1.222 0 2.201-.761 3.722-1.06 1.521-.3 13.297-1.371 13.297-1.371s3.952.875 0 2.569-3.641 3.203-3.641 3.203-.795 1.279.795 2.489 2.523.553 4.793 3.768-3.203 1.394-3.203 1.394 1.21 3.48-1.21 3.111c-2.431-.368-.3 3.377-4.252 2.87-3.952-.507-12.409-5.842-14.541-11.431 0 0-34.487-16.488-39.66-20.74-5.162-4.252-26.871-27.043-28.403-27.354"/><path fill="url(#X)" d="M119.795 273.513s17.007-4.563 22.941-1.21c5.934 3.353 17.18 18.839 17.18 18.839s-13.7 12.271-17.94 11.154c-4.241-1.118-17.215-2.95-17.215-2.95"/><path stroke="#30275B" stroke-linecap="round" stroke-linejoin="round" d="M119.795 273.513s17.007-4.563 22.941-1.21c5.934 3.353 17.18 18.839 17.18 18.839s-13.7 12.271-17.94 11.154c-4.241-1.118-17.215-2.95-17.215-2.95"/><path stroke="#30275B" stroke-linecap="round" stroke-linejoin="round" d="M134.532 300.844s-6.164 3.388-8.434 3.388M124.75 283.848c.507.911.334 10.878 11.165 13.977M66.918 328.521s23.091 3.952 30.995-3.042M105.797 331.206s-5.761-1.014-7.882 1.947c-2.131 2.961-13.677 5.692-13.677 5.692M59.476 353.202s-3.33 14.357 10.877 20.775M66.918 354.193s.08 7.063 2.35 10.935l7.064 2.281 7.904-4.401s-1.67-9.045-1.82-10.866"/><defs><linearGradient id="z" x1="308.256" x2="306.522" y1="168.501" y2="188.683" gradientUnits="userSpaceOnUse"><stop stop-color="#883CBA"/><stop offset="1" stop-color="#6C3BEC"/></linearGradient><linearGradient id="X" x1="139.856" x2="139.856" y1="271.072" y2="302.368" gradientUnits="userSpaceOnUse"><stop stop-color="#883CBA"/><stop offset="1" stop-color="#6C3BEC"/></linearGradient><linearGradient id="c" x1="189.807" x2="439.198" y1="18.912" y2="285.609" gradientUnits="userSpaceOnUse"><stop stop-color="#fff" stop-opacity=".18"/><stop offset=".524" stop-color="#B99FB9" stop-opacity=".18"/><stop offset="1" stop-color="#79477A" stop-opacity=".24"/></linearGradient><linearGradient id="d" x1="142.464" x2="142.464" y1="186.541" y2="406.228" gradientUnits="userSpaceOnUse"><stop stop-color="#883CBA"/><stop offset="1" stop-color="#6C3BEC"/></linearGradient><linearGradient id="e" x1="181.328" x2="183.188" y1="22.83" y2="43.001" gradientUnits="userSpaceOnUse"><stop stop-color="#883CBA"/><stop offset="1" stop-color="#6C3BEC"/></linearGradient><linearGradient id="g" x1="224.939" x2="226.799" y1="18.818" y2="38.989" gradientUnits="userSpaceOnUse"><stop stop-color="#883CBA"/><stop offset="1" stop-color="#6C3BEC"/></linearGradient><linearGradient id="i" x1="215.746" x2="217.606" y1="19.67" y2="39.841" gradientUnits="userSpaceOnUse"><stop stop-color="#883CBA"/><stop offset="1" stop-color="#6C3BEC"/></linearGradient><linearGradient id="j" x1="259.357" x2="261.217" y1="15.636" y2="35.807" gradientUnits="userSpaceOnUse"><stop stop-color="#883CBA"/><stop offset="1" stop-color="#6C3BEC"/></linearGradient><linearGradient id="k" x1="225.577" x2="225.577" y1="24.294" y2="124.193" gradientUnits="userSpaceOnUse"><stop stop-color="#883CBA"/><stop offset="1" stop-color="#6C3BEC"/></linearGradient><linearGradient id="m" x1="242.79" x2="242.79" y1="24.294" y2="121.012" gradientUnits="userSpaceOnUse"><stop stop-color="#883CBA"/><stop offset="1" stop-color="#6C3BEC"/></linearGradient><linearGradient id="n" x1="119.956" x2="119.956" y1="42.423" y2="66.085" gradientUnits="userSpaceOnUse"><stop stop-color="#883CBA"/><stop offset="1" stop-color="#6C3BEC" stop-opacity="0"/></linearGradient><linearGradient id="o" x1="329.58" x2="329.58" y1="103.845" y2="151.359" gradientUnits="userSpaceOnUse"><stop stop-color="#883CBA"/><stop offset="1" stop-color="#6C3BEC"/></linearGradient><linearGradient id="p" x1="346.595" x2="346.595" y1="385.108" y2="413.065" gradientUnits="userSpaceOnUse"><stop stop-color="#883CBA"/><stop offset="1" stop-color="#6C3BEC"/></linearGradient><linearGradient id="r" x1="345.971" x2="345.971" y1="356.882" y2="410.823" gradientUnits="userSpaceOnUse"><stop stop-color="#883CBA"/><stop offset="1" stop-color="#6C3BEC"/></linearGradient><linearGradient id="s" x1="335.277" x2="335.277" y1="397.046" y2="404.944" gradientUnits="userSpaceOnUse"><stop stop-color="#883CBA"/><stop offset="1" stop-color="#6C3BEC"/></linearGradient><linearGradient id="t" x1="343.067" x2="343.067" y1="364.138" y2="376.238" gradientUnits="userSpaceOnUse"><stop stop-color="#883CBA"/><stop offset="1" stop-color="#6C3BEC"/></linearGradient><linearGradient id="u" x1="230.201" x2="228.467" y1="161.787" y2="181.969" gradientUnits="userSpaceOnUse"><stop stop-color="#883CBA"/><stop offset="1" stop-color="#6C3BEC"/></linearGradient><linearGradient id="w" x1="273.814" x2="272.081" y1="165.541" y2="185.723" gradientUnits="userSpaceOnUse"><stop stop-color="#883CBA"/><stop offset="1" stop-color="#6C3BEC"/></linearGradient><linearGradient id="y" x1="264.629" x2="262.895" y1="164.747" y2="184.929" gradientUnits="userSpaceOnUse"><stop stop-color="#883CBA"/><stop offset="1" stop-color="#6C3BEC"/></linearGradient><linearGradient id="b" x1="-10.818" x2="451.872" y1="-68.612" y2="155.636" gradientUnits="userSpaceOnUse"><stop stop-color="#5D488B" stop-opacity=".63"/><stop offset="1" stop-color="#3A335B" stop-opacity=".64"/></linearGradient><linearGradient id="A" x1="264.24" x2="264.24" y1="170.609" y2="269.745" gradientUnits="userSpaceOnUse"><stop stop-color="#883CBA"/><stop offset="1" stop-color="#6C3BEC"/></linearGradient><linearGradient id="C" x1="281.461" x2="281.461" y1="173.571" y2="269.746" gradientUnits="userSpaceOnUse"><stop stop-color="#883CBA"/><stop offset="1" stop-color="#6C3BEC"/></linearGradient><linearGradient id="E" x1="376.924" x2="376.924" y1="370.26" y2="410.942" gradientUnits="userSpaceOnUse"><stop stop-color="#883CBA"/><stop offset="1" stop-color="#6C3BEC"/></linearGradient><linearGradient id="F" x1="367.782" x2="367.782" y1="400.219" y2="405.231" gradientUnits="userSpaceOnUse"><stop stop-color="#883CBA"/><stop offset="1" stop-color="#6C3BEC"/></linearGradient><linearGradient id="G" x1="376.693" x2="376.693" y1="410.942" y2="413.915" gradientUnits="userSpaceOnUse"><stop stop-color="#883CBA"/><stop offset="1" stop-color="#6C3BEC"/></linearGradient><linearGradient id="H" x1="381.371" x2="381.371" y1="368.941" y2="379.566" gradientUnits="userSpaceOnUse"><stop stop-color="#883CBA"/><stop offset="1" stop-color="#6C3BEC"/></linearGradient><linearGradient id="I" x1="366.393" x2="366.393" y1="96.367" y2="213.569" gradientUnits="userSpaceOnUse"><stop stop-color="#883CBA"/><stop offset="1" stop-color="#6C3BEC"/></linearGradient><linearGradient id="K" x1="376.368" x2="376.368" y1="109.606" y2="156.367" gradientUnits="userSpaceOnUse"><stop stop-color="#883CBA"/><stop offset="1" stop-color="#6C3BEC"/></linearGradient><linearGradient id="L" x1="205.644" x2="205.644" y1="314.682" y2="334.939" gradientUnits="userSpaceOnUse"><stop stop-color="#883CBA"/><stop offset="1" stop-color="#6C3BEC"/></linearGradient><linearGradient id="N" x1="249.429" x2="249.429" y1="314.682" y2="334.939" gradientUnits="userSpaceOnUse"><stop stop-color="#883CBA"/><stop offset="1" stop-color="#6C3BEC"/></linearGradient><linearGradient id="P" x1="240.213" x2="240.213" y1="314.682" y2="334.939" gradientUnits="userSpaceOnUse"><stop stop-color="#883CBA"/><stop offset="1" stop-color="#6C3BEC"/></linearGradient><linearGradient id="Q" x1="283.998" x2="283.998" y1="314.682" y2="334.939" gradientUnits="userSpaceOnUse"><stop stop-color="#883CBA"/><stop offset="1" stop-color="#6C3BEC"/></linearGradient><linearGradient id="R" x1="244.763" x2="244.763" y1="325.479" y2="413.902" gradientUnits="userSpaceOnUse"><stop stop-color="#883CBA"/><stop offset="1" stop-color="#6C3BEC"/></linearGradient><linearGradient id="T" x1="262.045" x2="262.045" y1="325.479" y2="413.902" gradientUnits="userSpaceOnUse"><stop stop-color="#883CBA"/><stop offset="1" stop-color="#6C3BEC"/></linearGradient><linearGradient id="U" x1="112.009" x2="112.009" y1="348.697" y2="413.902" gradientUnits="userSpaceOnUse"><stop stop-color="#883CBA"/><stop offset="1" stop-color="#6C3BEC"/></linearGradient><linearGradient id="V" x1="116.077" x2="116.077" y1="321.63" y2="390.512" gradientUnits="userSpaceOnUse"><stop stop-color="#883CBA"/><stop offset="1" stop-color="#6C3BEC"/></linearGradient><linearGradient id="W" x1="99.721" x2="99.721" y1="269.076" y2="349.665" gradientUnits="userSpaceOnUse"><stop stop-color="#883CBA"/><stop offset="1" stop-color="#6C3BEC"/></linearGradient><filter id="a" width="476.297" height="476.856" x="-4.996" y="-40" color-interpolation-filters="sRGB" filterUnits="userSpaceOnUse"><feFlood flood-opacity="0" result="BackgroundImageFix"/><feGaussianBlur in="BackgroundImageFix" stdDeviation="20"/><feComposite in2="SourceAlpha" operator="in" result="effect1_backgroundBlur_119_2133"/><feColorMatrix in="SourceAlpha" result="hardAlpha" values="0 0 0 0 0 0 0 0 0 0 0 0 0 0 0 0 0 0 127 0"/><feMorphology in="SourceAlpha" radius="15" result="effect2_dropShadow_119_2133"/><feOffset dy="50"/><feGaussianBlur stdDeviation="25"/><feComposite in2="hardAlpha" operator="out"/><feColorMatrix values="0 0 0 0 0.0481914 0 0 0 0 0.0364167 0 0 0 0 0.1 0 0 0 0.15 0"/><feBlend in2="effect1_backgroundBlur_119_2133" result="effect2_dropShadow_119_2133"/><feBlend in="SourceGraphic" in2="effect2_dropShadow_119_2133" result="shape"/></filter></defs></svg>