<svg xmlns="http://www.w3.org/2000/svg" width="391" height="195" fill="none"><path fill="url(#a)" d="M359.42 124.324s33.049 13.176 30.87 29.953c-2.14 16.777-9.986 27.777-12.522 31.417-2.537 3.64-18.07 7.32-23.895 8.547-5.825 1.266-50.92-17.212-50.92-17.212s30.988 11.316 46.561 8.626c15.573-2.691 23.459-23.662 22.983-33.436-.475-9.773-8.916-22.158-10.937-24.018-2.021-1.859-17.951-6.014-17.951-6.014s3.923-.198.872-2.018c-3.051-1.82-18.109-8.942-18.109-8.942l33.048 13.176v-.079Z"/><path fill="url(#b)" d="M371.19 145.334s11.055 5.382 12.442 14.126c1.387 8.745.595 12.741-4.042 18.835-4.636 6.093-10.382 9.298-15.216 10.525-4.874 1.227-16.564 2.73-20.725-1.978-4.161-4.709-9.867-22.08-12.007-25.918-2.14-3.838-11.016-4.392-14.226-10.129-3.21-5.738-20.051-8.863-20.09-9.853-.04-.989 25.955 8.587 25.955 8.587s-2.893 1.108.119 2.928c3.051 1.82 11.888 2.374 11.848 1.424-.039-.989-6.063-3.64-6.063-3.64l-10.065-5.421s8.916 1.543 9.907 1.504c.991-.04 4.914-.238 4.914-.238s.079 1.939 3.09 2.81c2.972.831 7.886.593 7.807-1.346-.079-1.939-5.072-3.68-7.054-3.6-1.941.079-3.883 1.147-3.883 1.147s-3.844 2.137-5.865.277c-2.06-1.86-53.139-23.029-53.139-23.029s17 6.054 18.862 4.036c1.863-2.018 10.818.475 13.909 3.284 3.091 2.81 21.042 8.824 21.042 8.824s10.739-1.504 12.68-1.583c1.942-.079 3.131 3.759 3.131 3.759s.713-5.935 7.648-4.273c6.934 1.622 11.135 7.32 12.126 7.281.99-.04 6.934 1.622 6.934 1.622l-.039.039Z"/><path fill="url(#c)" d="M366.038 176.04s15.217-8.864 13.434-12.662c-1.823-3.799-5.469-5.105-5.469-5.105s13.949 2.256 11.888-6.528C383.83 142.96 374.914 143 374.914 143s2.854-.119.397-2.216c-2.457-2.057-5.112.792-5.112.792s-10.343-11.317-16.247-9.259c-5.904 2.057-6.42.989-6.42.989s-1.545-7.439-5.151-6.885c-3.606.554-3.646 2.176-3.646 2.176L209.354 78.543s86.783 37.828 90.151 45.702c3.368 7.874-97.561-40.756-103.029-43.723C190.968 77.514.998 0 .998 0l249.489 126.5S143.693 82.183 141.434 86.734c-2.258 4.55 46.958 22.593 48.464 24.374 1.506 1.78 122.684 58.442 122.684 58.442s12.799 14.008 22.23 17.569c9.471 3.561 11.096-1.702 11.096-1.702s20.685 6.846 24.648 2.493c3.923-4.392-4.478-11.87-4.478-11.87h-.04Z" opacity=".65" style="mix-blend-mode:screen"/><path fill="url(#d)" d="M283.02 111.503s98.314 34.464 99.067 43.961c.753 9.496-16.921 2.572-16.921 2.572s2.814 3.561.436 4.234c-2.338.672-29.125-17.133-29.125-17.133s19.179 6.172 20.566 5.856c1.387-.317-19.536-11.95-19.378-12.979.159-1.029 10.462 3.522 0-1.859-10.461-5.382-54.645-24.691-54.645-24.691v.039Z" opacity=".65" style="mix-blend-mode:screen"/><path fill="url(#e)" d="M345.868 184.982c4.082 3.957 21.438 1.543 21.795 1.979.356.435 15.177-11.119 15.177-18.479 0-7.359-4.637-14.917-4.637-14.917s.317-1.266-7.37-4.709c-7.688-3.442-27.659-.158-29.799 4.551-.08.158-.119.316-.198.475-.436 1.384-.595 3.719-.516 6.528.199 8.666 2.537 21.684 5.548 24.572Z"/><path fill="url(#f)" d="M345.868 184.982c2.18 2.097 8.044 2.414 13.156 2.295h.515c4.28-.119 7.886-.514 8.084-.316.357.435 15.177-11.119 15.177-18.479 0-7.36-4.636-14.917-4.636-14.917s.317-1.266-7.371-4.709c-.554-.277-.198.475-.871.277-8.639-2.295-25.916.831-27.898 5.184-.079.158-.118.316-.198.475.476-.99 1.189-1.267 2.219-1.306 1.942-.079-.792 3.957 4.161 4.708 4.954.752 8.877.554 7.014 2.612-1.862 2.057-5.785 2.216-7.648 4.273-1.862 2.058.079 1.939-2.813 3.087-1.823.712-2.814-2.177-3.25-6.727.198 8.626 1.348 20.615 4.359 23.504v.039Zm10.66-17.37c-.793 1.78-1.348 3.046-1.982 2.967-.277-.039-.554-.316-.832-.87-1.07-1.899-5.072-3.68-2.179-4.788 2.021-.791 4.121-.119 4.913 1.029.318.475.397 1.068.119 1.662h-.039Zm14.107-4.749c.673.238 1.149.594 1.426 1.069.159.316.317.712.476 1.147.674 2.256.832 5.619.832 5.619-2.853 2.097-1.823 3.047-5.785 2.216-3.963-.831-9.986-3.443-9.154-6.45.832-2.967 1.426-5.342 4.557-4.788 1.268.198 2.853.317 4.359.475 1.228.159 2.377.317 3.289.673v.039Zm.079 13.889c0-.396.238-.871.713-1.306.278-.316.674-.593 1.07-.91 2.1-1.464 5.508-2.691 6.856-2.097 0 0 .039.989-1.784 3.996-1.822 3.047-2.892 1.108-3.923.198-1.03-.949-2.853 2.097-2.932.119Zm8.48-16.777c.278 1.385.357 2.651.317 3.759-.079 2.651-.753 4.55-1.307 5.777-.317.712-.793.831-1.348.435-.515-.395-1.07-1.187-1.624-2.216-.436-.831-.833-1.859-1.15-2.928-.079-.316-.158-.593-.158-.91-.159-2.651 2.457-4.471 3.408-6.014.237-.356.356-.712.317-1.029l-.119-2.928 1.149 3.878c.238.791.396 1.543.555 2.255l-.04-.079Zm-34.079 15.986c1.823-3.047 2.774-4.036 5.707-4.195 2.932-.118 6.578 3.997 8.282 4.195 1.743.237 5.508-2.889 7.568-1.029 2.061 1.86 4.161 4.708 4.161 4.708-1.823 3.047-1.744 4.986-6.618 5.223-4.913.238-8.361 2.572-11.531 1.623-3.17-.95-5.151-.831-6.221-2.77-1.07-1.899-3.171-4.748-1.348-7.795v.04Z" opacity=".46" style="mix-blend-mode:color-dodge"/><path fill="#FFC35A" d="M346.502 183.795c1.07 1.899 3.051 1.82 6.222 2.77 3.17.91 6.617-1.385 11.531-1.623 4.914-.237 4.795-2.176 6.618-5.223 0 0-2.101-2.849-4.161-4.708-2.061-1.86-5.825 1.266-7.569 1.028-1.743-.197-5.349-4.352-8.282-4.194-2.932.119-3.883 1.148-5.706 4.194-1.823 3.047.277 5.857 1.347 7.795v-.039Zm-1.268-5.817c-.039-.989 2.774-4.036 2.774-4.036s1.942-.079 2.893-1.108c.951-1.028 1.03.95 2.021.871.99-.04 5.904 2.374 5.904 2.374l1.11.237s5.864-.277 6.895.673c1.03.95 1.109 2.889-.714 5.935-1.822 3.047-3.883 1.148-5.825 1.267-1.294.052-2.285-.225-2.972-.831-.475-.436-.119-1.821.397-3.126-.833 1.701-1.784 3.68-2.299 4.194-.951 1.029-4.914.237-6.895-.673-2.021-.87-3.17-4.748-3.21-5.737l-.079-.04Z" style="mix-blend-mode:color-dodge"/><path fill="#FFC35A" d="M367.584 172.993c3.962.791 2.932-.119 5.785-2.216 0 0-.158-3.363-.832-5.579-.357 1.741-.238 3.68-.238 3.68s.04.989-1.862 2.057c-1.902 1.069-1.863 2.058-3.884 1.148-2.021-.871-2.972-.831-3.091-2.81a2405.16 2405.16 0 0 1-.118-2.928s-1.031-.949-1.07-1.899c-.04-.989.871-2.018.871-2.018l4.201-.198c-1.506-.158-3.091-.237-4.359-.475-3.131-.514-3.685 1.821-4.557 4.788-.832 2.968 5.191 5.659 9.154 6.45ZM373.924 163.932c0 .277.079.593.158.91.317 1.068.714 2.097 1.149 2.928.555 1.029 1.11 1.82 1.625 2.216.555.356 1.03.277 1.347-.436.555-1.226 1.229-3.125 1.308-5.777l-.515 1.821-.951 1.028.079 1.939s-.951 1.029-1.941.079c-.952-.87-2.14-4.313-2.299-4.708h.04Z"/><path fill="#FFC35A" d="M359.579 187.238c4.28-.119 7.886-.515 8.084-.317.356.435 15.177-11.119 15.177-18.478 0-7.36-4.636-14.918-4.636-14.918s.317-1.266-7.371-4.708c-.555-.277-1.228-.475-1.902-.673 2.338 1.068 6.499 3.126 6.538 3.838.04.989-1.862 2.058-.832 2.968.476.435.594.712 1.664 1.939.238-.356.357-.713.317-1.029-.079-1.939.872-2.018.872-2.018s.991-.04 2.14 3.838c.238.791.396 1.543.555 2.255.356.396-.396.673-.396.673s2.1 2.849 2.139 3.838c.04.989 1.229 4.867.238 4.907-.99.039-.872 2.018-.872 2.018s-.99.039-1.862 2.057c-.872 2.018-2.695 5.025-2.695 5.025s-2.853 2.098-3.843 2.137c-.991.04-1.229.871-3.012 2.018-1.744 1.148-2.655 3.166-4.597 3.245-1.783.079-4.517 1.305-5.666 1.385h-.04Z"/><path fill="url(#g)" d="M366.117 189.137c1.744.593 4.28-1.979 5.627-5.817 1.348-3.838.991-7.439-.753-8.032-1.743-.594-4.279 1.978-5.627 5.816-1.347 3.838-.99 7.439.753 8.033Z" opacity=".73" style="mix-blend-mode:screen"/><path fill="url(#h)" d="M358.707 162.191c-1.981.989-2.496 3.917-1.189 6.528 1.308 2.612 3.963 3.957 5.944 2.968 1.982-.989 2.497-3.917 1.189-6.529-1.308-2.611-3.963-3.957-5.944-2.967Z" opacity=".73" style="mix-blend-mode:screen"/><path fill="#FFC35A" d="M353.833 152.061c.04.989 1.03.95-.872 2.018-1.902 1.068-3.923.198-3.962-.791-.04-.99.753-1.939 1.822-2.018 1.031-.079 3.012-.159 3.052.831l-.04-.04ZM356.766 149.529c0 .554.594.554-.516 1.187-1.109.633-2.298.119-2.298-.475 0-.554.436-1.147 1.07-1.187.594-.039 1.744-.079 1.783.475h-.039ZM376.46 171.172c0 .554.594.554-.515 1.188-1.11.633-2.299.118-2.299-.475 0-.594.436-1.148 1.07-1.187.595-.04 1.744-.079 1.784.474h-.04ZM380.462 168.166c.436.356.793-.079.515 1.147-.277 1.227-1.426 1.781-1.902 1.425-.475-.357-.554-1.108-.198-1.583.357-.475 1.11-1.385 1.546-1.029l.039.04ZM380.7 165.593c.238.04.277-.197.436.356.158.554-.198.99-.436.95-.238-.039-.436-.316-.396-.593.039-.277.158-.752.396-.713ZM374.875 167.849c.238.039.277-.198.436.356.158.554-.198.989-.436.949-.238-.039-.436-.316-.396-.593.039-.277.158-.752.396-.712ZM373.329 165.119c.238-.119 0-.515.634.198.634.712.793 1.622.555 1.741-.238.118-.634-.159-.832-.554-.198-.436-.594-1.227-.396-1.346l.039-.039ZM361.679 172.834c.04.99 1.03.95-.872 2.018-1.902 1.069-3.923.198-3.962-.791-.04-.989.753-1.939 1.823-2.018 1.069-.079 3.011-.158 3.051.831l-.04-.04ZM366.038 150.597c.04 1.068 2.1.989-1.942 2.255-4.041 1.267-8.202.396-8.281-.712-.04-1.068 1.703-2.216 3.883-2.334 2.179-.119 6.301-.317 6.34.751v.04Z" style="mix-blend-mode:color-dodge"/><path fill="url(#i)" d="M289.598 122.701s-6.815-1.899-9.034-1.82c-2.22.119-3.844-2.057-5.39-3.482-1.545-1.424-25.916-11.475-25.916-11.475s23.539 8.587 25.758 7.756c2.219-.831 5.904.593 5.904.593s-2.853.752-.515 2.889c2.338 2.136 9.233 5.539 9.233 5.539h-.04Z"/><path fill="url(#j)" d="M305.687 151.349s-10.937-2.414-13.037-5.263c-2.101-2.849-4.993-1.741-4.993-1.741l-26.907-8.547s23.063 9.695 23.103 10.684c.039.989-4.875 1.226 1.268 5.816 6.142 4.59 6.934 1.623 7.925 1.583.991-.039 13.711-1.108 19.219 1.82 5.508 2.928-6.578-4.352-6.578-4.352Z"/><defs><linearGradient id="a" x1="378.324" x2="328.321" y1="174.606" y2="149.047" gradientUnits="userSpaceOnUse"><stop stop-color="#FFFF73"/><stop offset=".17" stop-color="#FBEA70"/><stop offset=".52" stop-color="#F2B769"/><stop offset="1" stop-color="#E46860"/></linearGradient><linearGradient id="b" x1="379.837" x2="311.8" y1="178.1" y2="142.472" gradientUnits="userSpaceOnUse"><stop stop-color="#FF6873"/><stop offset=".19" stop-color="#FF7C6C"/><stop offset=".57" stop-color="#FFAF5A"/><stop offset="1" stop-color="#FFF145"/></linearGradient><linearGradient id="c" x1="386.593" x2="76.045" y1="178.338" y2="35.308" gradientUnits="userSpaceOnUse"><stop stop-color="#DE8F1E"/><stop offset=".1" stop-color="#BD7919"/><stop offset=".27" stop-color="#845511"/><stop offset=".45" stop-color="#54360B"/><stop offset=".61" stop-color="#301E06"/><stop offset=".76" stop-color="#150D02"/><stop offset=".9" stop-color="#050300"/><stop offset="1"/></linearGradient><linearGradient id="d" x1="392.389" x2="81.84" y1="165.786" y2="22.717" gradientUnits="userSpaceOnUse"><stop stop-color="#DE8F1E"/><stop offset=".1" stop-color="#BD7919"/><stop offset=".27" stop-color="#845511"/><stop offset=".45" stop-color="#54360B"/><stop offset=".61" stop-color="#301E06"/><stop offset=".76" stop-color="#150D02"/><stop offset=".9" stop-color="#050300"/><stop offset="1"/></linearGradient><linearGradient id="e" x1="324.445" x2="385.59" y1="157.606" y2="175.065" gradientUnits="userSpaceOnUse"><stop stop-color="#471428"/><stop offset=".31" stop-color="#5E1B2D"/><stop offset=".96" stop-color="#992F3B"/><stop offset="1" stop-color="#9D313C"/></linearGradient><linearGradient id="f" x1="403.512" x2="312.874" y1="179.604" y2="154.873" gradientUnits="userSpaceOnUse"><stop stop-color="#FFFF73"/><stop offset=".11" stop-color="#EAEA69"/><stop offset=".33" stop-color="#B6B652"/><stop offset=".65" stop-color="#63632C"/><stop offset="1"/></linearGradient><linearGradient id="i" x1="213.081" x2="261.361" y1="92.479" y2="110.62" gradientUnits="userSpaceOnUse"><stop stop-color="#FF6873"/><stop offset=".19" stop-color="#FF7C6C"/><stop offset=".57" stop-color="#FFAF5A"/><stop offset="1" stop-color="#FFF145"/></linearGradient><linearGradient id="j" x1="176.845" x2="240.384" y1="107.29" y2="131.187" gradientUnits="userSpaceOnUse"><stop stop-color="#FF6873"/><stop offset=".19" stop-color="#FF7C6C"/><stop offset=".57" stop-color="#FFAF5A"/><stop offset="1" stop-color="#FFF145"/></linearGradient><radialGradient id="g" cx="0" cy="0" r="1" gradientTransform="rotate(109.236 119.747 222.179) scale(7.36089 3.38992)" gradientUnits="userSpaceOnUse"><stop stop-color="#FF2773"/><stop offset=".11" stop-color="#EA2369"/><stop offset=".33" stop-color="#B61B52"/><stop offset=".65" stop-color="#630F2C"/><stop offset="1"/></radialGradient><radialGradient id="h" cx="0" cy="0" r="1" gradientTransform="matrix(-2.37843 -4.74052 3.55852 -1.7854 361.143 166.991)" gradientUnits="userSpaceOnUse"><stop stop-color="#FF2773"/><stop offset=".11" stop-color="#EA2369"/><stop offset=".33" stop-color="#B61B52"/><stop offset=".65" stop-color="#630F2C"/><stop offset="1"/></radialGradient></defs></svg>