<svg xmlns="http://www.w3.org/2000/svg" width="279" height="155" fill="none"><path fill="url(#a)" d="M48.76 79.623s-21.166 8.439-19.77 19.183c1.37 10.745 6.396 17.79 8.02 20.122 1.624 2.331 11.573 4.688 15.303 5.473 3.731.811 32.612-11.023 32.612-11.023s-19.846 7.247-29.82 5.524c-9.974-1.723-15.024-15.154-14.72-21.413.305-6.26 5.71-14.192 7.005-15.383 1.294-1.19 11.496-3.852 11.496-3.852s-2.512-.126-.558-1.292 11.598-5.727 11.598-5.727L48.76 79.674v-.051Z"/><path fill="url(#b)" d="M41.223 93.08s-7.08 3.446-7.97 9.046c-.887 5.601-.38 8.16 2.59 12.063 2.969 3.902 6.649 5.955 9.745 6.741 3.121.785 10.608 1.748 13.273-1.267 2.665-3.016 6.32-14.141 7.69-16.599s7.055-2.813 9.11-6.487c2.056-3.675 12.843-5.677 12.868-6.31.025-.634-16.623 5.499-16.623 5.499s1.852.71-.076 1.875c-1.955 1.165-7.614 1.52-7.589.912.026-.633 3.883-2.331 3.883-2.331l6.447-3.472s-5.71.988-6.345.963c-.635-.025-3.147-.152-3.147-.152s-.05 1.242-1.98 1.8c-1.903.531-5.05.38-5-.862.052-1.242 3.25-2.357 4.518-2.307 1.244.051 2.487.735 2.487.735s2.462 1.369 3.756.178c1.32-1.191 34.033-14.749 34.033-14.749s-10.887 3.877-12.08 2.585c-1.193-1.293-6.928.304-8.908 2.103-1.98 1.8-13.476 5.651-13.476 5.651s-6.878-.963-8.121-1.013c-1.244-.051-2.005 2.407-2.005 2.407s-.457-3.801-4.898-2.737c-4.442 1.04-7.132 4.688-7.766 4.663-.635-.025-4.442 1.039-4.442 1.039l.026.025Z"/><path fill="url(#c)" d="M44.522 112.744s-9.745-5.676-8.603-8.109c1.167-2.433 3.502-3.269 3.502-3.269s-8.933 1.444-7.614-4.181c1.32-5.626 7.03-5.6 7.03-5.6s-1.827-.077-.254-1.42c1.574-1.318 3.274.507 3.274.507s6.624-7.248 10.406-5.93c3.781 1.318 4.11.633 4.11.633s.99-4.764 3.3-4.409c2.31.355 2.335 1.394 2.335 1.394l82.862-32.057s-55.58 24.226-57.737 29.27c-2.157 5.042 62.483-26.102 65.985-28.003C156.646 49.644 278.311 0 278.311 0L118.527 81.017s68.395-28.383 69.842-25.468c1.447 2.914-30.074 14.47-31.038 15.61-.965 1.14-78.573 37.429-78.573 37.429s-8.197 8.971-14.237 11.252c-6.066 2.281-7.107-1.09-7.107-1.09s-13.247 4.384-15.785 1.597c-2.513-2.813 2.868-7.603 2.868-7.603h.025Z" opacity=".65" style="mix-blend-mode:screen"/><path fill="url(#d)" d="M97.69 71.412S34.727 93.484 34.245 99.566c-.483 6.082 10.836 1.648 10.836 1.648s-1.801 2.28-.279 2.711c1.498.431 18.654-10.973 18.654-10.973s-12.284 3.954-13.172 3.75c-.888-.202 12.512-7.652 12.41-8.311-.101-.659-6.7 2.255 0-1.191 6.7-3.447 34.998-15.813 34.998-15.813v.025Z" opacity=".65" style="mix-blend-mode:screen"/><path fill="url(#e)" d="M57.44 118.472c-2.614 2.534-13.73.988-13.959 1.267-.228.279-9.72-7.121-9.72-11.835 0-4.713 2.97-9.553 2.97-9.553s-.203-.811 4.72-3.016c4.924-2.205 17.715-.101 19.085 2.914.05.102.076.203.127.304.28.887.38 2.382.33 4.182-.127 5.549-1.624 13.887-3.553 15.737Z"/><path fill="url(#f)" d="M57.44 118.471c-1.396 1.344-5.152 1.546-8.426 1.47h-.33c-2.74-.076-5.05-.329-5.177-.202-.228.278-9.72-7.121-9.72-11.835 0-4.713 2.97-9.554 2.97-9.554s-.204-.81 4.72-3.015c.355-.178.127.304.558.177 5.533-1.47 16.598.532 17.867 3.32.05.101.076.203.127.304-.305-.634-.762-.811-1.422-.836-1.243-.051.508 2.534-2.664 3.015-3.173.482-5.685.355-4.493 1.673 1.193 1.318 3.706 1.419 4.899 2.737 1.192 1.317-.051 1.241 1.801 1.976 1.168.456 1.802-1.393 2.081-4.308-.126 5.525-.862 13.203-2.791 15.053v.025Zm-6.827-11.124c.508 1.14.863 1.951 1.269 1.9.178-.025.355-.203.533-.557.685-1.217 3.248-2.357 1.396-3.067-1.295-.507-2.64-.076-3.147.659a1.058 1.058 0 0 0-.076 1.065h.025Zm-9.035-3.041c-.431.152-.736.38-.914.684a7.109 7.109 0 0 0-.304.735c-.431 1.444-.533 3.598-.533 3.598 1.827 1.343 1.167 1.951 3.705 1.419 2.538-.532 6.396-2.204 5.863-4.13-.533-1.901-.914-3.421-2.919-3.067-.812.127-1.827.203-2.791.304-.787.102-1.523.203-2.107.431v.026Zm-.05 8.894c0-.253-.153-.557-.457-.836-.178-.203-.432-.38-.686-.583-1.345-.937-3.527-1.723-4.39-1.343 0 0-.026.634 1.142 2.56 1.167 1.951 1.852.709 2.512.126.66-.608 1.828 1.343 1.878.076Zm-5.432-10.744a10.37 10.37 0 0 0-.203 2.407c.051 1.698.482 2.914.838 3.7.203.456.507.532.863.279.33-.254.685-.761 1.04-1.419.28-.533.533-1.192.736-1.876.05-.202.102-.38.102-.583.101-1.697-1.574-2.863-2.183-3.851-.152-.229-.228-.457-.203-.659l.076-1.876-.736 2.484c-.152.507-.254.988-.355 1.444l.025-.05Zm21.826 10.238c-1.167-1.952-1.776-2.585-3.654-2.687-1.879-.076-4.213 2.56-5.305 2.687-1.116.152-3.527-1.85-4.847-.659-1.32 1.191-2.665 3.015-2.665 3.015 1.168 1.952 1.117 3.193 4.239 3.345 3.146.152 5.354 1.648 7.385 1.039 2.03-.608 3.299-.532 3.984-1.773.685-1.217 2.03-3.041.863-4.993v.026Z" opacity=".46" style="mix-blend-mode:color-dodge"/><path fill="#FFC35A" d="M57.034 117.711c-.685 1.217-1.954 1.166-3.985 1.774-2.03.583-4.238-.887-7.385-1.039-3.147-.152-3.07-1.394-4.238-3.345 0 0 1.345-1.825 2.665-3.016s3.73.811 4.847.659c1.117-.127 3.426-2.787 5.304-2.686 1.878.076 2.487.735 3.655 2.686 1.167 1.951-.178 3.751-.863 4.992v-.025Zm.812-3.725c.025-.634-1.777-2.585-1.777-2.585s-1.243-.051-1.852-.709c-.61-.659-.66.608-1.295.557-.634-.025-3.781 1.521-3.781 1.521l-.71.152s-3.757-.178-4.417.43c-.66.609-.71 1.85.457 3.802 1.168 1.951 2.487.735 3.73.811.83.033 1.465-.144 1.904-.533.305-.278.077-1.165-.253-2.002.533 1.09 1.142 2.357 1.472 2.687.609.658 3.147.152 4.416-.431 1.294-.558 2.03-3.041 2.055-3.675l.05-.025Z" style="mix-blend-mode:color-dodge"/><path fill="#FFC35A" d="M43.532 110.793c-2.538.507-1.878-.076-3.705-1.419 0 0 .102-2.154.533-3.573.228 1.115.152 2.356.152 2.356s-.025.634 1.193 1.318 1.193 1.318 2.487.735c1.294-.557 1.904-.532 1.98-1.799l.076-1.875s.66-.609.685-1.217c.025-.633-.558-1.292-.558-1.292l-2.69-.127c.964-.101 1.98-.152 2.791-.304 2.005-.329 2.36 1.166 2.919 3.066.533 1.901-3.325 3.624-5.863 4.131ZM39.472 104.99c0 .177-.051.38-.102.582a10.679 10.679 0 0 1-.736 1.876c-.355.659-.71 1.165-1.04 1.419-.356.228-.66.177-.863-.279-.356-.786-.787-2.002-.838-3.7l.33 1.166.61.659-.051 1.241s.609.659 1.243.051c.61-.557 1.37-2.762 1.472-3.015h-.025Z"/><path fill="#FFC35A" d="M48.659 119.916c-2.741-.076-5.05-.33-5.178-.203-.228.279-9.72-7.121-9.72-11.834 0-4.714 2.97-9.554 2.97-9.554s-.203-.811 4.72-3.016c.355-.177.787-.304 1.218-.43-1.497.684-4.162 2.001-4.187 2.457-.026.634 1.193 1.318.533 1.901-.305.279-.38.456-1.066 1.242-.152-.228-.228-.456-.203-.659.05-1.242-.558-1.292-.558-1.292s-.635-.026-1.37 2.458c-.153.507-.255.988-.356 1.444-.229.254.254.431.254.431s-1.345 1.825-1.37 2.458c-.026.634-.788 3.117-.153 3.142.634.026.558 1.293.558 1.293s.635.025 1.193 1.318c.558 1.292 1.726 3.218 1.726 3.218s1.827 1.343 2.462 1.368c.634.026.786.558 1.928 1.293 1.117.735 1.7 2.027 2.944 2.078 1.142.051 2.893.836 3.63.887h.025Z"/><path fill="url(#g)" d="M44.471 121.132c-1.116.38-2.74-1.267-3.603-3.725s-.635-4.764.482-5.144c1.116-.381 2.74 1.267 3.603 3.725s.635 4.764-.482 5.144Z" opacity=".73" style="mix-blend-mode:screen"/><path fill="url(#h)" d="M49.217 103.875c1.269.633 1.599 2.509.761 4.181-.837 1.673-2.537 2.534-3.806 1.901-1.27-.634-1.6-2.509-.762-4.182.838-1.672 2.538-2.534 3.807-1.9Z" opacity=".73" style="mix-blend-mode:screen"/><path fill="#FFC35A" d="M52.339 97.387c-.026.633-.66.608.558 1.292 1.218.685 2.513.127 2.538-.507a1.273 1.273 0 0 0-1.168-1.292c-.66-.05-1.928-.101-1.954.532l.026-.025ZM50.46 95.765c0 .355-.38.355.33.76.711.406 1.473.077 1.473-.303 0-.355-.28-.735-.686-.76-.38-.026-1.116-.051-1.142.303h.026ZM37.847 109.627c0 .355-.38.355.33.76.71.406 1.472.077 1.472-.304 0-.38-.279-.735-.685-.76-.38-.025-1.117-.051-1.142.304h.025ZM35.284 107.702c-.279.228-.507-.051-.33.734.178.786.914 1.141 1.218.913.305-.228.356-.71.127-1.014-.228-.304-.71-.887-.99-.659l-.025.026ZM35.132 106.054c-.152.025-.178-.127-.28.228-.1.355.128.633.28.608.152-.025.279-.203.254-.38-.026-.177-.102-.482-.254-.456ZM38.863 107.499c-.153.025-.178-.127-.28.228-.101.354.127.633.28.608.152-.025.279-.203.253-.38-.025-.178-.101-.482-.253-.456ZM39.852 105.75c-.152-.076 0-.329-.406.127s-.507 1.039-.355 1.115c.152.076.406-.101.533-.355.127-.279.38-.785.254-.861l-.026-.026ZM47.314 110.692c-.026.633-.66.608.558 1.292s2.513.127 2.538-.507a1.273 1.273 0 0 0-1.167-1.292c-.686-.051-1.93-.102-1.955.532l.026-.025ZM44.522 96.45c-.025.684-1.345.633 1.244 1.444 2.588.811 5.253.254 5.304-.456.025-.684-1.092-1.419-2.487-1.495-1.396-.076-4.036-.203-4.061.481v.026Z" style="mix-blend-mode:color-dodge"/><path fill="url(#i)" d="M93.478 78.584s4.365-1.217 5.786-1.166c1.421.076 2.462-1.318 3.452-2.23.989-.912 16.597-7.35 16.597-7.35s-15.075 5.5-16.496 4.968c-1.421-.532-3.781.38-3.781.38s1.827.481.33 1.85c-1.498 1.368-5.914 3.548-5.914 3.548h.026Z"/><path fill="url(#j)" d="M83.174 96.93s7.004-1.545 8.35-3.37c1.345-1.824 3.197-1.115 3.197-1.115l17.232-5.473s-14.77 6.208-14.795 6.842c-.026.633 3.121.786-.812 3.725-3.934 2.94-4.442 1.04-5.076 1.014-.635-.026-8.781-.71-12.309 1.165-3.528 1.876 4.213-2.787 4.213-2.787Z"/><defs><linearGradient id="a" x1="36.653" x2="68.678" y1="111.826" y2="95.457" gradientUnits="userSpaceOnUse"><stop stop-color="#FFFF73"/><stop offset=".17" stop-color="#FBEA70"/><stop offset=".52" stop-color="#F2B769"/><stop offset="1" stop-color="#E46860"/></linearGradient><linearGradient id="b" x1="35.684" x2="79.259" y1="114.064" y2="91.246" gradientUnits="userSpaceOnUse"><stop stop-color="#FF6873"/><stop offset=".19" stop-color="#FF7C6C"/><stop offset=".57" stop-color="#FFAF5A"/><stop offset="1" stop-color="#FFF145"/></linearGradient><linearGradient id="c" x1="31.358" x2="230.248" y1="114.216" y2="22.613" gradientUnits="userSpaceOnUse"><stop stop-color="#DE8F1E"/><stop offset=".1" stop-color="#BD7919"/><stop offset=".27" stop-color="#845511"/><stop offset=".45" stop-color="#54360B"/><stop offset=".61" stop-color="#301E06"/><stop offset=".76" stop-color="#150D02"/><stop offset=".9" stop-color="#050300"/><stop offset="1"/></linearGradient><linearGradient id="d" x1="27.646" x2="226.536" y1="106.177" y2="14.549" gradientUnits="userSpaceOnUse"><stop stop-color="#DE8F1E"/><stop offset=".1" stop-color="#BD7919"/><stop offset=".27" stop-color="#845511"/><stop offset=".45" stop-color="#54360B"/><stop offset=".61" stop-color="#301E06"/><stop offset=".76" stop-color="#150D02"/><stop offset=".9" stop-color="#050300"/><stop offset="1"/></linearGradient><linearGradient id="e" x1="71.16" x2="32" y1="100.938" y2="112.12" gradientUnits="userSpaceOnUse"><stop stop-color="#471428"/><stop offset=".31" stop-color="#5E1B2D"/><stop offset=".96" stop-color="#992F3B"/><stop offset="1" stop-color="#9D313C"/></linearGradient><linearGradient id="f" x1="20.522" x2="78.571" y1="115.027" y2="99.188" gradientUnits="userSpaceOnUse"><stop stop-color="#FFFF73"/><stop offset=".11" stop-color="#EAEA69"/><stop offset=".33" stop-color="#B6B652"/><stop offset=".65" stop-color="#63632C"/><stop offset="1"/></linearGradient><linearGradient id="i" x1="142.483" x2="111.563" y1="59.228" y2="70.847" gradientUnits="userSpaceOnUse"><stop stop-color="#FF6873"/><stop offset=".19" stop-color="#FF7C6C"/><stop offset=".57" stop-color="#FFAF5A"/><stop offset="1" stop-color="#FFF145"/></linearGradient><linearGradient id="j" x1="165.69" x2="124.997" y1="68.714" y2="84.019" gradientUnits="userSpaceOnUse"><stop stop-color="#FF6873"/><stop offset=".19" stop-color="#FF7C6C"/><stop offset=".57" stop-color="#FFAF5A"/><stop offset="1" stop-color="#FFF145"/></linearGradient><radialGradient id="g" cx="0" cy="0" r="1" gradientTransform="matrix(1.55318 4.45106 -2.04985 .71528 42.642 116.765)" gradientUnits="userSpaceOnUse"><stop stop-color="#FF2773"/><stop offset=".11" stop-color="#EA2369"/><stop offset=".33" stop-color="#B61B52"/><stop offset=".65" stop-color="#630F2C"/><stop offset="1"/></radialGradient><radialGradient id="h" cx="0" cy="0" r="1" gradientTransform="matrix(1.52325 -3.03606 2.27905 1.14344 47.657 106.95)" gradientUnits="userSpaceOnUse"><stop stop-color="#FF2773"/><stop offset=".11" stop-color="#EA2369"/><stop offset=".33" stop-color="#B61B52"/><stop offset=".65" stop-color="#630F2C"/><stop offset="1"/></radialGradient></defs></svg>