<svg xmlns="http://www.w3.org/2000/svg" width="588" height="527" fill="none"><path fill="url(#a)" d="M412.543 339.727s34.756 7.609 42.353-7.507c7.63-15.094 7.297-28.601 7.237-33.037-.06-4.436-10.863-16.19-15-20.47-4.114-4.314-51.818-14.283-51.818-14.283s32.007 7.995 43.396 18.951c11.39 10.956 6.168 32.744.296 40.572-5.871 7.827-19.802 13.354-22.518 13.762-2.716.407-18.238-5.08-18.238-5.08s3.138 2.363-.409 2.16c-3.547-.202-20.009-2.743-20.009-2.743l34.755 7.609-.045.066Z"/><path fill="url(#b)" d="M434.066 328.922s12.172 1.739 18.222-4.726c6.049-6.465 7.633-10.218 7.208-17.863-.425-7.645-3.387-13.52-6.704-17.245-3.349-3.748-12.188-11.545-18.273-9.977-6.084 1.568-20.545 12.756-24.469 14.735-3.923 1.98-11.585-2.536-17.459.417-5.873 2.953-21.573-3.897-22.16-3.1-.588.797 26.308 7.435 26.308 7.435s-1.775-2.539 1.739-2.358c3.548.203 11.177 4.696 10.611 5.46-.587.798-7.061-.383-7.061-.383l-11.374-1.151s8.249 3.719 9.047 4.307a921.3 921.3 0 0 1 3.937 2.95s1.152-1.561 4.134-.594c2.927.977 6.864 3.928 5.711 5.489-1.152 1.561-6.263.205-7.859-.971-1.564-1.154-2.573-3.127-2.573-3.127s-1.986-3.923-4.702-3.516c-2.749.385-56.916-10.709-56.916-10.709s17.472 4.513 17.883 7.229c.412 2.715 9.226 5.669 13.36 5.075 4.135-.595 22.372 4.485 22.372 4.485s8.051 7.263 9.615 8.417 4.699-1.358 4.699-1.358-2.735 5.315 3.939 7.825c6.653 2.543 13.325.178 14.123.766.798.588 6.653 2.543 6.653 2.543l-.011-.055Z"/><path fill="url(#c)" d="M447.008 300.605s7.635 15.869 4.029 18.015c-3.638 2.125-7.39 1.163-7.39 1.163s12.817 5.949 6.187 12.069c-6.63 6.121-13.992 1.091-13.992 1.091s2.297 1.697-.913 2.057c-3.188.327-3.79-3.52-3.79-3.52s-14.908 3.576-18.645-1.437c-3.737-5.014-4.762-4.417-4.762-4.417s-5.449 5.294-8.125 2.814c-2.676-2.479-1.8-3.845-1.8-3.845l-135.205-31.056s93.073 17.308 100.276 12.674c7.202-4.633-103.641-20.924-109.833-21.531-6.247-.596-207.021-42.867-207.021-42.867l277.521 35.058s-113.283-23.149-112.603-28.183c.68-5.035 51.552 7.605 53.797 6.974 2.245-.63 134.36 20.356 134.36 20.356s18.451-4.427 28.257-2.091c9.84 2.359 8.236 7.628 8.236 7.628s20.967 5.923 21.81 11.749c.787 5.836-10.361 7.321-10.361 7.321l-.033-.022Z" opacity=".65" style="mix-blend-mode:screen"/><path fill="url(#d)" d="M342.084 307.527s100.738 26.556 106.684 19.113c5.946-7.443-12.572-11.613-12.572-11.613s4.326-1.373 2.734-3.262c-1.56-1.868-33.724-2.134-33.724-2.134s19.344 5.637 20.315 6.676c.971 1.04-22.877-1.052-23.322-.111-.445.941 10.638 2.946-1.042 1.54-11.68-1.406-59.095-10.177-59.095-10.177l.022-.032Z" opacity=".65" style="mix-blend-mode:screen"/><path fill="url(#e)" d="M435.315 281.895c5.598-.99 18.62 10.736 19.159 10.576.539-.161 6.338 17.714 2.213 23.809-4.124 6.096-12.2 9.756-12.2 9.756s-.447 1.227-8.743-.231c-8.296-1.457-22.996-15.37-22.129-20.469.023-.176.079-.329.102-.504.415-1.392 1.592-3.414 3.232-5.696 5.021-7.066 14.253-16.537 18.366-17.241Z"/><path fill="url(#f)" d="M435.315 281.895c2.98-.515 8.015 2.509 12.182 5.473l.295.199.132.089c3.477 2.497 6.242 4.846 6.517 4.793.539-.161 6.338 17.714 2.214 23.809-4.125 6.096-12.201 9.756-12.201 9.756s-.447 1.227-8.743-.231c-.614-.081.102-.504-.566-.718-8.441-2.94-20.998-15.212-20.2-19.927.023-.176.079-.329.102-.505-.16 1.086.275 1.715 1.106 2.325 1.564 1.154 1.562-3.721 6.085-1.567 4.524 2.153 7.662 4.516 7.273 1.768-.39-2.748-3.55-5.078-3.939-7.826-.39-2.747 1.152-1.561-.601-4.133-1.11-1.611-3.549.226-6.461 3.75 4.999-7.033 12.67-16.318 16.783-17.022l.022-.033Zm-.907 20.36c.342-1.919.592-3.278.022-3.568-.252-.123-.637-.049-1.177.255-1.95.973-6.263.205-4.488 2.743 1.23 1.788 3.347 2.408 4.646 1.902a1.65 1.65 0 0 0 1.03-1.31l-.033-.022Zm9.022 11.839c.691.181 1.285.152 1.78-.085.309-.174.662-.413 1.037-.684 1.822-1.491 3.839-4.187 3.839-4.187-1.188-3.336.197-3.545-3.55-5.078-3.748-1.533-10.2-2.745-11.196.212-.974 2.924-1.812 5.223 1.091 6.519 1.161.547 2.54 1.337 3.876 2.049 1.106.558 2.147 1.071 3.101 1.287l.022-.033Zm7.85-11.458c-.222.328-.291.854-.141 1.481.052.418.225.869.376 1.353.918 2.39 3.053 5.316 4.502 5.579 0 0 .587-.797.763-4.309.198-3.545-1.775-2.539-3.138-2.362-1.386.209-1.188-3.336-2.362-1.742Zm-2.38 18.647a16.203 16.203 0 0 0 2.369-2.935c1.421-2.24 1.927-4.191 2.155-5.518.137-.767-.191-1.132-.872-1.115-.648.039-1.551.383-2.587.924-.827.444-1.732 1.074-2.593 1.781-.243.218-.464.403-.641.665-1.617 2.107-.471 5.08-.549 6.891-.002.428-.103.79-.314 1.03a3438.219 3438.219 0 0 0-1.739 2.358l3.125-2.567c.64-.522 1.193-1.056 1.723-1.557l-.077.043Zm-19.265-32.338c-.198 3.545.036 4.897 2.376 6.671 2.362 1.742 7.687.377 9.209 1.168 1.577.781 2.943 5.479 5.692 5.094 2.749-.385 6.085-1.568 6.085-1.568.198-3.545 1.35-5.106-2.554-8.034-3.936-2.951-5.483-6.816-8.641-7.806-3.157-.991-4.732-2.199-6.704-1.193-1.951.973-5.287 2.156-5.485 5.7l.022-.032Z" opacity=".46" style="mix-blend-mode:color-dodge"/><path fill="#FFC35A" d="M435.175 283.233c1.95-.973 3.547.203 6.705 1.193 3.135 1.023 4.704 4.856 8.641 7.806 3.936 2.951 2.751 4.49 2.553 8.035 0 0-3.336 1.182-6.085 1.568-2.749.385-4.114-4.314-5.692-5.094-1.554-.813-6.869.606-9.209-1.168-2.362-1.742-2.573-3.127-2.375-6.672.197-3.545 3.511-4.694 5.484-5.7l-.022.032Zm-4.31 4.107c-.587.797.035 4.897.035 4.897s1.564 1.154 1.775 2.539c.211 1.385 1.385-.209 2.162.412.798.588 6.22 1.342 6.22 1.342l1.052.426s4.702 3.516 6.087 3.307c1.386-.209 2.538-1.771 2.736-5.315.198-3.545-2.573-3.127-4.115-4.314-1.042-.769-2.018-1.095-2.927-.977-.637.094-1.118 1.441-1.423 2.811.264-1.876.585-4.047.447-4.762-.211-1.385-3.937-2.951-6.088-3.307-2.161-.412-5.286 2.156-5.873 2.953l-.088-.012Z" style="mix-blend-mode:color-dodge"/><path fill="#FFC35A" d="M446.58 303.994c3.726 1.566 2.362 1.742 3.55 5.078 0 0-2.016 2.697-3.816 4.154.68-1.641 1.865-3.181 1.865-3.181s.588-.797-.389-2.747c-.976-1.951-.389-2.748-2.573-3.127-2.162-.412-2.927-.978-4.134.594l-1.74 2.359s-1.385.209-1.95.973c-.588.797-.409 2.16-.409 2.16l3.368 2.518c-1.336-.713-2.693-1.536-3.877-2.05-2.881-1.328-2.032-3.573-1.09-6.519.974-2.924 7.47-1.777 11.195-.212ZM446.753 315.052c.155-.229.398-.447.641-.665.862-.707 1.766-1.337 2.593-1.781 1.036-.541 1.939-.885 2.587-.924.659.016 1.009.348.872 1.115-.228 1.327-.734 3.278-2.154 5.518l.593-1.796-.211-1.385 1.152-1.562s-.211-1.385-1.563-1.154c-1.276.188-4.19 2.373-4.543 2.612l.033.022Z"/><path fill="#FFC35A" d="M447.934 287.711c3.478 2.497 6.243 4.846 6.518 4.793.539-.161 6.338 17.714 2.213 23.809-4.125 6.096-12.2 9.756-12.2 9.756s-.447 1.227-8.743-.231c-.615-.081-1.284-.295-1.952-.509 2.535.426 7.134 1.054 7.566.486.587-.797-.39-2.748.974-2.924.638-.094.891-.257 2.465-.673-.003.428-.104.79-.314 1.03-1.153 1.561-.409 2.159-.409 2.159s.798.588 3.923-1.979c.64-.522 1.193-1.056 1.724-1.557.517-.128.048-.779.048-.779s3.336-1.183 3.924-1.98c.587-.797 3.745-3.342 2.946-3.93-.798-.588.409-2.16.409-2.16s-.798-.588-.389-2.748c.409-2.159.585-5.672.585-5.672s-1.188-3.335-1.986-3.923c-.799-.588-.53-1.41-1.364-3.36-.8-1.927-.424-4.109-1.988-5.263-1.433-1.065-3.01-3.613-3.917-4.323l-.033-.022Z"/><path fill="#FFC35A" d="M423.461 313.624c.587-.797 1.386-.209.409-2.16-.976-1.951-3.138-2.363-3.725-1.566-.587.797-.463 2.028.379 2.693.808.643 2.405 1.819 2.992 1.022l-.055.011ZM424.471 317.364c.31-.458.802-.125.238-1.271-.564-1.147-1.837-1.387-2.169-.895-.311.458-.282 1.194.22 1.582.471.366 1.4 1.043 1.743.607l-.032-.023ZM452.912 310.477c.31-.459.802-.126.238-1.272-.564-1.146-1.837-1.387-2.169-.895-.333.492-.283 1.195.22 1.583.471.366 1.4 1.042 1.743.606l-.032-.022ZM454.541 315.21c.56-.051.612.51 1.07-.662.457-1.171-.184-2.274-.777-2.245-.594.028-1.081.606-1.052 1.199.03.594.143 1.769.704 1.719l.055-.011ZM453.296 317.473c.219.101.119.32.561-.05.442-.37.39-.93.171-1.031-.219-.1-.538.018-.661.27-.122.251-.29.711-.071.811ZM449.736 312.341c.219.1.119.319.561-.051.441-.37.39-.93.171-1.031-.219-.1-.539.018-.661.27s-.29.711-.071.812ZM446.926 313.736c.13.231-.288.426.636.191.924-.234 1.566-.899 1.435-1.131-.13-.231-.614-.224-.999-.007-.409.249-1.18.683-1.083.892l.011.055ZM441.602 300.816c.587-.797 1.385-.209.409-2.159-.977-1.951-3.139-2.363-3.726-1.566-.587.797-.463 2.028.379 2.693.842.665 2.405 1.819 2.993 1.022l-.055.01ZM432.749 321.676c.631-.862 2.294.358-.344-2.956s-6.572-4.925-7.258-4.052c-.632.863.169 2.79 1.907 4.11 1.739 1.32 5.041 3.794 5.673 2.931l.022-.033Z" style="mix-blend-mode:color-dodge"/><path fill="url(#g)" d="M353.808 301.939s-6.709-2.247-8.503-3.556c-1.771-1.342-4.336-.45-6.414-.136-2.079.313-27.895-5.021-27.895-5.021s24.307 6.08 25.679 8.012c1.372 1.932 5.222 2.818 5.222 2.818s-1.941-2.222 1.193-2.681c3.133-.46 10.751.586 10.751.586l-.033-.022Z"/><path fill="url(#h)" d="M383.188 287.23s-10.411-4.13-13.747-2.948c-3.336 1.183-5.111-1.356-5.111-1.356l-27.074-8.001s24.534 4.896 25.121 4.099c.587-.797-3.349-3.747 4.31-4.106s6.653 2.542 7.451 3.13c.798.588 10.734 8.602 16.937 9.264 6.203.662-7.887-.082-7.887-.082Z"/><defs><linearGradient id="a" x1="456.38" x2="400.643" y1="308.678" y2="301.822" gradientUnits="userSpaceOnUse"><stop stop-color="#FFFF73"/><stop offset=".17" stop-color="#FBEA70"/><stop offset=".52" stop-color="#F2B769"/><stop offset="1" stop-color="#E46860"/></linearGradient><linearGradient id="b" x1="459.591" x2="383.275" y1="306.632" y2="298.008" gradientUnits="userSpaceOnUse"><stop stop-color="#FF6873"/><stop offset=".19" stop-color="#FF7C6C"/><stop offset=".57" stop-color="#FFAF5A"/><stop offset="1" stop-color="#FFF145"/></linearGradient><linearGradient id="c" x1="465.319" x2="127.966" y1="310.221" y2="254.633" gradientUnits="userSpaceOnUse"><stop stop-color="#DE8F1E"/><stop offset=".1" stop-color="#BD7919"/><stop offset=".27" stop-color="#845511"/><stop offset=".45" stop-color="#54360B"/><stop offset=".61" stop-color="#301E06"/><stop offset=".76" stop-color="#150D02"/><stop offset=".9" stop-color="#050300"/><stop offset="1"/></linearGradient><linearGradient id="d" x1="463.085" x2="125.708" y1="323.865" y2="268.309" gradientUnits="userSpaceOnUse"><stop stop-color="#DE8F1E"/><stop offset=".1" stop-color="#BD7919"/><stop offset=".27" stop-color="#845511"/><stop offset=".45" stop-color="#54360B"/><stop offset=".61" stop-color="#301E06"/><stop offset=".76" stop-color="#150D02"/><stop offset=".9" stop-color="#050300"/><stop offset="1"/></linearGradient><linearGradient id="e" x1="402.23" x2="462.654" y1="292.562" y2="312.37" gradientUnits="userSpaceOnUse"><stop stop-color="#471428"/><stop offset=".31" stop-color="#5E1B2D"/><stop offset=".96" stop-color="#992F3B"/><stop offset="1" stop-color="#9D313C"/></linearGradient><linearGradient id="f" x1="480.041" x2="391.115" y1="318.655" y2="288.34" gradientUnits="userSpaceOnUse"><stop stop-color="#FFFF73"/><stop offset=".11" stop-color="#EAEA69"/><stop offset=".33" stop-color="#B6B652"/><stop offset=".65" stop-color="#63632C"/><stop offset="1"/></linearGradient><linearGradient id="g" x1="273.499" x2="323.651" y1="284.086" y2="296.119" gradientUnits="userSpaceOnUse"><stop stop-color="#FF6873"/><stop offset=".19" stop-color="#FF7C6C"/><stop offset=".57" stop-color="#FFAF5A"/><stop offset="1" stop-color="#FFF145"/></linearGradient><linearGradient id="h" x1="251.79" x2="317.805" y1="251.51" y2="267.33" gradientUnits="userSpaceOnUse"><stop stop-color="#FF6873"/><stop offset=".19" stop-color="#FF7C6C"/><stop offset=".57" stop-color="#FFAF5A"/><stop offset="1" stop-color="#FFF145"/></linearGradient></defs></svg>