<svg xmlns="http://www.w3.org/2000/svg" width="241" height="230" fill="none"><path fill="#FEE7FF" fill-rule="evenodd" d="M-261.322-24.165c0 140.03 112.416 253.548 251.086 253.548 117.88 0 216.778-81.985 243.814-192.557a257.061 257.061 0 0 0 7.313-60.99c0-9.295-.493-18.464-1.438-27.509-13.6-127.126-120.181-226.081-249.648-226.081-138.67 0-251.086 113.518-251.086 253.59h-.041Z" clip-rule="evenodd"/><g fill="#5B3C6C" fill-rule="evenodd" clip-rule="evenodd" opacity=".2"><path d="M53.203 147.238c-3.164 6.804-5.259 12.779-10.641 18.421-5.835 6.141-10.396 7.261-17.956 9.502-4.396 1.286-5.341 2.862-10.929 2.779-3.657-.041-8.752-.954-12.326-.165-7.971 1.825-12.203 8.961-21.12 9.459-8.463.457-13.928-2.365-21.283-4.647-6.902-2.116-14.956-5.186-21.365-7.634-6.985-2.697-13.272-4.564-20.544-6.929-7.766-2.531-11.751-7.758-21.53-5.02-.616 3.651.288 9.46-4.191 11.285-3.04 1.245-8.135-1.991-11.422-3.277-8.505-3.32-16.23-5.145-24.324-8.547-3.903-1.66-6.738-1.536-10.724-4.523-3.821-2.863-7.93-4.979-11.874-7.676-7.355-4.937-14.545-10.331-21.859-15.351-14.051-9.667-23.091-22.861-31.637-36.885-4.479-7.385-7.067-15.476-9.902-23.898-3.451-10.331-2.301-13.277 4.561-21.741 12.285 5.186 17.174-2.531 13.764-15.808-3-11.617-4.273-27.093-1.685-39.25.452-2.157 2.096-3.693 2.466-6.763.41-3.36-.288-5.892.575-9.294 1.438-5.56 2.424-9.335 2.383-15.351 0-6.016-.822-12.613.657-18.422.945-3.651 2.26-5.228 2.425-9.21.205-4.108-.494-7.676.616-11.577 2.917-10.248 12.203-13.11 20.585-16.056 5.711-1.992 8.587-3.983 12.244-.042 3.903 4.19 2.917 9.958 2.958 15.393.082 10.248-6.492 19.293-12.162 27.633-2.506 3.692-6.944 7.302-6.327 12.364.369 2.821 3.78 3.236 3.574 6.057-.246 3.403-3.903 4.44-5.711 6.846-14.504 19.127 12.819 35.972 25.885 46.138 7.437 5.808 18.613 8.754 21.448 18.38 3.04 10.29-3.985 18.836-7.683 27.632-3.863 9.17-7.232 25.31-1.562 33.939 2.424 3.693 7.108 5.851 10.724 7.635 5.341 2.614 7.355 5.808 12.08 9.294 7.683 5.642 17.174 7.509 26.707 6.887 6.04-.373 10.436-2.863 15.202-6.224 3.657-2.572 8.546-7.26 12.86-8.505 3.082-.871 5.383-.208 8.506-.623 4.273-.539 5.095-2.323 8.875-3.319 6.45-1.701 11.052 2.946 16.147 5.518 4.314 2.199 9.409 5.353 14.627 3.984 5.013-1.328 10.888-4.606 15.737-5.602 11.586-2.406 30.404-3.277 39.69 4.689 4.684 4.024 6.328 9.626 10.519 13.858 4.19 4.232 11.75 5.103 12.983 14.521l-.04.125Z"/><path d="M22.798 208.685c2.753 3.111 6.04.954 9.163-.042 3-.954 5.67-1.494 9.08-1.494 6.698.042 12.696.042 19.024-1.535 5.999-1.493 11.751-2.406 17.503-3.858 2.301-.581 4.479-1.867 6.78-2.365 1.438-.291 3.04.207 4.478-.083.699-.125.74-.954 1.233-1.079 1.192-.249 2.3-.083 3.451-.29 5.752-1.038 11.176-2.78 16.312-4.315 2.424-.747 4.643-.83 6.903-2.199 2.342-1.453 5.547-3.029 7.642-4.606 8.218-6.14 17.175-11.285 24.653-18.836 7.067-7.137 14.298-13.692 21.694-20.331 1.725-1.535 3.081-3.568 4.889-5.02 1.972-1.577 3.862-2.282 5.711-4.191 3.821-3.941 6.821-8.215 9.903-12.696 5.998-8.754 13.723-15.932 18.448-25.475 2.301-4.647 4.355-9.128 7.026-13.567 1.684-2.78 3.369-6.224 4.602-9.294.945-2.323 2.793-5.02 3.41-7.26.945-3.32.945-6.473 1.808-9.668.41-1.41 1.315-2.323 1.643-3.734.411-1.743-.493-3.776-.123-5.518.329-1.535 1.315-2.24 1.643-3.693.411-1.742-.493-3.776-.123-5.518.329-1.535 1.315-2.24 1.644-3.693.493-1.95-.617-4.315-.165-6.306.37-1.452 1.315-2.158 1.644-3.693.328-1.576-.041-3.776-.041-5.435 0-3.942 1.356-7.012 1.561-10.746.164-3.444.74-8.257 0-11.576-.329-1.535-1.315-2.24-1.643-3.693-.493-2.033.493-4.066-.165-6.099-4.109-1.078-2.794 7.718-2.794 9.875 0 3.983-1.602 6.14-1.52 10 .123 4.77-1.849 5.393-4.643 8.878-1.191 1.494-3.985 4.44-4.561 6.39-.41 1.286-.369 3.402-.698 4.688-.411 1.577-.781 2.655-.74 4.605.083 3.735.288 5.643-2.629 8.05-2.014 1.66-5.424 3.734-7.93 4.315-3.451.788-6.492.746-10.025 1.41-1.603.29-2.178 1.328-3.657 1.66-1.931.456-3.986-.747-5.876.207-1.767.913-4.027 4.481-4.52 6.182-.945 3.32-.287 6.017 1.192 8.88.534 1.037.945 2.074 1.52 3.07.699 1.161 2.096 2.24 2.753 3.402 2.876 5.31-1.273 13.94-2.424 18.463-.452 1.743-3.04 7.053-1.602 8.671 1.438 1.619 10.066.208 11.709-.746.945 1.95-.862 5.684-1.438 7.717-.657 2.406-1.808 5.892-3.246 8.215-2.752 4.564-7.724 8.837-12.408 11.327-3.081 1.659-4.972 2.489-5.547-1.701-.246-1.909.288-2.946-.657-4.689-.699-1.244-1.931-1.41-2.424-2.946-.535-1.659.534-3.817.123-5.518-.288-1.244-1.191-2.033-1.438-3.153-.822-3.61.534-7.717-.041-11.368-1.233-7.386-6.656-10.705-12.984-12.282-6.451-1.618-12.819-3.402-18.941-6.14-6.862-3.07-14.258-4.19-21.366-1.909-5.834 1.868-10.436 5.394-15.777 8.257-2.465 1.328-4.684 1.909-7.067 2.821-2.794 1.08-5.67 2.158-8.465 2.988-5.012 1.452-10.806 2.282-15.448 5.103-4.356 2.614-10.231 6.099-13.354 10.373-2.958 4.066-5.793 12.488-3.657 17.591 1.603 3.859 7.396 7.22 10.149 10.497 4.684 5.519 3.41 9.211 0 14.937-1.274 2.075-3.451 4.813-4.068 7.095-.78 2.987-.328 7.51-.164 10.621.164 2.946 1.068 4.896 2.63 7.303 1.479 2.282 4.971 3.734 6.204 6.016 1.11 2.074.082 3.153-.78 4.73-.247.456-.987.581-1.234 1.037-.575 1.079-.205 2.116-.657 3.153-1.52 3.527-4.52 2.988-7.642 3.817-3.205.872-6.04.498-9.163-.705-1.849-.747-2.465-1.286-4.478-1.618-2.22-.332-3.287.871-4.93 1.203-3.74.788-5.876-1.825-9.615-1.991-2.959-.166-4.849 1.161-7.15 3.526-1.93 1.95-4.642 5.187-4.314 8.091.33 2.987 4.109 4.854 6.204 7.634v-.124ZM51.684 93.507a22.758 22.758 0 0 0-2.67-1.328c-2.384 2.78-5.055 5.56-7.972 7.427-4.438 2.821-6.657 1.037-7.643-3.776-.534-2.448.78-3.983 1.233-5.767.493-2.033 0-4.232 2.178-5.476 2.958-1.785 11.628-.872 10.354 4.314l4.561 4.606h-.04Z"/><path d="M201.612 30.69c4.191 1.036 3.822-5.436 3.246-7.843-1.808-.331-3.739-1.493-5.465-1.41-1.849.083-5.095 1.618-6.574 2.655-3.287 2.324-5.095 6.182-3.164 10.04 1.233 2.449 6.78 6.142 9.492 4.357 2.424-1.618 3.698-7.51 3.657-10.082l-1.151 2.282h-.041Z"/></g></svg>