<svg xmlns="http://www.w3.org/2000/svg" width="64" height="64" fill="none"><g clip-path="url(#a)"><path fill="url(#b)" fill-rule="evenodd" d="M28.007 4.172A5.124 5.124 0 0 1 33.934.008l8.933 1.557a1 1 0 0 1-.343 1.97l-4.146-.722C37.2 6.857 33.349 9.557 29.142 9.29l-1.84 10.516a1.211 1.211 0 0 1-.007.043l-3.687 21.074c4.048 1.173 6.755 5.017 6.49 9.22l3.563.621.054.01 4.457.776a1 1 0 1 1-.343 1.97l-3.101-.54.316 1.95a5.125 5.125 0 0 1-4.247 5.877l-19.703 3.181a5.13 5.13 0 0 1-5.885-4.24L1.64 37.725a1 1 0 0 1 1.975-.32l3.029 18.694a7.578 7.578 0 0 1 7.465 5.378l13.035-2.105a7.57 7.57 0 0 1 4.194-6.982l-6.367-1.11a5.115 5.115 0 0 1-3.64-2.633 8.547 8.547 0 0 1-11.754-4.056 1 1 0 0 1 1.012-1.405 6.54 6.54 0 0 0 5.966-2.675 6.51 6.51 0 0 0 .662-6.49 1 1 0 0 1 1.012-1.405 8.509 8.509 0 0 1 4.48 1.834l1.609-9.191a7.556 7.556 0 0 1-3.403-4.33L7.88 23.034a7.569 7.569 0 0 1-5.386 7.452l.512 3.165a1 1 0 1 1-1.974.32L-.02 27.475a5.125 5.125 0 0 1 4.246-5.877l19.702-3.181a5.121 5.121 0 0 1 1.588-.01l2.49-14.235Zm-2.835 16.206a3.116 3.116 0 0 0-.922.013l-1.337.216a5.544 5.544 0 0 0 1.783 2.491l.476-2.72ZM2.17 28.488a5.57 5.57 0 0 0 3.712-5.131l-1.337.215a3.125 3.125 0 0 0-2.591 3.583l.216 1.333Zm20.127 8.325a6.532 6.532 0 0 0-1.106-1.005 6.543 6.543 0 0 0-1.578-.839 8.493 8.493 0 0 1-1.437 6.714 8.518 8.518 0 0 1-5.927 3.477 6.55 6.55 0 0 0 8.497 1.523 5.129 5.129 0 0 1 .057-1.334l1.494-8.536Zm10.556 17.105a5.57 5.57 0 0 0-3.711 5.131l1.336-.216a3.125 3.125 0 0 0 2.591-3.583l-.216-1.332ZM12.11 61.799a5.58 5.58 0 0 0-5.143-3.702l.216 1.332a3.13 3.13 0 0 0 3.592 2.586l1.335-.216Zm16.002-12.001a7.028 7.028 0 0 0-4.851-6.889l-.488 2.785c-.297 1.7.84 3.32 2.541 3.616l2.798.488Zm1.377-42.492a7.04 7.04 0 0 0 6.903-4.84l-2.802-.488a3.124 3.124 0 0 0-3.613 2.539l-.488 2.789ZM45.69 3.072a1 1 0 0 1 1.157-.813l12.947 2.257a5.124 5.124 0 0 1 4.167 5.93l-7.204 41.178a5.124 5.124 0 0 1-5.927 4.164l-8.9-1.551a1 1 0 0 1 .343-1.97l4.113.716c1.177-4.044 5.03-6.744 9.236-6.478l5.534-31.633c-4.048-1.173-6.755-5.017-6.49-9.22L46.504 4.23a1 1 0 0 1-.813-1.157Zm10.962 2.926a7.028 7.028 0 0 0 4.852 6.889l.487-2.785c.297-1.7-.84-3.32-2.54-3.616l-2.799-.488ZM55.275 48.49a7.04 7.04 0 0 0-6.902 4.84l2.8.488a3.124 3.124 0 0 0 3.614-2.539l.488-2.789ZM43.452 21.234a.158.158 0 0 0-.074.065l-1.8 2.693a1 1 0 0 1-1.108.405l-3.115-.898a.16.16 0 0 0-.1-.002.18.18 0 0 0-.08.056.177.177 0 0 0-.04.087.154.154 0 0 0 .018.095l1.437 2.902a1 1 0 0 1-.203 1.165l-2.337 2.244a.156.156 0 0 0-.051.083.177.177 0 0 0 .01.096.179.179 0 0 0 .054.079.159.159 0 0 0 .094.032l3.237.209a1 1 0 0 1 .906.757l.778 3.142c.012.048.03.071.047.086.02.018.05.034.09.04a.182.182 0 0 0 .098-.008.158.158 0 0 0 .073-.064l1.8-2.694a1 1 0 0 1 1.108-.405l3.116.898a.16.16 0 0 0 .1.002.18.18 0 0 0 .079-.056.178.178 0 0 0 .041-.087.154.154 0 0 0-.02-.095l-1.436-2.902a1 1 0 0 1 .204-1.165l2.337-2.244a.156.156 0 0 0 .05-.083.177.177 0 0 0-.009-.096.179.179 0 0 0-.055-.08.159.159 0 0 0-.094-.03l-3.236-.21a1 1 0 0 1-.906-.757l-.779-3.142a.156.156 0 0 0-.047-.086.183.183 0 0 0-.089-.04.183.183 0 0 0-.098.008Zm2.176-.363.602 2.432 2.506.162c1.88.121 2.727 2.419 1.364 3.727l-1.808 1.737 1.111 2.245c.839 1.694-.74 3.566-2.548 3.045l-2.412-.696-1.394 2.085c-1.046 1.567-3.459 1.148-3.912-.683l-.603-2.432-2.505-.162c-1.88-.121-2.728-2.419-1.365-3.727l1.808-1.737-1.11-2.245c-.84-1.694.738-3.567 2.547-3.045l2.413.696 1.393-2.085c1.046-1.567 3.46-1.148 3.913.683ZM30.713 37.429a1 1 0 0 1 .813 1.157l-.259 1.478a1 1 0 1 1-1.97-.345l.259-1.478a1 1 0 0 1 1.157-.813Zm9.266 4.206c-.475-.082-1.123.286-1.265 1.098-.142.811.342 1.376.817 1.459.475.083 1.123-.286 1.265-1.098.142-.81-.342-1.376-.817-1.459Zm-3.235.753c.296-1.688 1.816-3.03 3.579-2.723 1.763.308 2.739 2.086 2.443 3.774-.295 1.688-1.816 3.03-3.578 2.723-1.764-.307-2.74-2.085-2.444-3.774Zm13.38-1.575a1 1 0 0 1 .813 1.157l-.258 1.478a1 1 0 1 1-1.97-.345l.258-1.478a1 1 0 0 1 1.158-.812Z" clip-rule="evenodd"/></g><defs><linearGradient id="b" x1="6.119" x2="51.627" y1="12.859" y2="57.333" gradientUnits="userSpaceOnUse"><stop stop-color="#4483FF"/><stop offset="1" stop-color="#C40EE1"/></linearGradient><clipPath id="a"><path fill="#fff" d="M0 0h64v64H0z"/></clipPath></defs></svg>