<svg xmlns="http://www.w3.org/2000/svg" width="64" height="64" fill="none"><path fill="url(#a)" d="M64 22.824c-.024-2.69-5.002-3.91-17.887-3.91C15.879 18.914 8.208 17.624 0 9c3.453 5.178 5.343 14.891 37.3 14.408 33.34-.513 13 8.583 7.082 18.86C55.055 32.759 63.968 26.489 64 22.864v-.039ZM21.514 50.443c0 2.5-2.06 4.556-4.565 4.557-2.53 0-4.575-2.042-4.575-4.557v-.004c0-2.504 2.064-4.565 4.573-4.565h.002a4.565 4.565 0 0 1 4.566 4.569Zm20.821 0c0 2.5-2.06 4.556-4.565 4.557-2.527 0-4.574-2.042-4.574-4.557v-.004c0-2.504 2.064-4.565 4.572-4.565h.002a4.565 4.565 0 0 1 4.565 4.569Z"/><defs><linearGradient id="a" x1="12.387" x2="41.232" y1="11.597" y2="62.218" gradientUnits="userSpaceOnUse"><stop stop-color="#2EFFFF"/><stop offset="1" stop-color="#B132FF"/></linearGradient></defs></svg>