<svg xmlns="http://www.w3.org/2000/svg" width="64" height="64" fill="none"><path fill="url(#a)" d="M61.813 8H2.187A2.19 2.19 0 0 0 0 10.188v9.853a.938.938 0 0 0 1.875 0v-2.288h60.25v4.59H26.041a2.19 2.19 0 0 0-2.187 2.188v3.352h-7.688a2.19 2.19 0 0 0-2.187 2.187v11.7a2.19 2.19 0 0 0 2.188 2.188h7.687v3.352a2.19 2.19 0 0 0 2.188 2.187h14.22a.938.938 0 0 0 0-1.875h-14.22a.312.312 0 0 1-.313-.312v-3.352h2.938a2.19 2.19 0 0 0 2.187-2.188v-11.7a2.19 2.19 0 0 0-2.188-2.187H25.73V24.53c0-.173.14-.313.313-.313h36.083v23.404h-16.89a.938.938 0 0 0 0 1.875h16.89v5.187c0 .172-.14.313-.313.313h-41.33a.938.938 0 0 0 0 1.875h41.33A2.19 2.19 0 0 0 64 54.684V10.188A2.19 2.19 0 0 0 61.812 8ZM28.666 42.083h-12.5a.313.313 0 0 1-.312-.313v-7.556h13.125v7.556c0 .172-.14.313-.313.313Zm.313-12.013v2.269H15.854V30.07c0-.172.14-.312.313-.312h12.5c.172 0 .312.14.312.312ZM1.875 15.878v-5.69c0-.173.14-.313.313-.313h59.624c.173 0 .313.14.313.313v5.69H1.875Z"/><path fill="url(#b)" d="M16.167 54.997H2.187a.312.312 0 0 1-.312-.313V43.958h5.333a2.19 2.19 0 0 0 2.188-2.188v-11.7a2.19 2.19 0 0 0-2.188-2.187H1.875v-3.526a.938.938 0 0 0-1.875 0v30.327a2.19 2.19 0 0 0 2.188 2.188h13.979a.937.937 0 1 0 0-1.875ZM7.208 42.083H1.876v-7.87h5.646v7.557c0 .172-.14.313-.313.313Zm0-12.325c.173 0 .313.14.313.312v2.269H1.875v-2.581h5.333ZM5.944 11.94H5.93a.938.938 0 1 0 0 1.875h.014a.938.938 0 0 0 0-1.875Zm2.83 0H8.76a.938.938 0 0 0 0 1.875h.014a.938.938 0 0 0 0-1.875Zm2.831 0h-.014a.937.937 0 1 0 0 1.875h.014a.938.938 0 0 0 0-1.875Zm46.467 0h-1.745a.938.938 0 0 0 0 1.875h1.745a.938.938 0 0 0 0-1.875ZM38.162 33.551a.938.938 0 0 0-1.275 1.374l.843.783-.843.782a.939.939 0 0 0 1.275 1.375l1.584-1.47a.937.937 0 0 0 0-1.374l-1.584-1.47Z"/><path fill="url(#c)" d="M37.948 30.693a5.021 5.021 0 0 0-5.015 5.016 5.021 5.021 0 0 0 5.015 5.016 5.021 5.021 0 0 0 5.015-5.016 5.021 5.021 0 0 0-5.015-5.016Zm0 8.157a3.144 3.144 0 0 1-3.14-3.141 3.144 3.144 0 0 1 3.14-3.14c1.732 0 3.14 1.408 3.14 3.14a3.144 3.144 0 0 1-3.14 3.14Zm7.927-9.092H49a.938.938 0 0 0 0-1.875h-3.125a.938.938 0 0 0 0 1.875Zm0 2.603H51a.938.938 0 0 0 0-1.875h-5.125a.938.938 0 0 0 0 1.875Zm0 4.286h13a.938.938 0 0 0 0-1.875h-13a.938.938 0 0 0 0 1.875Zm13 .852H51a.938.938 0 0 0 0 1.874h7.875a.938.938 0 0 0 0-1.874Zm-13 1.874h2.25a.938.938 0 0 0 0-1.874h-2.25a.938.938 0 0 0 0 1.874Zm0 2.727h13a.937.937 0 1 0 0-1.875h-13a.938.938 0 0 0 0 1.875ZM16.292 26.081a.938.938 0 0 0 0-1.875h-1.376a.938.938 0 0 0 0 1.875h1.376Z"/><defs><linearGradient id="a" x1="12.387" x2="43.95" y1="10.759" y2="62.895" gradientUnits="userSpaceOnUse"><stop stop-color="#1CFF4E"/><stop offset="1" stop-color="#32FFDA"/></linearGradient><linearGradient id="b" x1="12.387" x2="43.95" y1="10.759" y2="62.895" gradientUnits="userSpaceOnUse"><stop stop-color="#1CFF4E"/><stop offset="1" stop-color="#32FFDA"/></linearGradient><linearGradient id="c" x1="12.387" x2="43.95" y1="10.759" y2="62.895" gradientUnits="userSpaceOnUse"><stop stop-color="#1CFF4E"/><stop offset="1" stop-color="#32FFDA"/></linearGradient></defs></svg>