<svg xmlns="http://www.w3.org/2000/svg" width="1920" height="814" fill="none"><path fill="url(#a)" fill-rule="evenodd" d="M207.755 470.398s203.52 65.261 234.372 69.358c30.851 4.097 13.757-29.494 29.915-28.993 40.224 1.255 166.196 73.566 166.196 73.566s22.046 11.257 44.832-1.071c22.787-12.351 57.108-1.141 57.108-1.141l63.51 27.414s-174.715-24.989-201.774-16.638c-27.06 8.35-41.489-1.685-71.8-12.535-30.336-10.851-123.874-53.029-148.32-42.099-24.445 10.907-297.245 17.757-334.214 3.308-36.97-14.449-145.215-94.045-145.215-94.045s255.291 21.708 305.39 22.854v.022Z" clip-rule="evenodd" opacity=".1" style="mix-blend-mode:screen"/><path fill="url(#b)" fill-rule="evenodd" d="M1610.92 533.96s72.18-23.144 110.18-27.975c38.01-4.83 49.8 9.032 49.8 9.032s29.46 3.242 51.55-2.231c22.1-5.459 31.6-28.192 47.83-36.23 16.25-8.023 51.33 17.11 51.33 17.11l95.63-40.949 62.08-24.977s-72.88 37.705-86.63 46.774c-13.75 9.069-101.45 58.368-117.7 66.392-16.25 8.024-28.16.057-47.04 12.902-18.9 12.855-40.3 27.621-63.89 35.539-23.59 7.919-67.95 16.007-90.71 18.331-22.76 2.323-55.72.344-55.72.344l-54.09-9.352-61.04 6.018-215.4-90.428s145.55-28.437 203.49-26.371c21.91.777 120.33 46.071 120.33 46.071Z" clip-rule="evenodd" opacity=".1" style="mix-blend-mode:screen"/><path fill="url(#c)" fill-rule="evenodd" d="M1429.8 97.176s54.22-15.502 83.21-18.404c28.99-2.901 38.88 7.167 38.88 7.167s22.87 2.733 39.57-.847 22-9.218 34.04-14.719c12.04-5.5 34.22 6.091 34.22 6.091l65.99-3.586 68-5.426s-68.01 6.805-78.06 13.098c-10.05 6.292-70.02 19.89-82.06 25.39-12.04 5.501-21.68-.365-35.47 8.547-13.78 8.911-29.41 19.159-47.1 24.481-17.69 5.321-51.39 10.46-68.77 11.801-17.39 1.33-42.9-.54-42.9-.54l-42.21-7.461-46.65 3.429-171.26-67.74s110.43-18.234 155.17-15.922c16.93.868 95.4 34.654 95.4 34.654v-.013Z" clip-rule="evenodd" opacity=".1" style="mix-blend-mode:screen"/><defs><linearGradient id="a" x1="589.148" x2="100.63" y1="522.117" y2="686.243" gradientUnits="userSpaceOnUse"><stop stop-color="#402C4E"/><stop offset=".956" stop-color="#402C4E" stop-opacity=".36"/></linearGradient><linearGradient id="b" x1="1800.93" x2="1455.43" y1="310.347" y2="577.15" gradientUnits="userSpaceOnUse"><stop stop-color="#402C4E"/><stop offset=".956" stop-color="#402C4E" stop-opacity=".36"/></linearGradient><linearGradient id="c" x1="1321.77" x2="1689" y1="104.722" y2="86.228" gradientUnits="userSpaceOnUse"><stop stop-color="#402C4E"/><stop offset=".956" stop-color="#402C4E" stop-opacity=".36"/></linearGradient></defs></svg>