<svg xmlns="http://www.w3.org/2000/svg" width="1920" height="1512" fill="none"><path fill="#D7D3F4" fill-opacity=".1" d="M551.833 384.584c.378.212 1.159-.462 1.745-1.506.585-1.044.753-2.062.375-2.274-.379-.212-1.16.462-1.745 1.506-.585 1.043-.753 2.061-.375 2.274ZM597.163 276.252c.378.212 1.159-.462 1.744-1.506.586-1.043.754-2.061.375-2.273-.378-.212-1.159.462-1.744 1.505-.586 1.044-.754 2.062-.375 2.274ZM1519.15 1009.49c.38.21 1.16-.46 1.75-1.51.58-1.04.75-2.06.37-2.27-.37-.21-1.16.46-1.74 1.5-.59 1.05-.75 2.07-.38 2.28ZM1649.67 901.733c.37.212 1.16-.462 1.74-1.506.59-1.043.75-2.061.38-2.273-.38-.212-1.16.462-1.75 1.505-.58 1.044-.75 2.062-.37 2.274ZM552.948 421.088c.378.212 1.159-.462 1.744-1.506.586-1.044.753-2.062.375-2.274-.378-.212-1.159.462-1.745 1.506-.585 1.043-.753 2.061-.374 2.274ZM870.953 917.995c-.588 1.05-1.364 1.719-1.744 1.505-.381-.213-.214-1.224.375-2.273.588-1.05 1.364-1.719 1.744-1.506.381.213.214 1.224-.375 2.274ZM875.614 970.293c.378.212 1.159-.462 1.745-1.506.585-1.043.753-2.061.375-2.273-.379-.213-1.16.462-1.745 1.505-.586 1.044-.753 2.062-.375 2.274ZM1300.3 701.608c.38.212 1.16-.462 1.74-1.506.59-1.043.76-2.061.38-2.273-.38-.213-1.16.462-1.75 1.505-.58 1.044-.75 2.062-.37 2.274ZM1871 1025.86c-.59 1.05-1.36 1.72-1.74 1.51-.39-.22-.22-1.23.37-2.28.59-1.05 1.36-1.71 1.74-1.5.39.21.22 1.22-.37 2.27ZM1586.17 764.775c.38.212 1.16-.462 1.75-1.506.58-1.043.75-2.061.37-2.273-.38-.213-1.16.462-1.74 1.505-.59 1.044-.76 2.062-.38 2.274ZM1471.04 723.39c.38.213 1.16-.461 1.74-1.505.59-1.044.76-2.062.38-2.274-.38-.212-1.16.462-1.75 1.506-.58 1.043-.75 2.061-.37 2.273ZM723.429 848.896c.378.213 1.159-.461 1.744-1.505.586-1.044.753-2.062.375-2.274-.378-.212-1.159.462-1.744 1.506-.586 1.043-.754 2.061-.375 2.273ZM816.469 480.444c.378.212 1.16-.462 1.745-1.506.585-1.043.753-2.061.375-2.274-.379-.212-1.16.462-1.745 1.506-.585 1.044-.753 2.062-.375 2.274ZM866.726 444.376c.378.212 1.159-.462 1.744-1.505.586-1.044.753-2.062.375-2.274-.378-.212-1.159.462-1.744 1.505-.586 1.044-.754 2.062-.375 2.274ZM1333.46 820.339c.38.212 1.16-.462 1.75-1.506.58-1.043.75-2.061.37-2.273-.37-.212-1.16.462-1.74 1.505-.59 1.044-.75 2.062-.38 2.274ZM636.205 838.511c.379.212 1.16-.462 1.745-1.506.585-1.044.753-2.062.375-2.274-.378-.212-1.16.462-1.745 1.506-.585 1.043-.753 2.061-.375 2.274ZM1039.82 653.173c-.59 1.049-1.37 1.719-1.75 1.505-.38-.213-.21-1.224.38-2.274.59-1.049 1.36-1.719 1.74-1.505.38.213.22 1.224-.37 2.274ZM447.032 570.956c.379.212 1.16-.462 1.745-1.506.585-1.044.753-2.062.375-2.274-.378-.212-1.16.462-1.745 1.506-.585 1.044-.753 2.062-.375 2.274ZM453.423 621.738c.378.212 1.159-.462 1.745-1.505.585-1.044.753-2.062.375-2.274-.379-.212-1.16.462-1.745 1.505-.585 1.044-.753 2.062-.375 2.274ZM302.982 498.837c-.589 1.05-1.364 1.719-1.745 1.505-.38-.213-.214-1.224.375-2.273.589-1.05 1.364-1.719 1.745-1.506.38.213.214 1.224-.375 2.274ZM394.293 131.898c.378.212 1.159-.462 1.745-1.505.585-1.044.753-2.062.375-2.274-.379-.212-1.16.462-1.745 1.506-.585 1.043-.753 2.061-.375 2.273ZM461.004 174.222c.379.212 1.16-.462 1.745-1.506.585-1.043.753-2.061.375-2.273-.378-.213-1.159.461-1.745 1.505-.585 1.044-.753 2.062-.375 2.274ZM214.03 489.963c.378.213 1.159-.461 1.745-1.505.585-1.044.753-2.062.375-2.274-.379-.212-1.16.462-1.745 1.506-.585 1.043-.753 2.061-.375 2.273ZM615.881 306.123c.378.213 1.159-.462 1.745-1.505.585-1.044.753-2.062.375-2.274-.379-.212-1.16.462-1.745 1.506-.585 1.043-.753 2.061-.375 2.273ZM1285.39 779.748c.38.212 1.16-.462 1.74-1.506.59-1.044.75-2.062.38-2.274-.38-.212-1.16.462-1.75 1.506-.58 1.043-.75 2.061-.37 2.274ZM1507.79 940.134c.38.212 1.16-.462 1.75-1.506.58-1.043.75-2.061.37-2.273-.38-.213-1.16.461-1.74 1.505-.59 1.044-.75 2.062-.38 2.274ZM1180.19 968.931c.38.212 1.16-.462 1.74-1.505.59-1.044.76-2.062.38-2.274-.38-.212-1.16.462-1.75 1.505-.58 1.044-.75 2.062-.37 2.274ZM1226.96 1070.4c.37.21 1.16-.46 1.74-1.51.59-1.04.75-2.06.38-2.27-.38-.21-1.16.46-1.75 1.5-.58 1.05-.75 2.07-.37 2.28ZM1604.37 1138.81c.38.22 1.16-.46 1.75-1.5.58-1.05.75-2.06.37-2.28-.38-.21-1.16.47-1.74 1.51-.59 1.04-.75 2.06-.38 2.27ZM824.278 615.705c.378.212 1.159-.462 1.745-1.506.585-1.044.753-2.062.374-2.274-.378-.212-1.159.462-1.744 1.506-.586 1.043-.753 2.061-.375 2.274ZM954.792 507.946c.378.212 1.159-.462 1.744-1.505.586-1.044.754-2.062.375-2.274-.378-.212-1.159.462-1.744 1.505-.586 1.044-.754 2.062-.375 2.274ZM605.41 307.813c.379.213 1.16-.461 1.745-1.505.585-1.044.753-2.062.375-2.274-.378-.212-1.16.462-1.745 1.506-.585 1.043-.753 2.061-.375 2.273ZM893.026 369.476c-.589 1.05-1.364 1.719-1.745 1.506-.38-.213-.214-1.224.375-2.274s1.364-1.719 1.745-1.505c.38.213.214 1.224-.375 2.273ZM776.148 329.599c.378.212 1.159-.462 1.745-1.506.585-1.043.753-2.061.374-2.273-.378-.213-1.159.462-1.744 1.505-.586 1.044-.753 2.062-.375 2.274ZM638.587 426.556c.379.212 1.16-.462 1.745-1.505.585-1.044.753-2.062.375-2.274-.378-.212-1.159.462-1.745 1.505-.585 1.044-.753 2.062-.375 2.274ZM590.514 385.959c.378.212 1.159-.462 1.744-1.505.586-1.044.753-2.062.375-2.274-.378-.212-1.159.462-1.744 1.505-.586 1.044-.754 2.062-.375 2.274ZM973.969 414.926c.378.212 1.159-.462 1.745-1.505.585-1.044.753-2.062.375-2.274-.379-.212-1.16.462-1.745 1.505-.585 1.044-.753 2.062-.375 2.274ZM175.414 125.678c.378.212 1.16-.462 1.745-1.505.585-1.044.753-2.062.375-2.274-.379-.212-1.16.462-1.745 1.505-.585 1.044-.753 2.062-.375 2.274ZM225.673 89.606c.379.212 1.16-.462 1.745-1.506.585-1.043.753-2.061.375-2.274-.378-.212-1.16.462-1.745 1.506-.585 1.044-.753 2.062-.375 2.274ZM184.953 259.423c-.589 1.05-1.364 1.719-1.744 1.506-.381-.214-.214-1.224.374-2.274.589-1.05 1.365-1.719 1.745-1.506.381.214.214 1.224-.375 2.274ZM313.721 153.174c.378.212 1.159-.462 1.744-1.506.586-1.044.753-2.062.375-2.274-.378-.212-1.159.462-1.744 1.506-.586 1.044-.754 2.062-.375 2.274ZM250.203 16.257c.379.212 1.16-.462 1.745-1.505.585-1.044.753-2.062.375-2.274-.378-.212-1.159.462-1.745 1.505-.585 1.044-.753 2.062-.375 2.274ZM332.915 60.158c.379.212 1.16-.462 1.745-1.505.585-1.044.753-2.062.375-2.274-.378-.212-1.159.462-1.745 1.506-.585 1.043-.753 2.061-.375 2.273ZM485.322 575.096c.378.213 1.16-.461 1.745-1.505.585-1.044.753-2.062.375-2.274-.379-.212-1.16.462-1.745 1.506-.585 1.043-.753 2.061-.375 2.273ZM532.066 676.604c.378.212 1.16-.462 1.745-1.505.585-1.044.753-2.062.375-2.274-.379-.212-1.16.462-1.745 1.506-.585 1.043-.753 2.061-.375 2.273ZM909.498 745.03c.378.212 1.159-.462 1.744-1.506.586-1.043.753-2.061.375-2.274-.378-.212-1.159.462-1.745 1.506-.585 1.044-.753 2.062-.374 2.274Z"/><path fill="#D7D3F4" fill-opacity=".1" fill-rule="evenodd" d="M1009.44 807.831c.77-4.008-12.328-10.641-13.185-6.329-.843 4.345 12.305 10.842 13.185 6.329ZM1060.7 1053.55c.78-4.01-12.32-10.64-13.18-6.33-.84 4.35 12.31 10.84 13.18 6.33ZM1109.69 914.088c2.87-6.415-12.33-10.64-13.18-6.328-.86 4.312 8.81 16.011 13.18 6.328ZM734.811 764.479c1.244-2.738-5.3-4.569-5.638-2.722-.361 1.856 3.779 6.845 5.638 2.722ZM856.661 1027.38c1.244-2.74-5.301-4.57-5.639-2.72-.338 1.85 3.78 6.85 5.639 2.72ZM990.884 949.465c.606-1.344-2.596-2.25-2.776-1.322-.181.928 1.869 3.374 2.776 1.322ZM602.552 728.145c1.244-2.738-5.278-4.578-5.639-2.722-.36 1.856 3.78 6.846 5.639 2.722ZM977.874 802.354c-.939-2.187-5.867-3.745-8.221-2.735-2.353 1.011-.98 7.884.722 8.97 1.702 1.087 9.153-2.382 7.499-6.235ZM894.997 937.653c-.939-2.188-5.867-3.745-8.221-2.735-2.353 1.01-.98 7.884.722 8.97 1.702 1.087 9.153-2.382 7.499-6.235ZM957.527 778.107c.431-.649-.533-3.445-1.543-4.635-1.025-1.223-2.846-.015-2.712.971.156.977 3.497 4.84 4.232 3.674l.023-.01ZM1005 1062.11c.44-.65-.53-3.45-1.54-4.64-1.02-1.22-2.84-.01-2.71.97.16.98 3.5 4.84 4.23 3.68l.02-.01ZM814.833 1023.84c.431-.65-.532-3.44-1.543-4.63-1.024-1.23-2.846-.02-2.712.97.134.98 3.498 4.84 4.255 3.66ZM908.519 761.636c.431-.649-.533-3.445-1.543-4.635-1.025-1.223-2.847-.015-2.712.971.156.977 3.497 4.84 4.232 3.674l.023-.01ZM936.758 776.89c-2.434-2.242-5.469.183-4.684 2.011.785 1.828 5.61 1.922 5.862.732.229-1.182.033-1.639-1.178-2.743ZM1108.59 716.625c-2.44-2.242-5.47.182-4.69 2.011.79 1.828 5.61 1.922 5.86.731.25-1.19.04-1.638-1.17-2.742ZM1125.91 384.816c.77-4.008-12.33-10.641-13.19-6.329-.85 4.312 12.31 10.842 13.19 6.329ZM600.84 1099.5c.778-4.01-12.324-10.64-13.181-6.33-.844 4.34 12.305 10.84 13.181 6.33ZM1139.5 369.933c-.94-2.188-5.87-3.746-8.22-2.735-2.35 1.01-.98 7.883.72 8.97 1.7 1.086 9.15-2.383 7.5-6.235ZM1038.57 589.113c-.94-2.188-5.87-3.745-8.22-2.735-2.35 1.01-.98 7.883.72 8.97 1.71 1.087 9.16-2.382 7.5-6.235ZM139.944 1036.58c.777-4.01-12.325-10.64-13.182-6.33-.843 4.35 12.306 10.84 13.182 6.33ZM108.382 1031.11c-.939-2.19-5.867-3.75-8.221-2.74-2.353 1.01-.98 7.89.722 8.97 1.702 1.09 9.153-2.38 7.499-6.23ZM88.034 1006.86c.431-.65-.532-3.45-1.543-4.64-1.025-1.22-2.846-.01-2.712.97.156.98 3.497 4.84 4.255 3.67ZM39.026 990.388c.432-.649-.532-3.444-1.542-4.635-1.01-1.19-2.847-.015-2.713.971.157.977 3.498 4.84 4.255 3.664ZM67.266 1005.64c-2.435-2.24-5.47.18-4.685 2.01.785 1.83 5.61 1.92 5.862.73.252-1.19.033-1.63-1.177-2.74ZM169.08 817.865c-.939-2.188-5.868-3.746-8.221-2.735-2.354 1.01-.981 7.883.722 8.97 1.702 1.086 9.153-2.383 7.499-6.235ZM1037.76 446.28c.43-.65-.53-3.445-1.55-4.636-1.02-1.222-2.84-.015-2.69.962.16.977 3.5 4.84 4.24 3.674ZM1702.78 430.699c.78-4.007-12.33-10.64-13.18-6.328-.86 4.312 12.3 10.841 13.18 6.328ZM1754.02 676.428c.78-4.007-12.32-10.64-13.18-6.328-.86 4.312 12.3 10.841 13.18 6.328ZM1803.01 536.964c2.87-6.415-12.33-10.64-13.19-6.328-.84 4.344 8.82 16.011 13.19 6.328ZM1684.22 572.332c.61-1.344-2.59-2.25-2.77-1.322-.18.928 1.87 3.374 2.77 1.322ZM1671.19 425.232c-.94-2.187-5.86-3.745-8.22-2.735-2.35 1.011-.98 7.884.72 8.971 1.71 1.086 9.16-2.383 7.5-6.236ZM1650.87 400.975c.43-.649-.53-3.445-1.54-4.635-1.02-1.19-2.85-.015-2.72.971.16.977 3.5 4.84 4.26 3.664ZM1601.84 384.516c.43-.649-.53-3.445-1.54-4.635-1.03-1.223-2.85-.016-2.72.971.16.977 3.5 4.84 4.24 3.673l.02-.009ZM1630.08 399.767c-2.44-2.242-5.47.183-4.69 2.011.79 1.828 5.61 1.922 5.86.731.23-1.181.04-1.638-1.17-2.742ZM1801.91 339.502c-2.44-2.241-5.47.183-4.69 2.011.79 1.829 5.61 1.922 5.86.732.23-1.181.04-1.638-1.17-2.743ZM1731.91 211.981c-.93-2.187-5.86-3.745-8.22-2.735-2.35 1.011-.98 7.884.72 8.97 1.71 1.087 9.16-2.382 7.5-6.235ZM1731.1 69.148c.43-.65-.53-3.445-1.54-4.635s-2.85-.016-2.72.97c.14.987 3.5 4.84 4.24 3.674l.02-.01ZM380.475 1316.75c.431-.65-.532-3.45-1.543-4.64-1.024-1.22-2.846-.01-2.712.97.157.98 3.498 4.84 4.255 3.67ZM319.792 1042.47c.431-.65-.532-3.44-1.543-4.63-1.024-1.23-2.846-.02-2.69.96.156.97 3.498 4.84 4.233 3.67ZM1360.69 637.634c.43-.649-.53-3.445-1.54-4.635-1.02-1.223-2.85-.015-2.71.971.15.977 3.5 4.84 4.25 3.664ZM1173.8 630.282c-2.43-2.242-5.47.182-4.68 2.011.78 1.828 5.61 1.922 5.86.731.25-1.19.03-1.638-1.18-2.742ZM1252.15 368.054c-2.44-2.242-5.47.182-4.69 2.011.79 1.828 5.61 1.922 5.86.731.23-1.181.04-1.638-1.17-2.742ZM280.093 1001.01c-2.435-2.24-5.47.18-4.685 2.01.785 1.83 5.611 1.92 5.862.73.229-1.18.033-1.63-1.177-2.74ZM1767.84 863.403c.78-4.007-12.32-10.64-13.18-6.328-.84 4.345 12.31 10.842 13.18 6.328ZM1638.07 705.901c-.94-2.187-5.86-3.745-8.22-2.735-2.35 1.011-.98 7.884.72 8.97 1.71 1.087 9.16-2.382 7.5-6.235ZM1661.02 784.83c.43-.649-.53-3.445-1.55-4.635-1.02-1.223-2.84-.015-2.71.971.14.987 3.5 4.84 4.26 3.664ZM1743.88 814.026c-2.43-2.242-5.47.182-4.68 2.011.78 1.828 5.61 1.922 5.86.731.23-1.181.03-1.638-1.18-2.742Z" clip-rule="evenodd"/></svg>