<svg xmlns="http://www.w3.org/2000/svg" width="1906" height="1114" fill="none"><path fill="url(#a)" fill-rule="evenodd" d="M235.791 833.96s-72.179-23.144-110.184-27.975c-38.004-4.83-49.794 9.032-49.794 9.032s-29.459 3.242-51.552-2.231c-22.102-5.459-31.597-28.192-47.836-36.23-16.249-8.023-51.325 17.11-51.325 17.11l-95.63-40.949-62.082-24.977s72.88 37.705 86.633 46.774c13.752 9.069 101.45 58.368 117.699 66.392 16.249 8.024 28.158.057 47.04 12.902 18.899 12.855 40.303 27.621 63.89 35.539 23.588 7.919 67.945 16.007 90.709 18.331 22.764 2.323 55.723.344 55.723.344l54.092-9.352 61.033 6.018 215.405-90.428s-145.551-28.437-203.493-26.371c-21.913.777-120.328 46.071-120.328 46.071Z" clip-rule="evenodd" opacity=".1" style="mix-blend-mode:screen"/><path fill="url(#b)" fill-rule="evenodd" d="M1557.8 372.874s-63.07 37.495-99.23 50.557c-36.16 13.077-53.49 3.2-53.49 3.2s-30.79 3.804-50.77 13.806c-19.95 9.999-24.28 19.009-37.34 30.005-13.07 10.995-53.28-16.653-53.28-16.653l-74.97 29.214-99.89 33.515s83.8-28.525 97.86-55.806c14.51-28.148 90.71-22.759 103.78-33.738 13.06-10.979 28.19-6.491 41.98-22.459 13.8-15.985 29.37-34.264 49.84-46.833 20.47-12.57 61.68-30.066 83.56-37.372 21.87-7.307 55.67-13.074 55.67-13.074l57.92-3.898 58.75-19.432 251.86 32.762s-134.49 59.075-193.35 70.467c-22.27 4.305-138.91-14.258-138.91-14.258l.01-.003Z" clip-rule="evenodd" opacity=".1" style="mix-blend-mode:screen"/><path fill="url(#c)" fill-rule="evenodd" d="M416.911 97.176S362.688 81.674 333.7 78.772c-28.988-2.901-38.881 7.167-38.881 7.167s-22.873 2.733-39.57-.847c-16.696-3.58-22-9.218-34.04-14.719-12.04-5.5-34.22 6.091-34.22 6.091l-65.986-3.586-68.004-5.426s68.007 6.805 78.056 13.098c10.05 6.292 70.024 19.89 82.064 25.39 12.04 5.501 21.685-.365 35.467 8.547 13.783 8.911 29.409 19.159 47.101 24.481 17.693 5.321 51.39 10.46 68.777 11.801 17.385 1.33 42.896-.54 42.896-.54l42.207-7.461 46.655 3.429 171.257-67.74S557.054 60.223 512.305 62.535c-16.921.868-95.392 34.654-95.392 34.654l-.002-.013Z" clip-rule="evenodd" opacity=".1" style="mix-blend-mode:screen"/><defs><linearGradient id="a" x1="45.777" x2="391.276" y1="610.347" y2="877.15" gradientUnits="userSpaceOnUse"><stop stop-color="#402C4E"/><stop offset=".956" stop-color="#402C4E" stop-opacity=".36"/></linearGradient><linearGradient id="b" x1="1262.55" x2="1761.87" y1="386.844" y2="400.817" gradientUnits="userSpaceOnUse"><stop stop-color="#402C4E"/><stop offset=".956" stop-color="#402C4E" stop-opacity=".36"/></linearGradient><linearGradient id="c" x1="524.937" x2="157.706" y1="104.722" y2="86.228" gradientUnits="userSpaceOnUse"><stop stop-color="#402C4E"/><stop offset=".956" stop-color="#402C4E" stop-opacity=".36"/></linearGradient></defs></svg>