<svg xmlns="http://www.w3.org/2000/svg" width="1920" height="1473" fill="none"><path fill="#D7D3F4" fill-opacity=".1" d="M450.886 557.772c.419-.113.507-1.141.198-2.296-.31-1.156-.901-2.002-1.32-1.89-.418.112-.507 1.14-.197 2.296.309 1.156.9 2.002 1.319 1.89ZM407.697 448.569c.419-.112.508-1.14.198-2.296s-.9-2.002-1.319-1.89c-.419.113-.508 1.141-.198 2.296.31 1.156.9 2.002 1.319 1.89ZM1579.69 329.725c.42-.113.51-1.141.2-2.296-.31-1.156-.9-2.002-1.32-1.89-.42.112-.5 1.14-.19 2.296s.9 2.002 1.31 1.89ZM1597.89 161.459c.42-.112.51-1.14.2-2.296s-.9-2.002-1.32-1.889c-.42.112-.51 1.14-.2 2.296.31 1.155.9 2.001 1.32 1.889ZM477.172 583.126c.419-.112.507-1.14.197-2.296-.309-1.156-.9-2.002-1.319-1.89-.419.113-.507 1.141-.198 2.296.31 1.156.901 2.002 1.32 1.89ZM1051.78 716.814c.31 1.163.22 2.183-.2 2.296-.42.113-1.01-.727-1.32-1.889-.31-1.163-.22-2.183.2-2.296.42-.113 1.01.727 1.32 1.889ZM1091.63 751c.42-.113.51-1.141.2-2.296-.31-1.156-.9-2.002-1.32-1.89-.42.112-.51 1.14-.2 2.296s.9 2.002 1.32 1.89ZM1208.05 262.128c.42-.112.51-1.14.2-2.296s-.9-2.002-1.32-1.89c-.42.113-.51 1.141-.2 2.296.31 1.156.9 2.002 1.32 1.89ZM1843.01 95.78c.31 1.163.22 2.184-.2 2.297-.42.113-1.01-.727-1.32-1.89-.31-1.162-.22-2.183.2-2.296.42-.113 1.01.727 1.32 1.89ZM1456.81 107.746c.42-.112.51-1.14.2-2.296s-.9-2.002-1.32-1.889c-.42.112-.51 1.14-.2 2.296.31 1.155.9 2.001 1.32 1.889ZM1345.49 158.508c.42-.113.51-1.141.2-2.296-.31-1.156-.9-2.002-1.32-1.89-.42.112-.51 1.14-.2 2.296s.9 2.002 1.32 1.89ZM897.921 770.353c.419-.112.508-1.14.198-2.296s-.9-2.002-1.319-1.889c-.419.112-.508 1.14-.198 2.295.31 1.156.9 2.002 1.319 1.89ZM707.266 441.622c.419-.113.507-1.141.198-2.296-.31-1.156-.901-2.002-1.32-1.89-.419.112-.507 1.14-.197 2.296.309 1.156.9 2.002 1.319 1.89ZM718.06 380.711c.419-.112.508-1.14.198-2.296s-.9-2.002-1.319-1.889c-.419.112-.508 1.14-.198 2.296s.9 2.001 1.319 1.889ZM1314.7 323.97c.41-.112.5-1.14.19-2.296s-.9-2.002-1.32-1.89c-.42.112-.5 1.14-.19 2.296s.9 2.002 1.32 1.89ZM828.228 823.819c.419-.112.507-1.14.198-2.296-.31-1.156-.901-2.002-1.319-1.889-.419.112-.508 1.14-.198 2.296.31 1.155.9 2.001 1.319 1.889ZM987.759 409.329c.312 1.163.224 2.183-.198 2.296-.421.113-1.007-.727-1.319-1.89-.311-1.162-.224-2.183.198-2.296.421-.112 1.008.727 1.319 1.89ZM505.99 764.366c.419-.112.507-1.14.198-2.296-.31-1.156-.901-2.002-1.32-1.889-.418.112-.507 1.14-.197 2.296.309 1.155.9 2.001 1.319 1.889ZM546.023 796.258c.418-.112.507-1.14.197-2.296-.309-1.155-.9-2.001-1.319-1.889-.419.112-.507 1.14-.198 2.296.31 1.156.901 2.002 1.32 1.889ZM352.512 813.317c.312 1.162.224 2.183-.198 2.296-.421.113-1.007-.727-1.319-1.89-.312-1.163-.224-2.183.198-2.296.421-.113 1.008.727 1.319 1.89ZM161.676 486.877c.419-.113.507-1.141.197-2.296-.309-1.156-.9-2.002-1.319-1.89-.419.112-.507 1.14-.198 2.296.31 1.156.901 2.002 1.32 1.89ZM238.984 470.596c.419-.112.508-1.14.198-2.296s-.9-2.002-1.319-1.89c-.419.113-.508 1.141-.198 2.296.31 1.156.9 2.002 1.319 1.89ZM282.637 869.073c.419-.113.508-1.141.198-2.296-.31-1.156-.9-2.002-1.319-1.89-.419.112-.508 1.14-.198 2.296s.9 2.002 1.319 1.89ZM441.954 456.884c.419-.113.508-1.14.198-2.296s-.9-2.002-1.319-1.89c-.419.112-.508 1.14-.198 2.296s.9 2.002 1.319 1.89ZM1251.94 328.479c.41-.112.5-1.14.19-2.296s-.9-2.002-1.32-1.889c-.41.112-.5 1.14-.19 2.296s.9 2.002 1.32 1.889ZM1523.14 288.008c.42-.112.51-1.14.2-2.296s-.9-2.002-1.32-1.89c-.42.113-.51 1.14-.2 2.296s.9 2.002 1.32 1.89ZM1308.72 537.363c.42-.112.51-1.14.2-2.296-.31-1.155-.9-2.001-1.32-1.889-.42.112-.51 1.14-.2 2.296s.9 2.002 1.32 1.889ZM1413.05 577.348c.41-.112.5-1.14.19-2.296s-.9-2.002-1.32-1.889c-.42.112-.5 1.14-.19 2.296.31 1.155.9 2.001 1.32 1.889ZM1731 362.805c.42-.112.51-1.14.2-2.296s-.9-2.002-1.32-1.89c-.42.113-.51 1.141-.2 2.296.31 1.156.9 2.002 1.32 1.89ZM807.298 533c.419-.112.507-1.14.198-2.296-.31-1.156-.901-2.002-1.32-1.889-.419.112-.507 1.14-.197 2.296.309 1.155.9 2.001 1.319 1.889ZM825.491 364.73c.419-.112.508-1.14.198-2.296s-.9-2.001-1.319-1.889c-.419.112-.508 1.14-.198 2.296s.9 2.002 1.319 1.889ZM435.638 465.404c.419-.112.508-1.14.198-2.296-.31-1.155-.9-2.001-1.319-1.889-.419.112-.508 1.14-.198 2.296s.9 2.002 1.319 1.889ZM684.592 308.728c.311 1.163.223 2.183-.198 2.296-.421.113-1.008-.727-1.319-1.889-.312-1.163-.224-2.183.197-2.296.422-.113 1.008.727 1.32 1.889ZM573.077 361.788c.419-.113.508-1.14.198-2.296s-.9-2.002-1.319-1.89c-.419.112-.508 1.14-.198 2.296s.901 2.002 1.319 1.89ZM542.298 527.245c.419-.112.507-1.14.198-2.296-.31-1.156-.901-2.001-1.32-1.889-.418.112-.507 1.14-.197 2.296.309 1.156.9 2.002 1.319 1.889ZM479.537 531.749c.419-.113.508-1.141.198-2.296-.31-1.156-.901-2.002-1.319-1.89-.419.112-.508 1.14-.198 2.296s.9 2.002 1.319 1.89ZM774.271 284.749c.419-.112.508-1.14.198-2.296s-.9-2.002-1.319-1.89c-.419.113-.508 1.141-.198 2.296.31 1.156.901 2.002 1.319 1.89ZM.641 635.25c.42-.113.508-1.141.198-2.296-.31-1.156-.9-2.002-1.32-1.89-.418.112-.507 1.14-.197 2.296s.9 2.002 1.32 1.89ZM11.434 574.334c.42-.112.508-1.14.198-2.296s-.9-2.002-1.32-1.889c-.418.112-.507 1.14-.197 2.296.31 1.155.9 2.001 1.32 1.889ZM100.854 724.335c.311 1.163.223 2.183-.198 2.296-.421.113-1.008-.727-1.32-1.89-.31-1.162-.223-2.183.198-2.296.422-.113 1.008.727 1.32 1.89ZM118.85 558.365c.419-.113.508-1.141.198-2.296-.31-1.156-.9-2.002-1.319-1.89-.419.112-.508 1.14-.198 2.296s.9 2.002 1.319 1.89ZM-22.218 504.698c.418-.113.507-1.14.197-2.296s-.9-2.002-1.319-1.89c-.419.112-.508 1.14-.198 2.296s.9 2.002 1.32 1.89ZM67.646 478.374c.419-.112.507-1.14.198-2.296-.31-1.155-.9-2.001-1.32-1.889-.418.112-.507 1.14-.197 2.296s.9 2.002 1.32 1.889ZM536.292 740.596c.419-.113.508-1.141.198-2.296-.31-1.156-.9-2.002-1.319-1.89-.419.112-.508 1.14-.198 2.296s.9 2.002 1.319 1.89ZM640.63 780.626c.419-.113.508-1.141.198-2.296-.31-1.156-.9-2.002-1.319-1.89-.419.112-.508 1.14-.198 2.296s.901 2.002 1.319 1.89ZM958.603 566.079c.419-.112.507-1.14.198-2.296-.31-1.155-.901-2.001-1.32-1.889-.419.112-.507 1.14-.197 2.296.309 1.156.9 2.002 1.319 1.889Z"/><path fill="#D7D3F4" fill-opacity=".1" fill-rule="evenodd" d="M943.696 886.588c3.091-2.666-3.096-15.984-6.438-13.128-3.351 2.891 2.957 16.132 6.438 13.128ZM831.9 1111.33c3.091-2.67-3.096-15.99-6.438-13.13-3.351 2.89 2.957 16.13 6.438 13.13ZM956.686 1032.09c6.227-3.26-3.096-15.98-6.438-13.12-3.342 2.85-2.981 18.03 6.438 13.12ZM754.805 682.582c2.671-1.381-1.336-6.869-2.744-5.628-1.432 1.235-1.268 7.717 2.744 5.628ZM687.819 964.502c2.672-1.381-1.336-6.869-2.744-5.628-1.408 1.241-1.267 7.716 2.744 5.628ZM841.472 986.361c1.308-.68-.647-3.374-1.363-2.756-.715.617-.619 3.807 1.363 2.756ZM673.4 572.193c2.671-1.381-1.313-6.863-2.745-5.628-1.431 1.235-1.267 7.716 2.745 5.628ZM922.293 862.754c.616-2.299-2.291-6.573-4.765-7.236-2.474-.663-5.649 5.586-4.984 7.493.664 1.907 8.664 3.793 9.749-.257ZM773.462 917.743c.617-2.299-2.291-6.573-4.764-7.236-2.474-.662-5.65 5.586-4.985 7.493s8.664 3.793 9.749-.257ZM921.315 831.116c.741-.243 1.714-3.036 1.657-4.596-.048-1.594-2.226-1.774-2.731-.916-.482.864-.248 5.967 1.051 5.505l.023.007ZM782.855 1083.58c.74-.24 1.713-3.03 1.656-4.59-.048-1.6-2.226-1.78-2.731-.92-.482.86-.248 5.97 1.051 5.51h.024ZM657.156 935.834c.74-.243 1.713-3.035 1.656-4.596-.048-1.594-2.226-1.773-2.731-.915-.505.857-.248 5.966 1.075 5.511ZM893.012 787.849c.741-.243 1.714-3.035 1.657-4.596-.048-1.594-2.226-1.773-2.731-.916-.482.865-.248 5.967 1.051 5.506l.023.006ZM905.755 817.307c-.525-3.267-4.409-3.241-4.924-1.319-.515 1.921 3.217 4.982 4.152 4.202.911-.786 1.039-1.266.772-2.883ZM1078.02 876.304c-.52-3.267-4.41-3.241-4.92-1.319-.52 1.922 3.22 4.982 4.15 4.202.93-.779 1.04-1.266.77-2.883ZM1296.97 626.385c3.09-2.666-3.1-15.985-6.44-13.128-3.34 2.856 2.96 16.131 6.44 13.128ZM442.242 862.833c3.091-2.666-3.096-15.985-6.438-13.128-3.351 2.891 2.957 16.131 6.438 13.128ZM1316.86 623.107c.61-2.299-2.29-6.573-4.77-7.236-2.47-.663-5.65 5.586-4.98 7.493.66 1.907 8.66 3.793 9.75-.257ZM1101.94 732.815c.61-2.3-2.29-6.573-4.77-7.236-2.47-.663-5.65 5.586-4.98 7.493.66 1.907 8.66 3.793 9.75-.257ZM119.142 528.184c3.09-2.667-3.097-15.985-6.438-13.129-3.352 2.891 2.956 16.132 6.438 13.129ZM97.738 504.351c.616-2.299-2.291-6.573-4.765-7.236-2.474-.663-5.65 5.586-4.985 7.493s8.665 3.793 9.75-.257ZM96.76 472.712c.74-.243 1.714-3.036 1.657-4.596-.048-1.595-2.227-1.774-2.732-.916-.481.864-.248 5.966 1.075 5.512ZM68.457 429.446c.74-.243 1.714-3.036 1.657-4.596-.058-1.56-2.227-1.774-2.732-.916-.481.864-.248 5.967 1.075 5.512ZM81.2 458.903c-.526-3.267-4.41-3.241-4.925-1.319-.515 1.922 3.218 4.982 4.152 4.202.935-.779 1.04-1.266.773-2.883ZM277.382 374.411c.616-2.299-2.291-6.573-4.765-7.235-2.474-.663-5.649 5.585-4.984 7.492.664 1.907 8.664 3.793 9.749-.257ZM1189.69 620.115c.74-.243 1.71-3.036 1.66-4.596-.05-1.595-2.23-1.774-2.71-.91-.48.865-.25 5.967 1.05 5.506ZM1721.71 1019.43c3.09-2.67-3.1-15.99-6.44-13.13-3.34 2.86 2.96 16.13 6.44 13.13ZM1609.89 1244.16c3.09-2.67-3.1-15.99-6.44-13.13-3.34 2.86 2.96 16.13 6.44 13.13ZM1734.68 1164.92c6.22-3.26-3.1-15.98-6.44-13.12-3.35 2.89-2.98 18.03 6.44 13.12ZM1619.49 1119.2c1.3-.68-.65-3.38-1.37-2.76-.71.62-.62 3.81 1.37 2.76ZM1700.28 995.587c.62-2.3-2.29-6.573-4.76-7.236-2.48-.663-5.65 5.586-4.99 7.493.67 1.907 8.67 3.793 9.75-.257ZM1699.33 963.954c.74-.243 1.71-3.036 1.66-4.596-.06-1.56-2.23-1.773-2.74-.916-.48.865-.24 5.967 1.08 5.512ZM1671 920.683c.74-.243 1.72-3.035 1.66-4.595-.05-1.595-2.23-1.774-2.73-.916-.48.864-.25 5.966 1.05 5.505l.02.006ZM1683.75 950.138c-.53-3.267-4.41-3.241-4.93-1.319-.51 1.922 3.22 4.982 4.15 4.202.91-.786 1.04-1.266.78-2.883ZM1856.01 1009.14c-.52-3.27-4.41-3.25-4.92-1.32-.52 1.92 3.22 4.98 4.15 4.2.91-.79 1.04-1.27.77-2.88ZM1879.95 865.654c.62-2.3-2.29-6.573-4.76-7.236-2.48-.663-5.65 5.586-4.99 7.493.67 1.907 8.67 3.793 9.75-.257ZM1967.7 752.953c.74-.243 1.72-3.035 1.66-4.595-.06-1.561-2.23-1.774-2.73-.916-.51.858-.25 5.966 1.05 5.505l.02.006ZM134.699 897.109c.74-.243 1.713-3.035 1.656-4.595-.048-1.595-2.226-1.774-2.731-.916-.482.864-.248 5.966 1.075 5.511ZM256.769 644.109c.74-.243 1.714-3.035 1.656-4.595-.048-1.595-2.226-1.774-2.708-.91-.481.864-.247 5.966 1.052 5.505ZM1324.94 970.275c.74-.243 1.71-3.036 1.65-4.596-.04-1.594-2.22-1.774-2.73-.916-.48.864-.25 5.967 1.08 5.512ZM1182.68 848.84c-.52-3.267-4.41-3.241-4.92-1.319-.52 1.922 3.22 4.982 4.15 4.202.93-.78 1.04-1.266.77-2.883ZM1406.5 691.344c-.52-3.268-4.4-3.242-4.92-1.32-.51 1.922 3.22 4.982 4.15 4.202.91-.785 1.04-1.266.77-2.882ZM251.242 586.975c-.525-3.267-4.41-3.241-4.925-1.319-.515 1.922 3.218 4.982 4.152 4.202.911-.786 1.04-1.266.773-2.883ZM1505.04 1399.58c3.09-2.66-3.1-15.98-6.44-13.12-3.35 2.89 2.95 16.13 6.44 13.12ZM1500.57 1195.56c.62-2.3-2.29-6.58-4.76-7.24-2.48-.66-5.65 5.59-4.99 7.49.67 1.91 8.67 3.8 9.75-.25ZM1469.75 1271.76c.74-.25 1.71-3.04 1.66-4.6-.05-1.59-2.23-1.77-2.73-.92-.51.86-.25 5.97 1.07 5.52ZM1516.78 1345.97c-.53-3.27-4.41-3.24-4.93-1.32-.51 1.92 3.22 4.98 4.15 4.2.91-.78 1.04-1.26.78-2.88Z" clip-rule="evenodd"/><path fill="url(#a)" fill-rule="evenodd" d="M1419.84 960.317s142.8 23.757 163.49 21.818c20.7-1.939 4.09-30.805 14.66-33.392 26.31-6.435 119.94 38.778 119.94 38.778s16.15 6.576 28.92-9.533c12.76-16.131 36.87-11.929 36.87-11.929l45.72 14.151s-117.49 9.273-133.68 22.39c-16.19 13.12-27.21 6.26-48.66 1.65-21.47-4.619-89.1-27.183-103.17-12.096-14.07 15.066-190 73.386-216.36 66.596-26.37-6.8-109.69-62.339-109.69-62.339s169.25-27.701 201.96-36.115v.021Z" clip-rule="evenodd" opacity=".1" style="mix-blend-mode:screen"/><defs><linearGradient id="a" x1="1675.86" x2="1340.38" y1="937.369" y2="1081.09" gradientUnits="userSpaceOnUse"><stop stop-color="#402C4E"/><stop offset=".956" stop-color="#402C4E" stop-opacity=".36"/></linearGradient></defs></svg>