<svg xmlns="http://www.w3.org/2000/svg" width="64" height="64" fill="none"><g clip-path="url(#a)"><path fill="url(#b)" fill-rule="evenodd" d="M36.333 1.938c-1.156 0-2.097.94-2.097 2.104 0 1.164.94 2.104 2.097 2.104h3.527a1 1 0 1 1 0 2h-3.527a4.101 4.101 0 0 1-4.097-4.104 4.101 4.101 0 0 1 4.097-4.104h23.63a4.101 4.101 0 0 1 4.099 4.104 4.101 4.101 0 0 1-4.098 4.104h-.319l-2.089 2.887a1 1 0 0 1-1.62 0l-2.09-2.887h-9.651a1 1 0 1 1 0-2h10.162a1 1 0 0 1 .81.414l1.579 2.181 1.578-2.18a1 1 0 0 1 .81-.415h.83c1.156 0 2.098-.94 2.098-2.104a2.101 2.101 0 0 0-2.098-2.104h-23.63Zm-21.856 10.25a1 1 0 0 1 1-1h29.318c3.72 0 6.731 3.025 6.731 6.75v12.819a1 1 0 1 1-2 0v-12.82c0-2.626-2.12-4.75-4.73-4.75h-29.32a1 1 0 0 1-1-1Zm-14.539 5.75c0-3.725 3.01-6.75 6.731-6.75h4.46a1 1 0 1 1 0 2H6.67c-2.61 0-4.73 2.123-4.73 4.75v19.319c0 2.626 2.12 4.75 4.73 4.75h1.894a1 1 0 0 1 .763.352l5.264 6.197 5.264-6.197a1 1 0 0 1 .762-.352h17.68a1 1 0 1 1 0 2H21.078l-5.727 6.741a1 1 0 0 1-1.524 0l-5.727-6.741H6.669c-3.72 0-6.73-3.025-6.73-6.75v-19.32Zm12.795 4.741a1 1 0 0 1 1-1h5a1 1 0 0 1 0 2h-4v3h4a1 1 0 0 1 1 1v5a1 1 0 0 1-1 1h-5a1 1 0 1 1 0-2h4v-3h-4a1 1 0 0 1-1-1v-5Zm9.374 0a1 1 0 0 1 1-1h5a1 1 0 0 1 0 2h-4v3h4a1 1 0 1 1 0 2h-4v3h4a1 1 0 0 1 0 2h-5a1 1 0 0 1-1-1v-10Zm9.375 0a1 1 0 0 1 1-1h5a1 1 0 0 1 1 1v10a1 1 0 0 1-1 1h-5a1 1 0 0 1-1-1v-10Zm2 1v8h3v-8h-3ZM51.54 35.526l-.153.97a1 1 0 0 1-.605.767l-2.457 1.02a1 1 0 0 1-.971-.115l-.794-.575-1.439 1.44.577.795a1 1 0 0 1 .115.97l-1.018 2.46a1 1 0 0 1-.767.605l-.968.155.001 2.038.969.154a1 1 0 0 1 .767.605l1.02 2.459a1 1 0 0 1-.115.97l-.576.795 1.44 1.44.792-.576a1 1 0 0 1 .971-.115l2.459 1.018a1 1 0 0 1 .605.767l.154.968h2.036l.153-.97a1 1 0 0 1 .605-.767l2.457-1.02a1 1 0 0 1 .971.114l.794.576 1.439-1.441-.577-.794a1 1 0 0 1-.114-.97l1.017-2.46a1 1 0 0 1 .767-.606l.968-.154-.001-2.038-.969-.154a1 1 0 0 1-.767-.605l-1.02-2.459a1 1 0 0 1 .115-.97l.576-.795-1.44-1.44-.793.576a1 1 0 0 1-.97.115l-2.46-1.018a1 1 0 0 1-.604-.767l-.154-.969-2.036.001Zm-.855-2 3.744-.001a1 1 0 0 1 .988.843l.2 1.26 1.425.59 1.03-.75a1 1 0 0 1 1.295.102l2.648 2.647a1 1 0 0 1 .102 1.294l-.748 1.033.59 1.425 1.26.2a1 1 0 0 1 .842.987l.002 3.746a1 1 0 0 1-.843.988l-1.258.2-.59 1.427.75 1.032a1 1 0 0 1-.102 1.294l-2.646 2.65a1 1 0 0 1-1.295.102l-1.031-.75-1.424.591-.2 1.26a1 1 0 0 1-.987.844l-3.743.002a1 1 0 0 1-.988-.843l-.2-1.26-1.425-.59-1.03.75a1 1 0 0 1-1.295-.102l-2.648-2.647a1 1 0 0 1-.102-1.294l.748-1.033-.59-1.425-1.26-.2a1 1 0 0 1-.843-.987l-.001-3.746a1 1 0 0 1 .843-.988l1.258-.2.59-1.427-.75-1.032a1 1 0 0 1 .102-1.294l2.646-2.65a1 1 0 0 1 1.295-.102l1.031.749 1.424-.59.2-1.26a1 1 0 0 1 .986-.845Zm1.877 8.527a2.98 2.98 0 1 0 2.98 2.98 1 1 0 1 1 2 0 4.98 4.98 0 1 1-2.919-4.534 1 1 0 0 1-.829 1.82 2.966 2.966 0 0 0-1.232-.266ZM7.254 52.553a1 1 0 0 1 .81.414l2.089 2.887h4.656a1 1 0 1 1 0 2H9.642a1 1 0 0 1-.81-.414l-1.578-2.181-1.579 2.181a1 1 0 0 1-.81.414h-.83a2.1 2.1 0 0 0-2.097 2.104c0 1.165.941 2.105 2.098 2.105h23.63a2.1 2.1 0 0 0 2.098-2.105 2.1 2.1 0 0 0-2.097-2.104h-8.523a1 1 0 1 1 0-2h8.523a4.1 4.1 0 0 1 4.097 4.104 4.1 4.1 0 0 1-4.097 4.105H4.036a4.101 4.101 0 0 1-4.098-4.105 4.1 4.1 0 0 1 4.098-4.104h.318l2.09-2.887a1 1 0 0 1 .81-.414Z" clip-rule="evenodd"/></g><defs><linearGradient id="b" x1="8" x2="63" y1="5" y2="63" gradientUnits="userSpaceOnUse"><stop stop-color="#CF0"/><stop offset="1" stop-color="#00FF29"/></linearGradient><clipPath id="a"><path fill="#fff" d="M0 0h64v64H0z"/></clipPath></defs></svg>