<svg xmlns="http://www.w3.org/2000/svg" width="24" height="24" fill="none"><path fill="#7E73AC" fill-rule="evenodd" d="M6 2C4.343 2 3 3.36 3 5.036v10.892a3.04 3.04 0 0 0 1.658 2.716l6 3.036a2.968 2.968 0 0 0 2.684 0l6-3.036A3.04 3.04 0 0 0 21 15.928V5.036C21 3.359 19.657 2 18 2H6ZM5 5.036c0-.559.448-1.012 1-1.012h12c.552 0 1 .453 1 1.012v10.892c0 .384-.214.734-.553.905l-6 3.036a.99.99 0 0 1-.894 0l-6-3.036A1.013 1.013 0 0 1 5 15.928V5.036ZM15.308 9.68a1.02 1.02 0 0 0-.219-1.414.992.992 0 0 0-1.397.221l-2.141 2.972-.767-.98a.992.992 0 0 0-1.405-.165 1.02 1.02 0 0 0-.163 1.422l1.583 2.023a.995.995 0 0 0 1.592-.031l2.917-4.048Z" clip-rule="evenodd"/></svg>