<svg xmlns="http://www.w3.org/2000/svg" width="1920" height="972" fill="none"><path fill="#D7D3F4" fill-opacity=".25" d="M455.741 149.809c.434 0 .785-.788.785-1.76 0-.973-.351-1.761-.785-1.761-.434 0-.785.788-.785 1.761 0 .972.351 1.76.785 1.76ZM442.288 55.01c.433 0 .785-.788.785-1.76 0-.973-.352-1.761-.785-1.761-.434 0-.785.788-.785 1.76s.351 1.76.785 1.76ZM1605.11 208.221c.43 0 .79-.789.79-1.761 0-.972-.36-1.761-.79-1.761-.43 0-.79.789-.79 1.761 0 .972.36 1.761.79 1.761ZM1666.23 79.971c.44 0 .79-.788.79-1.76s-.35-1.76-.79-1.76c-.43 0-.78.788-.78 1.76s.35 1.76.78 1.76ZM474.569 175.239c.434 0 .785-.788.785-1.761 0-.972-.351-1.76-.785-1.76-.434 0-.785.788-.785 1.76 0 .973.351 1.761.785 1.761ZM994.995 401.026c0 .978-.349 1.76-.785 1.76-.437 0-.786-.782-.786-1.76s.349-1.761.786-1.761c.436 0 .785.783.785 1.761ZM1024.64 436.24c.43 0 .79-.788.79-1.76 0-.973-.36-1.761-.79-1.761-.43 0-.78.788-.78 1.761 0 .972.35 1.76.78 1.76ZM1263.63 76.999c.43 0 .78-.789.78-1.761 0-.972-.35-1.76-.78-1.76-.44 0-.79.788-.79 1.76s.35 1.76.79 1.76ZM1920 79.972c0 .978-.35 1.76-.78 1.76-.44 0-.79-.782-.79-1.76s.35-1.76.79-1.76c.43 0 .78.782.78 1.76ZM1543.86 8.138c.44 0 .79-.788.79-1.76 0-.973-.35-1.76-.79-1.76-.43 0-.78.787-.78 1.76 0 .972.35 1.76.78 1.76ZM1423.2 24.57c.43 0 .79-.788.79-1.76 0-.973-.36-1.76-.79-1.76-.43 0-.78.787-.78 1.76 0 .972.35 1.76.78 1.76ZM832.524 410.691c.434 0 .785-.789.785-1.761 0-.972-.351-1.761-.785-1.761-.434 0-.785.789-.785 1.761 0 .972.351 1.761.785 1.761ZM733.447 112.562c.434 0 .785-.788.785-1.761 0-.972-.351-1.76-.785-1.76-.434 0-.785.788-.785 1.76 0 .973.351 1.761.785 1.761ZM759.638 67.022c.434 0 .786-.788.786-1.76 0-.973-.352-1.761-.786-1.761-.433 0-.785.788-.785 1.76 0 .973.352 1.761.785 1.761ZM1350.63 147.969c.43 0 .78-.789.78-1.761 0-.972-.35-1.76-.78-1.76-.43 0-.79.788-.79 1.76s.36 1.761.79 1.761ZM751.367 438c.434 0 .786-.789.786-1.761 0-.972-.352-1.76-.786-1.76-.433 0-.785.788-.785 1.76s.352 1.761.785 1.761ZM1012.74 146.208c0 .978-.35 1.761-.78 1.761-.44 0-.79-.783-.79-1.761 0-.978.35-1.76.79-1.76.43 0 .78.782.78 1.76ZM455.497 323.56c.434 0 .785-.788.785-1.76 0-.973-.351-1.761-.785-1.761-.434 0-.785.788-.785 1.761 0 .972.351 1.76.785 1.76ZM485.911 357.013c.434 0 .785-.788.785-1.761 0-.972-.351-1.76-.785-1.76-.434 0-.785.788-.785 1.76 0 .973.351 1.761.785 1.761ZM294.579 329.703c0 .978-.349 1.761-.785 1.761-.436 0-.785-.783-.785-1.761 0-.978.349-1.76.785-1.76.436 0 .785.782.785 1.76ZM194.734 33.335c.434 0 .786-.788.786-1.76 0-.973-.352-1.761-.786-1.761-.433 0-.785.788-.785 1.76 0 .973.352 1.761.785 1.761ZM273.623 36.816c.433 0 .785-.789.785-1.761 0-.972-.352-1.76-.785-1.76-.434 0-.786.788-.786 1.76s.352 1.76.786 1.76ZM212.655 358.771c.434 0 .785-.788.785-1.76 0-.973-.351-1.761-.785-1.761-.434 0-.785.788-.785 1.761 0 .972.351 1.76.785 1.76ZM473.225 68.741c.434 0 .786-.788.786-1.76 0-.973-.352-1.761-.786-1.761-.433 0-.785.788-.785 1.76 0 .973.352 1.761.785 1.761ZM1288.84 138.309c.43 0 .79-.788.79-1.761 0-.972-.36-1.76-.79-1.76-.43 0-.78.788-.78 1.76 0 .973.35 1.761.78 1.761ZM1561.28 163.581c.43 0 .78-.788.78-1.761 0-.972-.35-1.76-.78-1.76-.44 0-.79.788-.79 1.76 0 .973.35 1.761.79 1.761ZM1289.63 314.21c.43 0 .78-.788.78-1.76 0-.973-.35-1.761-.78-1.761-.44 0-.79.788-.79 1.761 0 .972.35 1.76.79 1.76ZM1380.05 367.537c.43 0 .78-.788.78-1.761 0-.972-.35-1.76-.78-1.76-.43 0-.79.788-.79 1.76 0 .973.36 1.761.79 1.761ZM1742.7 266.009c.43 0 .78-.788.78-1.761 0-.972-.35-1.76-.78-1.76-.44 0-.79.788-.79 1.76 0 .973.35 1.761.79 1.761ZM806.42 205.326c.434 0 .785-.788.785-1.76 0-.973-.351-1.761-.785-1.761-.434 0-.785.788-.785 1.761 0 .972.351 1.76.785 1.76ZM867.545 77.073c.434 0 .785-.788.785-1.76 0-.973-.351-1.761-.785-1.761-.434 0-.785.788-.785 1.76 0 .973.351 1.761.785 1.761ZM464.92 74.101c.433 0 .785-.788.785-1.76 0-.973-.352-1.761-.785-1.761-.434 0-.786.788-.786 1.76 0 .973.352 1.761.786 1.761ZM745.941 3.482c0 .978-.349 1.76-.786 1.76-.436 0-.785-.782-.785-1.76s.349-1.76.785-1.76c.437 0 .786.782.786 1.76ZM624.493 21.676c.434 0 .786-.788.786-1.76 0-.973-.352-1.762-.786-1.762-.433 0-.785.789-.785 1.761 0 .973.352 1.76.785 1.76ZM551.939 145.074c.434 0 .785-.788.785-1.76 0-.973-.351-1.761-.785-1.761-.433 0-.785.788-.785 1.761 0 .972.352 1.76.785 1.76ZM490.151 135.409c.434 0 .786-.788.786-1.76 0-.973-.352-1.761-.786-1.761-.433 0-.785.788-.785 1.761 0 .972.352 1.76.785 1.76ZM838.771 3.521c.434 0 .785-.788.785-1.76 0-.973-.351-1.761-.785-1.761-.434 0-.785.788-.785 1.76 0 .973.351 1.761.785 1.761ZM.785 115.928c.434 0 .786-.788.786-1.76 0-.973-.352-1.761-.786-1.761-.433 0-.785.788-.785 1.761 0 .972.352 1.76.785 1.76ZM26.977 70.384c.433 0 .785-.788.785-1.76 0-.973-.352-1.761-.785-1.761-.434 0-.785.788-.785 1.76 0 .973.351 1.761.785 1.761ZM74.526 206.93c0 .978-.349 1.761-.785 1.761-.436 0-.785-.783-.785-1.761 0-.978.349-1.76.785-1.76.436 0 .785.782.785 1.76ZM134.866 80.44c.433 0 .785-.787.785-1.76 0-.972-.352-1.76-.785-1.76-.434 0-.785.788-.785 1.76 0 .973.351 1.76.785 1.76ZM12.494 8.647c.434 0 .785-.789.785-1.76 0-.973-.351-1.762-.785-1.762-.434 0-.785.789-.785 1.761 0 .972.351 1.76.785 1.76ZM106.109 6.885c.434 0 .786-.788.786-1.76 0-.973-.352-1.761-.786-1.761-.433 0-.785.788-.785 1.76 0 .973.352 1.761.785 1.761ZM490.919 311.275c.434 0 .785-.788.785-1.76 0-.973-.351-1.761-.785-1.761-.434 0-.785.788-.785 1.761 0 .972.351 1.76.785 1.76ZM581.341 364.64c.434 0 .786-.788.786-1.76 0-.973-.352-1.761-.786-1.761-.433 0-.785.788-.785 1.761 0 .972.352 1.76.785 1.76ZM944.008 263.113c.433 0 .785-.788.785-1.76s-.352-1.761-.785-1.761c-.434 0-.785.789-.785 1.761 0 .972.351 1.76.785 1.76Z"/><path fill="#D7D3F4" fill-opacity=".1" fill-rule="evenodd" d="M965.516 620.991c2.294-3.375-7.122-14.639-9.609-11.014-2.487 3.659 7.026 14.816 9.609 11.014ZM915.733 867.008c2.294-3.376-7.123-14.639-9.61-11.015-2.486 3.66 7.026 14.817 9.61 11.015ZM1015.69 758.178c5.16-4.762-7.13-14.639-9.61-11.015-2.49 3.624 1.78 18.192 9.61 11.015ZM730.433 472.825c2.221-2.025-3.067-6.289-4.105-4.726-1.062 1.564.773 7.782 4.105 4.726ZM738.69 762.476c2.221-2.025-3.067-6.289-4.105-4.726-1.038 1.563.773 7.781 4.105 4.726ZM892.652 743.822c1.086-.995-1.497-3.091-2.029-2.31-.531.782.387 3.838 2.029 2.31ZM623.309 387.266c2.221-2.025-3.042-6.289-4.105-4.725-1.062 1.563.773 7.781 4.105 4.725ZM938.693 603.509c0-2.381-3.911-5.756-6.471-5.756-2.559 0-4.008 6.857-2.873 8.527 1.135 1.67 9.344 1.422 9.344-2.771ZM809.261 695.144c0-2.38-3.912-5.756-6.471-5.756s-4.008 6.858-2.873 8.528c1.135 1.67 9.344 1.421 9.344-2.772ZM929.567 573.202c.652-.427.869-3.376.41-4.868-.459-1.528-2.607-1.137-2.873-.178-.241.959 1.304 5.827 2.438 5.046h.025ZM861.217 852.901c.652-.426.869-3.375.41-4.868-.459-1.528-2.607-1.137-2.873-.177-.241.959 1.304 5.827 2.439 5.045h.024ZM701.678 742.721c.652-.426.869-3.375.41-4.868-.458-1.527-2.607-1.137-2.873-.177-.265.959 1.304 5.827 2.463 5.045ZM891.058 538.734c.652-.426.869-3.375.411-4.868-.459-1.527-2.608-1.137-2.874-.177-.241.959 1.304 5.827 2.439 5.045h.024ZM910.976 563.891c-1.352-3.021-5.094-1.99-5.094 0 0 1.989 4.394 3.979 5.094 2.984.676-.995.676-1.492 0-2.984ZM1092.51 576.292c-1.35-3.02-5.09-1.99-5.09 0s4.39 3.979 5.09 2.984c.7-.995.68-1.492 0-2.984ZM1239.2 278.221c2.3-3.376-7.12-14.639-9.6-11.015-2.49 3.624 7.02 14.817 9.6 11.015ZM475.359 727.832c2.294-3.376-7.123-14.639-9.61-11.015-2.486 3.66 7.027 14.816 9.61 11.015ZM1257.55 269.907c0-2.381-3.91-5.756-6.47-5.756-2.56 0-4 6.857-2.87 8.527 1.13 1.67 9.34 1.422 9.34-2.771ZM1078.48 431.502c0-2.381-3.91-5.756-6.47-5.756-2.56 0-4.01 6.857-2.87 8.527 1.13 1.67 9.34 1.422 9.34-2.771ZM76.946 488.209c2.294-3.375-7.123-14.638-9.61-11.014-2.486 3.659 7.027 14.816 9.61 11.014ZM50.123 470.729c0-2.381-3.911-5.756-6.47-5.756-2.56 0-4.009 6.857-2.874 8.527 1.135 1.67 9.344 1.422 9.344-2.771ZM40.996 440.42c.652-.426.87-3.375.41-4.868-.458-1.527-2.607-1.137-2.872-.177-.242.959 1.303 5.827 2.462 5.045ZM2.488 405.954c.652-.426.87-3.375.41-4.868-.458-1.492-2.607-1.137-2.873-.177-.241.959 1.304 5.827 2.463 5.045ZM22.406 431.11c-1.352-3.02-5.094-1.99-5.094 0s4.394 3.979 5.094 2.985c.7-.995.676-1.493 0-2.985ZM189.913 298.721c0-2.38-3.912-5.756-6.471-5.756s-4.008 6.858-2.873 8.528c1.135 1.67 9.344 1.421 9.344-2.772ZM1134.04 299.93c.65-.427.87-3.376.41-4.868-.46-1.528-2.61-1.137-2.85-.178-.24.959 1.3 5.827 2.44 5.046ZM1750.83 547.939c2.29-3.375-7.13-14.639-9.61-11.015-2.49 3.625 7.02 14.817 9.61 11.015ZM1701.02 793.955c2.29-3.375-7.12-14.639-9.61-11.015-2.49 3.625 7.02 14.817 9.61 11.015ZM1800.97 685.123c5.17-4.761-7.12-14.639-9.61-11.015-2.49 3.66 1.79 18.192 9.61 11.015ZM1677.96 670.768c1.09-.995-1.5-3.091-2.03-2.31-.53.782.39 3.838 2.03 2.31ZM1723.98 530.457c0-2.381-3.91-5.756-6.47-5.756-2.56 0-4.01 6.857-2.88 8.527 1.14 1.67 9.35 1.421 9.35-2.771ZM1714.88 500.149c.65-.427.87-3.376.41-4.868-.46-1.493-2.61-1.137-2.88-.178-.24.959 1.31 5.827 2.47 5.046ZM1676.34 465.684c.66-.426.87-3.376.41-4.868-.45-1.528-2.6-1.137-2.87-.178-.24.96 1.3 5.828 2.44 5.046h.02ZM1696.26 490.837c-1.35-3.02-5.09-1.99-5.09 0s4.39 3.98 5.09 2.985c.68-.995.68-1.493 0-2.985ZM1877.79 503.239c-1.35-3.02-5.09-1.99-5.09 0s4.39 3.979 5.09 2.985c.68-.995.68-1.493 0-2.985ZM1863.79 358.45c0-2.381-3.91-5.756-6.47-5.756-2.56 0-4.01 6.857-2.87 8.527 1.13 1.67 9.34 1.421 9.34-2.771ZM1919.35 226.877c.65-.426.86-3.375.41-4.868-.46-1.492-2.61-1.137-2.88-.177-.26.959 1.31 5.827 2.44 5.045h.03ZM187.377 840.538c.652-.427.869-3.376.411-4.868-.459-1.528-2.608-1.137-2.874-.178-.241.96 1.304 5.827 2.463 5.046ZM239.768 564.564c.652-.426.87-3.375.411-4.867-.459-1.528-2.608-1.137-2.849-.178-.242.959 1.304 5.827 2.438 5.045ZM1355.14 603.154c.65-.427.87-3.376.41-4.868-.46-1.528-2.61-1.137-2.87-.178-.24.96 1.3 5.827 2.46 5.046ZM1186.43 522.675c-1.35-3.02-5.1-1.99-5.1 0s4.4 3.98 5.1 2.985c.7-.995.67-1.492 0-2.985ZM1361.73 312.616c-1.35-3.021-5.09-1.99-5.09 0 0 1.989 4.39 3.979 5.09 2.984.68-.995.68-1.492 0-2.984ZM219.657 510.808c-1.352-3.021-5.094-1.99-5.094 0 0 1.989 4.394 3.979 5.094 2.984.676-.995.676-1.492 0-2.984ZM1640.01 971.221c2.29-3.376-7.12-14.639-9.61-11.015-2.49 3.66 7.02 14.817 9.61 11.015ZM1582.93 775.302c0-2.381-3.91-5.756-6.47-5.756-2.56 0-4.01 6.857-2.87 8.527 1.13 1.67 9.34 1.421 9.34-2.771ZM1572.89 856.881c.65-.426.87-3.375.41-4.868-.46-1.528-2.61-1.137-2.87-.177-.27.959 1.3 5.827 2.46 5.045ZM1637.47 916.397c-1.35-3.02-5.09-1.99-5.09 0s4.39 3.98 5.09 2.985c.68-.995.68-1.493 0-2.985Z" clip-rule="evenodd"/></svg>