<svg xmlns="http://www.w3.org/2000/svg" width="1920" height="438" fill="none"><path fill="#D7D3F4" fill-opacity=".25" d="M455.741 149.809c.434 0 .785-.788.785-1.76 0-.973-.351-1.761-.785-1.761-.434 0-.785.788-.785 1.761 0 .972.351 1.76.785 1.76ZM442.288 55.01c.433 0 .785-.788.785-1.76 0-.973-.352-1.761-.785-1.761-.434 0-.785.788-.785 1.76s.351 1.76.785 1.76ZM1605.11 208.221c.43 0 .79-.789.79-1.761 0-.972-.36-1.761-.79-1.761-.43 0-.79.789-.79 1.761 0 .972.36 1.761.79 1.761ZM1666.23 79.971c.44 0 .79-.788.79-1.76 0-.973-.35-1.76-.79-1.76-.43 0-.78.787-.78 1.76 0 .972.35 1.76.78 1.76ZM474.569 175.239c.434 0 .785-.788.785-1.761 0-.972-.351-1.76-.785-1.76-.434 0-.785.788-.785 1.76 0 .973.351 1.761.785 1.761ZM994.995 401.026c0 .978-.349 1.76-.785 1.76-.437 0-.786-.782-.786-1.76s.349-1.761.786-1.761c.436 0 .785.783.785 1.761ZM1024.64 436.24c.43 0 .79-.788.79-1.76 0-.973-.36-1.761-.79-1.761-.43 0-.78.788-.78 1.761 0 .972.35 1.76.78 1.76ZM1263.63 76.999c.43 0 .78-.789.78-1.761 0-.972-.35-1.76-.78-1.76-.44 0-.79.788-.79 1.76s.35 1.76.79 1.76ZM1920 79.972c0 .978-.35 1.76-.78 1.76-.44 0-.79-.782-.79-1.76s.35-1.76.79-1.76c.43 0 .78.782.78 1.76ZM1543.86 8.138c.44 0 .79-.788.79-1.76 0-.973-.35-1.76-.79-1.76-.43 0-.78.787-.78 1.76 0 .972.35 1.76.78 1.76ZM1423.2 24.57c.43 0 .79-.788.79-1.76 0-.973-.36-1.76-.79-1.76-.43 0-.78.787-.78 1.76 0 .972.35 1.76.78 1.76ZM832.524 410.691c.434 0 .785-.789.785-1.761 0-.972-.351-1.761-.785-1.761-.434 0-.785.789-.785 1.761 0 .972.351 1.761.785 1.761ZM733.447 112.562c.434 0 .785-.788.785-1.761 0-.972-.351-1.76-.785-1.76-.434 0-.785.788-.785 1.76 0 .973.351 1.761.785 1.761ZM759.638 67.022c.434 0 .786-.788.786-1.76 0-.973-.352-1.761-.786-1.761-.433 0-.785.788-.785 1.76 0 .973.352 1.761.785 1.761ZM1350.63 147.969c.43 0 .78-.789.78-1.761 0-.972-.35-1.76-.78-1.76-.43 0-.79.788-.79 1.76s.36 1.761.79 1.761ZM751.367 438c.434 0 .786-.789.786-1.761 0-.972-.352-1.76-.786-1.76-.433 0-.785.788-.785 1.76s.352 1.761.785 1.761ZM1012.74 146.208c0 .978-.35 1.761-.78 1.761-.44 0-.79-.783-.79-1.761 0-.978.35-1.76.79-1.76.43 0 .78.782.78 1.76ZM455.497 323.56c.434 0 .785-.788.785-1.76 0-.973-.351-1.761-.785-1.761-.434 0-.785.788-.785 1.761 0 .972.351 1.76.785 1.76ZM485.911 357.013c.434 0 .785-.788.785-1.761 0-.972-.351-1.76-.785-1.76-.434 0-.785.788-.785 1.76 0 .973.351 1.761.785 1.761ZM294.579 329.703c0 .978-.349 1.761-.785 1.761-.436 0-.785-.783-.785-1.761 0-.978.349-1.76.785-1.76.436 0 .785.782.785 1.76ZM194.734 33.335c.434 0 .786-.788.786-1.76 0-.973-.352-1.761-.786-1.761-.433 0-.785.788-.785 1.76 0 .973.352 1.761.785 1.761ZM273.623 36.816c.433 0 .785-.789.785-1.761 0-.972-.352-1.76-.785-1.76-.434 0-.786.788-.786 1.76s.352 1.76.786 1.76ZM212.655 358.771c.434 0 .785-.788.785-1.76 0-.973-.351-1.761-.785-1.761-.434 0-.785.788-.785 1.761 0 .972.351 1.76.785 1.76ZM473.225 68.741c.434 0 .786-.788.786-1.76 0-.973-.352-1.761-.786-1.761-.433 0-.785.788-.785 1.76 0 .973.352 1.761.785 1.761ZM1288.84 138.309c.43 0 .79-.788.79-1.761 0-.972-.36-1.76-.79-1.76-.43 0-.78.788-.78 1.76 0 .973.35 1.761.78 1.761ZM1561.28 163.581c.43 0 .78-.788.78-1.761 0-.972-.35-1.76-.78-1.76-.44 0-.79.788-.79 1.76 0 .973.35 1.761.79 1.761ZM1289.63 314.21c.43 0 .78-.788.78-1.76 0-.973-.35-1.761-.78-1.761-.44 0-.79.788-.79 1.761 0 .972.35 1.76.79 1.76ZM1380.05 367.537c.43 0 .78-.788.78-1.761 0-.972-.35-1.76-.78-1.76-.44 0-.79.788-.79 1.76 0 .973.35 1.761.79 1.761ZM1742.7 266.009c.43 0 .78-.788.78-1.761 0-.972-.35-1.76-.78-1.76-.44 0-.79.788-.79 1.76 0 .973.35 1.761.79 1.761ZM806.42 205.326c.434 0 .785-.788.785-1.76 0-.973-.351-1.761-.785-1.761-.434 0-.785.788-.785 1.761 0 .972.351 1.76.785 1.76ZM867.545 77.073c.434 0 .785-.788.785-1.76 0-.973-.351-1.761-.785-1.761-.434 0-.785.788-.785 1.76 0 .973.351 1.761.785 1.761ZM464.92 74.101c.433 0 .785-.788.785-1.76 0-.973-.352-1.761-.785-1.761-.434 0-.786.788-.786 1.76 0 .973.352 1.761.786 1.761ZM745.941 3.482c0 .978-.349 1.76-.786 1.76-.436 0-.785-.782-.785-1.76s.349-1.76.785-1.76c.437 0 .786.782.786 1.76ZM624.493 21.676c.434 0 .786-.788.786-1.76 0-.973-.352-1.762-.786-1.762-.433 0-.785.789-.785 1.761 0 .973.352 1.76.785 1.76ZM551.939 145.074c.434 0 .785-.788.785-1.76 0-.973-.351-1.761-.785-1.761-.433 0-.785.788-.785 1.761 0 .972.352 1.76.785 1.76ZM490.151 135.409c.434 0 .786-.788.786-1.76 0-.973-.352-1.761-.786-1.761-.433 0-.785.788-.785 1.761 0 .972.352 1.76.785 1.76ZM838.771 3.521c.434 0 .785-.788.785-1.76 0-.973-.351-1.761-.785-1.761-.434 0-.785.788-.785 1.76 0 .973.351 1.761.785 1.761ZM.785 115.928c.434 0 .786-.788.786-1.76 0-.973-.352-1.761-.786-1.761-.433 0-.785.788-.785 1.761 0 .972.352 1.76.785 1.76ZM26.977 70.384c.433 0 .785-.788.785-1.76 0-.973-.352-1.761-.785-1.761-.434 0-.785.788-.785 1.76 0 .973.351 1.761.785 1.761ZM74.526 206.93c0 .978-.349 1.761-.785 1.761-.436 0-.785-.783-.785-1.761 0-.978.349-1.76.785-1.76.436 0 .785.782.785 1.76ZM134.866 80.44c.433 0 .785-.787.785-1.76 0-.972-.352-1.76-.785-1.76-.434 0-.785.788-.785 1.76 0 .973.351 1.76.785 1.76ZM12.494 8.647c.434 0 .785-.789.785-1.76 0-.973-.351-1.762-.785-1.762-.434 0-.785.789-.785 1.761 0 .972.351 1.76.785 1.76ZM106.109 6.885c.434 0 .786-.788.786-1.76 0-.973-.352-1.761-.786-1.761-.433 0-.785.788-.785 1.76 0 .973.352 1.761.785 1.761ZM490.919 311.275c.434 0 .785-.788.785-1.76 0-.973-.351-1.761-.785-1.761-.434 0-.785.788-.785 1.761 0 .972.351 1.76.785 1.76ZM581.341 364.64c.434 0 .786-.788.786-1.76 0-.973-.352-1.761-.786-1.761-.433 0-.785.788-.785 1.761 0 .972.352 1.76.785 1.76ZM944.008 263.113c.433 0 .785-.788.785-1.76s-.352-1.761-.785-1.761c-.434 0-.785.789-.785 1.761 0 .972.351 1.76.785 1.76Z"/></svg>