<svg xmlns="http://www.w3.org/2000/svg" width="1920" height="1449" fill="none"><path fill="#D7D3F4" fill-opacity=".1" d="M561.833 411.584c.378.212 1.159-.462 1.745-1.506.585-1.043.753-2.061.375-2.273-.379-.212-1.16.462-1.745 1.505-.585 1.044-.753 2.062-.375 2.274ZM607.163 303.253c.378.212 1.159-.462 1.744-1.506.586-1.044.754-2.062.375-2.274-.378-.212-1.159.462-1.744 1.506-.586 1.043-.754 2.061-.375 2.274ZM1529.15 1036.49c.38.21 1.16-.46 1.75-1.51.58-1.04.75-2.06.37-2.27-.37-.21-1.16.46-1.74 1.5-.59 1.05-.75 2.07-.38 2.28ZM1659.67 928.734c.37.212 1.16-.462 1.74-1.506.59-1.044.75-2.062.38-2.274-.38-.212-1.16.462-1.75 1.506-.58 1.043-.75 2.061-.37 2.274ZM562.948 448.088c.378.212 1.159-.462 1.744-1.506.586-1.043.753-2.061.375-2.273-.378-.213-1.159.462-1.745 1.505-.585 1.044-.753 2.062-.374 2.274ZM880.953 944.995c-.588 1.05-1.364 1.719-1.744 1.506-.381-.214-.214-1.224.375-2.274.588-1.05 1.364-1.719 1.744-1.506.381.214.214 1.224-.375 2.274ZM885.614 997.294c.378.212 1.159-.462 1.745-1.506.585-1.044.753-2.062.375-2.274-.379-.212-1.16.462-1.745 1.506-.586 1.043-.753 2.061-.375 2.274ZM1310.3 728.608c.38.213 1.16-.461 1.74-1.505.59-1.044.76-2.062.38-2.274-.38-.212-1.16.462-1.75 1.506-.58 1.043-.75 2.061-.37 2.273ZM1881 1052.86c-.59 1.05-1.36 1.72-1.74 1.51-.39-.21-.22-1.23.37-2.28.59-1.05 1.36-1.71 1.74-1.5.39.21.22 1.22-.37 2.27ZM1596.17 791.775c.38.213 1.16-.462 1.75-1.505.58-1.044.75-2.062.37-2.274-.38-.212-1.16.462-1.74 1.506-.59 1.043-.76 2.061-.38 2.273ZM1481.04 750.391c.38.212 1.16-.462 1.74-1.506.59-1.043.76-2.061.38-2.273-.38-.213-1.16.461-1.75 1.505-.58 1.044-.75 2.062-.37 2.274ZM733.429 875.897c.378.212 1.159-.462 1.744-1.506.586-1.043.753-2.061.375-2.273-.378-.213-1.159.461-1.744 1.505-.586 1.044-.754 2.062-.375 2.274ZM826.469 507.444c.378.212 1.16-.462 1.745-1.505.585-1.044.753-2.062.375-2.274-.379-.212-1.16.462-1.745 1.505-.585 1.044-.753 2.062-.375 2.274ZM876.726 471.377c.378.212 1.159-.462 1.744-1.506.586-1.044.753-2.062.375-2.274-.378-.212-1.159.462-1.744 1.506-.586 1.044-.754 2.062-.375 2.274ZM1343.46 847.34c.38.212 1.16-.462 1.75-1.506.58-1.044.75-2.062.37-2.274-.37-.212-1.16.462-1.74 1.506-.59 1.043-.75 2.061-.38 2.274ZM646.205 865.511c.379.212 1.16-.462 1.745-1.506.585-1.043.753-2.061.375-2.273-.378-.212-1.16.462-1.745 1.505-.585 1.044-.753 2.062-.375 2.274ZM1049.82 680.173c-.59 1.05-1.37 1.719-1.75 1.506-.38-.214-.21-1.224.38-2.274s1.36-1.719 1.74-1.506c.38.214.22 1.224-.37 2.274ZM457.032 597.956c.379.212 1.16-.462 1.745-1.505.585-1.044.753-2.062.375-2.274-.378-.212-1.16.462-1.745 1.505-.585 1.044-.753 2.062-.375 2.274ZM463.423 648.739c.378.212 1.159-.462 1.745-1.506.585-1.043.753-2.062.375-2.274-.379-.212-1.16.462-1.745 1.506-.585 1.044-.753 2.062-.375 2.274ZM312.982 525.837c-.589 1.05-1.364 1.719-1.745 1.506-.38-.213-.214-1.224.375-2.274s1.364-1.719 1.745-1.505c.38.213.214 1.223-.375 2.273ZM404.293 158.899c.378.212 1.159-.462 1.745-1.506.585-1.043.753-2.061.375-2.274-.379-.212-1.16.462-1.745 1.506-.585 1.044-.753 2.062-.375 2.274ZM471.004 201.222c.379.213 1.16-.462 1.745-1.505.585-1.044.753-2.062.375-2.274-.378-.212-1.159.462-1.745 1.506-.585 1.043-.753 2.061-.375 2.273ZM224.03 516.964c.378.212 1.159-.462 1.745-1.506.585-1.043.753-2.061.375-2.273-.379-.213-1.16.462-1.745 1.505-.585 1.044-.753 2.062-.375 2.274ZM625.881 333.124c.378.212 1.159-.462 1.745-1.506.585-1.043.753-2.061.375-2.274-.379-.212-1.16.462-1.745 1.506-.585 1.044-.753 2.062-.375 2.274ZM1295.39 806.748c.38.212 1.16-.462 1.74-1.506.59-1.043.75-2.061.38-2.273-.38-.213-1.16.462-1.75 1.505-.58 1.044-.75 2.062-.37 2.274ZM1517.79 967.134c.38.213 1.16-.462 1.75-1.505.58-1.044.75-2.062.37-2.274-.38-.212-1.16.462-1.74 1.506-.59 1.043-.75 2.061-.38 2.273ZM1190.19 995.932c.38.212 1.16-.462 1.74-1.506.59-1.044.76-2.062.38-2.274-.38-.212-1.16.462-1.75 1.506-.58 1.044-.75 2.062-.37 2.274ZM1236.96 1097.4c.37.21 1.16-.46 1.74-1.51.59-1.04.75-2.06.38-2.27-.38-.21-1.16.46-1.75 1.5-.58 1.05-.75 2.07-.37 2.28ZM1614.37 1165.81c.38.22 1.16-.46 1.75-1.5.58-1.05.75-2.06.37-2.28-.38-.21-1.16.47-1.74 1.51-.59 1.04-.76 2.06-.38 2.27ZM834.278 642.705c.378.212 1.159-.462 1.745-1.506.585-1.043.753-2.061.374-2.273-.378-.213-1.159.462-1.744 1.505-.586 1.044-.753 2.062-.375 2.274ZM964.792 534.947c.378.212 1.159-.462 1.744-1.506.586-1.044.753-2.062.375-2.274-.378-.212-1.159.462-1.744 1.506-.586 1.044-.754 2.062-.375 2.274ZM615.41 334.814c.379.212 1.16-.462 1.745-1.506.585-1.043.753-2.061.375-2.273-.378-.213-1.16.461-1.745 1.505-.585 1.044-.753 2.062-.375 2.274ZM903.026 396.477c-.589 1.05-1.364 1.719-1.745 1.506-.38-.214-.214-1.224.375-2.274s1.364-1.719 1.745-1.506c.38.214.214 1.224-.375 2.274ZM786.148 356.6c.378.212 1.159-.462 1.745-1.506.585-1.044.753-2.062.374-2.274-.378-.212-1.159.462-1.744 1.506-.586 1.043-.753 2.061-.375 2.274ZM648.587 453.557c.379.212 1.16-.462 1.745-1.506.585-1.044.753-2.062.375-2.274-.378-.212-1.159.462-1.745 1.506-.585 1.044-.753 2.062-.375 2.274ZM600.514 412.96c.378.212 1.159-.462 1.744-1.506.586-1.044.753-2.062.375-2.274-.378-.212-1.159.462-1.744 1.506-.586 1.043-.754 2.061-.375 2.274ZM983.969 441.927c.378.212 1.159-.462 1.745-1.506.585-1.043.753-2.061.375-2.274-.379-.212-1.16.462-1.745 1.506-.585 1.044-.753 2.062-.375 2.274ZM185.414 152.679c.378.212 1.16-.462 1.745-1.506.585-1.044.753-2.062.375-2.274-.379-.212-1.16.462-1.745 1.506-.585 1.044-.753 2.062-.375 2.274ZM235.673 116.606c.379.212 1.16-.462 1.745-1.505.585-1.044.753-2.062.375-2.274-.378-.212-1.16.462-1.745 1.506-.585 1.043-.753 2.061-.375 2.273ZM194.953 286.424c-.589 1.05-1.364 1.719-1.744 1.505-.381-.213-.214-1.224.374-2.274.589-1.049 1.365-1.719 1.745-1.505.381.213.214 1.224-.375 2.274ZM323.721 180.174c.378.212 1.159-.462 1.744-1.505.586-1.044.753-2.062.375-2.274-.378-.212-1.159.462-1.744 1.505-.586 1.044-.754 2.062-.375 2.274ZM260.203 43.258c.379.212 1.16-.462 1.745-1.506.585-1.044.753-2.062.375-2.274-.378-.212-1.159.462-1.745 1.506-.585 1.044-.753 2.062-.375 2.274ZM342.915 87.159c.379.212 1.16-.462 1.745-1.506.585-1.044.753-2.062.375-2.274-.378-.212-1.159.462-1.745 1.506-.585 1.044-.753 2.062-.375 2.274ZM495.322 602.097c.378.212 1.16-.462 1.745-1.506.585-1.043.753-2.061.375-2.273-.379-.213-1.16.462-1.745 1.505-.585 1.044-.753 2.062-.375 2.274ZM542.066 703.605c.378.212 1.16-.462 1.745-1.506.585-1.043.753-2.061.375-2.274-.378-.212-1.16.462-1.745 1.506-.585 1.044-.753 2.062-.375 2.274ZM919.498 772.03c.378.212 1.159-.462 1.744-1.505.586-1.044.753-2.062.375-2.274-.378-.212-1.159.462-1.745 1.505-.585 1.044-.753 2.062-.374 2.274Z"/><path fill="#D7D3F4" fill-opacity=".1" fill-rule="evenodd" d="M1019.44 744.831c.77-4.008-12.33-10.641-13.18-6.329-.85 4.345 12.3 10.842 13.18 6.329ZM1070.7 990.55c.78-4.007-12.32-10.64-13.18-6.328-.84 4.345 12.31 10.842 13.18 6.328ZM1119.69 851.088c2.87-6.415-12.33-10.64-13.18-6.328-.86 4.312 8.81 16.011 13.18 6.328ZM744.811 701.479c1.244-2.738-5.3-4.569-5.638-2.722-.361 1.855 3.78 6.845 5.638 2.722ZM866.661 964.383c1.244-2.738-5.301-4.569-5.639-2.722-.338 1.846 3.78 6.845 5.639 2.722ZM1000.88 886.465c.61-1.344-2.592-2.25-2.772-1.322-.18.928 1.869 3.374 2.772 1.322ZM612.552 665.145c1.244-2.738-5.278-4.578-5.639-2.722-.36 1.856 3.78 6.845 5.639 2.722ZM987.874 739.354c-.939-2.187-5.867-3.745-8.22-2.735-2.354 1.011-.981 7.884.721 8.97 1.702 1.087 9.153-2.382 7.499-6.235ZM904.997 874.653c-.939-2.188-5.867-3.745-8.221-2.735-2.353 1.01-.98 7.884.722 8.97 1.702 1.087 9.153-2.382 7.499-6.235ZM967.527 715.107c.431-.649-.532-3.445-1.543-4.635-1.025-1.223-2.846-.015-2.712.971.156.977 3.497 4.84 4.232 3.674l.023-.01ZM1015 999.108c.44-.65-.53-3.445-1.54-4.636-1.02-1.222-2.84-.015-2.71.971.16.977 3.5 4.837 4.23 3.674l.02-.009ZM824.833 960.84c.431-.649-.532-3.444-1.543-4.635-1.024-1.222-2.846-.015-2.712.971.134.987 3.498 4.84 4.255 3.664ZM918.519 698.636c.431-.649-.532-3.445-1.543-4.635-1.025-1.223-2.846-.015-2.712.971.156.977 3.497 4.84 4.232 3.674l.023-.01ZM946.759 713.89c-2.435-2.242-5.47.183-4.685 2.011.785 1.828 5.61 1.922 5.862.732.229-1.182.033-1.639-1.177-2.743ZM1118.59 653.625c-2.44-2.242-5.47.182-4.69 2.011.79 1.828 5.61 1.922 5.86.731.25-1.19.04-1.638-1.17-2.742ZM1135.91 321.816c.77-4.008-12.33-10.641-13.19-6.329-.85 4.312 12.31 10.842 13.19 6.329ZM610.84 1036.5c.778-4.01-12.324-10.64-13.181-6.33-.844 4.34 12.305 10.84 13.181 6.33ZM1149.5 306.933c-.94-2.188-5.87-3.746-8.22-2.735-2.35 1.01-.98 7.883.72 8.97 1.7 1.086 9.15-2.383 7.5-6.235ZM1048.57 526.113c-.94-2.188-5.87-3.745-8.22-2.735-2.35 1.01-.98 7.883.72 8.97 1.71 1.087 9.16-2.382 7.5-6.235ZM149.944 973.581c.778-4.007-12.325-10.64-13.182-6.328-.843 4.345 12.306 10.842 13.182 6.328ZM118.382 968.107c-.939-2.188-5.867-3.746-8.221-2.735-2.353 1.01-.98 7.883.722 8.97 1.702 1.086 9.153-2.383 7.499-6.235ZM98.034 943.858c.431-.649-.532-3.444-1.543-4.635-1.024-1.223-2.846-.015-2.712.971.156.977 3.498 4.84 4.255 3.664ZM49.026 927.388c.432-.649-.532-3.444-1.542-4.635-1.01-1.19-2.847-.015-2.713.971.157.977 3.498 4.84 4.255 3.664ZM77.266 942.642c-2.435-2.242-5.47.182-4.685 2.011.785 1.828 5.61 1.922 5.862.731.252-1.19.033-1.638-1.177-2.742ZM179.08 754.865c-.939-2.188-5.868-3.746-8.221-2.735-2.354 1.01-.981 7.883.722 8.97 1.702 1.086 9.153-2.383 7.499-6.235ZM1047.76 383.28c.43-.65-.53-3.445-1.54-4.636-1.03-1.222-2.85-.015-2.7.962.16.977 3.5 4.84 4.24 3.674ZM1712.78 367.699c.78-4.007-12.33-10.64-13.18-6.328-.86 4.312 12.3 10.841 13.18 6.328ZM1764.02 613.428c.78-4.007-12.32-10.64-13.18-6.328-.86 4.312 12.3 10.841 13.18 6.328ZM1813.01 473.964c2.87-6.415-12.33-10.64-13.19-6.328-.84 4.344 8.82 16.011 13.19 6.328ZM1694.22 509.332c.61-1.344-2.59-2.25-2.77-1.322-.18.928 1.87 3.374 2.77 1.322ZM1681.19 362.232c-.94-2.187-5.86-3.745-8.22-2.735-2.35 1.011-.98 7.884.72 8.971 1.71 1.086 9.16-2.383 7.5-6.236ZM1660.87 337.975c.43-.649-.53-3.445-1.54-4.635-1.02-1.19-2.85-.015-2.72.971.16.977 3.5 4.84 4.26 3.664ZM1611.84 321.516c.43-.649-.53-3.445-1.54-4.635-1.03-1.223-2.85-.016-2.72.971.16.977 3.5 4.84 4.24 3.673l.02-.009ZM1640.08 336.767c-2.44-2.242-5.47.183-4.69 2.011.79 1.828 5.61 1.922 5.86.731.23-1.181.04-1.638-1.17-2.742ZM1811.91 276.502c-2.44-2.241-5.47.183-4.69 2.011.79 1.829 5.61 1.922 5.86.732.23-1.181.04-1.638-1.17-2.743ZM1741.91 148.981c-.93-2.187-5.86-3.745-8.22-2.735-2.35 1.011-.98 7.884.73 8.97 1.7 1.087 9.15-2.382 7.49-6.235ZM1741.1 6.148c.43-.65-.53-3.445-1.54-4.635s-2.85-.016-2.72.97c.14.987 3.5 4.84 4.24 3.674l.02-.01ZM390.475 1253.75c.431-.65-.532-3.45-1.542-4.64-1.025-1.22-2.847-.01-2.713.97.157.98 3.498 4.84 4.255 3.67ZM329.792 979.47c.431-.649-.532-3.445-1.543-4.635-1.024-1.223-2.846-.015-2.69.962.156.976 3.498 4.839 4.233 3.673ZM1370.69 574.634c.43-.649-.53-3.445-1.54-4.635-1.02-1.223-2.85-.015-2.71.971.15.977 3.5 4.84 4.25 3.664ZM1183.8 567.282c-2.43-2.242-5.47.182-4.68 2.011.78 1.828 5.61 1.922 5.86.731.25-1.19.03-1.638-1.18-2.742ZM1262.15 305.054c-2.44-2.242-5.47.182-4.69 2.011.79 1.828 5.61 1.922 5.86.731.23-1.181.04-1.638-1.17-2.742ZM290.093 938.011c-2.435-2.241-5.47.183-4.685 2.011.785 1.829 5.611 1.923 5.862.732.229-1.181.033-1.638-1.177-2.743ZM1777.84 800.403c.78-4.007-12.32-10.64-13.18-6.328-.84 4.345 12.31 10.842 13.18 6.328ZM1648.07 642.901c-.94-2.187-5.86-3.745-8.22-2.735-2.35 1.011-.98 7.884.72 8.97 1.71 1.087 9.16-2.382 7.5-6.235ZM1671.02 721.83c.43-.649-.53-3.445-1.55-4.635-1.02-1.223-2.84-.015-2.71.971.14.987 3.5 4.84 4.26 3.664ZM1753.88 751.026c-2.43-2.242-5.47.182-4.68 2.011.78 1.828 5.61 1.922 5.86.731.23-1.181.03-1.638-1.18-2.742Z" clip-rule="evenodd"/></svg>