<svg xmlns="http://www.w3.org/2000/svg" width="64" height="64" fill="none"><g clip-path="url(#a)"><path fill="url(#b)" d="M33.557 28.395V50.58H29.42V26.837l4.138 1.558Z"/><path fill="url(#c)" d="M17.024 26.325c0-5.674 3.093-8.768 6.72-8.768s4.139.512 8.256 2.582c4.117 2.069 5.163 2.581 7.232 2.581 2.07 0 3.093-1.557 3.093-4.65h3.606c.512 6.186-3.094 8.767-6.72 8.767-3.627 0-4.651-.512-8.256-2.581-3.606-2.07-4.651-2.581-6.72-2.581-2.07 0-3.094 1.557-3.606 5.162l-3.605-.512Z"/><path fill="url(#d)" d="M32 64C14.357 64 0 49.643 0 32S14.357 0 32 0s32 14.357 32 32-14.357 32-32 32Zm0-61.93C15.488 2.07 2.07 15.487 2.07 32S15.487 61.93 32 61.93 61.93 48.513 61.93 32 48.513 2.07 32 2.07Z"/></g><defs><linearGradient id="b" x1="8.046" x2="62.939" y1="5.053" y2="62.94" gradientUnits="userSpaceOnUse"><stop stop-color="#E2E2E2"/><stop offset="1" stop-color="#6D7A9C"/></linearGradient><linearGradient id="c" x1="8.046" x2="62.939" y1="5.053" y2="62.94" gradientUnits="userSpaceOnUse"><stop stop-color="#E2E2E2"/><stop offset="1" stop-color="#6D7A9C"/></linearGradient><linearGradient id="d" x1="8.046" x2="62.939" y1="5.053" y2="62.94" gradientUnits="userSpaceOnUse"><stop stop-color="#E2E2E2"/><stop offset="1" stop-color="#6D7A9C"/></linearGradient><clipPath id="a"><path fill="#fff" d="M0 0h64v64H0z"/></clipPath></defs></svg>