<svg xmlns="http://www.w3.org/2000/svg" width="1626" height="578" fill="none"><path fill="url(#a)" fill-rule="evenodd" d="M758.999 476.362s-136.456 23.313-156.522 22.499c-20.066-.815-5.601-23.862-15.934-25.521-25.725-4.128-113.598 34.246-113.598 34.246s-15.229 5.667-28.408-6.453c-13.177-12.138-36.211-8.053-36.211-8.053l-43.335 12.563s113.826 3.271 130.149 12.945c16.323 9.675 26.576 3.965 47.019-.355 20.46-4.318 84.477-24.173 98.862-12.893 14.387 11.264 187.213 50.781 212.277 44.6 25.064-6.182 102.438-52.255 102.438-52.255s-164.739-15.886-196.735-21.34l-.002.017Z" clip-rule="evenodd" opacity=".1" style="mix-blend-mode:screen"/><path fill="url(#b)" fill-rule="evenodd" d="M1318.85 126.882s-53.49 37.495-84.16 50.556c-30.66 13.078-45.36 3.201-45.36 3.201s-26.11 3.804-43.05 13.806c-16.92 9.999-20.59 19.009-31.67 30.004-11.08 10.995-45.18-16.652-45.18-16.652l-63.57 29.214-84.716 33.515s71.068-28.525 82.986-55.806c12.31-28.149 76.93-22.76 88.01-33.738 11.08-10.979 23.9-6.491 35.6-22.46 11.7-15.984 24.91-34.263 42.27-46.833 17.36-12.569 52.31-30.065 70.86-37.372 18.54-7.306 47.21-13.073 47.21-13.073l49.12-3.898 49.82-19.432 213.58 32.762s-114.05 59.075-163.97 70.467c-18.88 4.305-117.8-14.259-117.8-14.259l.02-.002Z" clip-rule="evenodd" opacity=".1" style="mix-blend-mode:screen"/><path fill="url(#c)" fill-rule="evenodd" d="M1404.25 287.828s-62.06 19.602-91.36 36.109c-29.3 16.507-31.34 34.545-31.34 34.545s-19.51 18.67-37.77 26.025c-18.25 7.372-35.45-6.606-50.71-4.576-15.26 2.047-28.73 42.166-28.73 42.166l-86.94 17.323-55.7 12.596s69.24-7.738 83.2-7.554c13.96.183 99.07-5.825 114.33-7.871 15.27-2.047 20.1-15.193 39.45-14.61 19.36.582 41.39 1.414 61.83-4.693 20.45-6.107 55.77-23.313 73.06-33.68 17.29-10.366 39.87-29.869 39.87-29.869l34.26-37.14 46.26-27.973L1626 96s-116.78 54.863-157.12 87.96c-15.27 12.513-64.63 103.868-64.63 103.868Z" clip-rule="evenodd" opacity=".1" style="mix-blend-mode:screen"/><path fill="url(#d)" fill-rule="evenodd" d="M341.111 144.275s-50.777-17.119-77.922-20.323c-27.146-3.204-36.41 7.914-36.41 7.914s-21.419 3.018-37.054-.935c-15.636-3.954-20.603-10.18-31.877-16.254-11.275-6.074-32.045 6.726-32.045 6.726l-61.792-3.96-63.683-5.991s63.685 7.514 73.096 14.463c9.41 6.949 65.573 21.964 76.848 28.038 11.274 6.074 20.306-.403 33.213 9.437s27.539 21.157 44.107 27.033c16.568 5.877 48.124 11.551 64.406 13.032 16.28 1.468 40.169-.597 40.169-.597l39.525-8.238 43.689 3.787 160.373-74.803s-103.407-20.135-145.312-17.582c-15.845.959-89.329 38.266-89.329 38.266l-.002-.013Z" clip-rule="evenodd" opacity=".1" style="mix-blend-mode:screen"/><defs><linearGradient id="a" x1="510.825" x2="823.58" y1="467.099" y2="608.752" gradientUnits="userSpaceOnUse"><stop stop-color="#402C4E"/><stop offset=".956" stop-color="#402C4E" stop-opacity=".36"/></linearGradient><linearGradient id="b" x1="1068.47" x2="1491.99" y1="140.852" y2="150.903" gradientUnits="userSpaceOnUse"><stop stop-color="#402C4E"/><stop offset=".956" stop-color="#402C4E" stop-opacity=".36"/></linearGradient><linearGradient id="c" x1="1166.26" x2="1535.64" y1="202.625" y2="229.522" gradientUnits="userSpaceOnUse"><stop stop-color="#402C4E"/><stop offset=".956" stop-color="#402C4E" stop-opacity=".36"/></linearGradient><linearGradient id="d" x1="442.272" x2="98.136" y1="152.607" y2="137.91" gradientUnits="userSpaceOnUse"><stop stop-color="#402C4E"/><stop offset=".956" stop-color="#402C4E" stop-opacity=".36"/></linearGradient></defs></svg>