<svg xmlns="http://www.w3.org/2000/svg" width="24" height="25" fill="none"><g clip-path="url(#a)"><path fill="#D7D3F4" fill-rule="evenodd" d="M10.525 4.393a2.879 2.879 0 0 0-2.912 2.912l.043 8.805c.013 2.598 2.16 4.745 4.758 4.758a4.453 4.453 0 0 0 4.504-4.505l-.04-8.312a.901.901 0 0 1 .932-.911.974.974 0 0 1 .942.962l.04 8.313a6.255 6.255 0 0 1-6.327 6.327c-3.649-.018-6.665-3.035-6.683-6.683L5.74 7.254a4.68 4.68 0 0 1 4.735-4.735c2.73.014 4.987 2.27 5 5l.041 8.471a2.79 2.79 0 0 1-2.823 2.823 3.016 3.016 0 0 1-2.981-2.981L9.676 8.67a.901.901 0 0 1 .932-.911.974.974 0 0 1 .942.962l.035 7.16c.002.577.48 1.054 1.056 1.057a.989.989 0 0 0 1-1l-.041-8.47a3.111 3.111 0 0 0-3.075-3.076Z" clip-rule="evenodd"/></g><defs><clipPath id="a"><path fill="#fff" d="M0 .5h24v24H0z"/></clipPath></defs></svg>