<svg xmlns="http://www.w3.org/2000/svg" width="470" height="435" fill="none"><g filter="url(#a)" shape-rendering="crispEdges"><path fill="url(#b)" fill-opacity=".35" d="M441.085 166.714c.003-.003.003-.007.001-.011-48.743-83.462-180.947-53.735-207.956-94.344-13.83-20.79-29.3-44.89-51.73-57.42C160.01 3 135.21-1.27 113.59.32 36.38 5.97 3.65 75.05 18.48 150.91c19.79 101.19 109.5 204.56 216.06 205.28 55.74.38 108.95-19.55 150.69-47.71l.93-.63c41.699-28.379 92.127-77.397 54.924-141.124-.003-.003-.002-.008.001-.011Z"/><path stroke="url(#c)" stroke-opacity=".25" stroke-width="2" d="M113.663 1.316C75.379 4.119 48.194 22.623 32.384 49.789c-15.83 27.202-20.303 63.178-12.923 100.929 9.856 50.393 37.132 101.357 75.22 139.805 38.088 38.446 86.917 64.309 139.866 64.667 55.501.379 108.517-19.469 150.122-47.538L113.663 1.316Zm0 0c21.449-1.577 46.05 2.663 67.25 14.496 21.388 11.949 36.415 34.569 49.902 54.871l1.482 2.23c6.981 10.495 20.656 16.321 37.624 20.553M113.663 1.316l156.258 92.15m0 0c10.82 2.698 23.145 4.781 36.14 6.978m-36.14-6.978 36.14 6.978m0 0c7.405 1.251 15.026 2.54 22.71 4m-22.71-4 22.71 4m0 0c42.466 8.066 87.233 21.422 111.378 62.637m-111.378-62.637 111.378 62.637m0 0a.966.966 0 0 0 .071.149c18.407 31.53 15.13 59.339 2.115 82.828-13.054 23.561-35.929 42.802-56.736 56.963l54.55-139.94Zm-55.015 140.255-.463.314.926-.628-.463.314Z"/></g><path stroke="#30275B" stroke-linecap="round" stroke-linejoin="round" stroke-width="1.1" d="M62.729 172.789h-5.42c-12.11 0-21.93 9.82-21.93 21.93v120.34c0 12.11 9.82 21.93 21.93 21.93h74.36c12.11 0 21.93-9.82 21.93-21.93M147.498 59.24V35.47c0-7.42 6.01-13.43 13.43-13.43h96.7c7.42 0 13.43 6.01 13.43 13.43"/><g filter="url(#d)" shape-rendering="crispEdges"><path fill="url(#e)" fill-opacity=".35" d="M234.54 429.769c105.773 0 191.52-11.981 191.52-26.76 0-14.779-85.747-26.76-191.52-26.76-105.774 0-191.52 11.981-191.52 26.76 0 14.779 85.746 26.76 191.52 26.76Z"/><path stroke="url(#f)" stroke-opacity=".25" stroke-width="2" d="M425.06 403.009c0 1.332-.976 2.874-3.455 4.567-2.439 1.665-6.1 3.311-10.91 4.9-9.607 3.173-23.561 6.047-40.869 8.465-34.599 4.834-82.431 7.828-135.286 7.828-52.856 0-100.687-2.994-135.287-7.828-17.308-2.418-31.262-5.292-40.87-8.465-4.81-1.589-8.47-3.235-10.909-4.9-2.479-1.693-3.454-3.235-3.454-4.567 0-1.332.975-2.874 3.454-4.567 2.439-1.665 6.1-3.311 10.91-4.9 9.607-3.173 23.561-6.047 40.869-8.465 34.6-4.834 82.431-7.828 135.287-7.828 52.855 0 100.687 2.994 135.286 7.828 17.308 2.418 31.262 5.292 40.869 8.465 4.81 1.589 8.471 3.235 10.91 4.9 2.479 1.693 3.455 3.235 3.455 4.567Z"/></g><path fill="#D6CEF2" stroke="#30275B" stroke-linecap="round" stroke-linejoin="round" stroke-width="1.1" d="M415.08 91.129v180.06c0 12.26-9.94 22.19-22.19 22.19H76.19c-12.26 0-22.19-9.94-22.19-22.19V91.129c0-.53.02-1.05.07-1.57.79-11.53 10.4-20.64 22.13-20.64h316.69c11.73 0 21.33 9.11 22.13 20.64.04.52.07 1.04.07 1.57h-.01Z"/><path fill="#30275B" d="M64.8 97.89h340.611v166.329c0 11.48-9.32 20.8-20.8 20.8H85.601c-11.48 0-20.8-9.32-20.8-20.8V97.889Z"/><path fill="#DFD7FB" d="M405.411 97.879v166.34c0 11.48-9.22 20.79-20.57 20.79H85.371c-11.35 0-20.57-9.31-20.57-20.79V97.879h340.62-.01Z" opacity=".2"/><path fill="url(#g)" stroke="#30275B" stroke-miterlimit="10" stroke-width="1.1" d="M415.011 89.569H54.061c.79-11.53 10.4-20.64 22.13-20.64h316.69c11.73 0 21.33 9.11 22.13 20.64Z"/><path fill="#30275B" d="M98.42 79.249a3.93 3.93 0 1 1-7.86-.001 3.93 3.93 0 0 1 7.86 0ZM115.04 79.249a3.93 3.93 0 1 1-7.861-.001 3.93 3.93 0 0 1 7.861 0ZM127.731 83.179a3.93 3.93 0 1 0 0-7.86 3.93 3.93 0 0 0 0 7.86Z"/><path stroke="#30275B" stroke-miterlimit="10" stroke-width="1.1" d="M405.411 97.89v166.329c0 11.48-9.31 20.8-20.8 20.8H85.601c-10.1 0-18.52-7.21-20.4-16.77h-.01v-.06a20.98 20.98 0 0 1-.39-3.98V97.889h340.61Z"/><path fill="#30275B" d="M405.09 123.619c-1.46-.82-3.01-1.46-4.62-1.91l-1.86-8.35h-7.94l-1.85 8.35c-1.62.44-3.18 1.09-4.63 1.91l-7.17-4.59-5.61 5.61 4.51 7.17c-.83 1.47-1.47 3.02-1.91 4.63l-8.35 1.85v7.94l8.35 1.86c.44 1.63 1.08 3.2 1.91 4.67l-4.59 7.21 5.61 5.61 7.21-4.59c1.46.83 3.01 1.47 4.63 1.92l1.85 8.34h7.94l1.86-8.34c1.61-.45 3.17-1.1 4.62-1.92l.36.23v-37.84l-.33.21.01.03Zm-10.44 28.96c-5.67 0-10.26-4.59-10.26-10.26s4.59-10.26 10.26-10.26 10.26 4.6 10.26 10.26-4.59 10.26-10.26 10.26ZM261.991 131.659v-16.75l-17.61-3.9c-.96-3.4-2.31-6.68-4.03-9.77l2.13-3.35h-83.1l2.05 3.27a43.54 43.54 0 0 0-4.02 9.76l-17.61 3.92v16.74l17.61 3.93c.94 3.43 2.28 6.74 4.02 9.84l-9.67 15.21 11.85 11.84 15.2-9.67c3.09 1.73 6.36 3.09 9.77 4.05l3.9 17.58h16.75l3.94-17.58c3.4-.96 6.66-2.33 9.74-4.05l15.21 9.67 11.84-11.84-9.61-15.21c1.71-3.09 3.07-6.35 4.03-9.75l17.61-3.93v-.01Zm-61 13.26c-11.95 0-21.63-9.69-21.63-21.63s9.69-21.63 21.63-21.63 21.63 9.69 21.63 21.63-9.69 21.63-21.63 21.63ZM150.919 246.639l.71-13.28-13.77-3.88a37.77 37.77 0 0 0-2.82-7.9l8.32-11.68-8.91-9.89-12.47 7.05a37.025 37.025 0 0 0-7.59-3.63l-2.38-14.12-13.28-.71-3.84 13.81c-2.74.61-5.38 1.56-7.9 2.8l-11.67-8.32-9.91 8.91 7.06 12.48a34.348 34.348 0 0 0-3.64 7.58l-4.03.66v17.99l2.92.83c.62 2.75 1.57 5.41 2.82 7.92l-5.75 8.04.39 6.89v.04h.01l5.92 6.59 12.49-7.05c2.38 1.53 4.94 2.77 7.61 3.67l2.27 13.56.11.57 13.28.71.35-1.27 3.49-12.54c2.76-.62 5.41-1.56 7.94-2.8l11.65 8.31 9.91-8.9-7.04-12.49c1.5-2.37 2.71-4.91 3.6-7.57l14.14-2.38h.01Zm-35.28-20.75c-6.35-7.06-17.23-7.63-24.29-1.28-7.06 6.35-7.63 17.23-1.28 24.29 6.35 7.06 17.23 7.62 24.29 1.27 7.06-6.35 7.63-17.22 1.28-24.28ZM257.14 226.799c.52-2.06.78-4.17.81-6.29l9.55-5.02-2.64-9.69-10.78.5a26.52 26.52 0 0 0-3.87-5l3.19-10.31-8.7-4.99-7.28 7.95c-2.05-.5-4.15-.77-6.27-.8l-5.04-9.56-9.67 2.63.51 10.79a26.91 26.91 0 0 0-5.01 3.87l-10.31-3.18-4.99 8.69 7.99 7.26c-.52 2.06-.78 4.16-.79 6.27l-9.57 5.04 2.64 9.69 10.79-.51c1.08 1.82 2.37 3.5 3.86 5.01l-3.21 10.26 8.7 4.99 7.24-7.88c2.06.52 4.16.78 6.28.79l5.03 9.56 9.67-2.63-.42-9.22-.07-1.58c1.84-1.08 3.53-2.38 5.06-3.87l10.31 3.2 4.26-7.44.73-1.26-7.98-7.27h-.02Zm-22.87 5.88c-6.91 1.88-14.03-2.2-15.91-9.1-1.88-6.91 2.2-14.03 9.1-15.91 6.91-1.88 14.03 2.2 15.91 9.1 1.88 6.91-2.2 14.03-9.1 15.91ZM367.851 243.839l2.21-13.29-13.46-5.42a35.89 35.89 0 0 0-1.93-8.3l9.69-10.79-7.84-10.96-13.36 5.67a35.312 35.312 0 0 0-7.21-4.48l-.78-14.49-13.3-2.2-5.45 13.4c-2.82.33-5.59.98-8.26 1.94l-10.82-9.69-10.95 7.84 5.68 13.35a36.243 36.243 0 0 0-4.05 6.29c-.15.31-.31.62-.45.93l-14.48.81-2.21 13.28 2.18.88 11.27 4.54c.31 2.81.95 5.59 1.93 8.26l-9.69 10.82 7.84 10.95 13.36-5.69c2.21 1.8 4.63 3.31 7.2 4.51l.75 14.43 13.29 2.2 5.44-13.3c2.83-.31 5.61-.96 8.28-1.94l10.8 9.7 10.96-7.85-5.68-13.36c1.81-2.22 3.34-4.66 4.56-7.25l14.48-.79Zm-37.3-.6c-7.82 5.59-18.7 3.79-24.29-4.03-5.6-7.81-3.79-18.69 4.02-24.28 7.82-5.6 18.7-3.79 24.29 4.02 5.6 7.82 3.79 18.7-4.02 24.29Z"/><path fill="url(#h)" stroke="#30275B" stroke-miterlimit="10" stroke-width="1.1" d="M187.62 145.379H83.04c-7.24 0-13.11 5.869-13.11 13.11v144.79c0 7.24 5.87 13.11 13.11 13.11h104.58c7.24 0 13.11-5.87 13.11-13.11v-144.79c0-7.241-5.87-13.11-13.11-13.11Z"/><path fill="#000" d="M187.62 145.379H83.04c-7.24 0-13.11 5.869-13.11 13.11v144.79c0 7.24 5.87 13.11 13.11 13.11h104.58c7.24 0 13.11-5.87 13.11-13.11v-144.79c0-7.241-5.87-13.11-13.11-13.11Z" opacity=".2"/><path fill="#D6CEF2" stroke="#30275B" stroke-linecap="round" stroke-linejoin="round" stroke-width="1.1" d="M212.899 171.409v144.79c0 7.25-5.87 13.12-13.12 13.12H95.209c-7.24 0-13.1-5.87-13.1-13.12v-144.79c0-7.24 5.87-13.1 13.1-13.1h104.57c7.25 0 13.12 5.87 13.12 13.1Z"/><path fill="url(#i)" stroke="#30275B" stroke-miterlimit="10" stroke-width="1.1" d="M212.9 171.409v7.75H82.1v-7.75c0-7.24 5.87-13.1 13.1-13.1h104.57c7.25 0 13.12 5.87 13.12 13.1h.01Z"/><path fill="url(#j)" d="M126.58 188.139H94.4v5.4h32.18v-5.4Z"/><path fill="url(#k)" d="M126.58 236.529H94.4v5.4h32.18v-5.4Z"/><path fill="url(#l)" d="M126.58 280.409H94.4v5.4h32.18v-5.4Z"/><path fill="#30275B" d="M185.79 201.499H94.4v3.96h91.39v-3.96ZM169.31 209.079H94.4v3.86h74.91v-3.86ZM179.12 216.529H94.4v3.86h84.72v-3.86ZM179.12 223.969H94.4v3.86h84.72v-3.86ZM185.79 245.379H94.4v3.96h91.39v-3.96ZM169.31 252.959H94.4v3.86h74.91v-3.86ZM179.12 260.409H94.4v3.86h84.72v-3.86ZM185.788 293.569h-91.39v3.96h91.39v-3.96ZM169.308 301.149h-74.91v3.86h74.91v-3.86ZM179.118 308.599h-84.72v3.86h84.72v-3.86Z"/><path fill="#D6CEF2" stroke="#222221" stroke-miterlimit="10" stroke-width="1.1" d="M360.3 57.899v58.52c0 8.64-6.99 15.63-15.63 15.63H209.88c-8.63 0-15.63-6.99-15.63-15.63v-58.52c0-8.64 7-15.64 15.63-15.64h134.79c8.64 0 15.63 7 15.63 15.64Z"/><path fill="url(#m)" stroke="#30275B" stroke-miterlimit="10" stroke-width="1.1" d="M360.3 57.899v1.33H194.25v-1.33c0-8.64 7-15.64 15.63-15.64h134.79c8.64 0 15.63 7 15.63 15.64Z"/><path fill="#30275B" d="M218.65 53.549c-.93.94-2.45.94-3.39 0-.93-.93-.93-2.45 0-3.39s2.45-.93 3.39 0c.93.94.93 2.45 0 3.39ZM229.769 53.549c-.93.94-2.45.94-3.39 0-.93-.93-.93-2.45 0-3.39.93-.93 2.45-.93 3.39 0s.93 2.45 0 3.39ZM240.89 53.549c-.93.94-2.45.94-3.39 0-.93-.93-.93-2.45 0-3.39s2.45-.93 3.39 0 .93 2.45 0 3.39Z"/><path stroke="#30275B" stroke-linecap="round" stroke-linejoin="round" stroke-width="1.1" d="M259.12 69.999h-54.28v46.92h54.28v-46.92Z"/><path fill="#30275B" d="M329.96 69.999h-62.47v3.3h62.47v-3.3ZM315.41 76.83h-47.92v3.29h47.92v-3.29ZM338.84 83.629h-71.35v3.33h71.35v-3.33ZM328.25 90.259h-60.76v3.33h60.76v-3.33Z"/><path fill="url(#n)" d="M281.4 398.069s-29 8.32-33.05 9.75c-3.68 1.3-13.67 4.8-21.16 3.72-.74-.11-1.46-.26-2.14-.46-7.59-2.26-11-4.37-11.99-9.14-1-4.79 2.78-8.28 6.42-10.53s23.39-4.6 23.39-4.6l4.77 1.4h.01l33.75 9.87v-.01Z"/><path fill="#D6CEF2" d="M227.19 411.539c-.74-.11-1.46-.26-2.14-.46-7.59-2.26-11-4.37-11.99-9.14-1-4.79 2.78-8.28 6.42-10.53s23.39-4.6 23.39-4.6l4.77 1.4c-4.31 1.99-20.4 3.09-23.9 5.11-3.51 2.02-5.21 5.82-3.13 10.96 1.1 2.74 4.06 5.38 6.6 7.27l-.02-.01Z"/><path stroke="#30275B" stroke-linecap="round" stroke-linejoin="round" stroke-width="1.1" d="M277.04 399.259s-21.78 5.64-30.42 9.25c-8.64 3.61-25.11 5.19-30.98-2.26-5.87-7.45-.68-13.86 5.19-15.28s17.74-3.68 24.22-2.78"/><path stroke="#30275B" stroke-linecap="round" stroke-linejoin="round" stroke-width="1.1" d="M227.629 411.149s-11.08-6.08-7.4-14.59c2.72-6.28 17.5-4.92 24.82-8.36"/><path fill="url(#o)" d="M369.729 412.889c-.3 2.97-1.35 5.81-4.35 7.58-2 1.18-4.84 1.89-8.91 1.84-10.17-.13-29.29-7.4-29.29-7.4l-17.9-9.89 9.31-14.74 2.55-4.04 6.59 1.48s5.45 3.09 10.93 5.55c5.48 2.46 18.79 2.98 23.47 6.77 4.69 3.78 8.11 7.91 7.6 12.85Z"/><path fill="#D6CEF2" d="M369.73 412.889c-.3 2.97-1.35 5.81-4.35 7.58.56-2.31 1.03-5.49-.51-8.94-1.99-4.49-8.5-8.45-17.07-9.11-8.55-.66-15.11-4.67-18.54-6.45-2.68-1.39-8.33-4.42-10.68-5.69l2.55-4.04 6.59 1.48s5.45 3.09 10.93 5.55c5.48 2.46 18.79 2.98 23.47 6.77 4.69 3.78 8.11 7.91 7.6 12.85h.01Z"/><path stroke="#30275B" stroke-linecap="round" stroke-linejoin="round" stroke-width="1.1" d="M313.239 407.789c12.74 7.3 27.32 12.56 41.9 14.31 3.26.39 7.05.45 9.23-2 1.22-1.36 1.66-3.29 1.5-5.11-.39-4.6-4.26-8.24-8.5-10.06-4.24-1.82-8.92-2.26-13.42-3.27-4.48-1-8.83-2.6-12.9-4.72-3.24-1.69-6.37-3.74-9.94-4.49-3.57-.76-7.82.16-9.73 3.27"/><path stroke="#30275B" stroke-linecap="round" stroke-linejoin="round" stroke-width="1.1" d="M363.18 421.349c3.29-1.69 6-4.8 6.55-8.46.65-4.33-1.82-8.69-5.29-11.35-3.48-2.66-7.82-3.92-12.11-4.81-4.29-.89-8.67-1.49-12.76-3.08-6.27-2.45-12.46-7.29-18.97-5.57"/><path fill="url(#p)" d="m333.45 252.869-30.29-11.53-.37-.14s.11-.81.2-1.97c.19-2.42.29-6.35-.85-7.69-1.69-1.97-6.48-.32-11.14-2.46-4.67-2.14-13.3 1.69-13.3 1.69s-6.23-1.15-8.98 3.35c-1.4 3.63-.92 9.03-.92 9.03s-.2.08-.57.21c-3.61 1.35-23.24 8.74-27.4 11.7-4.59 3.25-9.66 36.62-11.3 46.42-1.63 9.81-4.53 18.63-3.06 22.01 1.47 3.36 22.57 19.61 34.7 23.81 12.13 4.2 55.19 2.97 55.19 2.97s.71-.19 1.95-.58c7.28-2.34 33.12-11.97 46.82-34.68 0 0-13.27-43.53-30.68-62.13v-.01Zm-81.84 56.13c-2.23 1.58-1.04 7.7-1.04 7.7l-3.79-3.34 9.52-23.41 4.06 17.97s-6.52-.49-8.75 1.08Zm76.16 14.87c-1.05.54 3.01-10.71 1.08-13.26-1.93-2.56-7.71-2.31-7.71-2.31l.5-3.08c.07-.34 3.43-17.59 3.43-17.59l1.14-1.36s11.78 20.2 13.89 27.31c0 0-12.84 10.28-12.32 10.28l-.01.01Z"/><path fill="#D6CEF2" d="m276.249 179.859-15.63 16.6s-2.159 1.91-1.299 6.72c.86 4.82 2.849 8.95 4.359 9.27 1.51.32 3.621.32 3.621.32s3.349 7.26 5.719 10.11c0 0 .831 11.21.391 14.32 0 0 5.62 4.91 10.91 5.53 5.29.62 13.459-7.48 13.459-7.48l2.03-9.92s4.8-7.28 5.12-9.22c.33-1.94 2.52-1.44 3.6-2.4s3.571-5.23 3.981-9.27c.41-4.04.44-8.68-4.25-7.32-4.07-1.09-1.521-9.69-1.521-9.69l-7.15-6.31-23.34-1.27v.01Z"/><path fill="#D6CEF2" d="M303.149 241.339a15 15 0 0 1-.81 1.81c-2.58 4.86-13.82 14.13-13.82 14.13l-3.4-10.45-1.86 10.45c-3.75-1.63-15.19-11.55-15.19-11.55s-.39-.93-.86-2.37c.38-.13.57-.21.57-.21s-.49-5.41.92-9.03c2.75-4.5 8.98-3.35 8.98-3.35s8.64-3.83 13.3-1.69c4.67 2.14 9.45.49 11.14 2.46 1.69 1.97.65 9.66.65 9.66l.37.14h.01Z" opacity=".5"/><path fill="#000" d="m333.449 252.869-30.29-11.53-.37-.14s.11-.81.2-1.97l-.63 3.93-4.48 6.09s7.57 2.73 13.98 6.16c4.45 2.38 7.01 7.23 6.42 12.24l-5.58 47.75-2.28 27.11 6.91 7.17c7.28-2.34 33.12-11.97 46.82-34.68 0 0-13.27-43.53-30.68-62.13h-.02Zm-5.68 71c-1.05.54 3.01-10.71 1.08-13.26-1.93-2.56-7.71-2.31-7.71-2.31l.5-3.08c.07-.34 3.43-17.59 3.43-17.59l1.14-1.36s11.78 20.2 13.89 27.31c0 0-12.84 10.28-12.32 10.28l-.01.01ZM262.41 310.609l-4.71-15.74s-8.44-28.8-14.24-35.91l1.52 20.26s-4.97 24.2-9.57 31.39c-4.6 7.18-5.59 8.98 0 8.98s19.19 10.84 19.19 10.84l-1.05-9.05 8.85-10.78.01.01Zm-11.84 6.09-3.79-3.34 9.52-23.41 4.06 17.97s-6.52-.49-8.75 1.08c-2.23 1.58-1.04 7.7-1.04 7.7Z" opacity=".2"/><path stroke="#30275B" stroke-linecap="round" stroke-linejoin="round" stroke-width="1.1" d="M273.02 222.889s.87 8.49 0 12.37M298.649 234.119s-.05-4.14.94-8.11"/><path stroke="#30275B" stroke-linecap="round" stroke-linejoin="round" stroke-width="1.1" d="M300.92 186.189s5.14 6.45 4.87 11.32c-.26 4.87-.66 10.67-.53 16.33.13 5.66-9.09 17.51-13.83 18.57-4.74 1.05-8.82 1.32-11.85-1.71-3.03-3.03-6.06-7.24-10.01-12.64s-3.03-17.25-3.03-17.25"/><path stroke="#30275B" stroke-linecap="round" stroke-linejoin="round" stroke-width="1.1" d="M288.56 205.319c-.31 1.77-.45 3.57-.4 5.37.04 1.5.26 3.13 1.32 4.2.57.58 1.39 1.04 1.5 1.85.1.71-.45 1.36-1.05 1.75-.61.39-1.31.63-1.85 1.1M280.4 220.209s.59 3.83 5.73 4.63"/><path fill="#30275B" d="M280.939 208.239c0 1.11-.48 2-1.07 2-.59 0-1.07-.9-1.07-2s.48-2 1.07-2c.59 0 1.07.9 1.07 2ZM296.249 208.719c0 1.11-.48 2-1.07 2-.59 0-1.07-.9-1.07-2s.48-2 1.07-2c.59 0 1.07.9 1.07 2Z"/><path stroke="#30275B" stroke-linecap="round" stroke-linejoin="round" stroke-width="2.21" d="M293.16 203.869s4.98-4.98 9.19.57M282.63 203.969s-3.16-3.54-8.14 0"/><path fill="#30275B" d="M273.409 227.559s3.05 8.4 9.86 10.79c6.81 2.38 15.85-9.99 15.85-9.99l-.47-1.61s-5.92 7.7-12.51 6.38c-6.59-1.31-13.11-10.24-13.11-10.24l.39 4.66-.01.01Z"/><path stroke="#30275B" stroke-linecap="round" stroke-linejoin="round" stroke-width="1.1" d="M267.299 212.449s-4.06 1.43-5.14-1.73-4.78-11.49-1.54-14.26c3.24-2.78 5.84 3.66 5.84 3.66M305.26 214.179s3.77.76 4.85-2.4c1.08-3.16 4.78-11.49 1.54-14.26-3.24-2.78-5.84 3.66-5.84 3.66"/><path fill="#30275B" d="M266.459 208.239c1.12-.05 2.97-1.15 3.56-2.1.59-.96.84-2.08 1.04-3.19.37-2.12.56-4.28.56-6.43 0-.84-.02-1.7.23-2.51.26-.84.79-1.56 1.36-2.23 1.42-1.66 3.12-3.06 4.47-4.78 1.35-1.72 2.34-3.89 1.97-6.04 0 0 9.2 8.41 22.47 5.81 7.14-1.4 14-7.67 13.17-15.55-.3-2.8-2.36-4.82-5.03-5.49-3.53-.88-6.7 1-9.9 2.21-5.83 2.2-11.54-1.58-17.43-2.21-5.04-.54-11.23.08-13.85 5.09 0 0-9.05 1.06-13.02 8.5-3.97 7.44 3.57 17.73 3.57 17.73s3.03-3.67 6.93 3.76l-.09 7.43h-.01Z"/><path fill="#30275B" d="M301.489 184.289s-2.34 12.2 3.77 18.11c0 0 1.34-3.67 2.69-4.56 0 0 3.4-6.45-1.07-13.54-4.47-7.1-5.39 0-5.39 0v-.01Z"/><path stroke="#D6CEF2" stroke-linecap="round" stroke-linejoin="round" stroke-width="1.1" d="M312.68 170.409c-.9 3.36-3.75 5.96-6.97 7.28-8.48 3.45-16.72-.38-25.21-1.13-6.94-.61-14.59 5.64-15.07 12.76M260.16 187.439c.13-5.61 3.83-10.98 9.03-13.08" opacity=".2"/><path stroke="#30275B" stroke-linecap="round" stroke-linejoin="round" stroke-width="1.1" d="M271.07 234.119s5.59 6.16 13.21 9.03c0 0 10.15-2.94 15.32-10.02M281.424 216.384a8.98 8.98 0 0 0-7.488-16.324 8.98 8.98 0 1 0 7.488 16.324ZM298.834 217.171a8.98 8.98 0 1 0-2.189-17.826 8.98 8.98 0 0 0-7.818 10.008 8.98 8.98 0 0 0 10.007 7.818Z"/><path stroke="#30275B" stroke-linecap="round" stroke-linejoin="round" stroke-width="1.1" d="M273.02 230.769s-2.73.55-4.32 3.35c-1.59 2.8-.63 11.61-.63 11.61s8.21 8.12 15.2 11.55l2.06-11.59 3.2 11.59s10.82-7.65 13.82-14.12c0 0 .98-7.54 0-10.02-.98-2.48-3.23-2.36-3.23-2.36M260.159 308.309s-3.2-21.5-7.47-30.27M243.459 258.959s4.06 5.68 6.64 11.11M327.77 275.009c1.13-4.28 2.33-8.04 3.53-10.49M321.129 308.309s2.31-14.74 5.07-26.88M325.059 287.629c2.2-2.94 5.4-5.13 8.94-6.11"/><path stroke="#30275B" stroke-linecap="round" stroke-linejoin="round" stroke-width="1.1" d="M302.779 241.199s18.64 7.44 30.67 11.67c0 0 14.8 13.92 30.67 62.13 0 0-14.55 24.46-42.2 32.3"/><path stroke="#30275B" stroke-linecap="round" stroke-linejoin="round" stroke-width="1.1" d="m326.719 324.739 13.36-11.16s7.07-5.37 14.42-1.7"/><path stroke="#30275B" stroke-linecap="round" stroke-linejoin="round" stroke-width="1.1" d="M326.199 286.279s11.05 16.28 13.88 27.31M250.69 317.319l-3.91-3.73s-5.81-1.01-12.38 3.39"/><path stroke="#30275B" stroke-linecap="round" stroke-linejoin="round" stroke-width="1.1" d="M246.779 313.589s4.86-15.95 9.65-24.19"/><path stroke="#30275B" stroke-linecap="round" stroke-linejoin="round" stroke-width="1.1" d="M267.779 243.159s-26.81 10.06-29.44 12.99c-2.63 2.93-12.62 59.2-12.88 65.64-.24 5.76 20.65 18.69 30.96 24.14"/><path fill="#D6CEF2" stroke="#30275B" stroke-linecap="round" stroke-linejoin="round" stroke-width="1.1" d="M364.85 203.129H334.3a6.53 6.53 0 0 0-6.53 6.53v17.93a6.53 6.53 0 0 0 6.53 6.53h30.55a6.53 6.53 0 0 0 6.53-6.53v-17.93a6.53 6.53 0 0 0-6.53-6.53Z"/><path stroke="#30275B" stroke-linecap="round" stroke-linejoin="round" stroke-width="1.1" d="m341.839 212.449-8.39 5.27 7.78 6.9M357.119 225.119l7.54-6.42-8.7-5.7M345.91 229.079l6.2-19.42"/><path fill="#30275B" d="M287.829 262.159c0 .97-.79 1.76-1.76 1.76s-1.76-.79-1.76-1.76.79-1.76 1.76-1.76 1.76.79 1.76 1.76ZM318.86 356.379h-61.02a1.43 1.43 0 1 1 0-2.86h61.02a1.43 1.43 0 1 1 0 2.86Z"/><path fill="#D6CEF2" stroke="#30275B" stroke-linecap="round" stroke-linejoin="round" stroke-width="1.1" d="m320.99 351.639 8.18-38.4c.54-2.54-1.4-4.94-4-4.94h-71.29c-2.57 0-4.51 2.35-4.01 4.88l7.33 37.12c.37 1.88 2 3.25 3.92 3.29l55.78 1.28c1.96.04 3.68-1.31 4.09-3.23Z"/><path fill="#30275B" d="M294.98 330.439c0 3.14-2.55 5.69-5.69 5.69-3.14 0-5.69-2.55-5.69-5.69 0-3.14 2.55-5.69 5.69-5.69 3.14 0 5.69 2.55 5.69 5.69Z"/><path stroke="#30275B" stroke-linecap="round" stroke-linejoin="round" stroke-width="1.1" d="M306.16 311.949h8.47M265.709 311.949h32.16"/><path fill="#30275B" d="m321.129 392.379-6.5 17.06s-16.57-4.18-37.81-8.53c-22.2-4.55-45.39-10.44-57.42-31.54-1.47-2.57-2.44-5.61-1.76-8.49 1.74-7.29 11.22-9.27 17.47-10 3.92-.46 7.88-.61 11.83-.67 2.01-.03 8.65-1.08 10.26.1 0 0 4.17 3.07 7.72 4.57 3.55 1.51 55.37-1.35 55.37-1.35s1.541-3.25 1.631-6.22c8.15-4.14 27.009-7.65 34.979-6.1 12.53 2.44 19.84 9.75 18.45 17.41-1.39 7.66-29.049 28.2-54.209 33.77l-.011-.01Z"/><path stroke="#D6CEF2" stroke-linecap="round" stroke-linejoin="round" stroke-width="1.1" d="M321.13 392.379s-15.76-4.18-28.64-12.88c-12.88-8.7-22.94-18.8-40.89-16.71"/><path stroke="#D6CEF2" stroke-linecap="round" stroke-linejoin="round" stroke-width="1.1" d="M289.529 377.449c8.14-2.34 14.11-7.6 20.64-12.66 6.92-5.35 14.23-10.54 22.09-14.52"/><path stroke="#30275B" stroke-linecap="round" stroke-linejoin="round" stroke-width="1.1" d="M286.67 209.659h2.38"/><defs><linearGradient id="i" x1="147.5" x2="147.5" y1="158.309" y2="179.159" gradientUnits="userSpaceOnUse"><stop stop-color="#883CBA"/><stop offset="1" stop-color="#6C3BEC"/></linearGradient><linearGradient id="p" x1="294.598" x2="294.598" y1="228.429" y2="350.436" gradientUnits="userSpaceOnUse"><stop stop-color="#883CBA"/><stop offset="1" stop-color="#6C3BEC"/></linearGradient><linearGradient id="b" x1="-35.767" x2="458.272" y1="-69.458" y2="192.593" gradientUnits="userSpaceOnUse"><stop stop-color="#5D488B" stop-opacity=".63"/><stop offset="1" stop-color="#3A335B" stop-opacity=".64"/></linearGradient><linearGradient id="c" x1="186.51" x2="436.445" y1="19.145" y2="311.662" gradientUnits="userSpaceOnUse"><stop stop-color="#fff" stop-opacity=".18"/><stop offset=".524" stop-color="#B99FB9" stop-opacity=".18"/><stop offset="1" stop-color="#79477A" stop-opacity=".24"/></linearGradient><linearGradient id="e" x1="-1.269" x2="51.404" y1="365.813" y2="528.031" gradientUnits="userSpaceOnUse"><stop stop-color="#5D488B" stop-opacity=".63"/><stop offset="1" stop-color="#3A335B" stop-opacity=".64"/></linearGradient><linearGradient id="f" x1="192.645" x2="203.597" y1="379.126" y2="453.553" gradientUnits="userSpaceOnUse"><stop stop-color="#fff" stop-opacity=".18"/><stop offset=".524" stop-color="#B99FB9" stop-opacity=".18"/><stop offset="1" stop-color="#79477A" stop-opacity=".24"/></linearGradient><linearGradient id="g" x1="234.536" x2="234.536" y1="68.929" y2="89.569" gradientUnits="userSpaceOnUse"><stop stop-color="#883CBA"/><stop offset="1" stop-color="#6C3BEC"/></linearGradient><linearGradient id="h" x1="135.33" x2="135.33" y1="145.379" y2="316.389" gradientUnits="userSpaceOnUse"><stop stop-color="#883CBA"/><stop offset="1" stop-color="#6C3BEC"/></linearGradient><linearGradient id="o" x1="339.529" x2="339.529" y1="386.239" y2="422.311" gradientUnits="userSpaceOnUse"><stop stop-color="#883CBA"/><stop offset="1" stop-color="#6C3BEC"/></linearGradient><linearGradient id="j" x1="110.49" x2="110.49" y1="188.139" y2="193.539" gradientUnits="userSpaceOnUse"><stop stop-color="#883CBA"/><stop offset="1" stop-color="#6C3BEC"/></linearGradient><linearGradient id="k" x1="110.49" x2="110.49" y1="236.529" y2="241.929" gradientUnits="userSpaceOnUse"><stop stop-color="#883CBA"/><stop offset="1" stop-color="#6C3BEC"/></linearGradient><linearGradient id="l" x1="110.49" x2="110.49" y1="280.409" y2="285.809" gradientUnits="userSpaceOnUse"><stop stop-color="#883CBA"/><stop offset="1" stop-color="#6C3BEC"/></linearGradient><linearGradient id="m" x1="277.275" x2="277.275" y1="42.259" y2="59.229" gradientUnits="userSpaceOnUse"><stop stop-color="#883CBA"/><stop offset="1" stop-color="#6C3BEC"/></linearGradient><linearGradient id="n" x1="247.148" x2="247.148" y1="386.809" y2="411.743" gradientUnits="userSpaceOnUse"><stop stop-color="#883CBA"/><stop offset="1" stop-color="#6C3BEC"/></linearGradient><filter id="d" width="463.039" height="178.52" x="3.02" y="336.249" color-interpolation-filters="sRGB" filterUnits="userSpaceOnUse"><feFlood flood-opacity="0" result="BackgroundImageFix"/><feGaussianBlur in="BackgroundImageFix" stdDeviation="20"/><feComposite in2="SourceAlpha" operator="in" result="effect1_backgroundBlur_115_2602"/><feColorMatrix in="SourceAlpha" result="hardAlpha" values="0 0 0 0 0 0 0 0 0 0 0 0 0 0 0 0 0 0 127 0"/><feMorphology in="SourceAlpha" radius="15" result="effect2_dropShadow_115_2602"/><feOffset dy="50"/><feGaussianBlur stdDeviation="25"/><feComposite in2="hardAlpha" operator="out"/><feColorMatrix values="0 0 0 0 0.0481914 0 0 0 0 0.0364167 0 0 0 0 0.1 0 0 0 0.15 0"/><feBlend in2="effect1_backgroundBlur_115_2602" result="effect2_dropShadow_115_2602"/><feBlend in="SourceGraphic" in2="effect2_dropShadow_115_2602" result="shape"/></filter><filter id="a" width="519.064" height="481.194" x="-25" y="-40" color-interpolation-filters="sRGB" filterUnits="userSpaceOnUse"><feFlood flood-opacity="0" result="BackgroundImageFix"/><feGaussianBlur in="BackgroundImageFix" stdDeviation="20"/><feComposite in2="SourceAlpha" operator="in" result="effect1_backgroundBlur_115_2602"/><feColorMatrix in="SourceAlpha" result="hardAlpha" values="0 0 0 0 0 0 0 0 0 0 0 0 0 0 0 0 0 0 127 0"/><feMorphology in="SourceAlpha" radius="15" result="effect2_dropShadow_115_2602"/><feOffset dy="50"/><feGaussianBlur stdDeviation="25"/><feComposite in2="hardAlpha" operator="out"/><feColorMatrix values="0 0 0 0 0.0481914 0 0 0 0 0.0364167 0 0 0 0 0.1 0 0 0 0.15 0"/><feBlend in2="effect1_backgroundBlur_115_2602" result="effect2_dropShadow_115_2602"/><feBlend in="SourceGraphic" in2="effect2_dropShadow_115_2602" result="shape"/></filter></defs></svg>