<svg xmlns="http://www.w3.org/2000/svg" width="64" height="64" fill="none"><g clip-path="url(#a)"><path fill="url(#b)" d="M22.702 22.721h2.066v2.066h-2.066v-2.066Zm4.133 0H28.9v2.066h-2.066v-2.066Zm4.132 0h2.066v2.066h-2.066v-2.066Zm7.219 0h2.066v2.066h-2.066v-2.066Zm4.132 0h2.066v2.066h-2.066v-2.066Zm4.132 0h2.066v2.066H46.45v-2.066Zm4.133 0h2.066v2.066h-2.066v-2.066ZM49.55 41.304H39.23a3.097 3.097 0 0 0-3.099 3.099c0 1.713 1.386 3.1 3.1 3.1H49.55c1.713 0 3.099-1.387 3.099-3.1s-1.399-3.1-3.1-3.1Zm0 4.12H39.23a1.038 1.038 0 0 1-1.033-1.034c0-.567.467-1.033 1.033-1.033H49.55c.567 0 1.033.466 1.033 1.033a1.03 1.03 0 0 1-1.033 1.033Z"/><path fill="url(#c)" d="M6.186 10.324v6.186H0v37.165h57.814V47.49H64V10.324H6.186ZM2.066 37.26c.63-.29 1.298-.517 1.966-.693l2.292 2.293c-1.448.831-2.86 1.89-4.182 3.124l-.076-.076V37.26Zm10.268 4.699-2.495-2.495c2.117-.78 3.981-.869 5.266-.277l-2.771 2.772Zm4.233-1.31c.605 1.285.504 3.15-.277 5.266l-2.495-2.495 2.772-2.771Zm-8.302-2.76L6.55 36.177c1.676-.1 3.339.151 4.888.718a13.487 13.487 0 0 0-3.174.996Zm-.416 2.495 3.023 3.024L7.22 47.06l-3.616-3.615c1.348-1.235 2.784-2.28 4.246-3.062ZM2.066 51.622v-6.665c.025-.025.038-.05.063-.063l3.628 3.629-3.099 3.099h-.592Zm3.515 0 1.638-1.638 1.638 1.638H5.58Zm7.219-.013h-1.02v.013l-3.1-3.1 3.654-3.653 3.036 3.036c-.68 1.26-1.55 2.52-2.57 3.704Zm2.633.013a22.726 22.726 0 0 0 1.462-2.18l2.179 2.18h-3.64Zm4.145-2.432-1.7-1.713a15 15 0 0 0 .994-3.175c.542 1.562.794 3.213.706 4.888Zm36.183 2.432H21.34c1.072-4.825-.39-9.802-3.892-13.317a14.37 14.37 0 0 0-13.317-3.893 12.86 12.86 0 0 0-2.053.618V18.589H55.76v33.033Zm2.04-32v-3.1H8.253V12.39h53.682v7.232h-4.132Zm4.133 2.066v4.132h-4.12v-4.132h4.12Zm.013 23.735h-4.133v-17.55h4.133v17.55Z"/><path fill="url(#d)" d="M33.033 28.907H52.65v2.066H33.033v-2.066Zm0 6.198H52.65v2.067H33.033v-2.067Z"/></g><defs><linearGradient id="b" x1="12.387" x2="38.728" y1="12.771" y2="61.823" gradientUnits="userSpaceOnUse"><stop stop-color="#B02FFF"/><stop offset="1" stop-color="#FF323F"/></linearGradient><linearGradient id="c" x1="12.387" x2="38.728" y1="12.771" y2="61.823" gradientUnits="userSpaceOnUse"><stop stop-color="#B02FFF"/><stop offset="1" stop-color="#FF323F"/></linearGradient><linearGradient id="d" x1="12.387" x2="38.728" y1="12.771" y2="61.823" gradientUnits="userSpaceOnUse"><stop stop-color="#B02FFF"/><stop offset="1" stop-color="#FF323F"/></linearGradient><clipPath id="a"><path fill="#fff" d="M0 0h64v64H0z"/></clipPath></defs></svg>