<svg width="400" height="93" viewBox="0 0 400 93" fill="none" xmlns="http://www.w3.org/2000/svg">
<path d="M231.085 46.5209V36.9781H236.254V28.2306H247.388V36.9781H258.839V46.5209H247.388V67.992H259.316V77.5348H236.254V46.5209H231.085Z" fill="white"/>
<path d="M269.537 72.5248C265.349 68.3366 263.255 63.2472 263.255 57.2564C263.255 51.2657 265.349 46.2028 269.537 42.0676C273.778 37.8794 278.974 35.7853 285.124 35.7853C291.379 35.7853 296.522 37.8529 300.551 41.9881C304.58 46.1232 306.595 51.2127 306.595 57.2564V59.6421H274.786C275.21 62.2929 276.403 64.546 278.364 66.4016C280.326 68.2571 282.579 69.1849 285.124 69.1849C287.933 69.1849 290.346 68.3896 292.36 66.7992C293.155 66.11 293.792 65.3148 294.269 64.4135H306.197C305.296 67.1173 303.971 69.503 302.221 71.5706C297.98 76.3419 292.281 78.7276 285.124 78.7276C278.974 78.7276 273.778 76.66 269.537 72.5248ZM275.183 52.8827H294.666C294.242 50.7621 293.155 48.9861 291.406 47.5547C289.709 46.0702 287.615 45.328 285.124 45.328C282.632 45.328 280.511 46.0437 278.762 47.4751C277.012 48.9065 275.819 50.7091 275.183 52.8827Z" fill="white"/>
<path d="M317.22 72.5248C313.032 68.3366 310.938 63.2472 310.938 57.2564C310.938 51.2657 313.032 46.2028 317.22 42.0676C321.461 37.8794 326.657 35.7853 332.806 35.7853C340.175 35.7853 345.795 38.436 349.665 43.7376C351.415 46.0172 352.687 48.668 353.482 51.6898H341.951C341.474 50.5235 340.838 49.4632 340.043 48.5089C338.028 46.3883 335.616 45.328 332.806 45.328C329.996 45.328 327.558 46.4413 325.49 48.668C323.476 50.8946 322.468 53.7574 322.468 57.2564C322.468 60.7555 323.476 63.6183 325.49 65.8449C327.558 68.0716 329.996 69.1849 332.806 69.1849C335.616 69.1849 338.028 68.1246 340.043 66.004C340.838 65.0497 341.474 63.9894 341.951 62.8231H353.482C352.74 65.8979 351.521 68.5487 349.824 70.7753C345.954 76.0769 340.281 78.7276 332.806 78.7276C326.657 78.7276 321.461 76.66 317.22 72.5248Z" fill="white"/>
<path d="M359.841 77.5348V21.8688H370.974V42.5447H371.372C372.061 41.3254 373.042 40.212 374.314 39.2048C377.23 36.9251 380.49 35.7853 384.095 35.7853C389.132 35.7853 393.028 37.2432 395.785 40.159C398.595 43.0749 400 47.3161 400 52.8827V77.5348H388.867V54.4731C388.867 51.5043 388.125 49.2511 386.64 47.7137C385.209 46.1232 383.168 45.328 380.517 45.328C377.866 45.328 375.613 46.3353 373.757 48.3499C371.902 50.3645 370.974 52.9357 370.974 56.0636V77.5348H359.841Z" fill="white"/>
<path d="M5.32803 72.8429C1.77601 68.8668 0 63.6713 0 57.2564C0 50.8416 1.77601 45.6726 5.32803 41.7495C8.93307 37.7733 13.3863 35.7853 18.6879 35.7853C22.2399 35.7853 25.4473 36.8456 28.3101 38.9662C29.5295 39.9735 30.5633 41.0338 31.4115 42.1471H31.8091V21.8688H42.9423V77.5348H31.8091V72.3658H31.4115C30.5633 73.4791 29.5295 74.5394 28.3101 75.5467C25.4473 77.6673 22.2399 78.7276 18.6879 78.7276C13.3863 78.7276 8.93307 76.7661 5.32803 72.8429ZM14.3141 48.5089C12.4586 50.6295 11.5308 53.5454 11.5308 57.2564C11.5308 60.9675 12.4586 63.8834 14.3141 66.004C16.1696 68.1246 18.5553 69.1849 21.4712 69.1849C24.5461 69.1849 27.0378 68.1511 28.9463 66.0835C30.8549 63.9629 31.8091 61.0205 31.8091 57.2564C31.8091 53.4924 30.8549 50.5765 28.9463 48.5089C27.0378 46.3883 24.5461 45.328 21.4712 45.328C18.5553 45.328 16.1696 46.3883 14.3141 48.5089Z" fill="white"/>
<path d="M51.6899 77.5348V36.9781H62.8231V42.9423H63.2207C63.6978 41.67 64.4135 40.5566 65.3678 39.6024C67.5414 37.3227 70.2717 36.1829 73.5586 36.1829H78.33V46.9185H72.3658C69.3439 46.9185 66.9848 47.7402 65.2883 49.3837C63.6448 50.9741 62.8231 53.2008 62.8231 56.0636V77.5348H51.6899Z" fill="white"/>
<path d="M87.2583 72.8429C83.7063 68.8668 81.9303 63.6713 81.9303 57.2564C81.9303 50.8416 83.7063 45.6726 87.2583 41.7495C90.8634 37.7733 95.3166 35.7853 100.618 35.7853C104.17 35.7853 107.378 36.8456 110.24 38.9662C111.46 39.9735 112.494 41.0338 113.342 42.1471H113.739V36.9781H124.873V77.5348H113.739V72.3658H113.342C112.494 73.4791 111.46 74.5394 110.24 75.5467C107.378 77.6673 104.17 78.7276 100.618 78.7276C95.3166 78.7276 90.8634 76.7661 87.2583 72.8429ZM96.2444 48.5089C94.3889 50.6295 93.4611 53.5454 93.4611 57.2564C93.4611 60.9675 94.3889 63.8834 96.2444 66.004C98.0999 68.1246 100.486 69.1849 103.401 69.1849C106.476 69.1849 108.968 68.1511 110.877 66.0835C112.785 63.9629 113.739 61.0205 113.739 57.2564C113.739 53.4924 112.785 50.5765 110.877 48.5089C108.968 46.3883 106.476 45.328 103.401 45.328C100.486 45.328 98.0999 46.3883 96.2444 48.5089Z" fill="white"/>
<path fill-rule="evenodd" clip-rule="evenodd" d="M180.936 57.2565C180.936 63.2472 183.057 68.3366 187.298 72.5248C191.539 76.66 196.841 78.7276 203.203 78.7276C209.511 78.7276 214.786 76.66 219.028 72.5248C223.322 68.3366 225.469 63.2472 225.469 57.2565C225.469 51.2657 223.322 46.2028 219.028 42.0676C214.786 37.8794 209.511 35.7853 203.203 35.7853C196.841 35.7853 191.539 37.8794 187.298 42.0676C183.057 46.2028 180.936 51.2657 180.936 57.2565ZM195.784 48.536C193.838 50.6749 192.865 53.5815 192.865 57.2561C192.865 60.9306 193.838 63.8373 195.784 65.9762C197.73 68.1151 200.27 69.1845 203.405 69.1845C206.378 69.1845 208.811 68.1151 210.703 65.9762C212.595 63.8373 213.541 60.9306 213.541 57.2561C213.541 53.5815 212.595 50.6749 210.703 48.536C208.811 46.3971 206.378 45.3276 203.405 45.3276C200.27 45.3276 197.73 46.3971 195.784 48.536Z" fill="#7D4FFF"/>
<path fill-rule="evenodd" clip-rule="evenodd" d="M131.632 56.8588C131.632 63.0616 133.435 68.1246 137.04 72.0477C140.645 75.9708 145.071 77.9324 150.32 77.9324C153.872 77.9324 157.079 76.8721 159.942 74.7515C161.109 73.8502 162.142 72.7634 163.044 71.491H163.441V83.1014H137.596V92.6441H174.574V36.9781H163.441V42.2266H163.044C162.195 41.1133 161.162 40.053 159.942 39.0457C157.026 36.8721 153.819 35.7853 150.32 35.7853C145.071 35.7853 140.645 37.7468 137.04 41.67C133.435 45.5931 131.632 50.6561 131.632 56.8588ZM143.163 56.8588C143.163 53.3068 144.117 50.497 146.026 48.4294C147.934 46.3618 150.426 45.328 153.501 45.328C156.417 45.328 158.802 46.3618 160.658 48.4294C162.513 50.497 163.441 53.3068 163.441 56.8588C163.441 60.4109 162.513 63.2207 160.658 65.2883C158.802 67.3559 156.417 68.3897 153.501 68.3897C150.426 68.3897 147.934 67.3559 146.026 65.2883C144.117 63.2207 143.163 60.4109 143.163 56.8588Z" fill="#7D4FFF"/>
<ellipse cx="153.354" cy="56.1159" rx="4.23307" ry="6.75194" fill="#D7D3F4"/>
<ellipse cx="203.056" cy="56.1159" rx="4.23308" ry="6.75194" fill="#D7D3F4"/>
<path d="M206.362 31.8091L214.314 0L220.278 37.7734C215.308 29.8211 206.362 31.8091 206.362 31.8091Z" fill="black"/>
<path fill-rule="evenodd" clip-rule="evenodd" d="M206.362 31.8091C206.362 31.8091 208.112 31.4202 210.494 31.6745C212.013 31.8366 213.79 32.2604 215.533 33.2135C217.237 34.1448 218.909 35.5815 220.278 37.7734L214.314 0L206.362 31.8091Z" fill="#7D4FFF"/>
<path fill-rule="evenodd" clip-rule="evenodd" d="M148.708 31.8091C148.708 31.8091 146.958 31.4202 144.576 31.6745C143.056 31.8366 141.28 32.2604 139.537 33.2135C137.833 34.1448 136.161 35.5815 134.791 37.7734L140.756 0L148.708 31.8091Z" fill="#7D4FFF"/>
</svg>
